<svg width="954" height="954" viewBox="0 0 954 954" fill="none" xmlns="http://www.w3.org/2000/svg">
<path d="M737.716 721.771C737.187 710.523 736.393 699.408 735.599 688.16C734.805 676.383 733.746 664.738 732.952 652.961C732.158 640.257 731.761 627.422 731.1 614.718C729.909 593.281 728.586 571.844 727.527 550.275C727.263 545.511 728.321 540.483 727.924 535.719C726.336 517.325 724.087 499.064 722.763 480.803C720.646 451.029 716.941 421.256 716.809 391.35C716.676 376 715.22 360.65 713.897 345.432C712.177 325.583 711.383 305.601 710.325 285.752C709.795 276.092 709.398 266.3 708.869 256.64C708.737 253.597 708.472 250.553 708.207 247.51C707.678 239.835 707.016 232.16 706.487 224.485C705.296 208.738 704.105 217.868 702.782 202.121C702.65 201.063 702.385 200.136 702.12 199.078C700.665 192.858 698.547 191.006 692.857 192.064C675.655 195.505 658.188 194.446 640.853 194.579C627.223 194.579 613.593 194.446 599.831 194.579C590.436 194.711 581.041 195.373 571.645 195.77C557.486 196.299 543.327 196.564 529.168 197.358C514.612 198.152 499.924 199.342 485.368 200.136C477.693 200.533 470.018 200.533 462.343 200.93C454.668 201.327 446.993 202.651 439.318 202.518C414.705 201.989 390.225 200.93 365.612 199.872C349.997 199.21 334.382 197.755 318.768 198.681C310.431 199.21 301.962 198.549 293.493 198.549C280.79 198.549 268.219 198.548 255.515 198.681C245.855 198.813 236.196 198.945 226.536 199.475C221.507 199.739 218.596 205.297 221.375 209.532C224.286 214.031 224.286 218.662 224.153 223.426C223.889 232.424 223.624 216.28 223.492 225.279C223.227 242.349 223.227 259.551 222.83 276.622C222.169 298.323 221.11 320.025 220.449 341.727C220.316 348.078 220.978 354.562 220.978 360.914C220.978 371.103 220.713 381.425 220.449 391.614C220.316 396.51 220.184 401.274 220.184 406.17C220.316 425.622 220.184 445.074 220.713 464.527C221.11 478.024 222.301 491.521 223.228 505.151C222.831 505.151 222.565 505.151 222.169 505.151C222.169 512.297 222.301 519.442 222.169 526.588C221.639 548.554 219.39 570.256 222.433 592.355C225.212 612.072 226.271 632.053 224.683 652.167C224.154 658.254 224.418 664.473 224.815 670.56C225.477 683.131 227.197 695.57 226.932 708.141C226.535 720.58 225.742 733.151 225.874 745.722C226.006 757.367 230.77 762.396 242.283 761.999C245.458 761.866 249.031 761.337 251.942 762.528C262.264 766.365 272.85 766.63 283.569 766.63C288.333 766.63 293.096 766.63 297.728 767.159C314.401 769.144 330.942 767.556 347.483 765.968C356.878 765.042 366.273 764.645 375.668 764.248C391.812 763.719 407.824 763.322 423.968 762.925C435.877 762.66 447.787 761.602 459.696 762.66C489.734 765.439 519.773 764.645 549.811 764.116C566.22 763.851 582.496 762.528 598.905 761.734C603.801 761.469 608.83 761.469 613.726 761.072C628.282 759.881 642.838 758.426 657.394 757.499C666.524 756.838 675.787 757.632 684.918 756.441C698.812 754.588 713.368 758.293 726.601 751.28C727.395 750.883 728.586 751.148 729.512 751.015C736.526 750.221 737.584 749.03 737.716 742.017C737.981 735.136 737.981 728.52 737.716 721.771ZM706.487 741.62C703.443 742.017 700.267 740.826 697.224 739.9C694.18 738.841 691.666 738.444 689.02 741.091C687.829 742.414 685.579 743.208 683.727 743.34C676.316 744.002 668.906 744.134 661.495 744.531C641.646 745.722 621.93 747.575 602.081 748.237C572.175 749.295 542.269 752.736 512.23 750.751C490.132 749.295 468.033 748.766 446.067 748.501C430.187 748.369 414.308 747.84 398.429 750.089C392.077 751.015 385.593 750.354 379.109 750.486C358.201 751.015 337.426 751.412 316.518 752.074C295.611 752.736 274.835 751.412 254.324 746.649C251.149 745.855 247.972 745.855 244.664 745.59C241.621 745.325 240.165 743.87 240.165 740.694C240.297 730.769 239.239 720.845 241.356 710.788C242.415 705.627 240.695 699.805 240.298 694.247C238.71 676.383 237.651 658.651 239.107 640.654C240.033 629.804 238.842 618.688 237.916 607.705C235.534 578.328 234.078 549.084 236.328 519.575C237.386 504.886 236.725 489.933 235.534 475.113C233.284 450.235 233.549 425.49 233.946 400.612C234.211 378.117 233.813 355.621 234.21 333.125C234.607 314.467 235.931 295.809 236.46 277.151C237.122 250.024 237.387 247.907 237.784 220.779C237.784 219.059 237.916 217.339 238.18 214.428C242.944 214.031 247.575 213.105 252.075 213.501C265.969 214.692 279.731 214.825 293.758 213.898C307.784 212.84 321.943 213.369 336.103 213.766C352.908 214.163 369.846 215.089 386.652 215.883C407.692 216.942 428.732 215.751 449.772 214.692C466.313 213.898 482.853 213.634 499.394 212.708C507.599 212.311 515.671 210.59 523.743 210.193C530.889 209.796 538.167 210.59 545.312 210.193C566.882 209.135 588.451 207.414 610.02 206.488C624.179 205.827 638.338 206.223 652.497 206.223C663.613 206.223 674.729 205.959 685.844 206.091C691.402 206.223 691.666 206.753 691.931 212.311C691.931 213.898 691.931 215.354 692.063 216.942C695.636 242.349 696.43 242.878 697.224 268.417C697.488 277.548 698.812 286.679 699.474 295.941C699.871 302.029 700.003 308.248 700.268 314.335C700.268 315.129 700.135 315.923 700.268 316.585C701.591 329.685 703.311 342.785 704.37 356.018C705.296 367.266 705.825 378.514 706.09 389.762C706.222 397.437 705.693 405.112 705.428 412.787C705.428 413.581 705.296 414.375 705.428 415.036C709.531 434.356 707.943 454.337 710.06 473.79C711.383 485.17 713.236 496.55 714.03 508.062C715.088 523.412 714.956 538.762 715.75 554.112C717.205 580.975 719.191 607.705 720.779 634.567C721.043 638.669 721.44 642.772 721.175 646.874C720.117 661.562 722.763 675.986 723.425 690.542C724.219 706.156 724.351 721.639 724.881 738.18C718.397 739.371 712.441 740.958 706.487 741.62Z" fill="white" stroke="white" stroke-width="5" stroke-miterlimit="10"/>
<path d="M616.504 385.792C617.166 387.116 617.96 388.439 618.489 389.365C618.357 391.086 617.696 392.806 618.225 394.129C621.533 402.995 623.385 412.126 625.37 421.256C627.355 430.387 630.267 439.385 632.781 448.383C633.575 451.295 634.765 454.073 635.692 456.985C635.824 457.382 636.089 457.911 635.957 458.176C633.31 462.542 637.545 466.248 637.28 470.482C637.412 469.953 637.544 469.423 637.809 468.894C638.074 468.894 638.206 468.762 638.471 468.762C638.868 470.085 639.794 471.673 639.397 472.599C637.942 475.907 639.265 478.951 639.926 481.862C641.25 487.685 643.102 493.375 644.425 499.197C644.822 500.917 644.293 502.902 644.293 504.755C644.293 507.004 644.426 509.254 644.69 511.503C645.484 520.634 646.146 529.632 647.072 538.631C647.204 540.351 647.469 542.071 647.734 543.791C647.734 544.188 648.263 544.718 648.131 544.982C646.014 548.29 646.675 551.996 646.543 555.436C646.41 559.671 646.675 564.037 646.675 568.272C646.675 576.079 646.411 583.887 647.469 591.826C647.602 593.017 647.204 594.34 646.94 595.664C645.484 605.059 644.425 614.587 642.308 623.849C640.058 633.112 638.603 642.508 634.766 651.374C633.31 654.814 632.384 658.387 632.648 662.357C632.913 665.665 630.796 668.708 629.605 671.62C626.297 679.559 622.459 687.367 619.019 695.306C617.166 699.673 615.71 704.304 612.667 708.01C610.55 710.524 608.036 712.906 606.315 715.685C604.463 718.993 601.419 720.845 598.905 723.36C597.317 724.948 595.597 725.08 593.744 724.154C592.289 723.36 590.7 722.698 589.377 721.639C587.921 720.448 586.466 720.448 585.011 721.375C584.349 721.772 583.82 722.566 583.291 722.566C581.703 722.698 579.717 723.227 578.394 722.433C576.674 721.639 577.468 719.654 577.997 718.199C578.13 717.802 578.262 717.405 578.394 716.876C577.071 715.023 575.748 715.552 574.557 716.876C572.175 719.787 569.925 722.698 567.411 725.609C566.75 726.271 565.955 726.932 565.161 727.329C561.589 728.785 558.015 730.241 554.31 731.432C552.855 731.961 551.267 731.961 549.415 732.226C548.621 730.77 547.694 729.314 546.768 727.594C545.445 728.256 543.989 729.05 542.533 729.844C542.401 729.711 542.136 729.579 542.004 729.579C543.327 727.462 544.386 725.08 546.239 723.492C549.679 720.581 551.267 716.611 553.384 713.038C558.281 704.702 561.853 695.703 564.103 686.176C564.368 685.382 564.5 684.191 565.029 683.794C567.279 682.735 567.279 680.618 567.676 678.765C568.072 676.913 568.47 675.06 571.116 675.06C573.763 675.06 575.086 675.722 576.013 678.368C576.542 679.692 576.806 681.147 576.674 682.603C576.409 686.44 575.88 690.41 575.351 694.248C575.086 696.365 574.821 698.482 575.086 700.599C581.041 696.894 581.57 689.352 586.201 684.985C590.303 687.367 591.098 689.748 589.113 693.983C587.128 698.217 584.878 702.452 582.629 706.554C582.1 707.613 581.702 708.539 581.173 709.598C581.967 711.053 583.158 711.185 584.084 710.259C585.804 708.804 587.525 707.083 588.98 705.363C590.171 704.04 591.098 702.584 593.215 702.849C595.597 703.114 595.729 704.966 596.126 706.554C596.258 706.819 596.39 707.083 596.655 707.216C601.419 706.554 603.536 702.981 605.389 699.144C608.035 693.851 610.55 688.425 612.932 683C615.314 677.574 617.431 672.017 619.416 666.459C622.459 657.593 625.371 648.595 628.149 639.729C628.679 638.008 629.076 636.156 629.473 634.303C630.267 630.73 630.928 627.29 631.722 623.717C632.383 620.541 632.913 617.498 633.443 614.322C634.501 608.499 635.427 602.677 636.486 596.855C636.75 595.267 637.015 593.811 635.56 592.488C634.898 591.826 634.501 590.503 634.368 589.444C634.236 584.284 633.31 578.858 634.368 573.83C636.221 564.699 635.559 555.304 636.486 546.173C637.147 540.086 636.486 533.867 636.353 527.647C636.353 526.589 636.089 525.663 636.221 524.604C636.221 520.634 635.957 516.929 634.766 513.091C633.839 509.783 633.972 506.21 633.178 502.77C632.781 501.05 633.972 498.668 631.458 497.477C631.193 497.344 631.854 495.36 631.722 494.433C630.266 486.626 628.678 478.819 627.09 471.011C626.693 469.026 626.429 467.041 625.9 465.057C623.782 455.794 622.194 446.266 619.151 437.268C616.372 428.931 615.843 420.198 613.328 411.993C611.608 406.039 609.624 400.216 607.771 394.261C605.389 386.189 603.272 378.117 600.757 370.178C599.434 366.208 597.45 362.503 595.862 358.665C595.2 357.21 594.538 355.754 594.273 354.166C593.082 346.624 590.701 339.61 587.26 332.862C586.466 331.406 586.334 329.553 585.805 327.965C583.555 321.878 581.438 315.659 578.659 309.837C574.822 301.765 570.322 294.09 566.088 286.282C565.559 285.224 564.5 284.297 563.573 283.503C561.588 281.783 560.001 280.195 559.074 277.416C558.413 275.564 555.634 274.373 553.384 272.653C553.649 272.123 554.046 271.329 554.708 270.006C552.59 268.55 550.341 266.962 548.224 265.375C546.504 264.184 544.783 263.257 543.195 261.934C540.681 259.949 537.77 259.287 534.726 258.89C532.741 258.626 530.756 258.494 528.771 258.361C527.977 258.361 527.051 258.229 526.522 258.626C524.934 260.081 522.817 258.494 522.684 258.097C521.89 255.582 519.905 255.847 518.185 255.582C516.73 255.318 515.274 255.318 513.95 255.053C512.363 254.788 510.51 254.788 509.055 254.127C506.673 252.936 504.423 251.745 503.232 254.788C501.777 254.127 500.718 253.465 499.659 253.2C498.601 253.068 497.41 253.333 496.219 253.465C492.911 253.994 489.867 253.73 486.823 251.745C482.986 249.231 478.354 248.437 473.591 249.098C468.562 249.892 463.534 250.554 458.638 251.48C454.933 252.142 451.36 252.936 448.317 255.582C447.258 256.509 445.273 257.303 443.949 257.038C440.244 256.509 437.465 258.361 434.554 259.684C423.703 264.581 413.249 270.138 403.457 276.887C397.899 280.724 392.871 285.356 387.843 289.723C383.608 293.428 379.506 297.265 375.404 301.235C373.684 302.823 372.096 304.411 370.508 306.131C364.685 312.88 358.995 319.761 354.496 327.701C352.643 331.009 350.526 334.052 348.674 337.361C346.159 341.727 343.778 346.094 343.513 351.387C343.513 352.049 342.983 352.578 342.586 353.24C339.146 359.062 337.426 365.282 337.691 371.898C336.235 372.56 334.647 373.354 332.662 374.148C333.059 377.059 333.588 380.102 333.985 383.146C333.853 383.278 333.588 383.278 333.456 383.411C332.794 382.617 332.265 381.823 331.604 380.896C331.339 381.161 331.207 381.293 331.074 381.558C330.413 383.411 329.884 385.395 329.222 387.248C328.56 389.101 328.03 391.086 327.369 392.938C326.31 396.246 325.517 399.819 323.929 402.863C322.606 405.112 322.87 407.097 323.267 409.214C319.827 411.199 318.371 414.64 318.106 418.08C317.974 420.595 317.048 422.712 316.518 424.961C315.857 427.74 314.798 430.519 313.872 433.166C312.284 438.062 312.946 442.826 314.666 447.457C315.195 448.78 315.46 450.236 315.857 451.691C312.152 454.073 311.49 457.646 311.754 461.616C311.887 464.13 311.755 466.38 309.902 468.762C308.579 470.482 308.976 473.658 308.711 476.172C308.314 479.083 307.784 482.127 307.52 485.038C307.387 486.891 307.652 488.743 307.917 490.463C308.182 492.713 310.167 495.095 307.123 496.947C306.858 497.08 306.858 497.741 306.858 498.138C306.329 506.607 305.932 515.076 307.255 524.736C309.505 520.634 313.342 518.914 313.739 514.018C314.666 515.738 315.062 516.532 315.459 517.061C314.798 518.649 313.739 519.972 313.607 521.428C312.019 532.941 310.563 544.321 311.093 555.965C311.093 557.156 311.093 558.347 311.358 559.406C312.152 562.185 313.739 564.964 311.093 567.743C310.96 567.875 310.96 568.404 311.093 568.537C313.475 571.051 311.49 574.094 312.284 576.873C313.078 579.52 312.681 582.431 313.078 585.21C313.342 586.533 314.004 587.856 314.93 589.047C315.856 590.238 316.386 591.297 315.592 592.488C314.401 594.34 315.062 595.928 315.459 597.781C316.518 602.677 318.635 606.911 321.414 611.014C322.208 612.072 323.134 613.396 321.547 614.983C318.106 613.131 318.239 608.499 315.328 606.118C315.725 609.558 316.121 612.734 316.518 616.571C317.842 617.101 318.768 618.556 319.165 621.071C319.959 626.099 321.415 631.127 322.606 636.156C322.738 636.685 323.002 637.215 323.135 637.744C324.326 644.36 325.384 651.109 326.575 657.725C326.708 658.255 326.972 658.784 327.105 659.313C327.766 661.695 327.766 661.695 330.015 662.357C329.883 664.077 329.751 665.797 329.619 667.253C331.207 668.311 332.397 669.105 333.985 670.164C334.514 669.105 335.177 668.047 335.706 667.121C338.22 666.327 338.881 671.884 339.411 679.295C340.469 679.824 342.455 679.162 342.322 681.412C342.19 683.132 343.38 683.661 344.571 684.191C348.409 685.911 352.379 687.234 356.613 687.367C358.069 687.367 359.525 687.499 360.98 687.764C363.892 688.293 366.406 687.631 368.92 686.308C371.302 685.117 373.551 684.058 375.933 683C377.256 682.47 378.712 681.676 379.903 683.132C381.094 684.588 382.153 686.176 381.359 688.293C380.962 689.087 380.565 689.881 380.035 690.542C375.139 695.571 369.979 699.541 362.304 698.879C355.555 698.35 348.674 698.614 342.19 695.968C340.469 695.306 338.749 694.512 337.162 693.454C335.044 691.998 333.191 690.41 330.148 690.675C327.766 690.939 327.104 688.161 326.178 686.573C323.134 681.412 320.223 676.119 317.709 670.693C314.136 663.151 310.299 655.608 308.314 647.404C306.197 638.141 303.153 629.01 300.639 619.88C300.242 618.424 299.845 616.704 300.11 615.248C301.036 610.087 299.977 605.191 297.993 600.427C296.405 596.458 295.214 592.223 293.89 588.121C293.626 587.459 293.625 586.665 293.758 586.004C294.684 581.108 292.831 576.344 292.302 571.58C291.905 568.404 290.846 565.096 292.964 562.053C294.419 560.068 292.699 558.48 292.699 556.759C292.699 555.304 292.567 553.716 292.567 552.26C292.567 550.937 292.567 549.746 292.699 548.423C292.699 547.232 292.435 545.909 292.832 544.982C294.817 540.616 293.493 536.513 292.302 532.411C290.582 526.456 289.788 520.502 290.979 514.282C291.64 510.842 291.376 507.137 291.905 503.564C293.096 494.83 294.684 486.097 296.008 477.495C297.331 468.232 298.654 458.969 299.977 449.574C302.095 434.092 305.8 418.874 310.034 403.921C312.416 395.32 314.666 386.586 317.18 377.985C318.106 374.809 319.694 371.766 321.017 368.855C324.193 361.974 327.236 355.092 330.677 348.476C333.588 342.654 336.897 336.964 340.337 331.538C344.969 324.128 349.732 316.982 354.761 309.837C360.054 302.426 365.876 295.545 373.022 289.723C377.521 286.018 381.623 281.651 385.858 277.549C391.019 272.52 396.841 268.418 403.325 265.242C406.898 263.522 410.339 261.272 413.911 259.287C421.189 255.053 428.467 251.083 436.407 248.304C441.568 246.452 446.596 244.202 451.757 242.614C455.065 241.556 458.638 241.026 462.211 240.365C464.725 239.968 467.371 239.571 469.886 239.306C471.209 239.174 472.4 239.041 473.723 239.174C475.311 239.174 476.899 239.703 478.487 239.571C482.986 239.306 486.956 240.365 490.926 242.482C493.175 243.673 496.616 243.408 499.394 243.011C503.497 242.35 507.334 243.011 511.304 243.805C516.729 244.864 522.155 245.128 527.713 245.261C530.757 245.393 533.403 246.055 536.049 247.378C540.152 249.231 544.121 251.216 548.091 253.068C548.885 252.539 549.547 252.009 550.34 251.48C550.737 251.745 551.135 251.877 551.399 252.274C553.649 255.715 556.428 258.494 559.339 261.272C564.897 266.962 570.852 272.256 574.557 279.534C575.748 281.915 577.997 283.636 579.453 285.885C579.849 286.547 579.718 287.606 579.188 288.796C579.982 289.987 581.041 291.046 581.57 292.369C582.232 294.354 583.819 295.678 585.54 295.81C587.922 296.074 588.715 297.53 589.377 299.647C588.583 300.441 587.657 301.235 586.466 302.426C586.731 303.485 586.995 304.808 587.525 305.867C589.245 309.969 591.097 314.071 592.818 318.173C593.215 319.099 593.347 320.158 593.744 321.084C594.141 322.275 594.141 323.996 594.935 324.79C598.243 327.833 598.376 332.332 600.228 335.905C601.022 337.493 600.625 339.743 600.757 342.124C601.022 342.124 601.816 342.124 601.948 342.257C603.139 346.359 606.315 349.535 606.712 354.034C606.977 358.665 608.697 362.768 611.211 366.737C611.343 367.002 611.609 367.134 611.741 367.399C612.535 371.104 613.329 374.942 614.255 378.514C614.784 381.426 615.843 383.675 616.504 385.792ZM316.783 624.379C316.253 625.437 315.724 626.628 315.063 627.687C315.46 627.819 315.724 627.952 316.121 627.952C316.386 626.893 316.65 625.57 316.783 624.379C316.783 622.923 316.783 621.335 316.783 619.747C315.989 619.615 315.328 619.483 314.666 619.483C314.534 622.923 314.533 622.923 316.783 624.379ZM311.225 604.662C311.358 602.545 310.96 601.089 311.49 600.031C312.945 597.384 311.622 595.928 309.637 594.605C310.034 597.781 308.182 601.221 311.225 604.662ZM308.314 536.381C307.784 530.559 307.785 530.559 306.726 529.632C306.594 535.322 306.594 535.322 308.314 536.381ZM551.002 723.227C550.605 723.095 550.208 723.095 549.944 722.963C549.811 723.624 549.679 724.418 549.547 725.08C549.812 725.212 550.076 725.212 550.34 725.345C550.473 724.683 550.737 724.021 551.002 723.227ZM317.18 639.199C317.577 639.464 317.841 639.729 318.106 639.993C318.371 639.729 318.9 639.199 318.768 639.067C318.635 638.67 318.106 638.405 317.842 638.141C317.709 638.405 317.445 638.802 317.18 639.199Z" fill="white"/>
<path d="M530.095 640.523C528.904 641.846 527.581 642.905 528.639 645.022C528.904 645.551 528.64 647.007 528.243 647.271C525.067 649.124 525.066 652.829 523.214 655.476C522.817 656.137 522.42 656.667 521.891 657.461C519.773 656.931 517.921 657.196 516.333 659.181C515.672 659.975 513.555 660.504 512.496 660.107C511.04 659.445 510.643 657.725 511.304 656.005C512.76 652.432 514.216 648.859 515.804 645.154C516.333 643.831 516.863 642.508 517.657 640.523C514.348 641.449 511.966 639.729 509.055 641.449C506.541 642.905 501.115 638.405 500.718 635.23C500.586 633.906 500.321 632.715 500.189 631.392C499.395 626.761 502.174 624.246 506.144 624.511C506.673 624.511 507.202 624.511 508.129 624.379C511.305 615.645 514.481 607.044 516.466 597.913C517.392 594.076 518.45 590.371 519.906 586.665C522.155 580.975 523.347 575.153 523.082 568.934C522.95 565.89 523.743 562.846 524.008 559.803C524.405 553.187 524.273 546.57 525.199 540.086C525.86 535.322 525.596 530.691 525.86 525.398C524.008 527.912 522.553 529.897 521.097 531.882C521.626 532.543 522.155 533.337 522.685 534.264C522.552 534.396 522.42 534.661 522.288 534.793C521.362 534.396 520.435 533.999 519.509 533.602C519.244 533.734 518.98 533.734 518.98 533.867C516.73 536.513 513.555 538.763 512.496 541.674C510.776 546.57 507.335 549.614 503.762 552.79C499.131 556.892 494.102 560.597 489.074 564.302C486.162 566.419 482.854 568.007 479.678 569.727C476.899 571.315 474.253 573.036 471.342 574.359C465.387 577.006 459.168 578.99 452.551 579.123C448.581 579.123 447.92 580.314 446.729 583.887C444.612 590.238 444.876 596.722 443.95 603.074C443.156 608.632 442.494 614.189 439.848 619.35C437.995 622.791 436.672 626.496 435.349 630.201C433.364 636.023 428.733 639.993 425.16 644.625C424.234 645.816 423.043 647.007 421.852 648.065C421.322 648.595 420.66 648.992 419.999 648.992C416.823 649.521 413.78 649.786 410.604 650.183C410.207 650.183 409.677 650.315 409.281 650.315C405.443 650.183 403.193 648.595 402.928 645.683C402.664 643.037 404.384 641.317 408.089 640.39C413.25 639.199 417.485 635.759 419.734 630.863C418.279 630.73 416.823 630.466 415.235 630.333C415.368 629.672 415.235 629.01 415.367 628.878C420.263 624.511 422.645 618.556 425.557 612.866C426.615 610.881 427.674 608.764 428.468 606.647C431.115 599.501 434.555 592.62 432.835 584.548C432.173 581.24 432.173 580.843 428.865 580.446C420.793 579.387 414.309 575.021 407.692 570.786C404.384 568.669 402.134 565.361 400.282 561.788C397.9 557.024 395.65 552.128 392.871 547.761C391.283 545.247 389.563 542.6 386.52 540.88C384.006 539.424 382.286 536.646 380.168 534.528C378.713 532.94 376.993 531.617 375.537 530.029C374.743 529.235 373.684 528.574 373.155 527.647C372.096 525.53 370.773 524.339 367.994 526.192C367.994 524.339 367.994 523.281 367.994 522.222C367.994 522.222 367.73 522.09 367.465 521.957C366.142 521.163 364.157 520.766 363.628 519.575C360.452 513.091 357.276 506.475 356.35 499.197C355.953 496.55 355.026 493.904 354.365 491.257C353.174 486.626 351.85 481.994 350.792 477.363C349.865 473.79 349.204 470.085 348.277 465.586C347.483 467.174 347.219 467.835 346.822 468.629C346.689 468.365 346.425 468.232 346.425 467.968C346.425 466.247 345.631 464.527 346.557 462.675C347.086 461.616 346.292 459.763 345.895 457.646C347.218 456.72 348.277 455.397 347.351 453.015C347.086 452.221 347.748 451.162 347.748 450.104C348.675 438.988 349.6 428.005 350.527 416.889C350.659 415.037 350.527 413.184 350.527 411.464C348.674 410.405 347.087 409.611 345.631 408.553C344.969 408.156 344.175 407.494 343.778 406.832C342.852 404.848 344.705 397.57 346.425 396.379C348.41 394.923 350.792 394.923 352.115 397.04C353.967 399.951 355.953 400.348 358.996 399.158C361.378 398.364 364.157 398.496 366.671 398.099C368.523 397.834 370.641 397.834 370.508 395.717C374.875 394.791 378.713 394.261 382.418 393.203C384.27 392.673 385.858 391.086 387.314 389.762C388.637 388.571 389.828 388.042 391.681 388.307C392.872 388.439 394.195 388.174 395.254 387.645C397.371 386.322 399.355 384.601 401.473 382.881C403.325 381.293 405.178 379.573 407.163 378.25C410.339 376 413.78 374.412 417.882 376.662C419.867 374.809 421.851 372.824 423.968 371.236C426.086 369.781 428.468 368.722 430.85 367.796C433.496 366.87 435.746 365.546 437.334 363.164C438.26 361.841 439.186 360.65 440.509 358.93C442.494 360.518 444.082 361.709 446.067 363.429C447.92 361.047 450.302 358.533 452.022 355.622C452.948 353.902 453.61 352.049 455.595 351.784C458.109 351.387 460.623 350.196 463.27 351.52C463.799 351.784 464.329 352.049 464.858 352.446C465.652 351.784 467.24 351.255 467.24 350.726C467.24 347.153 470.283 346.359 472.533 345.168C477.958 342.389 482.325 338.419 486.56 334.317C488.809 332.2 491.191 331.009 494.499 331.803C496.087 334.185 496.352 336.699 495.293 339.478C493.97 343.183 494.632 345.168 497.146 347.814C498.601 349.27 499.395 351.387 500.983 353.902C499.131 353.24 497.94 352.843 495.823 352.049C497.675 354.431 498.866 356.151 500.189 357.739C502.439 360.518 502.439 363.429 500.983 366.473C500.586 367.134 500.586 368.061 500.851 369.119C501.38 368.193 502.042 367.267 503.101 365.679C504.291 368.722 505.483 371.104 505.88 373.486C506.144 375.206 506.805 376.265 508.129 377.323C509.981 378.911 511.702 380.499 513.554 382.087C513.951 381.426 514.613 380.367 515.142 379.441C515.407 382.352 514.084 384.072 511.569 384.866C510.775 383.278 509.981 381.823 508.79 379.705C507.467 383.543 510.246 383.808 511.702 384.866C513.554 385.528 515.407 386.983 517.259 386.851C520.964 386.586 521.229 388.836 521.626 391.615C520.7 392.012 519.641 392.409 518.318 393.07C521.362 394.261 524.934 395.32 521.891 399.422C525.331 404.318 530.625 406.303 535.521 409.082C541.078 412.258 546.504 410.008 551.929 409.876C554.576 413.449 551.003 416.492 552.062 419.801C540.682 425.094 529.963 425.226 519.774 417.286C519.377 418.08 519.112 418.477 519.112 418.874C518.451 424.167 514.745 425.755 510.511 422.447C509.055 421.256 507.732 419.801 506.673 418.345C504.291 414.507 501.116 412.258 496.484 412.126C495.955 412.126 495.16 411.729 494.764 411.993C491.455 413.714 487.883 412.523 484.575 412.655C482.457 412.787 480.34 413.317 478.223 413.846C475.311 414.507 472.4 415.301 469.225 413.052C473.327 410.538 475.841 406.303 480.869 405.906C482.192 405.774 483.516 405.509 484.707 405.112C488.809 403.524 492.911 402.598 497.41 403.921C500.189 404.715 503.233 404.186 505.615 401.275C503.365 397.834 501.248 394.129 498.866 390.689C496.484 387.116 494.234 383.808 492.911 379.441C490.926 372.692 488.677 365.943 486.692 359.195C486.163 357.21 485.633 355.092 484.971 352.711C481.531 354.034 478.752 356.548 476.767 359.327C473.989 363.164 470.945 366.34 467.372 369.252C462.344 373.221 457.58 377.456 452.949 381.955C451.228 383.543 448.317 383.675 447.523 386.586C447.391 387.248 444.744 387.248 443.024 387.513C443.553 383.94 447.788 383.543 449.64 380.367C444.083 381.293 440.245 384.072 436.143 386.322C429.526 389.762 423.44 394.394 415.897 395.717C415.368 395.849 414.97 396.379 414.176 396.908C414.97 397.437 415.499 397.967 416.029 397.967C419.734 398.364 422.381 400.613 424.762 403.127C426.483 404.848 428.071 406.7 429.526 408.817C430.056 409.611 430.453 411.332 430.056 411.861C429.394 412.655 427.938 413.052 426.747 413.184C426.086 413.317 425.16 412.523 424.498 412.126C422.381 411.067 420.131 410.008 418.014 408.95C416.161 408.023 414.308 407.362 412.721 406.171C409.809 403.921 406.898 402.466 403.061 403.524C402.796 403.657 402.399 403.789 402.267 403.657C395.783 401.275 391.151 405.906 385.726 407.891C382.815 408.95 380.168 410.273 377.389 411.332C376.463 411.596 375.14 411.861 374.478 411.332C371.17 409.214 368.259 411.332 365.48 412.523C364.421 413.052 363.627 415.037 363.363 416.492C361.113 426.02 360.187 435.812 359.922 445.604C359.79 449.971 359.922 454.338 359.922 458.573C359.922 459.234 360.187 459.896 360.451 461.219C361.774 459.499 362.833 458.175 363.759 456.852C364.024 456.985 364.289 457.249 364.553 457.382C364.156 458.837 364.157 460.425 363.363 461.748C360.981 465.983 361.378 470.482 361.643 474.849C361.775 477.098 363.76 479.348 363.892 481.597C363.892 484.112 364.421 486.361 365.348 488.611C367.2 493.11 368.524 497.874 370.244 502.505C371.038 504.755 371.17 507.401 374.478 508.328C376.066 508.857 376.86 511.768 378.184 513.356C382.286 518.649 386.52 523.942 390.755 529.103C391.681 530.162 392.872 531.088 394.063 531.882C398.033 534.793 400.811 538.498 402.928 542.865C404.913 546.967 406.634 551.466 409.281 555.171C411.927 558.877 415.367 562.052 420.263 562.846C422.116 563.243 423.968 563.376 424.101 566.022C424.233 568.007 426.218 568.669 427.674 568.669C429.659 568.801 431.776 570.124 433.893 568.404C434.555 567.875 436.275 568.669 437.466 569.066C440.642 570.257 443.288 569.066 446.729 566.816C445.009 566.419 444.347 566.155 443.553 566.155C440.642 566.419 437.863 566.684 434.952 566.949C433.893 567.081 432.835 566.816 430.85 566.552C433.232 564.567 435.217 564.037 437.069 564.037C444.48 563.64 452.022 563.376 459.432 562.979C461.682 562.846 464.064 562.317 466.313 561.788C469.754 560.994 472.93 559.274 476.503 559.274C477.561 559.274 478.884 558.877 479.678 558.215C483.78 555.039 487.75 551.599 491.72 548.29C493.044 547.1 493.97 545.644 495.293 544.453C500.057 540.615 503.497 535.587 507.467 530.956C511.305 526.324 515.275 521.693 518.318 516.4C521.362 511.239 523.347 505.416 525.729 499.859C526.523 497.874 527.184 495.757 527.978 493.772C531.551 485.435 532.212 476.437 533.8 467.571C534.594 463.072 535.389 458.44 536.315 453.941C536.315 453.809 536.314 453.676 536.447 453.544C538.035 447.457 540.152 446.134 546.769 447.192C546.504 452.882 546.107 458.572 545.974 464.263C545.842 469.82 546.107 475.51 546.107 481.068C546.107 481.597 546.107 482.259 545.974 482.788C542.534 494.566 541.74 506.872 539.623 518.914C538.035 527.912 537.638 537.043 536.844 546.041C536.182 554.113 535.653 562.052 535.123 570.124C535.123 570.786 534.727 571.448 534.594 572.242C534.065 574.888 533.403 577.535 537.506 578.329C535.388 582.299 536.712 586.798 533.536 589.974C532.874 589.841 532.213 589.577 531.551 589.444C531.419 589.841 531.154 590.238 531.154 590.371C532.874 592.885 532.742 595.796 533.536 598.575C534.065 600.295 533.006 602.677 532.477 604.794C531.815 607.176 530.889 609.426 530.492 611.94C530.227 613.396 530.492 614.983 530.492 616.174C532.08 617.365 534.198 615.513 534.992 617.895C535.653 619.615 535.785 621.203 534.859 622.923C533.8 624.908 532.741 627.025 531.815 629.142C531.286 630.333 531.021 631.789 530.492 633.774C532.08 633.377 532.742 633.112 533.933 632.848C533.536 634.039 533.271 635.097 533.007 636.024C533.668 636.288 534.33 636.553 535.388 636.95C534.859 637.611 534.065 638.802 533.8 638.802C531.815 638.141 530.889 639.464 529.83 640.655C529.698 640.655 529.963 640.655 530.095 640.523ZM532.345 587.195C534.727 583.225 534.991 581.769 533.403 579.652C532.212 582.034 531.551 584.416 532.345 587.195ZM409.412 384.469C413.25 383.543 413.25 383.543 414.176 381.426C412.588 382.352 411 383.411 409.412 384.469ZM528.904 637.347C528.64 637.214 528.507 637.082 528.243 636.95C527.846 637.479 527.581 638.008 527.184 638.538C527.316 638.67 527.581 638.802 527.714 638.935C528.111 638.405 528.507 637.876 528.904 637.347ZM448.846 567.213C449.111 567.081 449.243 566.949 449.508 566.816C449.376 566.684 449.243 566.287 448.979 566.287C448.846 566.287 448.582 566.552 448.317 566.552C448.582 566.816 448.714 566.949 448.846 567.213ZM462.873 574.094C462.873 573.83 462.741 573.565 462.741 573.433C462.211 573.697 461.814 573.83 461.285 574.094C461.285 574.227 461.417 574.359 461.417 574.491C461.947 574.227 462.476 574.094 462.873 574.094ZM527.845 620.144C527.581 620.012 527.184 620.012 526.919 619.88C526.787 620.409 526.654 621.07 526.522 621.6C526.787 621.6 526.919 621.732 527.184 621.732C527.448 621.203 527.713 620.674 527.845 620.144Z" fill="white"/>
<path d="M487.882 509.783C485.765 509.386 484.045 508.989 482.06 508.592C481.398 512.033 480.604 514.944 476.899 515.87C477.163 516.135 477.296 516.4 477.56 516.664C478.486 516.532 479.413 516.267 480.339 516.135C480.339 516.4 480.604 516.797 480.472 516.929C479.545 517.988 478.354 518.781 477.56 519.972C475.443 522.619 473.194 524.869 470.018 526.192C468.033 526.986 466.445 529.103 464.46 529.897C461.019 531.22 457.315 532.147 453.609 532.676C450.566 533.205 447.39 533.073 444.478 534.793C443.155 535.587 440.906 534.925 439.053 534.661C436.275 534.264 433.363 533.867 430.716 533.205C428.996 532.808 427.011 532.279 425.556 531.088C422.38 528.574 418.278 527.118 416.822 522.619C415.631 518.649 411.529 517.458 408.618 515.341C405.707 513.356 402.928 511.106 399.487 509.783C396.576 508.592 396.973 504.225 399.752 501.976C401.34 500.785 401.737 505.019 402.795 501.976C402.928 501.447 405.045 501.447 406.368 501.447C407.427 501.447 408.353 501.976 409.412 501.844C412.455 501.711 415.367 501.579 418.41 501.314C420.13 501.182 421.983 501.05 423.836 500.785C421.719 499.065 421.719 499.065 413.911 499.859C414.573 499.065 414.969 498.403 415.366 498.271C418.675 497.344 421.983 496.153 425.556 497.477C426.614 497.874 428.334 497.741 429.261 497.08C431.378 495.227 433.496 495.624 435.745 496.55C436.672 496.947 437.862 496.947 438.524 497.609C442.89 501.182 447.39 499.859 451.889 498.138C456.256 496.418 460.49 495.889 464.857 498.006C466.048 498.535 467.636 498.271 468.959 498.403C469.091 499.197 468.827 500.123 469.224 500.52C470.15 501.711 470.415 500.123 471.076 499.991C471.738 499.859 472.797 499.594 473.194 499.859C476.766 503.299 481.398 502.241 485.5 503.299C490.528 504.622 490.926 505.284 487.882 509.783ZM470.018 509.254C467.901 508.328 466.71 507.269 465.519 507.137C461.02 506.74 456.388 506.607 451.889 506.343C450.433 506.343 448.978 506.74 447.655 506.607C442.362 505.946 437.068 505.152 431.907 504.358C431.246 504.225 430.452 504.622 429.658 504.887C430.981 508.328 435.877 504.358 436.671 508.725C432.172 509.519 427.805 507.534 422.38 508.328C427.144 513.091 430.452 517.591 435.348 520.502C443.288 525.133 451.492 524.075 459.564 521.031C461.02 520.502 462.211 518.914 463.402 517.723C463.666 517.458 463.534 516.929 463.534 516.267C462.872 516.003 462.211 515.738 461.549 515.473C462.343 514.547 463.137 513.753 463.931 512.827C463.004 511.768 462.21 510.974 461.152 509.916C461.946 509.386 462.608 508.989 463.402 508.592C463.931 509.519 464.195 510.048 464.592 510.71C464.989 511.239 465.519 511.768 466.181 512.562C467.372 511.636 468.43 510.71 470.018 509.254ZM458.903 529.103C459.035 529.368 459.167 529.765 459.167 530.029C460.225 529.235 462.343 531.088 462.872 527.78C461.284 528.309 460.094 528.706 458.903 529.103Z" fill="white"/>
<path d="M541.345 625.834C542.006 624.643 542.668 623.32 543.462 621.865C546.108 623.717 545.05 626.496 545.976 628.613C546.902 630.863 547.828 633.112 549.019 635.891C550.739 632.98 551.136 629.804 554.312 627.422C553.915 629.275 553.784 630.201 553.519 631.127C557.886 630.863 558.679 631.392 559.605 635.759C559.738 636.553 560.003 637.479 559.87 638.273C558.944 644.228 558.15 650.183 555.636 655.873C554.577 658.255 554.048 660.769 553.254 663.283C552.592 665.533 552.195 668.047 551.137 670.164C550.607 671.09 549.814 671.752 550.078 673.075C550.211 673.737 549.681 674.928 549.152 675.325C545.976 677.971 545.182 681.809 543.462 685.249C542.271 687.631 540.418 689.748 538.83 691.866C536.449 695.042 533.934 698.35 531.42 701.526C529.964 703.378 528.641 705.231 527.053 706.819C526.259 707.613 524.936 708.01 523.348 708.804C522.951 706.951 522.818 705.628 522.554 704.304C518.849 702.849 519.511 708.274 516.335 708.01C516.07 707.083 515.673 706.025 515.408 705.231C520.04 700.202 523.48 695.042 525.2 688.558C525.597 686.97 525.995 684.985 527.053 683.794C530.097 680.221 530.89 675.986 531.817 671.62C532.743 667.385 533.934 663.283 535.257 659.181C536.316 656.137 537.772 655.476 540.948 656.137C542.668 652.168 544.52 648.065 546.373 643.963C546.637 643.302 547.035 642.508 546.903 641.846C545.844 637.082 544.918 632.318 543.594 627.687C543.594 626.893 542.138 626.364 541.345 625.834Z" fill="white"/>
<path d="M432.304 426.682C432.172 426.814 432.833 426.285 433.495 425.623C433.098 424.829 432.569 424.035 432.304 423.373C431.113 420.727 432.304 417.286 434.686 416.36C436.406 415.698 437.861 416.095 438.523 417.948C439.582 421.256 440.64 424.564 441.169 428.005C441.699 431.71 440.508 435.15 436.935 437.929C439.979 438.988 440.243 441.37 440.64 444.016C441.567 451.559 439.449 458.705 437.994 465.85C437.464 468.365 436.803 470.879 436.141 473.393C435.215 477.231 438.126 482.391 441.964 482.921C445.404 483.318 449.109 483.053 452.417 483.053C452.947 481.333 453.344 480.009 453.741 478.686C454.138 477.495 454.402 476.304 454.667 475.113C454.932 474.187 455.064 473.128 455.594 472.202C456.52 470.482 458.108 469.953 459.96 470.085C461.945 470.217 462.607 471.541 463.136 473.128C465.65 481.068 458.902 488.611 450.83 487.287C449.374 487.023 447.786 487.287 446.198 487.287C443.949 487.287 441.567 487.155 439.317 487.155C436.141 487.023 433.098 485.964 429.79 488.081C428.07 489.14 424.497 488.743 422.379 487.684C419.865 486.494 419.468 483.45 419.865 480.803C420.262 476.966 420.395 472.731 425.158 471.408C426.746 467.306 430.319 463.866 429.392 459.102C428.863 456.72 429.393 454.867 430.981 453.147C432.304 451.691 432.304 450.103 431.907 448.383C431.377 445.869 430.451 443.355 430.451 440.841C430.319 438.326 430.98 435.68 431.377 433.166C431.377 431.313 431.775 429.328 432.304 426.682ZM428.467 483.847C428.864 483.715 429.128 483.582 429.525 483.582C429.26 482.788 429.128 481.465 428.731 481.333C427.937 481.2 426.878 481.597 425.026 481.994C426.878 483.053 427.673 483.45 428.467 483.847Z" fill="white"/>
<path d="M385.858 432.769C387.314 433.43 388.769 434.092 390.887 435.018C390.357 433.827 390.093 433.033 389.563 431.975C392.871 429.857 396.047 428.402 400.149 429.99C401.473 430.519 403.193 429.99 404.649 429.99C404.781 429.725 404.781 429.328 404.913 429.063C403.59 428.269 402.399 427.475 401.076 426.682C400.017 426.152 398.694 426.02 398.033 425.226C395.651 422.712 393.136 423.241 390.225 424.3C387.049 425.491 383.741 426.549 380.433 427.475C377.786 428.137 375.669 427.211 373.816 425.358C374.61 423.373 376.198 423.241 377.786 423.241C380.036 423.241 381.624 422.315 383.344 420.727C388.505 416.095 394.46 412.655 401.738 413.449C407.56 414.11 413.118 416.492 417.22 420.594C422.116 425.491 422.381 431.445 419.205 437.665C415.765 438.194 415.764 442.428 412.985 443.487C408.486 445.34 404.384 445.604 400.018 442.296C396.048 439.385 391.416 437.4 387.049 434.886C386.52 434.489 385.991 434.092 385.329 433.695C385.594 433.43 385.726 433.033 385.858 432.769Z" fill="white"/>
<path d="M461.814 437.4C462.079 434.224 464.858 433.96 467.372 433.033C467.505 430.254 468.431 428.005 471.21 426.682C472.665 426.02 473.724 424.829 475.709 423.373C477.297 423.109 480.208 422.844 482.854 421.918C486.427 420.595 490 420.859 493.573 421.521C497.014 422.182 499.528 424.697 501.248 427.476C502.704 429.725 504.292 431.313 506.938 431.71C507.468 431.842 508.129 431.975 508.526 432.239C509.188 433.033 509.717 433.96 510.379 434.754C509.585 435.151 508.791 435.944 507.865 436.077C506.277 436.341 504.424 437.003 503.101 435.151C502.969 434.886 502.704 434.621 502.439 434.621C498.469 434.357 495.955 431.313 492.647 429.857C489.868 428.666 487.221 428.799 484.443 430.254C486.295 435.415 490.662 436.077 494.764 436.606C496.881 436.871 498.469 437.268 498.999 439.517C499.528 441.767 497.94 442.826 496.484 444.149C492.779 447.589 488.413 447.325 483.913 447.192C482.59 447.192 481.134 447.06 479.679 446.928C479.282 443.09 475.842 442.958 472.798 441.767C472.136 440.708 473.988 438.459 471.607 438.062C469.092 437.665 467.108 434.621 464.064 436.871C463.535 437.268 462.476 437.135 461.814 437.4Z" fill="white"/>
<path d="M461.683 437.268C458.904 439.385 457.449 441.899 457.846 445.737C458.243 450.633 456.522 451.956 451.229 453.015C449.774 453.279 448.451 453.941 446.995 454.47C446.731 454.073 446.73 453.941 446.73 453.809C446.863 453.809 447.127 453.676 447.127 453.676C447.392 453.279 447.789 452.618 447.657 452.353C445.407 448.648 446.466 445.604 448.98 442.296C450.7 440.047 451.891 437.268 453.743 433.96C454.67 433.563 456.523 432.769 458.243 431.975C459.434 433.96 460.624 435.68 461.683 437.268C461.815 437.4 461.683 437.268 461.683 437.268Z" fill="white"/>
<path d="M501.777 355.225C506.541 357.871 506.541 357.871 507.6 361.577C504.027 360.386 502.439 358.665 501.777 355.225Z" fill="white"/>
<path d="M541.343 625.702C541.476 626.099 542.005 626.628 541.873 626.761C539.888 629.407 538.697 632.715 535.389 635.362C535.653 632.583 537.241 631.26 538.035 629.539C538.829 627.952 539.094 625.967 541.343 625.702C541.343 625.834 541.343 625.702 541.343 625.702Z" fill="white"/>
<path d="M422.514 247.643C423.44 251.745 421.588 253.73 417.221 253.73C418.809 251.745 420.661 249.76 422.514 247.643Z" fill="white"/>
<path d="M322.87 615.91C323.928 618.027 324.59 619.483 325.252 621.203C323.002 621.203 322.34 619.483 321.679 618.159C321.546 617.762 322.34 616.968 322.87 615.91Z" fill="white"/>
<path d="M309.638 518.649C308.712 516.399 308.712 515.738 309.77 513.488C310.961 515.606 310.961 515.606 309.638 518.649Z" fill="white"/>
<path d="M422.514 247.643C424.366 246.584 426.086 245.525 427.939 244.599C426.615 248.172 426.616 248.172 422.514 247.643Z" fill="white"/>
<path d="M312.55 490.993C312.55 492.713 312.55 494.433 312.55 496.153C312.286 496.153 312.021 496.153 311.889 496.153C311.756 494.433 311.624 492.845 311.359 491.125C311.756 491.125 312.153 490.993 312.55 490.993Z" fill="white"/>
<path d="M452.287 472.731C451.625 473.922 450.831 475.113 450.169 476.304C448.317 474.187 448.317 474.187 452.287 472.731Z" fill="white"/>
<path d="M556.429 622.261C556.561 623.055 556.694 623.982 556.826 624.776C556.561 624.908 556.429 624.908 556.164 625.04C555.9 624.511 555.37 624.114 555.238 623.585C555.106 623.188 555.635 622.658 555.767 622.129C556.032 622.129 556.164 622.129 556.429 622.261Z" fill="white"/>
<path d="M530.096 640.523C529.964 640.523 529.832 640.655 529.699 640.655C530.229 640.523 530.625 640.258 531.948 639.861C531.419 641.449 531.022 642.508 530.493 644.096C529.963 643.169 529.699 642.905 529.699 642.64C529.699 641.978 529.831 641.317 530.096 640.523Z" fill="white"/>
<path d="M456.654 255.979C455.463 255.847 454.272 255.847 453.213 255.714C453.213 255.45 453.213 255.185 453.213 254.92C454.404 254.92 455.727 254.92 456.918 254.92C456.786 255.317 456.786 255.582 456.654 255.979Z" fill="white"/>
<path d="M312.285 486.229C312.682 487.155 312.947 487.685 313.344 488.611C311.359 487.949 311.358 487.949 312.285 486.229Z" fill="white"/>
<path d="M473.327 447.06C472.136 446.531 470.945 446.001 469.754 445.472C472.797 444.281 473.062 444.413 473.327 447.06Z" fill="white"/>
<path d="M469.753 445.472C469.488 444.678 468.959 444.016 468.827 443.222C468.695 442.561 469.092 441.899 469.356 440.444C470.68 442.693 469.885 444.016 469.753 445.472Z" fill="white"/>
<path d="M328.428 623.982C327.899 624.511 327.767 624.776 327.634 624.908C327.37 624.643 327.105 624.379 326.973 623.982C326.973 623.849 327.237 623.452 327.369 623.452C327.766 623.717 328.164 623.849 328.428 623.982Z" fill="white"/>
<path d="M310.698 498.8C311.095 499.197 311.226 499.462 311.491 499.726C311.094 499.991 310.83 500.256 310.3 500.388C310.168 500.388 309.639 499.859 309.771 499.594C309.903 499.329 310.433 499.065 310.698 498.8Z" fill="white"/>
<path d="M475.973 419.403C475.444 418.477 475.047 418.08 475.047 417.815C475.179 417.418 475.576 416.889 475.841 416.492C476.106 416.757 476.635 417.021 476.635 417.154C476.635 417.683 476.37 418.08 475.973 419.403Z" fill="white"/>
<path d="M313.872 474.452C314.534 475.113 314.798 475.378 315.063 475.775C314.798 476.04 314.401 476.569 314.136 476.437C313.871 476.437 313.343 476.04 313.343 475.643C313.21 475.378 313.607 474.981 313.872 474.452Z" fill="white"/>
<path d="M348.541 479.348C348.276 479.083 348.011 478.686 347.879 478.422C347.879 478.157 348.408 477.892 348.673 477.628C348.938 478.025 349.07 478.554 349.335 478.951C349.202 479.083 348.938 479.083 348.541 479.348Z" fill="white"/>
<path d="M473.195 447.192C474.386 446.928 475.577 446.795 476.768 446.531C476.768 446.795 476.768 447.192 476.9 447.457C475.709 447.325 474.519 447.192 473.195 447.192C473.328 447.06 473.195 447.192 473.195 447.192Z" fill="white"/>
<path d="M310.696 505.681C310.828 505.946 311.093 506.21 311.093 506.607C311.093 506.74 310.563 507.269 310.431 507.136C310.167 507.004 309.902 506.607 309.77 506.343C309.902 506.21 310.167 506.078 310.696 505.681Z" fill="white"/>
<path d="M315.46 511.371C315.327 510.18 315.328 509.651 315.195 509.121C315.46 509.386 315.857 509.783 316.121 510.048C316.254 510.18 315.857 510.577 315.46 511.371Z" fill="white"/>
<path d="M331.34 396.776C331.208 396.114 331.076 395.585 330.943 394.923C331.208 394.923 331.34 394.791 331.605 394.791C331.737 395.452 332.002 395.982 332.134 396.643C331.87 396.643 331.605 396.643 331.34 396.776Z" fill="white"/>
<path d="M616.637 385.925C616.769 385.263 616.77 384.734 616.902 384.072C617.167 384.204 617.299 384.204 617.563 384.337C617.167 384.866 616.902 385.263 616.637 385.925C616.505 385.792 616.637 385.925 616.637 385.925Z" fill="white"/>
<path d="M462.476 255.185C462.344 255.317 462.079 255.714 461.947 255.582C461.815 255.582 461.418 255.317 461.418 255.053C461.418 254.92 461.682 254.656 461.947 254.523C462.079 254.788 462.344 254.92 462.476 255.185Z" fill="white"/>
<path d="M311.226 604.662C308.183 601.089 310.035 597.781 309.638 594.605C311.623 596.061 312.946 597.384 311.491 600.03C310.961 601.089 311.359 602.545 311.226 604.662Z" fill="white"/>
<path d="M308.315 536.381C306.594 535.322 306.595 535.322 306.727 529.632C307.786 530.558 307.785 530.559 308.315 536.381Z" fill="white"/>
<path d="M316.783 624.379C314.401 622.923 314.402 622.923 314.667 619.482C315.328 619.615 315.989 619.615 316.783 619.747C316.783 621.467 316.783 622.923 316.783 624.379Z" fill="white"/>
<path d="M551.002 723.227C550.737 723.889 550.473 724.551 550.208 725.345C549.944 725.212 549.679 725.212 549.414 725.08C549.546 724.418 549.678 723.624 549.811 722.963C550.208 723.095 550.605 723.227 551.002 723.227Z" fill="white"/>
<path d="M317.18 639.199C317.444 638.802 317.577 638.538 317.841 638.141C318.238 638.405 318.635 638.67 318.767 639.067C318.9 639.199 318.37 639.596 318.106 639.993C317.841 639.729 317.577 639.464 317.18 639.199Z" fill="white"/>
<path d="M316.782 624.379C316.518 625.57 316.386 626.893 316.121 628.084C315.856 627.951 315.459 627.819 315.062 627.819C315.724 626.628 316.253 625.57 316.782 624.379Z" fill="white"/>
<path d="M532.345 587.195C531.551 584.416 532.212 582.034 533.403 579.652C534.991 581.769 534.727 583.225 532.345 587.195Z" fill="white"/>
<path d="M409.412 384.469C411 383.41 412.588 382.484 414.176 381.426C413.382 383.543 413.382 383.543 409.412 384.469Z" fill="white"/>
<path d="M511.966 384.998C510.511 383.94 507.865 383.807 509.056 379.838C510.246 381.955 511.04 383.543 511.966 384.998C511.834 384.998 511.966 384.998 511.966 384.998Z" fill="white"/>
<path d="M528.905 637.347C528.508 637.876 528.243 638.406 527.846 638.935C527.713 638.803 527.449 638.67 527.316 638.538C527.713 638.009 527.978 637.479 528.375 636.95C528.508 637.082 528.64 637.215 528.905 637.347Z" fill="white"/>
<path d="M448.847 567.213C448.714 567.081 448.582 566.816 448.449 566.684C448.714 566.552 448.846 566.287 449.111 566.419C449.243 566.419 449.376 566.816 449.641 566.949C449.244 566.949 448.979 567.081 448.847 567.213Z" fill="white"/>
<path d="M462.873 574.094C462.344 574.226 461.947 574.226 461.418 574.359C461.418 574.226 461.285 574.094 461.285 573.962C461.814 573.697 462.212 573.565 462.741 573.3C462.741 573.565 462.873 573.829 462.873 574.094Z" fill="white"/>
<path d="M527.845 620.144C527.58 620.674 527.448 621.335 527.183 621.864C526.918 621.864 526.786 621.732 526.521 621.732C526.654 621.203 526.787 620.541 526.919 620.012C527.316 620.012 527.58 620.012 527.845 620.144Z" fill="white"/>
<path d="M458.904 529.103C460.095 528.706 461.418 528.309 463.006 527.78C462.477 531.088 460.36 529.235 459.301 530.029C459.036 529.765 458.904 529.368 458.904 529.103Z" fill="white"/>
<path d="M138.671 387.38V395.981C138.804 395.849 138.936 395.717 139.201 395.584C139.465 398.231 139.862 400.877 139.862 403.524C139.862 412.125 139.333 420.594 139.465 429.195C139.597 440.046 140.127 450.897 140.391 461.748C140.788 485.832 141.45 510.048 141.318 534.131C141.318 556.494 140.392 578.725 139.995 601.089C139.862 605.456 139.73 609.955 140.126 614.321C141.582 634.038 138.803 653.755 138.406 673.472C138.01 693.586 137.613 713.567 137.348 733.681L136.951 825.516C137.215 826.839 137.348 828.163 137.48 829.618C137.877 832.529 137.48 835.838 136.818 838.749C134.966 846.556 138.406 851.717 146.081 851.452C165.666 850.923 185.118 849.467 204.703 849.732C224.419 850.129 244.4 850.526 263.853 855.157C266.896 855.951 270.205 856.084 273.38 855.951C289.127 855.422 304.874 855.025 320.489 853.702C334.383 852.511 348.145 852.776 362.04 853.966C370.641 854.76 379.375 855.025 387.976 854.363C406.634 852.908 425.16 855.29 443.686 855.687C448.45 855.819 453.081 855.157 457.845 855.157C475.974 855.025 493.97 855.025 512.099 854.76C517.26 854.76 522.421 854.099 527.581 853.834C545.446 853.172 563.31 852.378 581.042 851.849C598.112 851.188 615.182 850.394 632.253 850.261C648.794 849.997 665.466 850.394 682.007 850.791C691.402 850.923 700.798 851.981 710.193 851.849C721.838 851.717 733.35 850.923 744.995 850.394C746.451 850.261 747.906 850.129 749.494 850.129C761.139 849.467 772.652 848.673 784.297 848.144C789.722 847.879 795.147 847.879 800.573 847.747C801.764 847.747 803.087 847.615 804.278 847.35C812.879 844.836 814.864 840.734 811.82 833.323C811.423 832.397 811.026 831.471 810.497 830.412C814.07 825.516 813.806 819.826 814.07 814.136C814.467 803.285 815.923 792.566 816.849 781.716C817.246 777.613 817.643 773.379 817.511 769.277C816.982 755.78 816.187 742.414 815.261 728.917C814.202 713.17 812.747 697.423 811.556 681.544C810.63 668.046 809.968 654.681 809.306 641.184C807.983 618.424 806.792 595.531 805.469 572.771C805.072 565.228 804.807 557.818 804.41 550.275C803.484 534.528 802.425 518.649 801.499 502.902C801.235 498.8 801.367 494.565 801.234 490.463C800.44 473.393 799.382 456.323 798.72 439.252C798.323 429.46 798.456 419.536 798.191 409.611C797.662 390.688 797.133 371.765 796.339 352.843C795.148 328.23 794.089 303.617 792.236 279.004C790.913 262.992 788.266 247.113 786.149 231.234C785.884 229.381 785.488 227.661 785.091 225.941C781.783 214.296 778.738 227.926 777.945 215.619C776.886 199.078 775.563 182.537 774.505 165.996C774.372 163.879 774.505 161.894 774.505 159.777C774.372 148.529 774.239 137.414 768.682 127.357C766.829 124.049 765.771 120.211 764.448 116.638C761.536 108.831 757.699 106.052 749.759 106.317C744.995 106.449 740.364 106.978 735.6 107.375C712.31 109.36 689.153 110.154 665.864 109.757C645.088 109.36 624.18 109.096 603.405 109.36C579.057 109.493 554.841 109.625 530.492 110.816C499.263 112.271 468.166 115.183 436.937 116.241C412.854 117.168 388.902 119.417 365.083 122.196C360.452 122.725 355.688 122.858 350.924 122.858C325.915 122.99 300.772 122.593 275.762 123.255C260.412 123.652 245.062 125.504 229.845 126.563C224.949 126.96 219.92 127.224 215.024 126.96C210.128 126.695 206.026 127.224 202.056 131.062C200.204 132.914 196.498 133.311 193.587 133.576C182.736 134.502 171.885 134.899 160.902 135.693C156.668 135.958 152.566 136.355 148.331 137.149C143.17 138.075 140.921 142.574 139.862 147.074L139.333 255.582C143.038 305.469 143.435 367.399 138.671 387.38ZM150.581 165.467C150.713 164.673 150.978 164.011 151.11 163.217C153.757 150.911 153.889 151.176 165.534 150.646C180.619 149.985 195.704 149.323 210.392 144.956C212.51 144.295 214.495 143.236 216.48 142.442C218.994 141.516 221.508 140.325 224.154 140.06C247.973 138.472 271.66 137.149 295.479 135.826C296.67 135.693 297.993 135.826 299.184 135.826C315.593 136.09 331.869 136.752 348.278 136.487C357.673 136.355 366.936 134.635 376.331 133.708C383.477 133.047 390.622 132.385 397.768 131.724C403.194 131.194 408.619 130.4 414.044 130.136C433.364 129.077 452.684 128.151 472.004 126.96C481.929 126.43 491.721 125.239 501.645 124.71C510.246 124.181 518.98 124.181 527.581 123.784C531.816 123.652 535.918 122.99 540.153 122.858C558.546 122.196 576.807 121.137 595.201 121.005C613.33 120.873 631.326 121.799 649.455 121.799C672.48 121.667 695.637 121.402 718.662 120.608C727.793 120.343 736.791 118.491 745.922 117.432C751.479 116.771 752.009 117.3 754.391 122.593C759.684 134.635 761.669 147.206 761.801 160.439C761.933 172.613 762.859 184.787 764.05 196.961C765.373 210.591 767.358 198.946 769.343 212.443C770.137 217.736 772.255 222.897 773.181 228.19C777.416 252.671 781.914 277.151 783.238 302.161C784.429 324.128 785.223 346.226 786.017 368.193C787.34 405.244 788.663 442.296 789.986 479.348C790.516 495.888 790.913 512.562 791.707 529.103C792.766 553.186 794.089 577.27 795.412 601.353C796.603 624.908 797.529 648.462 798.853 672.016C799.911 688.557 801.764 705.098 802.822 721.639C803.749 736.195 803.484 750.751 804.542 765.175C805.469 779.069 802.161 792.566 801.234 806.196C800.705 814.401 799.382 822.605 798.455 830.809C798.323 831.471 797.926 832.265 797.397 833.72C777.945 834.779 758.89 836.102 739.834 836.896C724.749 837.558 709.664 838.484 694.578 837.69C663.878 836.102 633.179 836.896 602.479 837.161C583.953 837.293 565.295 837.69 546.769 838.219C538.168 838.484 529.434 839.94 520.833 840.204C511.702 840.601 502.572 840.204 493.309 840.204C473.724 840.204 454.139 840.734 434.555 840.072C407.56 839.146 380.566 839.278 353.571 836.896C337.427 835.573 320.886 838.484 304.61 838.219C286.613 837.822 268.485 839.41 250.488 836.367C230.242 833.059 209.599 831.471 188.956 833.72C180.355 834.647 171.621 834.514 163.02 834.382C155.742 834.382 154.153 832.662 152.963 824.854C151.11 812.283 150.978 799.712 151.904 786.876C153.095 769.806 152.698 752.604 152.963 735.533C153.227 716.875 153.624 698.217 153.889 679.427C154.286 658.916 154.815 638.405 155.212 617.894C155.742 587.591 156.271 557.156 156.536 526.853C156.668 514.679 156.006 502.505 155.742 490.331C155.345 469.82 154.815 449.309 154.551 428.799C154.418 423.902 155.609 419.006 155.344 414.11C153.889 376.132 157.991 338.419 157.197 300.441C156.668 277.019 154.683 253.862 154.286 230.44C153.889 209.267 149.787 214.031 148.86 192.991C147.802 184.125 149.655 174.73 150.581 165.467Z" fill="white" stroke="white" stroke-width="5" stroke-miterlimit="10"/>
<path d="M139.995 84.3503C138.672 86.0705 136.554 87.6584 134.569 88.1877C131.261 89.114 127.82 89.2464 124.38 89.2464C116.308 89.3787 108.104 89.114 100.032 89.2464C94.7388 89.3787 93.5477 90.305 92.6214 95.7304C89.9748 112.801 88.5194 130.003 89.4457 147.338C90.1073 160.042 90.6366 172.745 91.4306 185.316C92.2245 198.284 93.5479 184.787 94.2096 197.622C94.8712 210.855 95.2679 223.956 95.2679 237.188C95.4003 252.803 94.8711 268.55 94.7388 284.165C94.7388 293.56 95.0033 303.087 95.2679 312.483C95.4003 319.761 95.6651 327.039 96.062 334.317C96.5913 345.432 97.6502 356.415 97.6502 367.531C97.7825 380.764 96.8561 393.996 96.8561 407.229C96.8561 422.314 97.6502 437.4 97.6502 452.617C97.6502 461.748 96.9885 470.879 96.1945 480.009C95.4005 490.463 93.8123 500.917 93.283 511.503C92.6214 524.471 92.6218 537.439 92.3571 550.407C92.2248 555.568 91.8274 560.729 91.9598 565.757C92.3567 585.474 92.886 605.191 93.283 624.908C93.4154 633.244 92.8864 641.713 93.6804 650.05C95.4007 666.855 94.2094 683.529 93.4155 700.202C92.3569 720.977 91.9601 741.753 91.6955 762.661C91.4308 787.803 91.563 812.945 91.563 838.087C91.563 852.643 91.5628 867.331 91.9598 881.887C92.0921 888.901 94.4741 890.753 101.355 890.886C110.75 891.018 120.278 891.15 129.673 891.547C141.186 891.944 152.698 892.738 164.211 893.268C179.958 893.929 195.705 894.591 211.452 894.988C221.641 895.253 231.962 895.517 242.151 895.12C256.575 894.591 270.999 893.268 285.29 892.341C288.731 892.077 292.172 892.209 295.48 892.341C310.168 892.871 324.856 893.797 339.544 893.929C363.496 894.062 387.447 893.532 411.266 893.797C424.631 893.929 437.996 895.253 451.361 895.253C463.403 895.253 475.444 894.459 487.486 893.929C499.528 893.4 511.57 892.209 523.744 892.341C547.828 892.606 572.044 893.532 596.127 894.194C602.082 894.326 608.169 894.459 614.124 894.194C637.943 893.135 661.762 891.68 685.581 890.621C701.328 889.959 717.075 889.695 732.822 889.165C743.276 888.901 753.862 889.165 764.315 887.974C781.915 885.857 799.25 884.931 816.585 889.43C830.876 893.135 844.771 893.135 857.739 884.005C862.238 880.829 864.487 878.05 864.487 872.492C864.62 856.878 865.149 841.263 865.413 825.648C865.678 815.856 865.281 806.329 861.576 797.066C860.65 794.816 860.385 792.302 860.253 789.92C859.856 782.113 859.724 774.305 859.194 766.498C858.4 751.413 857.342 736.46 856.548 721.374C856.283 716.081 856.15 710.656 856.15 705.363C856.15 697.555 856.548 689.748 856.415 682.073C856.283 674.266 855.489 666.458 855.092 658.783C854.827 653.623 854.43 648.594 854.033 643.433C853.504 636.949 852.842 630.598 852.313 624.114C851.784 617.63 851.387 611.278 850.99 604.794C849.137 579.784 847.152 554.774 845.697 529.764C844.77 514.679 844.903 499.594 844.241 484.376C843.844 474.981 845.168 465.718 842.521 456.323C840.404 449.045 841.065 440.973 840.536 433.165C840.139 427.078 840.007 420.859 839.874 414.772C839.742 409.743 839.874 404.583 839.477 399.554C838.948 390.688 836.963 381.69 837.625 372.956C838.419 362.238 840.139 351.519 837.757 340.801C837.36 338.948 837.625 336.963 837.492 335.111C836.963 321.084 836.566 307.057 835.905 293.031C835.772 290.913 835.375 288.796 834.978 286.679C831.538 267.094 827.171 247.51 824.789 227.793C822.275 207.15 821.481 212.84 820.29 192.065C819.76 184.257 820.555 176.45 819.893 168.643C819.231 160.306 816.849 152.234 818.437 143.765C818.834 141.251 818.437 138.34 818.04 135.693C816.982 126.033 814.864 116.373 814.997 106.714C815.129 95.7304 813.012 85.2765 810.762 74.8227C808.778 65.8244 804.278 62.2516 795.545 61.5899C791.84 61.3253 788.266 60.2667 784.694 59.605C780.856 58.9434 776.754 57.6201 773.049 58.1494C763.522 59.605 753.994 58.4141 744.334 60.5313C731.366 63.4425 717.736 63.1779 705.695 64.1042L139.995 84.3503ZM853.636 864.42C853.239 872.757 847.946 878.579 840.139 879.241C834.978 879.638 829.95 879.109 824.789 877.918C811.557 874.742 798.456 870.772 784.429 872.228C769.741 873.815 754.788 874.477 739.967 875.006C718.927 875.8 698.019 875.933 676.979 876.594C663.085 877.124 649.191 877.785 635.296 878.844C619.285 880.167 603.405 881.358 587.393 879.241C580.909 878.447 574.293 879.638 567.809 879.373C551.533 878.844 535.257 877.918 518.981 877.521C510.909 877.388 502.704 878.579 494.632 878.976C480.738 879.506 466.844 880.167 452.949 880.167C437.732 880.035 422.514 878.712 407.296 878.579C384.139 878.447 361.114 879.109 337.956 878.844C323.268 878.712 308.58 876.991 293.892 876.594C286.349 876.33 278.806 877.256 271.131 877.785C270.072 877.785 269.014 878.315 268.088 878.315C247.048 878.579 226.272 881.491 205.1 879.109C189.485 877.388 173.606 878.182 157.859 877.388C147.405 876.859 136.951 875.8 126.365 875.006C121.601 874.609 116.97 874.345 112.206 873.948C107.31 873.551 106.383 872.36 106.516 867.331C106.648 863.229 106.781 859.259 106.913 855.157L106.252 855.422L104.267 144.03L105.325 143.104C104.928 135.032 104.664 126.96 104.267 118.888C104.267 117.829 104.399 116.77 104.531 115.712C105.589 105.92 106.119 105.523 115.382 104.993C137.216 103.802 158.918 102.479 180.752 101.288C182.869 101.156 184.986 101.156 186.971 100.627C208.276 94.6718 230.242 95.9951 251.943 95.3334C273.513 94.6718 295.083 96.5244 316.652 96.2597C339.015 95.9951 361.379 96.1274 383.477 92.9515C387.58 92.2899 391.814 92.4222 396.049 92.0252C400.415 91.4959 404.782 90.702 409.281 90.1727C413.913 89.6433 418.676 89.114 423.307 88.8494C436.408 88.1877 449.509 87.3938 462.609 86.9968C491.456 86.2028 520.436 85.5412 549.283 84.8796C556.561 84.7472 563.972 85.1442 571.25 84.8796C580.38 84.6149 589.643 84.2179 598.774 83.5563C610.551 82.7623 622.328 81.5714 634.105 80.6451C648.264 79.4541 662.291 78.3955 676.45 77.3369C692.197 76.2783 707.944 75.352 723.559 74.2934C730.308 73.7641 737.188 73.2348 743.937 72.0438C750.156 70.9852 756.375 69.7942 762.727 71.3822C762.992 71.3822 763.257 71.5145 763.521 71.3822C773.049 66.0891 782.312 71.7792 791.707 72.1761C796.736 72.4408 799.25 74.8227 800.705 79.5865C803.484 88.9817 805.469 98.2446 805.204 108.169C804.94 114.256 806.263 120.476 806.793 126.695C807.322 133.973 807.851 141.251 808.38 148.529C808.909 155.542 809.571 162.423 810.101 169.437C810.365 172.877 810.497 176.45 810.365 180.023C809.042 203.577 811.821 200.666 813.276 224.088C813.938 234.013 816.055 243.805 817.776 253.597C820.422 267.888 823.731 282.047 825.98 296.339C827.833 308.778 828.23 321.481 827.303 334.184C827.171 336.302 827.171 338.551 827.436 340.668C828.891 351.916 828.097 363.032 827.038 374.412C825.98 385.792 828.626 397.437 829.553 408.949C829.817 412.655 829.42 416.492 829.685 420.197C829.95 427.211 829.95 434.224 830.876 441.105C833.522 458.44 835.11 475.907 834.978 493.507C834.978 518.516 836.037 543.659 837.228 568.668C837.89 581.24 839.742 593.811 840.933 606.382C841.197 609.558 841.727 612.866 841.859 616.042C842.389 624.643 842.786 633.244 843.315 641.846C844.241 658.783 845.432 675.854 846.226 692.792C847.02 711.185 847.417 729.446 848.078 747.84C848.608 761.337 849.005 774.835 849.931 788.2C850.328 794.022 852.578 799.712 853.636 805.402C854.43 809.901 855.489 814.533 855.356 819.032C855.092 834.117 854.298 849.203 853.636 864.42Z" fill="white" stroke="white" stroke-width="5" stroke-miterlimit="10"/>
</svg>
