<svg width="954" height="954" viewBox="0 0 954 954" fill="none" xmlns="http://www.w3.org/2000/svg">
<path d="M279.372 601.597C281.615 601.993 283.726 602.257 285.837 602.652C290.586 603.576 295.732 603.048 300.218 605.555C301.141 606.083 302.065 606.611 302.989 607.138C304.308 608.194 305.759 609.249 306.947 610.437C309.058 612.284 310.113 614.923 310.773 617.429C311.96 622.575 312.62 627.852 313.544 632.998C313.675 634.053 313.675 635.373 313.411 636.428C312.488 641.31 311.828 646.456 308.662 650.546C307.21 652.393 305.627 654.108 303.78 655.427C299.558 658.726 294.94 661.364 289.531 661.892C288.739 662.024 287.816 662.42 287.024 662.42C285.177 662.552 283.198 662.816 281.351 662.684C278.712 662.552 276.205 662.156 273.567 661.76C267.497 660.837 261.824 658.858 257.338 654.768C254.436 652.129 251.269 649.886 248.366 647.247C246.387 645.532 245.596 643.685 245.86 641.178C246.256 636.956 246.256 632.734 247.575 628.644C247.839 627.72 247.575 626.533 247.179 625.609C246.783 624.422 246.651 623.367 247.443 622.311C249.422 619.276 251.401 616.242 253.512 613.207C255.755 610.041 258.79 608.062 262.352 606.611C266.442 605.027 270.4 603.444 274.622 602.389C276.337 602.125 277.92 601.861 279.372 601.597ZM281.219 617.693C277.525 617.166 273.962 618.485 270.664 620.596C269.608 621.256 268.289 622.179 267.761 623.235C265.782 627.193 265.123 631.283 266.706 635.505C267.102 636.296 267.761 637.088 268.421 637.748C270.664 639.991 273.566 641.178 276.469 642.102C278.316 642.629 280.559 642.893 282.406 642.497C285.705 641.838 288.871 640.386 290.982 637.352C292.038 635.901 292.565 634.317 292.697 632.602C293.093 627.589 290.586 623.498 288.739 619.145C288.475 618.617 287.816 618.221 287.288 617.825C285.309 616.77 283.462 617.561 281.219 617.693ZM256.283 630.755C256.151 630.755 256.019 630.755 255.887 630.755C255.491 632.338 255.227 633.79 254.963 635.373C254.831 636.428 254.963 637.616 254.699 638.539C253.776 641.046 254.963 642.497 256.811 643.949C258.526 645.268 260.109 646.851 261.956 648.171C263.935 649.622 265.782 651.073 267.893 652.129C272.379 654.24 277.393 654.372 282.142 655.163C282.802 655.295 283.462 654.899 284.121 654.768C284.781 654.636 285.441 654.372 286.101 654.504C290.718 655.031 294.281 652.657 297.843 650.414C299.294 649.49 300.745 648.303 301.801 646.719C303.648 643.949 304.176 640.914 304.968 637.748C305.363 636.033 305.627 634.053 305.363 632.338C304.835 628.512 303.78 624.818 303.252 620.992C302.725 617.429 300.614 615.582 297.579 614.131C297.447 614.527 297.315 614.659 297.315 614.791C297.315 614.923 297.315 615.186 297.447 615.318C298.766 616.77 299.69 618.353 299.426 620.464C299.426 621.124 299.954 621.915 300.35 622.575C300.614 622.971 301.009 623.367 301.141 623.762C301.537 628.248 302.593 632.866 301.141 637.22C300.086 640.254 299.162 643.421 296.523 645.4C293.489 647.511 290.454 649.622 286.76 650.414C282.274 651.469 277.789 651.073 273.303 650.546C272.907 650.546 272.511 650.282 272.247 650.15C268.817 647.907 265.518 645.664 262.088 643.553C260.373 642.497 259.449 640.782 258.921 638.935C257.734 636.032 256.942 633.394 256.283 630.755Z" fill="white" stroke="white" stroke-miterlimit="10"/>
<path d="M537.307 178.739C539.022 179.003 541.133 177.816 542.848 179.531C536.251 184.544 535.988 184.544 531.502 179.399C534.141 176.232 534.141 176.232 537.307 178.739Z" fill="white" stroke="white" stroke-miterlimit="10"/>
<path d="M225.015 820.876C221.716 818.765 218.418 816.786 214.855 814.675C218.55 811.641 222.508 813.884 225.015 820.876Z" fill="white"/>
<path d="M800.392 175.837C803.822 178.343 804.482 181.774 803.691 185.6C801.711 182.697 799.864 179.795 800.392 175.837Z" fill="white"/>
<path d="M209.445 796.336C211.16 799.502 214.195 802.009 213.272 806.891C209.577 803.856 210.633 799.634 209.445 796.336Z" fill="white"/>
<path d="M829.549 450.265C829.021 452.244 828.625 454.091 828.098 456.07C825.987 453.564 828.493 452.112 828.493 450.133C828.889 450.133 829.153 450.265 829.549 450.265Z" fill="white"/>
<path d="M836.411 430.343C835.883 432.586 835.355 434.301 834.828 436.544C834.168 433.509 834.168 433.509 836.411 430.343Z" fill="white"/>
<path d="M836.543 615.45C836.807 616.506 837.071 617.429 837.467 618.485C837.071 618.617 836.675 618.749 836.411 618.881C836.015 617.957 835.62 616.902 835.092 615.978C835.62 615.846 836.015 615.714 836.543 615.45Z" fill="white"/>
<path d="M817.412 493.277C817.676 494.596 817.94 495.916 818.203 497.367C817.808 497.367 817.544 497.499 817.148 497.499C817.016 496.18 816.884 494.728 816.752 493.409C816.884 493.277 817.148 493.277 817.412 493.277Z" fill="white"/>
<path d="M242.034 94.6953C243.222 94.6953 244.277 94.6953 246.124 94.6953C244.937 95.2231 244.409 95.7508 243.749 95.8827C243.222 96.0147 242.562 95.7508 241.902 95.6189C241.902 95.2231 241.902 94.9592 242.034 94.6953Z" fill="white"/>
<path d="M109.701 150.9C109.965 150.109 110.097 149.317 110.361 148.525C110.625 148.657 110.888 148.657 111.152 148.789C110.888 149.581 110.625 150.373 110.361 151.164C110.229 151.032 109.965 150.9 109.701 150.9Z" fill="white" stroke="white" stroke-miterlimit="10"/>
<path d="M833.243 440.502C833.111 441.03 833.111 441.69 832.979 442.217C832.979 442.349 832.451 442.217 832.188 442.217C832.188 441.69 832.188 441.03 832.188 440.502C832.583 440.502 832.847 440.502 833.243 440.502Z" fill="white"/>
<path d="M231.48 95.4871C232.272 95.4871 233.064 95.4871 233.855 95.4871C233.855 95.619 233.855 95.7509 233.855 95.7509C233.064 95.7509 232.272 95.7509 231.48 95.7509C231.48 95.7509 231.48 95.619 231.48 95.4871Z" fill="white"/>
<path d="M837.597 657.142C837.333 657.01 836.938 656.878 836.674 656.747C836.938 656.351 837.07 655.955 837.334 655.691C837.597 655.955 837.993 656.087 837.993 656.351C838.125 656.615 837.861 656.879 837.597 657.142Z" fill="white"/>
<path d="M415.795 678.121C415.399 678.252 415.004 678.516 414.476 678.648C414.344 678.384 414.08 677.989 414.212 677.857C414.476 677.593 415.004 677.329 415.399 677.065C415.531 677.461 415.663 677.725 415.795 678.121Z" fill="white"/>
<path d="M161.42 310.148C160.496 317.801 161.552 325.189 161.684 332.71C161.816 342.737 162.08 352.764 162.476 362.923C162.871 372.291 163.663 381.658 164.323 390.894C164.454 393.928 164.586 396.831 164.586 399.865C164.586 407.65 164.586 415.434 164.718 423.086C164.718 424.142 164.586 425.197 164.85 426.253C166.697 435.357 166.038 444.46 165.642 453.564C165.642 454.619 165.642 455.675 165.774 456.73C166.038 460.688 166.566 464.647 166.038 468.737C165.642 472.167 166.565 475.729 166.961 479.16C167.885 488.923 168.808 498.686 168.281 508.582C167.621 520.192 169.336 531.802 170.524 543.413C171.051 548.69 171.315 553.968 171.579 559.245C171.975 565.974 172.239 572.703 172.635 579.432C172.899 586.424 177.648 590.91 184.773 591.174C188.467 591.306 192.161 591.966 195.855 591.834C201.265 591.702 206.674 591.042 212.216 590.778C219.736 590.382 227.388 590.251 234.909 589.987C247.047 589.723 259.185 589.591 271.324 589.195C271.324 588.271 292.961 591.438 293.753 591.174C297.579 589.723 301.141 588.535 305.495 589.987C310.245 591.438 315.522 591.702 320.668 592.098C330.035 592.757 339.271 593.681 348.638 593.681C357.742 593.681 366.978 593.945 376.081 592.362C380.831 591.57 385.581 591.438 390.331 590.778C392.706 590.382 395.08 589.591 397.455 589.063C400.49 588.403 401.677 586.424 402.996 583.522C405.107 578.772 405.107 573.626 406.031 568.877C408.142 558.454 409.066 547.899 409.857 537.344C411.045 520.984 411.704 504.491 412.496 488.131C412.76 484.305 413.024 480.347 413.288 476.521C413.683 469.924 413.683 463.459 412.364 456.994C411.572 452.904 411.704 448.55 411.441 444.328C410.913 430.871 410.253 417.545 410.253 404.087C410.253 396.699 411.309 389.31 411.836 381.922C412.232 376.249 413.156 370.575 412.892 365.034C412.1 350.389 413.42 335.744 413.42 321.099C413.42 306.85 412.496 292.469 412.1 278.22C411.572 262.651 409.989 247.214 410.385 231.646C410.517 223.993 409.33 216.209 409.198 208.557C409.066 201.96 409.989 195.231 409.329 188.634C408.934 184.544 409.593 180.454 409.066 176.364C408.67 173.462 409.066 170.427 409.593 167.524C410.121 164.358 409.989 161.587 407.35 159.344C405.239 157.497 405.635 155.122 406.427 153.011C407.219 150.9 408.934 149.713 411.441 149.845C412.892 149.977 414.343 149.449 415.926 149.185C415.003 143.38 411.045 142.588 406.955 142.324C405.503 142.193 404.184 142.72 403.261 141.137C401.809 138.498 399.302 138.498 396.795 138.63C379.512 139.422 362.228 140.082 344.944 141.137C339.007 141.533 333.07 142.72 327.133 143.512C320.536 144.435 313.939 145.755 307.21 146.151C296.26 146.81 285.309 146.678 274.358 147.074C268.421 147.206 262.352 147.734 256.415 148.13C243.089 148.921 229.763 149.581 216.438 150.373C214.327 150.505 212.216 150.637 210.105 150.768C205.751 151.032 201.265 151.296 196.911 151.56C192.029 151.692 187.016 151.692 182.134 151.824C181.342 151.824 180.419 152.088 179.627 152.484C174.614 154.858 169.468 157.365 164.455 159.74C162.08 160.928 161.948 163.039 162.08 165.15C162.344 172.274 163.003 179.267 163.135 186.259C163.267 192.592 162.739 198.925 162.739 205.258C162.739 207.369 163.135 209.348 163.003 211.459C162.871 214.362 162.607 217.397 162.476 220.299C162.212 227.556 161.948 234.68 161.684 241.937C161.288 251.304 160.76 260.54 160.628 269.908C160.496 278.22 161.024 286.532 161.288 294.844C161.42 299.989 161.948 305.135 161.42 310.148ZM178.176 249.853C178.176 248.93 178.308 248.138 178.44 247.214C178.704 236.264 179.231 225.445 180.155 214.494C181.079 203.675 179.891 192.592 179.627 181.774C179.495 178.079 179.232 174.517 178.968 170.427C192.557 170.163 205.223 170.295 217.757 169.372C229.499 168.448 241.374 168.712 253.116 166.865C265.254 164.886 277.788 165.15 290.059 165.545C296.655 165.677 302.988 165.15 309.585 163.83C316.71 162.511 323.966 162.115 331.091 161.323C332.542 161.191 333.994 161.323 335.313 160.928C342.701 158.421 350.354 159.08 357.874 158.817C364.867 158.685 371.991 158.025 378.984 158.157C385.185 158.157 385.581 159.212 385.845 165.545C385.977 169.504 386.9 173.462 387.428 177.552C388.352 184.544 389.539 191.537 390.067 198.53C390.727 206.446 390.463 214.362 390.99 222.278C391.914 237.583 393.365 252.888 394.157 268.192C395.212 288.247 395.872 308.433 396.532 328.488C396.664 333.369 396.136 338.383 395.872 343.264C395.476 351.708 395.212 360.152 394.948 368.596C394.553 379.151 393.893 389.706 393.497 400.261C393.233 407.122 393.365 413.983 393.629 420.843C394.157 435.884 394.816 450.925 395.608 465.834C396.4 480.347 395.74 494.728 394.289 509.109C394.025 511.748 394.289 514.387 394.157 517.026C393.629 525.338 392.969 533.518 392.178 541.83C391.65 547.107 390.99 552.385 390.199 557.53C389.935 558.85 389.275 560.169 388.879 561.488C387.56 565.182 385.185 566.898 380.963 566.766C376.477 566.502 371.859 567.293 367.242 567.557C360.645 568.085 354.444 565.446 347.847 564.787C337.292 563.731 326.869 563.072 316.182 563.863C308.662 564.391 301.009 563.995 293.357 563.995C285.441 563.995 277.392 563.467 269.476 564.259C258.657 565.314 247.971 565.578 237.284 564.655C236.228 564.523 235.173 564.787 234.117 565.183C226.465 568.085 218.285 568.613 210.237 569.273C206.542 569.536 202.98 570.592 199.286 570.988C196.779 571.384 194.14 571.384 191.238 571.515C190.578 566.634 189.918 562.28 189.523 557.926C188.731 549.086 188.071 540.378 187.148 531.539C186.884 529.428 185.96 527.449 185.696 525.338C184.509 515.31 184.245 505.283 185.169 495.256C185.564 490.77 185.828 486.152 185.828 481.534C185.696 472.299 185.432 463.195 185.037 453.96C184.773 448.814 183.981 443.8 183.717 438.655C183.321 430.871 183.19 423.086 182.794 415.434C182.266 406.067 181.738 396.831 181.078 387.463C180.287 376.381 178.968 365.298 178.572 354.215C178.176 342.737 179.231 331.258 178.572 319.78C177.78 306.454 178.968 292.997 177.648 279.671C176.461 270.039 177.912 259.88 178.176 249.853Z" fill="white" stroke="white" stroke-width="3" stroke-miterlimit="10"/>
<path d="M309.322 115.937C314.863 115.937 320.273 116.201 325.814 115.805C328.981 115.673 332.015 115.146 335.182 115.541C339.668 115.937 341.251 119.368 340.195 123.194C339.536 125.305 338.084 126.888 335.973 127.943C330.828 130.45 325.286 131.11 319.613 131.506C313.148 131.902 306.815 132.034 300.35 132.429C299.823 132.429 299.295 132.429 298.899 132.561C293.622 134.936 287.948 133.221 282.539 133.617C280.56 133.749 278.845 132.429 278.053 130.582C277.129 128.471 276.734 126.096 278.317 123.985C278.976 123.062 280.428 122.534 281.615 121.874C282.011 121.61 282.671 121.742 282.935 121.479C286.365 117.784 291.115 118.312 295.337 117.389C299.163 116.465 302.989 116.201 306.815 115.673C307.607 115.541 308.53 115.673 309.322 115.673C309.322 115.805 309.322 115.937 309.322 115.937ZM332.015 121.347C330.432 121.479 328.717 121.479 327.133 121.61C323.703 121.874 320.141 122.138 316.711 122.138C312.884 122.138 309.19 121.61 305.364 121.742C302.065 121.874 298.767 122.534 295.469 123.062C293.226 123.458 290.983 123.985 288.872 124.645C287.684 125.041 286.365 125.437 285.969 127.284C287.684 127.284 289.268 127.02 290.719 127.416C292.302 127.812 293.754 127.812 295.073 127.284C297.844 126.36 300.746 126.096 303.781 126.096C309.586 125.964 315.523 125.437 321.328 124.909C323.044 124.777 324.759 124.645 326.342 124.249C328.453 123.721 330.564 123.326 332.015 121.347Z" fill="white" stroke="white" stroke-miterlimit="10"/>
<path d="M235.964 126.756C235.701 124.513 236.624 122.534 238.339 120.95C240.45 119.103 242.297 116.729 245.464 116.729C248.235 116.729 251.269 116.729 253.776 117.916C257.206 119.499 258.658 123.457 257.074 127.679C255.755 131.374 252.457 133.089 248.894 134.012C246.519 134.672 244.276 134.54 241.902 134.012C237.944 133.089 235.964 130.846 235.964 126.756ZM249.686 123.193C248.498 123.061 247.443 122.93 246.387 122.798C244.672 122.666 243.221 123.457 242.561 125.041C242.034 126.228 242.429 127.679 243.353 128.339C244.804 129.263 247.311 128.867 249.29 127.283C250.741 126.096 250.741 126.096 249.686 123.193Z" fill="white" stroke="white" stroke-miterlimit="10"/>
<path d="M872.43 333.765C870.582 329.411 867.02 325.585 865.965 321.099C862.666 307.377 854.75 296.295 846.174 285.872C840.105 278.483 835.223 270.303 829.814 262.519C822.293 251.7 820.446 238.638 816.488 226.368C814.245 219.507 812.662 212.383 810.815 205.522C810.155 203.015 809.364 200.64 810.551 197.87C811.211 196.55 810.683 194.439 810.155 192.856C808.044 187.315 805.274 181.905 804.482 175.836C804.218 173.197 803.031 170.823 800.128 169.767C799.6 169.635 798.941 169.107 798.677 168.58C795.906 163.038 792.74 157.629 790.629 151.824C787.462 142.984 784.296 134.276 780.602 125.7C777.699 118.839 774.005 112.506 769.651 106.569C763.45 98.1253 754.214 93.3756 746.034 87.4384C745.506 87.0426 744.715 86.9107 744.055 86.6468C735.347 84.6677 726.639 81.5012 717.667 85.4594C717.14 85.7232 716.612 85.7232 716.084 85.7232C705.002 85.4594 696.953 91.2646 690.489 99.4447C685.739 105.382 681.781 111.847 681.385 119.895C681.253 123.193 680.725 126.624 679.67 129.79C676.503 139.158 678.878 147.47 684.288 155.254C686.399 158.289 688.378 161.587 690.752 164.226C692.468 166.073 694.711 168.316 697.085 168.712C706.321 170.295 715.689 171.218 724.396 165.941C726.903 164.49 729.674 163.434 732.18 162.247C732.972 163.302 733.368 163.698 733.632 164.094C738.382 172.274 742.999 180.586 747.749 188.766C752.763 197.342 756.061 206.578 760.283 215.417C763.054 221.091 765.429 227.028 767.803 232.833C768.991 235.868 770.047 239.166 770.97 242.332C771.498 244.048 772.026 245.763 772.289 247.478C773.345 251.964 774.268 256.45 775.192 260.936C775.72 263.31 775.852 265.817 776.775 268.192C781.393 280.726 786.275 293.26 790.892 305.662C792.344 309.488 793.663 313.315 795.115 317.009C797.621 323.474 799.996 329.807 802.635 336.14C805.274 342.605 808.044 349.069 811.079 355.402C813.586 360.812 817.148 365.825 819.259 371.367C823.481 381.922 823.877 393.136 822.821 404.219C822.03 412.531 818.995 420.711 816.488 428.759C813.718 437.467 809.76 445.779 806.989 454.487C804.218 463.591 801.975 472.826 799.996 482.194C798.413 489.714 795.51 497.235 796.302 505.151C797.489 517.289 799.073 529.295 800.524 541.434C800.524 541.961 800.788 542.489 800.92 543.017C801.843 547.898 802.767 552.648 803.691 557.53C804.218 560.432 804.482 563.467 805.405 566.37C807.516 573.23 809.496 580.223 810.815 587.348C812.926 599.486 816.488 611.36 818.204 623.63C819.919 635.505 818.336 646.983 815.829 658.198C813.982 666.906 810.419 675.35 807.385 683.794C805.801 688.279 803.427 692.369 801.184 696.591C800.524 697.779 799.336 698.966 798.149 699.494C792.608 701.605 788.122 705.695 782.053 706.883C776.775 707.938 772.421 707.674 768.331 703.848C767.144 702.792 765.693 702.133 764.241 701.341C761.339 699.626 758.172 698.307 755.534 696.328C746.958 689.731 740.097 682.21 739.701 670.468C739.437 661.628 738.513 652.92 738.118 644.081C737.854 638.407 737.722 632.866 737.722 627.193C737.722 623.366 737.986 619.408 738.25 615.582C738.646 610.041 739.305 604.499 739.701 598.958C739.701 598.43 739.833 597.903 739.701 597.375C737.062 591.042 738.118 584.577 738.777 578.244C739.437 572.307 741.152 566.37 741.152 560.432C741.02 550.009 739.701 539.718 735.215 530.087C732.84 524.941 731.125 519.532 728.354 514.65C726.243 510.824 723.605 507.13 720.438 504.227C716.48 500.533 712.126 497.103 706.849 495.256C705.133 494.596 703.814 492.881 702.099 492.089C699.065 490.506 695.766 489.186 692.599 487.867C691.148 487.339 689.433 487.339 687.982 486.944C684.551 485.888 683.364 484.305 683.364 480.743C683.364 477.972 683.628 475.069 683.76 472.299C683.892 465.834 685.739 459.237 683.628 452.772C680.725 443.932 677.691 435.092 674.392 426.253C672.941 422.426 671.094 418.732 668.719 415.566C666.212 412.267 663.31 408.441 659.747 406.858C650.512 402.9 642.068 397.358 632.173 394.72C622.145 392.081 612.118 390.63 601.827 390.234C589.953 389.706 578.21 389.178 566.6 386.935C557.496 385.22 550.503 380.602 547.865 371.235C547.469 369.784 547.205 367.673 547.865 366.749C549.712 364.242 548.788 361.867 548.524 359.624C558.156 352.896 569.106 349.597 579.134 344.716C583.883 342.341 588.633 341.417 593.911 341.945C596.022 342.209 598.264 342.077 600.244 341.549C607.104 339.834 614.097 340.23 620.694 341.945C631.249 344.716 642.068 345.243 652.755 345.507C665.816 345.903 678.878 344.452 691.808 343.792C692.863 343.792 693.787 343.132 694.843 342.868C696.822 342.077 698.669 341.021 700.78 340.625C706.981 339.57 711.862 336.272 716.744 332.577C723.473 327.432 729.014 321.099 729.41 312.523C730.07 297.746 729.542 282.969 720.966 269.643C715.688 261.331 710.015 253.679 701.307 248.797C695.766 245.763 690.488 242.464 684.023 241.013C678.35 239.826 672.545 237.979 667.663 235.076C660.671 230.854 653.546 227.951 645.498 226.896C642.595 226.5 639.825 225.313 636.922 224.653C634.679 224.125 632.436 223.993 630.193 223.465C627.819 222.938 625.444 221.882 623.069 221.486C620.166 221.091 617.659 220.431 615.548 218.056C614.757 217.132 613.173 216.737 611.854 216.341C610.007 215.945 608.028 215.945 606.181 215.417C599.32 213.306 592.459 210.799 585.071 210.404C584.279 210.404 583.488 209.876 582.564 209.48C584.675 207.633 586.786 206.05 588.501 204.071C590.348 201.96 592.064 199.585 593.515 197.21C598.529 189.558 597.077 178.211 590.48 172.01C585.203 167.128 580.057 161.983 574.648 157.101C571.613 154.33 568.051 152.615 563.565 152.879C558.42 153.275 553.274 153.011 548.26 153.143C546.018 153.275 543.643 153.407 541.4 153.935C537.178 154.99 532.956 156.705 528.734 157.497C524.776 158.289 522.533 160.136 520.29 163.566C512.242 175.704 508.679 188.634 510.526 203.147C512.11 216.341 517.519 227.819 527.283 236.395C537.178 244.971 547.733 253.151 561.058 256.45C564.093 257.241 566.863 258.956 569.898 260.012C575.176 261.859 580.585 263.97 585.995 265.158C597.605 267.796 609.611 268.72 621.222 272.15C622.409 272.546 623.729 272.546 624.916 272.414C629.798 271.886 633.888 273.733 637.714 276.372C639.561 277.692 641.54 279.011 643.651 279.803C651.963 282.837 660.275 285.608 668.587 288.378C671.094 289.17 673.205 290.226 672.545 294.052C658.692 296.559 644.838 299.329 630.985 301.572C626.631 302.364 622.277 302.364 617.791 302.364C613.965 302.232 610.139 301.176 606.313 301.176C600.508 301.044 594.702 301.572 588.897 301.44C571.613 300.912 554.462 299.593 537.178 302.76C526.623 304.607 517.915 309.224 509.471 315.162C508.811 315.689 508.02 316.217 507.624 317.009C502.346 325.057 498.916 333.897 498.257 343.528C497.993 347.486 499.444 351.576 497.465 355.534C497.201 356.062 497.597 356.986 497.729 357.645C498.916 361.999 497.333 366.749 499.84 370.839C500.367 371.631 499.839 372.95 499.971 374.006C500.235 376.776 500.367 379.547 500.763 382.318C500.895 383.637 501.687 385.088 501.555 386.408C501.291 389.97 503.27 392.345 505.381 394.852C506.964 396.831 508.811 398.81 510.131 401.053C514.617 408.441 518.971 415.83 523.588 423.218C524.644 424.801 526.095 426.253 527.546 427.308C533.747 431.266 540.212 434.829 546.941 437.863C556.045 441.821 565.808 442.745 575.308 443.8C582.696 444.592 590.48 443.668 598.001 442.613C607.104 441.293 615.021 444.592 622.937 448.022C624.256 448.55 625.312 449.473 626.499 450.265C628.478 451.716 630.457 453.168 632.436 454.487C635.471 456.466 638.505 458.709 639.033 462.403C639.693 466.889 640.221 471.771 639.033 475.993C637.054 483.513 634.283 490.77 629.666 497.235C627.686 499.873 626.235 502.908 624.652 505.943C622.541 510.033 620.694 514.255 618.319 518.081C616.472 521.247 613.833 523.886 611.722 526.921C607.368 533.122 603.146 539.455 598.529 545.392C596.813 547.635 594.438 549.218 592.459 551.197C589.293 554.231 585.994 557.134 583.092 560.432C578.474 565.974 574.12 571.779 569.766 577.584C568.315 579.563 567.259 581.806 566.468 584.049C564.357 590.25 561.85 596.319 558.552 601.993C556.309 605.819 553.01 609.249 552.614 614.131C552.483 616.374 551.823 618.485 551.295 620.596C548.788 630.095 547.865 639.727 547.733 649.358C547.733 650.809 547.733 652.261 547.337 653.58C544.171 663.607 544.434 674.162 543.511 684.453C542.851 692.106 543.511 700.022 543.115 707.674C542.719 714.139 543.115 720.208 545.886 726.145C547.073 728.784 548.129 731.819 548.656 734.721C550.24 743.561 551.823 752.401 552.878 761.373C553.406 765.199 553.67 769.289 552.746 772.983C551.163 779.844 548.92 786.573 546.413 793.169C544.698 797.391 542.587 801.745 539.421 804.78C533.879 810.189 527.546 814.675 521.477 819.425C520.554 820.085 519.234 820.348 518.047 820.744C510.659 823.119 503.27 825.362 495.882 828.001C490.208 829.98 484.535 831.827 478.334 831.827C466.723 832.091 454.981 832.487 443.371 832.487C427.274 832.487 411.31 833.014 395.214 831.695C381.228 830.376 367.111 830.244 352.994 829.716C347.452 829.452 342.043 829.716 336.502 829.188C324.627 827.869 313.149 824.438 301.142 824.174C296.393 824.043 291.775 822.591 287.025 822.064C276.998 821.008 267.103 819.821 257.867 815.335C254.437 813.62 250.743 812.168 247.048 810.981C241.243 809.134 236.098 806.231 232.271 801.481C230.292 799.107 227.39 797.127 228.577 793.301C228.709 792.905 228.445 792.246 228.181 791.982C223.959 788.815 223.432 783.934 221.849 779.58C220.793 776.677 220.925 773.775 222.508 770.872C225.279 765.858 226.598 760.449 226.73 754.644C226.73 749.234 227.126 743.693 228.049 738.284C228.841 733.798 228.709 729.444 227.126 725.222C226.334 722.979 225.674 720.868 227.258 717.965C235.438 717.965 243.618 718.097 251.666 717.965C260.11 717.833 268.554 717.833 276.998 717.174C296.393 715.854 315.787 714.271 335.05 712.688C342.439 712.028 349.827 711.236 357.084 710.181C366.056 708.862 374.763 706.883 383.735 706.091C396.797 704.904 408.935 701.077 420.809 695.932C426.087 693.557 430.441 689.995 433.079 684.717C438.489 674.69 442.051 664.003 444.822 653.052C445.746 649.358 446.933 645.4 446.801 641.574C446.405 631.678 445.877 621.783 444.426 612.02C442.579 600.014 443.107 588.007 444.69 576.133C446.009 566.634 445.878 557.134 445.482 547.635C445.086 539.718 445.086 531.67 445.482 523.754C446.141 508.449 447.593 493.013 447.988 477.708C448.384 462.667 447.725 447.626 447.725 432.717C447.725 414.378 447.856 396.039 447.988 377.7C447.988 371.235 448.252 364.77 448.384 358.305C448.516 354.083 448.78 349.861 448.912 345.639C449.308 334.292 449.835 323.078 449.835 311.731C449.835 296.954 449.308 282.177 449.044 267.4C448.912 256.054 448.78 244.839 448.912 233.493C449.044 222.674 449.44 211.987 450.099 201.168C450.495 194.835 449.967 188.502 449.572 182.169C448.912 174.517 449.308 166.733 449.308 158.948C449.176 143.38 447.724 128.075 441.259 113.694C440.732 112.506 440.996 110.923 440.732 109.472C439.808 104.062 439.149 98.6531 434.135 95.0908C432.288 93.7714 431.232 91.6604 429.781 89.8133C428.857 88.7578 428.33 87.1745 427.142 86.5149C422.788 83.8761 418.434 82.4248 413.685 80.9735C403.262 77.807 392.839 74.2447 381.756 74.2447C378.985 74.2447 376.215 73.4531 373.312 73.3212C367.111 72.9253 361.042 72.5295 354.841 72.5295C348.904 72.5295 342.835 73.0573 336.897 73.3212C333.599 73.4531 330.301 72.9253 326.87 73.0573C314.996 73.4531 303.254 74.9044 291.379 74.1128C284.387 73.585 277.262 73.9808 270.269 74.6405C257.735 75.828 245.333 77.6751 232.931 79.1264C228.049 79.6541 223.036 79.6541 218.154 80.4458C200.343 82.9526 182.795 85.5913 165.379 90.473C157.199 92.7159 149.019 94.695 140.839 97.3337C137.409 98.3892 134.242 100.632 131.076 102.347C129.097 103.403 127.249 105.646 125.27 105.778C119.993 106.437 116.299 108.68 114.188 113.43C113.792 114.222 113 114.749 112.473 115.409C106.403 121.61 101.522 128.735 97.4319 136.387C94.0015 142.72 90.0432 148.657 87.6683 155.65C86.217 159.872 83.9743 163.962 82.9188 168.448C81.5994 174.121 79.7521 179.662 78.4328 185.336C77.5092 189.426 76.8497 193.648 76.322 197.738C76.0581 199.981 76.5857 202.356 76.1899 204.598C74.4747 214.098 75.2663 223.597 75.794 233.097C76.5856 246.422 77.7733 259.88 78.9607 273.206C80.412 289.17 81.3354 305.266 81.0715 321.363C80.9396 329.939 81.5994 338.646 81.8632 347.354C81.9952 353.16 81.9952 358.965 82.2591 364.77C82.523 374.665 83.0507 384.561 83.1826 394.324C83.3146 399.733 82.3909 405.275 83.0505 410.684C84.106 419.26 84.3699 427.836 83.7102 436.544C83.3144 443.009 83.8424 449.605 83.5785 456.07C83.0507 467.285 81.8633 478.5 82.9188 489.846C83.0507 491.561 83.0507 493.408 82.9188 495.124C82.7869 498.95 82.2591 502.776 82.2591 506.602C82.3911 510.428 80.6758 514.255 82.5229 518.213C82.9187 519.136 82.7867 520.983 82.1271 521.775C80.6757 523.49 81.4675 525.073 81.5994 526.789C82.523 533.385 84.7659 539.982 81.5994 546.447C81.4675 546.711 81.5994 547.107 81.5994 547.503C81.4675 552.12 81.3355 556.738 81.2036 561.224C81.0716 565.578 80.8077 570.064 80.8077 574.418C80.8077 577.848 80.8077 581.41 80.8077 584.841C80.8077 586.82 80.6759 588.799 80.6759 590.646C80.9398 598.562 81.3354 606.479 81.7312 614.395C81.8631 616.11 81.5995 617.957 81.9953 619.672C83.1827 624.686 83.4464 629.699 83.0505 634.845C82.7867 637.748 83.0506 640.914 83.4464 643.817C84.37 650.809 85.8212 657.802 86.349 664.795C86.7448 669.412 88.0642 674.162 86.0852 678.78C85.5574 679.967 85.8215 682.342 86.6131 683.266C91.2309 688.016 95.8485 693.161 101.258 696.987C108.91 702.265 117.882 705.035 125.93 709.917C131.603 713.347 138.728 714.799 145.457 715.986C152.845 717.306 160.629 717.438 168.15 718.097C171.712 718.361 172.504 719.285 172.24 722.715C171.844 728.124 171.58 733.666 170.789 739.075C169.601 747.651 170.129 755.963 172.24 764.275C173.032 767.178 173.032 770.476 174.483 772.851C176.462 775.886 176.462 779.052 176.99 782.35C177.913 788.42 178.969 794.489 180.948 800.294C183.059 806.495 186.225 812.168 188.996 818.105C189.788 819.821 190.843 821.536 192.163 822.723C198.364 827.869 204.697 833.014 211.294 837.764C214.724 840.271 218.286 842.646 222.244 844.097C228.181 846.34 234.514 847.527 240.451 849.638C247.048 852.013 253.645 854.52 259.978 857.555C271.457 863.096 283.463 867.186 296.129 869.033C309.982 870.88 323.836 872.595 337.689 874.047C351.542 875.498 365.528 876.685 379.381 877.741C387.693 878.269 396.005 878.269 404.185 878.533C411.178 878.796 418.303 879.324 425.295 879.852C430.969 880.248 436.51 880.907 442.183 881.435C445.746 881.699 449.176 881.831 452.738 881.831C455.377 881.831 458.016 881.303 460.654 881.435C469.098 881.567 477.542 881.963 486.118 881.963C491 881.963 496.146 881.963 500.895 880.644C510.922 877.873 520.95 874.97 530.449 870.748C540.74 866.13 550.108 859.534 558.288 851.617C559.343 850.694 560.531 849.902 561.586 848.979C563.829 847 566.204 845.152 567.919 842.778C570.558 839.083 572.801 834.993 575.176 831.035C579.266 824.438 584.807 818.765 586.654 810.981C587.182 809.002 588.237 807.023 589.557 805.439C592.064 802.405 593.119 798.843 593.251 795.148C593.515 787.892 593.515 780.635 593.383 773.511C593.119 764.803 592.327 756.227 592.063 747.651C591.932 743.561 591.272 739.735 590.084 735.777C588.897 731.951 588.105 727.861 587.842 723.902C587.314 716.91 587.578 709.917 586.126 702.924C585.467 699.494 585.731 695.8 586.258 692.369C587.842 682.21 589.293 672.051 591.536 662.156C594.043 650.414 597.209 638.935 600.112 627.193C600.376 626.137 600.903 625.214 601.563 624.422C604.07 620.992 606.445 617.429 609.347 614.527C612.91 611.096 614.757 606.874 616.604 602.388C619.375 595.132 623.069 588.403 628.478 582.598C631.909 579.036 634.811 574.946 637.582 570.856C643.651 562.016 649.456 553.044 655.525 544.072C657.109 541.829 659.615 540.114 660.803 537.607C662.65 533.517 665.552 532.594 669.379 533.121C671.885 533.517 675.316 532.198 676.635 535.892C676.767 536.288 677.823 536.42 678.482 536.552C681.781 537.212 683.76 539.982 684.815 542.357C687.454 548.954 688.641 555.815 688.641 563.071C688.509 569.932 688.905 576.793 689.037 583.653C689.037 585.764 689.037 587.875 688.905 589.986C688.905 592.493 688.642 595 688.905 597.375C689.565 603.444 691.28 609.513 691.28 615.714C691.412 627.72 692.995 639.595 691.808 651.601C691.676 652.656 691.808 653.712 691.808 654.767C692.6 669.412 693.523 683.925 694.315 698.57C694.579 703.98 695.502 709.389 700.12 712.82C704.474 715.986 707.377 720.472 710.939 724.298C713.314 726.805 715.952 729.18 718.459 731.687C720.042 733.27 721.758 734.985 723.077 736.7C728.091 743.429 734.292 748.443 742.208 751.081C748.013 753.06 753.818 755.303 759.887 756.755C764.637 757.942 769.651 758.602 774.532 758.866C785.087 759.525 795.115 756.359 805.274 753.588C809.496 752.401 813.85 750.818 817.412 748.575C825.592 743.297 832.585 736.436 837.994 728.256C843.14 720.604 847.758 712.688 852.507 704.903C857.521 696.459 861.611 687.752 860.423 677.461C859.896 672.579 860.159 667.565 860.159 662.684C860.159 652.524 860.687 642.233 860.291 632.074C859.896 621.651 856.993 611.492 857.389 601.069C857.389 600.014 857.389 598.958 857.125 597.903C854.486 583.917 852.507 569.668 847.362 556.21C846.306 553.44 846.438 550.141 845.119 547.503C842.216 542.357 840.897 536.816 839.049 531.274C837.334 525.733 836.411 520.324 836.411 514.65C836.543 506.074 837.334 497.367 837.334 488.791C837.334 480.743 840.237 473.618 842.348 466.23C844.327 459.501 847.625 453.168 850.132 446.571C853.958 436.676 856.861 426.385 861.347 416.885C867.284 404.351 871.242 391.157 875.2 377.964C876.652 373.082 878.499 368.068 878.367 363.055C878.894 352.764 876.388 343 872.43 333.765ZM561.586 174.649C562.378 174.517 563.169 174.385 563.961 174.121C564.225 175.44 564.357 176.628 564.489 177.683C566.336 180.454 567.259 183.884 566.468 187.974C566.468 187.974 548.129 184.808 541.796 177.815L540.212 175.572C539.948 175.045 539.817 174.649 539.685 174.121C538.497 167.524 553.406 167.656 561.586 174.649ZM620.958 243.916C620.298 245.895 619.77 248.533 618.319 249.325C615.68 250.776 612.382 251.568 609.347 251.7C606.841 251.832 604.202 250.908 601.563 250.381C598.66 249.853 595.758 249.325 592.196 248.797C591.404 246.95 589.293 246.027 586.39 245.631C577.55 244.575 570.162 240.089 562.774 235.604C558.552 233.097 554.066 230.986 550.24 227.951C543.511 222.542 536.122 217.396 534.935 207.633C534.671 205.918 533.879 204.335 533.088 202.751C532.56 201.696 531.768 200.904 530.977 200.113C529.921 201.036 528.998 201.96 528.206 202.619C527.81 199.981 526.887 196.946 529.262 193.78C530.317 192.328 529.262 189.426 529.13 187.315C529.13 186.391 528.998 185.468 528.866 183.225C533.22 186.391 536.914 188.634 539.948 191.669C542.983 194.703 546.018 196.286 550.372 195.231C551.691 194.967 553.142 194.835 554.461 195.231C557.628 196.023 560.663 197.21 563.829 198.265C562.51 201.828 559.079 204.73 555.253 205.258C554.198 205.39 553.142 205.522 552.219 205.918C550.371 206.577 549.844 208.293 550.767 209.744C551.955 211.591 553.538 214.362 555.253 214.626C559.475 215.285 561.85 218.848 565.412 220.035C571.877 222.278 578.474 224.389 585.071 226.104C592.327 227.951 599.32 230.062 605.785 233.757C609.216 235.736 613.437 236.395 617.264 237.451C621.881 238.506 622.409 239.166 620.958 243.916ZM125.666 187.315C125.93 177.947 126.986 168.712 127.645 159.344C128.041 153.935 128.437 148.393 128.569 142.984C128.569 138.102 131.208 134.276 132.923 130.054C133.319 128.999 134.902 128.207 136.089 127.547C140.575 125.04 144.665 122.006 149.679 120.818C151.13 120.423 152.45 119.235 153.505 118.048C156.408 114.617 159.442 111.715 164.456 112.243C164.852 112.243 165.115 111.319 165.643 110.923C168.15 108.812 170.657 106.833 174.351 107.097C176.99 107.361 179.629 107.097 182.267 107.097C181.872 108.153 181.344 109.076 180.552 111.187C184.246 110.132 187.677 110.132 189.656 108.416C191.503 106.965 193.086 106.965 194.801 107.097C198.364 107.361 201.662 106.833 205.224 105.91C209.05 104.986 213.404 104.326 217.099 105.382C220.397 106.305 222.904 105.514 225.807 105.25C226.862 105.118 228.181 104.326 228.841 104.722C234.514 108.416 240.715 106.569 246.125 105.25C253.117 103.535 259.055 104.59 265.519 107.097C267.762 104.854 270.269 103.535 273.832 104.458C275.019 104.854 276.866 104.326 277.79 103.535C280.956 100.896 284.782 101.292 288.345 100.896C290.983 100.5 301.142 99.1808 301.142 101.82L317.371 100.632C319.878 100.368 322.252 100.5 324.363 99.9724C326.343 99.4447 328.189 98.2573 330.432 97.3337C330.828 98.1253 331.488 99.4447 332.676 101.556C333.731 99.3127 334.391 97.8614 335.314 96.0143C338.481 100.104 342.043 99.5766 346.397 98.785C351.279 97.8614 356.424 98.5211 361.702 98.5211C362.229 98.1253 363.153 96.8059 364.34 96.4101C365 96.1462 366.187 97.4656 367.111 97.9934C368.034 98.5211 369.09 99.0489 370.013 99.5766C370.937 99.9724 371.993 100.236 373.312 100.632C376.478 94.9588 381.888 98.3892 386.242 97.3337C389.54 96.5421 393.235 97.2018 396.929 97.2018C397.193 96.0143 397.325 95.0908 397.589 93.9033C398.38 94.0353 399.435 94.0353 399.699 94.4311C402.734 98.1253 406.956 98.2572 411.178 98.5211C415.532 98.9169 417.115 102.479 419.49 105.25C419.754 105.646 419.754 106.305 419.622 106.833C417.775 113.166 420.15 119.367 420.282 125.7C420.414 133.089 420.809 140.477 421.337 147.866C421.601 152.088 422.392 156.31 422.788 160.532C423.58 169.899 424.24 179.135 425.031 188.502C425.691 197.474 426.483 206.446 427.274 215.417C427.538 219.507 427.934 223.465 427.934 227.555C427.934 238.242 429.781 248.533 431.232 259.088C432.024 265.553 432.42 272.15 432.684 278.615C433.211 289.962 433.607 301.176 433.739 312.523C433.871 317.405 433.343 322.418 433.211 327.3C432.948 335.876 432.816 344.584 432.42 353.159C432.156 358.569 431.496 364.11 431.496 369.52C431.496 383.637 431.892 397.754 431.892 411.739C431.892 416.357 430.837 420.843 430.441 425.461C430.177 429.023 430.177 432.454 430.045 436.016C429.913 445.647 429.781 455.411 429.649 465.042C429.649 465.966 429.385 466.889 429.517 467.681C430.837 475.861 428.725 483.777 428.066 491.957C427.406 500.269 426.483 508.713 425.559 517.025C425.427 518.608 424.636 520.06 424.372 521.643C423.976 524.546 423.316 527.58 423.448 530.483C423.712 533.517 424.504 536.288 423.052 539.191C422.525 540.378 422.788 541.961 422.788 543.281C422.788 545.656 422.92 548.162 422.92 550.537C422.92 551.725 422.129 553.044 422.261 554.1C423.316 561.884 421.865 569.536 421.733 577.188C421.601 582.466 421.205 587.743 421.205 593.021C421.073 596.583 421.337 600.014 421.337 603.576C421.337 604.631 421.865 605.819 421.469 606.742C418.302 616.374 420.414 626.665 416.719 636.164C415.136 640.122 413.685 644.081 411.969 647.907C410.386 651.337 407.879 653.712 404.053 655.163C394.29 658.726 385.186 664.003 374.631 665.059C373.708 665.19 372.916 665.454 371.993 665.454C358.799 665.059 346.133 668.885 333.335 671.26C327.662 672.315 321.857 672.843 316.051 673.634C315.26 672.447 314.864 673.107 314.996 673.634L255.624 672.843C253.909 675.877 250.743 675.877 248.104 675.482C238.736 674.162 229.369 674.294 220.265 675.877C208.918 677.856 197.836 676.537 186.489 675.877C183.059 675.745 180.552 673.766 178.969 670.336C176.726 672.447 174.747 672.843 171.976 672.315C165.643 670.996 159.178 670.336 152.845 669.544C152.977 669.149 153.241 668.753 153.373 668.357C152.318 667.433 150.998 665.454 150.075 665.586C147.172 666.114 145.721 664.399 144.27 662.684C138.464 655.955 134.77 648.303 132.395 639.463C129.624 629.172 127.777 618.749 126.59 608.326C126.326 605.555 126.194 602.652 126.326 599.882C126.722 591.57 127.25 583.39 127.645 575.078C128.041 569.14 128.437 563.203 128.569 557.134C128.569 553.836 128.041 550.537 127.645 547.239C127.381 545.26 126.986 543.413 126.986 541.434C126.854 534.969 126.854 528.372 126.854 521.907C126.722 515.178 126.326 508.581 126.458 501.853C126.59 491.166 127.118 480.347 127.514 469.66C127.646 466.361 127.909 462.931 128.041 459.633C128.041 455.938 127.909 452.244 127.909 448.55C127.909 443.141 128.173 437.599 128.305 432.19C128.437 424.273 128.569 416.357 128.701 408.441C128.833 400.261 129.097 392.213 129.228 384.033C129.228 382.977 129.492 381.922 129.361 380.866C127.909 366.881 130.416 353.028 129.888 339.174C129.624 330.598 129.097 321.89 128.569 313.315C128.173 307.245 127.777 301.044 127.514 294.975C127.118 287.059 126.722 279.143 126.59 271.227C126.458 265.289 126.59 259.22 126.722 253.283C126.854 247.874 127.25 242.332 127.118 236.923C126.986 231.118 126.458 225.313 126.326 219.639C125.93 208.557 125.402 197.87 125.666 187.315ZM209.446 748.311C209.314 752.401 208.259 753.72 204.565 754.776C197.836 756.887 194.801 754.512 194.933 747.387C194.933 745.408 195.461 743.297 195.989 740.395C193.35 738.152 195.329 734.721 194.669 731.423C196.121 731.687 196.912 731.951 197.968 732.083C197.968 729.84 197.968 727.729 197.968 725.618C197.968 723.243 197.836 720.868 200.474 719.812C202.717 719.021 207.731 721.264 208.391 723.507C209.182 726.013 209.842 728.652 209.974 731.291C209.974 737.096 209.71 742.769 209.446 748.311ZM172.504 703.452V701.473C164.588 700.945 156.672 700.418 148.623 700.022C143.346 699.758 138.728 698.307 134.242 695.404C130.944 693.425 127.25 692.106 123.555 690.918C119.07 689.467 115.771 687.092 113.528 683.002C112.341 680.759 111.153 678.516 107.987 677.724C106.536 677.329 105.084 674.69 104.556 672.843C101.654 661.76 100.73 650.414 99.5427 638.935C99.5427 638.539 99.4107 638.143 99.5427 637.88C102.181 634.053 99.8065 630.227 99.5427 626.401C99.2788 620.068 99.4109 613.735 99.4109 607.402C99.4109 604.763 99.0149 602.125 98.883 599.486C98.4872 591.965 98.2236 584.313 97.8277 576.793C97.4319 569.008 97.5638 561.356 98.7512 553.704C100.071 544.864 99.9386 535.76 100.334 526.789C100.73 517.289 101.126 507.79 101.522 498.158C101.522 497.63 101.654 497.103 101.654 496.575C99.2789 486.416 101.126 476.125 101.126 465.966C100.994 452.904 101.39 439.842 101.258 426.78C101.126 419.392 100.466 412.003 100.202 404.615C100.07 396.831 100.071 389.046 100.071 381.262C100.071 380.866 99.9387 380.47 100.071 380.207C103.105 374.665 101.918 369.388 99.9385 363.846C99.015 360.944 99.6746 357.513 99.5427 354.347C99.2788 346.299 99.1471 338.119 98.7512 330.071C97.8277 309.62 96.9041 289.17 95.7166 268.72C95.3208 261.991 94.3974 255.394 93.8696 248.665C93.6058 246.159 92.6821 243.388 96.3763 243.388C95.3208 240.485 94.3973 238.638 94.1334 236.659C93.4738 231.514 92.946 226.236 92.8141 221.091C92.6821 218.188 93.3418 215.153 93.4738 212.119C94.0015 204.335 94.2654 196.682 94.7931 188.898C95.057 185.731 95.3209 182.565 98.7512 180.982C97.6957 171.086 102.182 160.268 109.042 156.969C108.779 159.74 108.646 162.247 108.251 164.753C106.404 175.308 107.591 185.863 107.987 196.418C108.383 203.939 109.438 211.459 110.098 218.98C110.23 220.827 109.834 222.806 109.57 224.785C107.855 238.374 109.57 251.964 109.57 265.421C109.57 274.525 110.098 283.629 108.778 292.864C107.591 301.176 108.646 309.752 108.514 318.328C108.383 324.001 107.987 329.543 107.591 335.216C107.327 339.438 106.535 343.66 106.931 347.882C107.987 359.756 107.063 371.499 106.667 383.373C106.272 394.984 105.876 406.726 106.14 418.336C106.403 426.121 107.855 433.773 109.174 441.425C111.153 452.904 109.966 464.382 109.702 475.729C109.57 480.479 109.306 485.228 109.042 489.978C109.042 490.506 109.042 491.034 108.91 491.561C106.404 503.04 109.042 514.386 109.834 525.733C110.494 535.76 110.098 545.787 110.23 555.815C110.23 562.016 110.494 568.217 110.362 574.286C110.23 582.994 109.57 591.57 109.966 600.277C110.626 612.943 111.417 625.609 113.132 638.143C114.188 645.928 117.09 653.448 119.465 661.1C120.389 664.267 121.972 667.302 123.291 670.336C127.513 679.308 135.298 684.453 144.27 687.752C148.491 689.335 153.109 690.127 157.595 691.182C162.345 692.37 167.095 693.689 171.976 694.612C171.976 694.612 270.269 695.404 344.286 687.62C344.814 687.488 345.209 687.356 345.737 687.224C351.279 685.509 356.952 684.321 362.889 684.057C369.882 683.662 377.006 682.738 383.999 681.815C386.11 681.551 387.957 680.495 389.936 679.835C393.103 678.912 396.269 677.856 399.435 676.933C399.699 677.461 400.095 677.856 400.359 678.384C399.435 679.44 398.512 680.759 397.325 681.683C394.818 683.662 392.311 685.509 389.672 687.356C388.881 687.884 387.825 688.279 386.77 688.411C384.527 688.807 382.152 689.071 379.909 689.467C379.909 689.467 379.645 689.467 379.249 689.599C372.388 690.654 365.396 691.578 358.535 692.633C355.896 693.029 353.39 693.689 350.751 693.953C344.55 694.612 338.613 696.196 332.016 695.272C331.884 695.272 331.884 695.272 331.752 695.272C327.266 695.8 322.516 696.196 317.503 696.723C316.579 696.855 315.656 697.119 314.864 697.251C312.489 697.647 308.399 697.911 304.573 698.043C296.921 698.703 289.004 699.494 280.824 700.022C279.505 700.418 278.186 700.813 276.866 700.813C272.776 700.945 268.554 701.341 264.332 701.209C233.591 703.452 200.606 704.64 172.504 703.452ZM770.838 177.419C768.991 173.197 767.408 168.975 764.109 165.545C758.436 159.608 755.006 152.219 751.443 144.963C749.596 141.005 746.694 137.574 744.319 134.012C743.659 132.957 742.999 131.901 742.472 130.978C741.416 129.394 740.757 127.02 739.305 126.36C736.667 125.04 733.632 124.249 730.729 124.249C727.695 124.117 725.452 128.207 727.167 130.846C730.861 136.387 726.903 140.213 724.66 144.303C724.264 145.095 722.549 145.623 721.494 145.491C718.195 144.963 714.897 144.303 711.862 143.248C709.224 142.324 706.849 140.609 704.606 139.026C703.286 138.102 702.363 136.651 701.307 135.463C701.571 135.2 701.835 134.936 702.231 134.54C703.55 135.727 696.689 120.423 698.537 121.874C698.669 120.291 698.933 118.576 699.065 116.86C699.856 118.444 706.453 108.68 707.112 108.153C709.619 106.042 709.092 120.423 709.487 115.409C711.73 117.652 713.577 119.499 715.688 121.61C717.272 118.707 715.82 116.596 715.029 114.354C713.05 108.812 715.424 103.535 720.966 102.347C727.035 101.16 733.104 101.424 738.777 105.118C744.451 108.944 750.388 112.506 754.742 118.048C756.721 120.687 758.964 123.193 760.415 126.096C763.054 131.505 765.429 136.915 767.54 142.588C770.97 151.428 774.137 160.4 777.171 169.371C778.886 174.385 780.338 179.398 781.789 184.412C782.317 185.995 782.317 187.842 782.712 189.822C780.733 190.481 779.15 191.009 777.303 191.537C775.06 186.655 772.949 182.037 770.838 177.419ZM575.176 708.202C575.176 708.202 602.223 829.056 536.122 845.021C534.143 846.208 532.164 847.395 530.317 848.583C523.324 853.069 515.936 856.631 507.228 856.367C503.93 856.235 500.631 857.291 497.333 857.687C494.694 858.082 492.187 858.214 489.549 858.61C488.493 858.742 487.437 858.874 486.514 859.27C481.236 862.304 475.827 862.04 470.154 860.985C466.987 860.457 463.557 860.457 460.259 860.721C451.155 861.381 442.315 860.061 433.475 858.742C427.142 857.687 420.677 857.027 414.081 857.687C406.824 858.346 399.304 857.95 392.047 858.214C389.145 858.214 386.11 858.214 383.207 858.742C378.985 859.402 374.895 858.478 370.805 857.687C367.639 857.159 364.472 857.159 361.438 856.499C354.841 855.18 348.244 855.971 341.647 854.388C335.842 853.069 329.773 852.937 323.836 852.409C314.996 851.617 306.42 849.902 297.976 847.132C291.379 845.021 284.255 843.965 277.394 842.778C269.609 841.458 261.825 840.667 254.437 837.104C248.5 834.202 241.771 833.014 235.438 830.903C231.48 829.584 228.049 827.209 224.619 824.174C227.39 821.8 230.028 821.8 232.799 822.987C237.021 824.702 241.111 826.813 245.333 828.528C254.305 832.091 263.277 835.521 272.908 836.709C286.234 838.424 299.427 840.139 312.753 841.986C320.141 843.042 327.398 844.229 334.786 845.153C339.008 845.68 343.23 846.076 347.452 846.208C359.855 846.604 372.124 846.736 384.527 847.395C394.158 847.923 403.921 848.715 413.553 849.77C418.171 850.298 423.184 848.847 427.406 851.881C427.67 852.145 428.462 852.013 428.99 851.749C433.344 849.77 437.565 851.354 441.919 852.013C446.009 852.541 450.231 852.409 454.453 852.277C461.446 852.145 468.438 851.881 475.563 851.617C477.41 851.485 479.257 851.09 481.236 850.826C482.292 850.694 483.48 850.034 484.403 850.43C487.702 851.749 490.868 851.749 494.298 850.562C495.882 850.034 497.597 849.902 499.312 849.506C499.708 849.375 499.972 848.979 500.236 849.111C505.645 851.222 508.548 846.076 512.77 844.625C517.255 843.173 521.477 840.535 525.963 839.347C529.13 838.556 532.032 837.236 534.803 835.653C538.233 833.542 583.62 803.988 566.336 728.52C566.336 728.52 549.448 691.974 571.349 621.915C571.349 621.915 584.147 619.936 586.786 626.137C586.258 625.741 571.877 662.948 575.176 708.202ZM637.45 541.17C629.006 554.1 620.826 567.293 610.535 579.036C608.82 581.015 607.632 583.39 606.577 585.764C604.729 590.118 603.542 594.736 601.431 598.958C599.98 601.861 597.605 604.367 595.362 606.874C594.702 607.666 592.723 607.798 591.668 607.402C588.105 606.083 584.675 604.236 580.585 602.388C581.245 598.298 581.377 594.472 582.432 591.042C583.224 588.271 584.939 585.5 586.654 583.258C590.612 578.112 594.834 573.23 599.188 568.349C602.091 565.05 605.521 562.28 608.424 558.981C612.25 554.627 615.68 550.009 619.374 545.524C622.937 541.038 626.631 536.552 630.193 531.934C632.041 529.559 634.02 528.504 637.054 529.559C638.769 530.087 640.748 530.087 642.859 530.483C642.727 534.969 639.429 538.003 637.45 541.17ZM601.695 418.468C598.924 418.864 596.286 419.524 593.779 421.239C592.591 422.031 590.744 422.294 589.161 422.163C582.432 421.767 575.835 421.371 569.107 420.579C564.753 420.052 560.399 419.524 556.045 420.315C555.253 420.447 554.198 420.579 553.406 420.183C548.26 417.281 541.795 416.621 537.573 412.267C534.935 409.497 532.824 406.198 530.977 402.768C526.359 394.72 523.456 386.144 522.401 376.776C521.477 368.728 520.026 360.68 519.366 352.632C518.971 348.146 519.894 343.528 520.158 338.91C520.554 330.071 525.831 324.925 533.484 322.286C539.157 320.307 545.094 318.724 551.163 318.328L551.295 318.196H554.198C554.33 318.196 554.462 318.196 554.594 318.196L648.665 318.328C649.324 318.328 649.852 318.328 650.512 318.328C656.713 318.592 662.782 318.196 668.587 315.689C672.545 313.974 676.899 312.919 680.857 311.072C684.947 309.224 689.037 306.982 692.864 304.607C695.766 302.892 695.37 299.593 694.843 296.954C692.864 287.059 687.982 278.747 679.274 273.47C674.92 270.831 670.698 267.269 665.025 267.137C663.573 267.137 661.99 265.158 660.143 263.706C654.074 263.706 647.345 264.102 641.144 260.672C635.603 257.637 634.811 255.79 637.054 249.853C637.714 248.27 637.582 246.422 637.846 244.575C641.936 243.124 645.63 244.311 649.192 245.631C653.282 247.214 657.109 249.457 661.199 251.04C668.323 253.811 675.448 256.186 682.572 258.693C690.489 261.463 696.426 266.477 701.439 273.338C706.849 280.726 709.619 289.038 711.599 297.746C712.522 301.836 712.654 306.322 711.862 310.412C711.203 313.446 709.092 316.613 706.717 318.724C701.044 323.869 693.655 325.585 686.267 326.376C676.371 327.3 666.476 327.696 656.713 328.223C654.734 328.355 652.755 328.487 650.908 328.223C650.908 328.223 580.717 321.099 542.851 331.126C540.872 332.841 539.157 334.952 537.573 337.063C535.199 340.098 532.692 343 530.449 346.167C529.262 347.882 528.602 349.861 527.678 351.708C525.171 356.722 526.359 361.735 527.283 366.749C528.074 371.103 529.13 375.325 529.789 379.679C530.449 384.692 531.505 388.782 536.518 391.949C540.872 394.588 543.775 399.469 547.205 403.559C549.184 405.934 550.899 408.441 554.461 407.781C561.19 411.344 568.183 411.212 575.44 409.892C576.891 409.629 578.738 410.024 580.057 410.684C582.564 411.871 584.543 412.003 586.654 409.76C587.71 408.705 589.953 408.045 591.404 408.441C597.737 410.024 604.07 409.101 610.271 409.233C613.173 409.233 615.944 409.76 618.715 410.552C627.423 411.74 637.318 414.774 646.158 421.371C647.609 422.031 648.928 422.69 650.38 423.482C653.942 425.329 655.921 428.759 657.372 432.454C663.573 440.502 665.816 449.078 666.344 456.862C666.872 458.709 666.74 460.952 666.608 462.931C666.476 465.702 666.212 468.604 665.552 471.243C665.156 472.694 664.761 474.146 664.233 475.597C663.046 479.687 661.99 482.062 661.99 482.062C661.726 482.59 660.407 483.249 659.879 482.985C658.824 482.458 657.9 481.666 657.241 480.743C656.977 480.347 657.24 479.423 657.372 478.764C657.504 477.444 657.636 476.125 657.768 474.805C659.088 431.134 620.166 420.843 601.695 418.468ZM851.188 395.511C850 399.469 848.417 403.296 846.702 407.913C804.878 508.713 833.244 549.086 833.244 549.086C854.222 612.152 841.161 668.357 841.161 668.357C837.466 734.326 782.053 741.582 782.053 741.582C733.764 744.617 725.188 708.334 725.188 708.334C701.044 684.717 710.939 593.812 710.939 593.812C710.939 534.969 691.94 520.851 686.926 518.081C684.947 517.157 682.968 516.234 680.857 515.442C673.996 512.671 666.872 512.012 659.879 514.914C656.581 516.234 653.942 515.97 651.567 513.727C648.533 510.956 647.741 506.338 649.192 503.172C657.24 504.623 665.157 506.206 673.733 507.79C675.976 504.227 678.878 503.04 682.836 505.679C683.496 506.074 684.551 505.811 685.343 505.811C687.982 505.943 690.357 506.734 692.599 508.317C693.391 508.845 694.183 509.373 694.843 509.901C696.69 510.824 698.273 511.88 699.856 513.067C701.703 514.123 703.682 515.31 705.529 516.366C710.675 519.268 712.918 524.282 715.029 529.295C715.161 529.691 715.425 530.219 715.557 530.615C721.23 540.51 722.549 549.218 722.549 549.218C731.389 599.222 718.459 655.295 718.327 655.955C729.014 718.757 780.206 727.729 780.206 727.729C780.997 727.465 781.789 727.333 782.581 727.069C782.713 726.937 782.976 726.805 783.108 726.805C784.823 725.75 786.539 725.222 788.386 725.222C819.919 713.611 828.627 684.057 831.397 668.753C831.397 668.225 831.529 667.829 831.661 667.301C833.64 656.219 837.071 636.296 834.036 609.117C833.772 608.458 833.508 607.93 833.508 607.27C832.716 601.597 830.869 596.319 829.55 590.778C828.363 585.632 827.307 580.487 825.988 575.341C825.46 572.966 824.8 570.592 824.009 568.217C823.481 566.37 823.349 564.391 823.085 562.412C822.426 560.564 821.766 558.717 821.106 556.738C820.842 556.474 820.71 555.947 820.71 555.551C800.392 500.401 817.28 468.868 817.28 468.868C847.229 398.678 840.369 385.22 840.369 385.22C840.369 368.992 824.537 325.717 810.287 289.698C809.76 288.642 809.364 287.455 808.968 286.267C803.031 271.359 797.489 258.033 793.531 248.665C789.309 243.52 788.782 236.659 786.143 230.854C786.011 230.722 786.011 230.458 786.011 230.326C784.56 226.632 782.317 222.938 782.053 219.112C781.789 215.417 784.164 211.459 784.032 207.765C783.9 205.522 784.164 203.411 784.56 201.3C784.824 200.113 785.747 198.925 786.934 196.814C788.649 199.717 790.365 201.696 791.024 203.939C793.135 211.591 797.225 218.584 798.149 226.632C798.281 227.951 798.677 229.271 799.073 230.59C799.601 231.514 799.996 232.833 800.392 234.416C800.92 235.604 801.316 236.923 801.711 238.242C801.843 238.77 802.107 239.43 802.239 239.958C806.197 249.985 814.773 267.137 822.821 282.837C824.8 285.872 826.911 288.774 828.759 291.941C830.87 295.503 832.321 299.461 833.64 303.419C838.258 311.995 841.424 317.932 841.424 317.932C847.625 325.189 851.188 334.029 853.035 343.264C853.431 344.716 853.827 346.167 854.09 347.618C855.938 355.402 854.354 363.055 855.674 370.575C857.257 379.415 853.563 387.331 851.188 395.511Z" fill="white" stroke="white" stroke-width="3" stroke-miterlimit="10"/>
<path d="M832.188 442.217C832.451 442.217 832.979 442.217 832.979 442.217C833.111 441.689 833.243 441.03 833.243 440.502C832.847 440.502 832.451 440.502 832.188 440.502C832.188 441.162 832.188 441.689 832.188 442.217Z" fill="white" stroke="white" stroke-width="3" stroke-miterlimit="10"/>
<path d="M828.1 456.07C828.627 454.091 829.023 452.244 829.551 450.265C829.155 450.265 828.891 450.133 828.495 450.133C828.495 452.112 825.989 453.564 828.1 456.07Z" fill="white" stroke="white" stroke-width="3" stroke-miterlimit="10"/>
<path d="M837.334 655.691C837.07 656.087 836.938 656.483 836.674 656.747C836.938 656.878 837.202 657.01 837.597 657.142C837.729 656.879 837.993 656.615 837.993 656.351C837.993 656.087 837.597 655.955 837.334 655.691Z" fill="white" stroke="white" stroke-width="3" stroke-miterlimit="10"/>
<path d="M834.828 436.412C835.355 434.169 835.883 432.454 836.411 430.211C834.168 433.509 834.168 433.509 834.828 436.412Z" fill="white" stroke="white" stroke-width="3" stroke-miterlimit="10"/>
<path d="M816.619 493.409C816.751 494.728 816.883 496.179 817.015 497.499C817.411 497.499 817.675 497.367 818.071 497.367C817.807 496.047 817.543 494.728 817.279 493.277C817.147 493.277 816.883 493.277 816.619 493.409Z" fill="white" stroke="white" stroke-width="3" stroke-miterlimit="10"/>
<path d="M836.543 615.45C836.015 615.582 835.62 615.714 835.092 615.978C835.488 616.902 835.883 617.957 836.411 618.881C836.807 618.749 837.203 618.617 837.467 618.485C837.071 617.561 836.807 616.506 836.543 615.45Z" fill="white" stroke="white" stroke-width="3" stroke-miterlimit="10"/>
</svg>
