<svg width="953" height="954" viewBox="0 0 953 954" fill="none" xmlns="http://www.w3.org/2000/svg">
<path d="M651.304 373.705C651.169 373.028 651.169 372.485 650.898 371.808C650.22 370.046 649.542 368.284 647.103 368.284C644.528 368.42 642.63 369.775 641.817 372.079C640.597 375.603 639.242 379.126 641.681 382.786C641.952 383.192 641.817 384.005 641.817 384.683C641.817 395.39 639.513 405.554 634.092 414.906C630.433 421.005 626.774 427.103 623.114 433.067C622.572 433.88 621.624 434.422 620.54 435.235C618.913 432.796 617.151 430.898 616.338 428.594C613.356 420.463 611.459 412.06 612.678 403.115C613.356 397.965 613.221 392.815 613.356 387.665C613.492 381.159 613.085 374.789 615.525 368.555C615.796 367.877 615.931 366.793 615.66 366.251C614.305 364.083 612.814 361.914 611.459 359.881C603.192 362.863 602.785 370.724 600.481 376.687C599.532 376.687 599.261 376.822 598.99 376.822C590.858 373.299 583.54 375.467 576.221 379.668C570.8 382.65 567.548 387.665 562.94 391.459C561.72 392.544 560.365 393.492 559.28 394.441C556.434 390.782 553.859 387.665 551.284 384.547C549.794 382.786 548.031 381.295 545.592 381.701C541.797 382.243 538.138 383.463 535.699 386.58C530.955 392.408 526.889 398.778 524.992 406.368C524.179 409.485 522.417 412.466 520.926 415.448C517.131 423.038 513.065 430.492 509.271 438.081C507.78 441.198 508.322 442.012 511.845 443.367C512.523 443.638 513.201 444.18 513.472 444.451C519.706 443.502 521.197 437.132 526.212 434.286C527.973 435.913 530.006 437.268 531.497 439.03C534.208 442.283 538.273 442.283 541.662 443.096C543.288 443.502 545.592 441.74 547.489 440.656C557.789 434.964 562.262 424.528 560.636 413.279C560.094 409.078 560.364 405.554 564.566 402.302C563.888 412.195 565.921 421.005 570.529 429.136C572.833 433.202 576.086 435.642 580.965 434.964C587.877 434.151 593.298 430.763 597.228 424.935C598.177 423.58 598.719 421.818 601.023 421.682C601.429 422.766 602.107 423.715 602.378 424.664C604.411 432.118 605.089 439.843 608.342 446.891C609.426 449.195 607.935 451.092 606.444 452.854C604.818 454.887 602.514 456.92 601.972 459.359C600.481 466.407 596.009 471.828 591.943 477.249C588.826 481.45 586.386 485.787 585.166 490.531C582.998 498.391 581.643 506.523 580.423 514.519C580.016 517.501 580.559 520.754 581.236 523.871C582.185 528.208 583.811 532.273 584.759 536.61C585.573 540.947 588.148 544.064 591.265 546.639C598.584 552.603 611.595 552.874 619.184 547.588C627.045 542.031 627.045 542.031 629.891 532.544C630.162 531.46 630.839 530.512 630.975 529.427C632.466 521.567 634.363 513.706 633.685 505.574C632.872 494.461 631.11 483.483 628.4 472.505C627.993 471.015 627.858 469.388 627.587 467.897C627.18 466 626.773 463.967 626.231 462.07C624.334 455.429 623.928 449.059 630.026 444.044C633.279 441.334 635.719 437.81 637.345 433.744C637.616 432.931 638.158 431.982 638.7 431.305C642.359 426.155 645.747 421.005 647.103 414.635C647.78 411.518 648.729 408.536 649.813 405.554C653.472 395.254 652.93 384.412 651.304 373.705ZM543.017 395.525C544.508 397.152 545.457 398.236 546.677 399.727C542.204 399.049 542.204 399.049 543.017 395.525ZM550.877 415.312C549.929 420.462 547.761 425.07 544.508 429.272C542.882 431.305 540.578 432.389 537.867 431.847C535.292 431.305 534.479 429.136 533.801 427.103C532.311 422.224 533.801 417.481 534.479 412.737C534.614 411.382 535.292 410.162 535.969 408.265C540.713 411.111 545.456 409.756 550.335 408.536C551.555 410.704 551.284 413.144 550.877 415.312ZM578.119 420.191C576.628 417.616 576.086 414.906 576.763 411.789C577.441 408.536 577.848 405.148 578.254 401.895C579.068 395.254 580.965 389.291 587.47 385.632C597.906 395.661 591.807 417.074 578.119 420.191ZM608.071 536.881C607.257 537.152 606.58 537.152 606.038 536.881C604.547 536.881 602.785 535.933 601.023 533.629C598.854 530.918 597.093 527.937 596.822 524.277C596.28 515.739 596.009 507.336 598.855 499.069C601.566 491.479 604.14 484.025 607.122 476.571C608.07 474.132 609.968 472.099 611.73 469.117L613.898 465.322C613.898 465.322 634.499 527.53 608.071 536.881Z" fill="white" stroke="white" stroke-width="3" stroke-miterlimit="10"/>
<path d="M524.179 466.678C522.281 465.051 520.384 466 518.622 467.22C517.131 468.169 515.776 469.253 514.285 469.93C510.761 471.692 508.728 469.659 506.831 466.407C501.41 456.784 503.308 408.671 503.308 408.671C503.172 404.335 503.307 399.862 502.901 395.525C502.63 392.273 501.274 389.155 500.732 385.903C499.919 381.024 498.022 376.551 495.447 372.35C493.007 368.42 490.839 364.489 488.4 360.559C487.722 359.339 486.773 358.255 485.824 357.306C484.469 355.815 482.843 354.596 481.352 353.105C479.319 351.072 477.693 348.361 475.253 346.871C471.865 344.702 467.934 343.076 463.597 344.16C459.125 345.244 454.11 344.295 449.909 349.039C449.231 347.955 448.961 347.006 448.419 346.599C445.301 343.618 441.777 341.585 437.169 341.314C430.935 341.043 425.108 341.449 419.144 343.618C407.624 347.819 396.647 353.105 386.618 360.559C374.556 369.504 364.526 379.939 357.885 393.357C356.123 397.016 354.633 400.675 352.871 404.877C355.717 405.825 356.937 408.4 360.325 407.858C364.12 407.316 366.831 405.554 368.457 402.573C370.761 398.642 372.522 394.441 374.691 390.511C377.808 384.683 382.958 380.075 388.379 375.738C390.412 378.449 390.006 381.43 390.006 384.005C390.006 388.884 389.464 393.628 389.87 398.507C390.548 406.91 391.768 415.312 392.716 423.715C393.123 427.103 392.987 430.085 389.599 432.389C387.295 433.88 385.533 436.319 383.365 437.946C377.537 442.147 374.42 448.381 372.116 454.887C371.709 455.971 372.116 457.868 372.793 458.817C373.742 459.901 374.827 460.986 375.775 461.934C377.673 463.696 380.383 464.509 382.958 463.832C386.482 463.018 389.464 463.018 394.749 463.561C395.291 465.593 395.969 467.491 396.375 469.524C397.866 478.469 397.731 487.414 396.918 496.358C396.376 502.051 396.782 507.878 394.342 513.435C392.716 516.959 395.291 520.347 400.17 518.856C403.694 517.772 407.218 515.603 409.115 511.673C410.064 509.369 412.097 507.472 412.504 505.168C412.91 502.864 412.097 500.289 411.826 497.849C411.826 497.443 411.69 496.901 411.69 496.494C411.69 486.465 411.69 476.436 410.199 466.407C409.793 463.425 410.064 460.172 410.064 457.868C414.536 453.938 418.873 450.55 422.803 446.755C425.649 444.044 427.818 440.792 430.257 437.675C432.155 435.371 432.562 435.371 435.408 436.861C440.287 439.436 444.488 442.554 444.488 448.923C444.488 449.737 444.894 450.414 445.165 451.227C445.843 453.667 446.792 455.971 447.334 458.41C448.012 461.257 448.418 464.238 448.825 467.22C451.129 482.263 448.554 496.087 437.305 507.065C431.884 512.351 426.327 517.772 418.467 519.127C412.775 520.211 406.946 521.296 401.119 521.431C395.969 521.567 390.819 520.618 386.346 517.501C382.958 515.197 379.57 513.028 376.046 510.86C374.149 509.64 371.303 508.963 370.49 510.589C368.999 513.299 366.017 513.299 364.12 515.739C364.933 516.959 365.475 518.45 366.559 519.534C371.167 524.006 375.504 528.75 380.654 532.68C383.636 534.984 386.889 537.559 391.361 537.017C393.801 536.61 396.376 536.61 398.815 536.204C405.863 534.848 413.046 533.493 419.958 531.867C422.804 531.189 425.785 530.24 428.224 528.479C435.543 523.193 442.861 517.772 449.231 511.131C453.026 507.201 456.685 503.406 458.718 498.391C463.868 485.652 463.869 472.641 461.158 459.359C459.532 451.363 455.601 444.451 452.755 436.861C452.349 435.642 451.4 434.286 450.316 433.473C447.605 431.034 444.894 428.73 441.913 426.697C440.287 425.613 439.88 424.393 440.693 422.766C441.1 421.818 441.778 420.869 442.32 419.92C446.792 411.924 450.315 403.521 451.942 394.441C452.348 392.137 452.484 389.698 453.026 387.529C455.466 378.584 457.228 369.775 455.059 360.559C454.924 360.152 454.788 359.61 454.652 359.204C454.381 357.306 455.33 356.222 457.092 356.764C460.074 357.577 463.191 358.39 465.902 359.881C471.729 363.134 475.659 368.42 477.828 374.654C480.538 382.243 482.707 389.969 484.876 397.694C485.824 400.946 486.366 404.47 486.637 407.858C486.908 412.06 486.367 416.397 486.367 420.598C486.502 425.613 486.908 430.627 487.315 435.642C487.993 442.689 489.483 449.737 489.348 456.784C489.212 463.154 493.007 468.033 493.956 473.861C494.091 475.08 495.582 476.3 496.666 476.978C498.835 478.469 501.139 480.095 503.714 480.773C511.439 482.941 520.519 481.586 524.45 471.963C525.398 469.93 525.941 468.169 524.179 466.678ZM385.127 452.718C378.079 451.77 392.987 446.619 392.987 446.619L394.342 454.345C394.342 454.209 392.174 453.531 385.127 452.718ZM409.793 444.993C408.98 439.572 410.064 438.623 417.382 438.488C414.672 440.927 412.504 442.689 409.793 444.993ZM441.371 385.361C440.558 389.969 439.067 394.441 437.711 398.913C435.949 404.606 434.053 410.162 432.155 415.855C431.342 418.43 429.987 419.514 427.14 418.972C421.855 418.023 416.841 418.701 411.826 420.462C410.335 421.005 408.573 420.734 405.998 420.869C405.862 416.939 405.863 413.822 405.727 410.704C405.592 406.096 405.592 401.624 405.05 397.016C403.83 385.903 405.32 375.06 408.573 364.354C409.792 360.559 412.503 357.306 416.976 355.951C421.448 354.596 425.785 352.698 430.664 352.563C436.221 352.427 439.067 354.731 440.422 360.017C442.59 368.42 442.862 376.958 441.371 385.361Z" fill="white" stroke="white" stroke-width="3" stroke-miterlimit="10"/>
<path d="M218.698 715.779C217.072 669.97 215.852 627.414 213.683 584.858C212.193 556.668 209.346 528.614 205.958 500.56C203.79 482.805 205.01 464.645 204.738 446.755C204.603 439.436 205.416 432.118 204.738 424.799C202.977 406.232 200.402 387.664 198.775 369.097C197.827 358.119 198.233 347.141 197.42 336.164C196.2 318.952 194.98 301.739 193.083 284.663C190.643 260.945 187.526 237.363 184.951 213.646C184.545 209.716 185.222 205.514 184.951 201.584C184.409 193.859 184.41 186.134 182.783 178.68C180.615 168.515 180.343 159.299 187.933 150.761C190.915 147.373 191.999 142.087 194.574 138.292C200.266 129.889 206.094 121.487 212.464 113.626C220.596 103.732 229.269 94.2454 237.807 84.7584C242.957 79.0662 245.397 78.9307 252.173 81.9123C255.291 83.2676 258.95 84.8939 262.202 84.6229C282.261 82.4544 302.184 79.7438 322.106 77.1688C353.413 73.2385 384.72 69.1726 416.027 65.5133C441.235 62.5317 466.58 61.0409 491.652 57.1106C512.795 53.8579 533.937 52.7737 555.079 50.6052C579.068 48.1657 603.057 47.217 627.181 47.8946C641.818 48.3012 655.642 52.5026 667.975 59.6856C676.649 64.7002 684.374 72.0187 690.879 79.7438C699.553 90.044 707.685 101.157 712.022 114.304C714.326 121.622 715.545 129.212 716.9 136.801C720.695 158.892 724.897 180.848 727.878 202.939C729.369 213.781 727.743 224.895 728.285 235.873C729.234 254.44 728.421 273.143 734.926 291.168C736.552 295.776 736.417 301.333 736.01 306.347C735.197 315.292 736.416 323.831 738.585 332.504C740.753 341.449 742.244 350.53 743.464 359.61C744.142 364.218 744.006 369.097 743.6 373.705C743.193 379.262 742.651 384.141 746.039 389.426C748.478 393.357 748.343 399.32 748.75 404.334C750.105 424.393 750.647 444.586 752.409 464.645C753.358 475.216 756.475 485.516 757.83 495.952C760.676 517.772 763.387 539.592 765.42 561.547C766.775 576.185 766.911 590.822 767.453 605.459C767.588 608.305 766.368 611.151 765.962 613.997C765.42 618.605 764.607 623.348 764.742 627.956C765.013 637.037 765.962 645.982 766.64 655.062C766.64 655.74 766.64 656.553 766.775 657.23C771.925 690.299 772.331 729.332 770.434 759.283C769.485 775.14 762.98 788.015 755.933 801.297C745.091 821.762 728.962 835.586 708.227 846.699C677.462 863.234 644.529 871.23 611.053 877.464C592.35 880.852 572.97 880.581 553.996 882.614C530.278 885.054 506.696 888.171 482.979 890.61C452.349 893.863 421.584 896.709 390.954 899.962C383.636 900.64 376.453 902.266 369.135 902.537C354.498 902.943 339.861 902.537 325.088 902.808C319.26 902.944 313.297 903.079 307.604 904.163C288.902 907.823 270.47 906.196 252.173 902.401C248.785 901.724 244.313 896.98 243.635 893.592C239.163 869.061 229.676 845.615 228.32 820.407C227.101 799.535 225.881 778.664 223.984 757.793C222.9 742.342 220.325 727.434 218.698 715.779ZM268.979 123.384C263.558 134.768 264.913 145.475 266.946 156.453C268.979 167.566 271.418 178.951 271.147 190.199C270.876 199.415 273.587 207.276 275.485 215.814C278.737 230.723 281.312 245.902 282.667 261.081C284.023 275.989 283.074 291.168 283.752 306.076C284.972 333.453 291.477 360.423 289.986 387.935C289.986 389.02 289.85 390.104 290.121 391.188C292.696 401.353 295.407 411.653 297.982 421.818C298.253 422.902 298.118 423.986 298.253 425.07C298.66 433.338 299.067 441.74 299.338 450.008C300.151 466.813 300.964 483.754 301.506 500.56C301.641 504.49 300.286 508.556 300.693 512.622C302.59 532.273 304.758 551.925 307.062 571.577C308.282 582.554 309.773 593.397 311.67 604.239C314.516 620.096 318.176 635.817 320.751 651.809C322.106 660.483 321.971 669.293 322.242 678.102C322.648 691.655 324.41 705.343 322.784 718.76C319.531 746.815 322.513 774.598 324.952 802.246C325.901 812.546 327.663 813.901 338.505 813.224C356.124 812.14 373.607 810.378 391.226 808.887C403.288 807.938 415.35 805.905 427.412 806.176C451.265 806.854 475.118 808.074 498.7 802.788C504.798 801.433 511.033 800.891 517.267 800.213C534.75 798.044 552.234 795.876 569.717 793.843C585.303 792.081 601.023 790.319 616.609 788.693C627.452 787.609 638.565 787.744 648.323 781.51C651.305 779.613 655.099 778.935 658.623 778.122C678.546 773.92 695.893 765.789 709.446 749.796C723.541 733.262 732.758 715.372 733.029 693.146C733.164 682.439 731.267 671.461 738.992 661.703C741.16 658.992 738.992 652.623 738.856 648.015C730.86 646.659 733.706 640.289 733.571 635.817C733.435 627.821 734.113 619.689 734.79 611.693C735.332 605.188 736.823 598.547 736.688 592.041C736.145 571.441 735.603 550.976 733.841 530.511C731.537 502.728 728.285 475.08 725.575 447.297C723.677 427.645 722.051 407.858 720.154 388.071C717.985 366.251 719.34 343.889 711.886 322.746C709.311 315.563 707.549 308.109 706.329 300.655C703.89 284.798 701.857 268.806 700.231 252.814C696.707 218.118 694.132 183.288 690.202 148.728C688.575 134.497 688.846 119.86 681.663 106.307C676.106 95.7362 669.194 88.8242 657.945 85.165C643.715 80.557 628.943 80.0149 614.441 80.0149C599.127 79.8794 583.676 82.4544 568.362 84.6229C549.523 87.3334 530.82 90.7216 511.982 93.9743C497.887 96.4138 483.927 99.531 469.697 101.428C439.88 105.359 409.929 108.611 379.977 112.271C366.153 113.897 352.329 116.065 338.37 117.421C315.465 119.318 292.019 121.216 268.979 123.384ZM271.689 865.944C274.807 863.64 275.891 863.234 276.433 862.421C281.718 853.611 287.546 845.344 295.543 838.432C297.982 836.399 299.744 832.198 299.744 828.945C300.015 818.509 299.744 808.074 299.202 797.638C298.66 785.305 297.846 772.972 296.762 760.639C296.085 752.642 294.594 744.646 294.052 736.65C291.883 704.123 289.986 671.461 287.818 638.934C287.14 628.77 285.243 618.605 284.43 608.305C283.752 599.902 284.565 591.499 283.887 583.096C281.583 553.551 279.144 523.871 276.298 494.461C271.961 451.769 266.811 409.078 262.609 366.386C259.357 333.182 257.188 299.842 254.342 266.638C252.174 241.023 250.005 215.543 247.837 189.928C246.617 175.698 245.261 161.332 243.906 144.933C237.672 154.149 236.181 163.5 227.778 168.244C225.881 169.328 225.068 173.529 225.068 176.24C224.932 186.405 224.254 196.705 225.61 206.734C227.236 218.932 229.269 230.858 227.914 243.462C226.694 255.253 228.05 267.586 229.947 279.513C233.877 304.586 228.862 330.065 235.097 354.867C235.503 356.628 234.962 358.526 234.826 360.288C234.013 372.214 228.863 383.87 233.606 395.932C234.013 397.151 233.064 398.778 233.199 400.269C233.742 405.69 234.555 410.975 234.962 416.396C235.233 419.649 235.91 423.579 234.419 426.019C230.895 431.982 230.896 438.217 232.115 444.18C234.419 455.564 231.031 467.897 237.401 478.604C237.943 496.494 238.485 514.519 239.028 532.409C239.299 542.98 239.027 553.687 239.976 564.258C241.467 580.928 243.5 597.598 241.738 614.539C240.112 629.583 240.789 644.626 251.767 658.45C244.584 663.194 248.108 669.835 248.785 676.204C249.056 678.779 249.463 681.355 250.005 683.794C251.496 691.655 254.071 699.38 254.613 707.241C256.24 729.467 255.833 751.694 261.66 773.514C263.693 781.239 265.32 789.235 265.591 797.096C266.268 812.682 271.825 827.861 269.792 843.718C268.979 850.494 270.876 857.406 271.689 865.944ZM748.615 742.207C740.889 751.423 733.3 760.232 725.439 769.584C727.878 771.21 729.64 772.294 731.944 773.785C730.589 775.411 729.776 777.173 728.285 777.851C723.406 780.29 718.392 782.323 713.377 784.627C696.843 792.488 680.444 800.484 663.909 808.209C660.928 809.564 657.81 811.191 654.693 811.462C643.444 812.275 631.924 813.766 620.675 812.546C608.749 811.326 597.365 814.308 585.709 814.714C576.222 815.121 566.871 817.561 557.519 818.78C550.607 819.729 543.559 819.729 536.647 820.813C502.223 826.234 467.799 830.436 432.698 829.623C412.097 829.081 390.819 831.791 370.625 836.264C355.581 839.516 340.809 843.175 325.494 844.531C322.648 844.802 319.531 846.835 317.498 849.003C313.433 853.205 309.773 857.813 306.385 862.692C303.674 866.757 301.641 871.365 298.795 876.651C310.179 876.651 319.667 876.922 329.154 876.515C333.084 876.38 336.879 874.347 340.809 873.398C348.941 871.365 357.073 868.519 365.475 867.842C382.959 866.486 400.577 867.028 418.06 865.267C432.155 863.776 445.979 862.014 460.21 862.421C470.51 862.692 480.945 858.897 491.381 857.27C519.571 852.934 547.761 849.003 575.816 844.26C593.841 841.278 612.137 840.194 629.484 833.011C640.598 828.538 652.253 825.828 664.722 825.15C677.055 824.337 690.744 825.828 701.044 815.934C701.586 815.392 703.212 815.392 704.161 815.663C709.853 816.747 712.97 813.359 715.816 809.293C721.78 801.026 727.878 793.03 733.841 784.763C743.057 772.159 751.19 758.741 748.615 742.207Z" fill="white"/>
<path d="M406.135 452.447C405.864 452.583 405.728 452.718 405.457 452.718C405.322 452.718 405.186 452.311 405.051 452.176C405.322 452.04 405.457 451.905 405.728 451.905C405.864 452.04 405.999 452.311 406.135 452.447Z" fill="white"/>
</svg>
