<svg width="953" height="954" viewBox="0 0 953 954" fill="none" xmlns="http://www.w3.org/2000/svg">
<path d="M791.233 462.15C787.746 472.91 791.731 482.574 793.325 492.337C794.421 498.714 795.218 505.09 796.314 511.466C797.609 518.739 799.004 525.912 800.299 533.085C800.499 534.38 800.997 535.775 800.798 537.07C800 545.937 802.292 554.405 803.487 562.973C804.683 571.143 805.48 579.312 804.085 587.581C803.487 591.267 803.886 595.153 804.085 598.939C804.484 607.208 805.48 615.477 805.48 623.646C805.48 631.019 804.484 638.291 803.786 645.664C803.388 650.047 802.491 654.531 801.993 658.914C800.299 672.663 798.307 686.312 796.912 700.16C795.716 712.613 792.03 724.17 787.049 735.428C785.056 739.911 783.163 744.395 780.972 748.678C779.477 751.568 777.385 753.461 773.798 753.162C769.216 752.763 765.729 754.855 762.939 758.84C762.042 760.136 760.349 761.132 758.854 761.63C755.268 762.925 751.681 764.021 747.995 764.918C743.512 766.014 738.929 766.811 734.346 767.608C727.372 768.803 720.498 769.999 713.524 770.696C708.742 771.194 703.96 770.596 699.178 770.995C689.016 771.991 678.953 773.286 668.891 774.382C666.799 774.582 664.607 774.582 662.515 774.582C642.49 774.781 622.664 776.176 602.838 779.563C595.864 780.758 588.392 780.46 581.318 779.663C568.168 778.367 555.017 778.268 541.766 778.866C540.671 778.866 539.574 779.164 538.578 778.965C526.224 775.578 514.17 778.367 501.916 779.663C490.359 780.958 478.603 780.659 466.946 781.057C464.854 781.157 462.762 781.555 460.57 781.655C456.386 781.854 452.002 782.95 447.917 782.054C440.445 780.46 433.173 781.057 425.701 781.456C415.738 782.054 405.775 782.253 395.812 782.651C393.72 782.751 391.628 783.349 389.536 783.448C387.444 783.548 385.152 783.747 383.259 783.05C375.389 779.961 367.319 778.866 358.851 778.666C351.478 778.467 345.401 774.88 341.715 767.707C341.117 766.512 340.519 765.316 340.32 764.021C339.025 756.848 337.73 749.575 336.634 742.402C334.442 728.056 333.745 713.61 334.243 699.064C334.442 693.485 333.346 687.906 333.545 682.426C333.844 672.563 334.641 662.8 335.139 652.937C335.637 642.874 335.737 632.812 336.434 622.75C336.933 614.979 337.829 607.108 339.025 599.437C339.623 595.751 340.619 591.965 337.63 589.474C334.143 586.685 330.158 583.795 325.376 585.19C322.387 586.087 319.697 585.688 316.708 585.09C311.826 584.194 308.539 581.305 306.447 576.921C304.952 573.833 302.76 572.338 299.971 570.943C297.48 569.648 295.089 567.456 293.396 565.165C289.909 560.482 289.908 560.483 284.529 562.077C280.942 563.172 277.057 563.571 273.271 563.969C271.876 564.069 270.182 563.77 269.086 562.874C264.005 558.888 258.825 559.685 254.342 563.272C250.157 566.659 246.072 566.659 241.788 564.866C238.501 563.571 235.91 563.969 233.519 566.361C228.837 571.143 223.656 574.63 217.181 576.124C216.682 576.224 216.383 576.921 215.786 577.618C219.273 576.821 222.361 576.124 225.649 575.427C226.346 578.714 226.047 580.707 223.557 581.703C220.767 582.899 218.177 584.792 215.288 585.19C204.528 586.684 198.849 594.754 192.971 602.924C189.385 607.905 185.698 612.886 182.112 617.967C181.514 618.864 180.817 619.86 180.717 620.857C180.019 626.934 176.931 631.517 172.946 635.701C170.555 638.291 168.263 640.981 168.463 644.966C168.662 651.542 165.075 655.726 160.393 659.313C158.5 660.708 156.707 662.202 154.615 663.796C155.81 666.785 156.707 669.475 158.002 672.065C162.585 681.629 158.998 691.692 149.633 697.669C143.656 701.555 137.678 705.44 133.394 711.717C129.309 717.894 124.328 723.373 119.645 728.952C118.35 730.447 116.358 732.24 114.564 732.34C109.085 732.539 103.605 732.439 98.1259 731.742C94.639 731.244 92.248 729.052 91.451 724.768C89.0599 712.215 86.1707 711.816 76.2079 715.204C72.2228 716.499 67.8391 717.595 63.6548 717.296C57.179 716.897 52.0982 712.813 48.6112 707.333C46.4194 703.946 45.3234 699.662 44.0282 695.677C43.6297 694.382 43.6298 692.389 44.3272 691.194C46.9175 686.212 49.8066 681.33 52.6958 676.349C45.423 671.667 40.4416 664.892 35.4602 658.117C33.368 655.328 33.5674 652.04 34.8626 649.151C36.357 645.863 38.2498 642.575 40.4416 639.686C42.2349 637.395 42.6334 635.203 41.2386 633.011C35.3606 623.646 40.0432 616.075 44.8253 608.503C45.722 607.008 47.0172 605.813 48.6112 604.02C39.7444 589.972 45.8215 578.017 53.991 566.161C49.4081 559.287 55.9835 554.007 56.1827 547.83C60.9648 543.944 65.7471 540.159 71.0273 535.875C70.8281 535.078 70.6287 533.483 69.9314 532.188C66.2451 525.812 66.7433 518.838 67.7396 511.964C68.0385 509.872 70.0309 507.879 71.625 506.385C74.3149 503.695 77.4034 501.403 80.193 498.913C79.5952 497.319 79.3959 496.322 78.8978 495.725C74.4146 490.644 75.112 485.065 76.2079 478.788C77.9016 468.925 85.4732 464.541 91.3512 458.564C92.0486 457.767 93.045 457.269 93.9416 456.571C92.5469 451.291 90.1556 446.21 90.2552 441.029C90.3549 436.148 92.9454 431.365 94.4398 426.783C84.5767 416.421 81.1892 404.068 84.0784 390.419C85.2739 384.939 88.3623 379.559 91.7496 375.176C100.118 364.316 111.376 357.542 123.531 352.56C133.394 348.575 143.257 344.49 153.12 340.505C153.319 340.406 153.519 340.406 153.718 340.306C167.267 337.915 178.326 329.646 190.281 323.668C196.657 320.48 203.233 317.093 208.911 312.809C215.288 308.027 220.767 302.149 226.645 296.669C227.143 296.271 227.542 295.673 228.04 295.275C234.914 290.891 239.298 284.216 244.179 277.74C247.666 272.958 251.552 269.172 253.046 262.597C254.74 254.826 262.212 251.937 268.289 248.35C273.769 245.062 279.647 242.372 283.831 237.092C286.421 236.893 289.211 237.092 291.801 236.295C298.078 234.303 304.653 232.709 310.332 229.421C317.306 225.436 325.176 224.34 332.35 220.953C332.549 220.853 332.848 220.953 332.948 220.853C339.822 216.17 347.892 215.075 355.264 211.986C364.828 208.101 374.492 204.215 384.056 200.429C389.835 198.138 395.414 195.448 401.391 193.854C409.959 191.563 418.527 189.072 427.394 188.275C432.973 187.777 438.353 185.087 443.833 183.592C446.722 182.795 449.711 182.696 452.5 181.799C466.249 177.415 480.296 176.021 494.543 176.22C503.609 176.419 512.675 176.12 521.741 175.921C523.833 175.821 525.926 175.224 528.018 175.024C531.306 174.726 534.593 174.526 537.881 174.327C538.279 174.327 538.777 174.526 539.076 174.427C553.722 171.637 568.566 172.733 583.41 172.135C593.772 171.637 604.033 171.139 614.395 170.74C615.69 170.641 617.184 170.442 618.181 171.039C625.154 175.423 633.224 170.541 640.298 173.729C646.774 171.338 652.851 174.327 659.028 175.224C663.81 175.821 668.492 177.216 672.876 179.508C674.071 180.205 675.765 180.006 677.26 180.205C687.82 181.102 698.38 181.899 708.941 183.094C714.321 183.692 719.701 185.186 725.081 186.282C730.162 187.378 735.143 189.769 740.523 187.976C741.22 187.777 742.117 188.374 742.914 188.673C752.578 191.961 762.242 195.049 771.806 198.437C781.868 202.023 792.728 203.518 801.993 209.794C802.391 209.994 802.79 210.193 803.188 210.292C816.738 212.584 827.398 221.65 839.453 227.329C850.611 232.609 860.972 239.782 869.939 248.749C872.23 251.04 874.82 253.132 877.61 254.726C887.872 260.704 894.945 270.368 903.314 278.537C905.306 280.53 907.598 282.223 909.391 284.415C910.786 286.208 912.28 288.4 912.579 290.692C913.775 299.06 914.572 307.529 915.468 315.897C915.468 316.296 915.369 316.794 915.568 317.193C919.354 328.949 917.262 341.103 918.158 353.158C918.756 361.726 918.856 370.394 918.955 378.962C918.955 382.05 919.055 385.238 916.664 387.729C915.967 388.426 915.967 389.821 915.767 390.817C914.173 397.791 913.177 404.765 910.188 411.54C907 418.912 905.805 427.38 904.509 435.55C903.115 444.317 897.934 450.195 892.554 456.173C886.477 462.947 878.507 464.143 870.437 464.84C860.972 465.637 851.408 465.04 841.943 463.744C837.062 463.147 832.08 462.35 827.298 462.848C817.236 463.944 807.373 462.35 797.41 461.951C795.417 461.752 793.126 462.051 791.233 462.15ZM629.638 379.46C630.335 383.445 632.128 386.633 635.217 388.127C632.527 391.614 630.235 395.201 627.346 398.19C624.557 401.178 621.169 403.47 617.981 406.06C625.354 408.352 626.848 408.451 632.328 403.37C634.719 401.178 638.903 400.88 642.29 399.983C645.977 399.086 649.762 398.588 653.349 397.592C655.74 396.994 655.441 395.3 654.345 393.607C652.154 393.607 650.061 393.906 647.969 393.507C646.475 393.208 644.98 392.312 643.785 391.415C638.903 387.529 634.221 383.544 629.439 379.659C626.848 377.766 624.357 375.973 622.664 374.777C620.472 375.475 619.077 376.471 618.579 376.072C612.601 371.788 606.225 368.899 599.351 366.807C589.488 363.719 579.625 361.427 569.263 363.42C562.489 364.715 555.714 365.611 548.94 366.907C546.549 367.305 543.062 367.504 542.265 369.098C539.774 373.582 535.59 373.881 531.804 375.574C526.524 377.965 521.741 381.552 517.457 385.138C512.277 389.422 508.989 396.197 505.004 401.975C503.908 403.569 502.912 405.363 501.916 407.056C503.709 407.256 504.705 406.957 505.502 406.359C513.771 399.684 522.737 399.784 532.102 402.872C537.482 404.665 541.069 413.532 537.781 417.617C534.394 421.901 531.505 427.281 525.029 427.679C523.236 427.779 521.542 429.174 519.848 429.971C513.97 432.461 508.292 432.76 503.31 427.679C501.816 426.185 500.023 424.989 498.329 423.495C494.045 425.886 494.443 430.369 494.344 434.055C493.945 443.221 495.639 447.206 500.321 450.992C502.414 445.313 504.506 439.635 511.579 439.236C512.376 439.236 513.173 438.439 513.771 437.841C517.059 434.554 521.044 433.657 525.427 433.557C528.117 433.557 530.907 433.258 533.796 433.059C537.981 423.595 544.456 415.923 553.024 409.946C550.733 409.149 548.641 409.348 546.648 408.949C544.456 408.551 541.368 408.352 540.272 406.857C536.586 402.075 532.7 396.894 533.497 390.02C533.697 388.326 533.896 386.035 534.992 385.238C539.475 381.651 543.759 377.069 549.936 377.467C555.814 377.866 561.791 378.364 567.371 379.958C572.452 381.452 575.64 386.035 576.237 391.714C576.636 395.3 576.337 398.987 576.337 403.071C579.625 401.577 584.008 405.861 586.399 402.474C586.399 397.592 585.602 393.906 586.599 390.917C587.894 386.932 590.484 383.345 594.768 382.15C599.451 380.854 604.233 379.161 609.015 378.962C615.79 378.364 622.664 379.161 629.638 379.46ZM733.051 619.462L732.851 619.263C738.132 631.915 743.711 644.468 748.692 657.221C755.866 675.652 762.541 694.182 769.315 712.713C770.311 715.503 771.108 718.491 774.695 720.982C776.189 713.809 777.684 707.632 778.68 701.356C779.278 697.47 778.979 693.385 779.477 689.4C780.673 680.533 782.466 671.766 783.462 662.899C784.857 650.247 786.65 637.494 786.85 624.742C787.149 600.832 787.945 576.921 783.462 553.309C782.566 548.726 782.864 543.944 782.167 539.262C780.075 526.011 777.584 512.96 775.492 499.71C774.197 491.142 772.404 482.474 772.404 473.906C772.503 460.457 771.407 447.206 769.215 433.956C767.821 425.587 766.625 417.218 765.23 408.85C764.633 405.164 763.935 401.477 763.238 397.691C762.74 397.691 762.242 397.791 761.743 397.791C761.544 400.581 761.146 403.37 761.245 406.259C761.445 416.322 762.441 426.384 761.843 436.347C761.046 451.49 759.253 466.634 757.858 481.777C757.659 483.769 757.26 485.762 756.961 487.655C754.272 501.005 750.486 514.056 749.689 527.805C749.489 530.993 748.692 534.779 746.899 537.269C743.213 542.45 742.316 548.527 741.818 554.306C740.822 564.468 736.438 573.235 733.449 582.5C731.756 587.88 728.966 592.762 726.575 598.142C729.962 599.736 731.357 601.629 730.062 604.817C727.87 610.396 730.162 614.979 733.051 619.462ZM383.259 763.722C396.51 764.42 408.864 765.516 421.118 765.615C427.992 765.715 434.966 764.021 441.94 763.523C444.829 763.324 447.818 764.021 450.807 764.22C455.39 764.519 459.972 764.918 464.655 765.117C468.042 765.217 471.43 764.918 474.717 764.918C476.411 764.918 478.104 765.117 479.798 764.918C485.477 764.32 491.156 763.423 496.934 763.025C504.904 762.427 512.974 761.929 520.944 761.63C526.125 761.431 531.306 761.63 536.486 761.73C542.364 761.929 548.242 762.327 554.22 762.427C565.577 762.726 576.935 759.538 588.292 761.929C589.089 762.128 589.986 761.73 590.783 761.73C597.956 761.331 605.229 760.036 612.302 760.634C619.177 761.232 625.752 760.933 632.328 759.04C633.324 758.741 634.42 758.84 635.416 758.84C646.574 759.04 657.733 758.342 668.791 756.948C674.072 756.25 679.451 754.955 684.632 755.553C693.2 756.549 701.17 753.56 709.539 753.062C715.018 752.664 720.298 749.974 725.878 751.966C726.675 752.265 727.97 751.867 728.866 751.368C736.239 747.383 744.608 746.985 752.179 743.099C760.05 739.114 760.947 738.417 757.659 729.65C752.777 716.598 748.095 703.448 743.113 690.397C739.925 681.928 736.538 673.46 732.951 665.091C726.475 649.848 719.8 634.605 713.026 619.362C712.129 617.27 710.435 615.178 708.543 614.082C701.469 609.997 694.395 606.112 687.123 602.426C680.946 599.337 674.271 597.345 668.492 593.758C661.419 589.275 653.449 587.98 645.976 585.09C640.995 583.098 635.217 582.998 629.837 582.4C625.055 581.902 620.073 582.6 615.291 581.803C605.727 580.408 596.263 580.906 586.798 582.201C579.625 583.198 572.551 584.592 565.378 585.09C558.305 585.589 551.032 585.29 544.157 587.78C540.073 589.275 535.888 589.076 531.704 589.574C527.121 590.072 522.638 590.968 518.155 592.064C512.476 593.459 506.897 595.053 501.318 596.747C491.355 599.835 481.193 602.426 471.529 606.51C461.168 610.994 451.305 616.872 441.342 622.152C438.553 623.646 435.962 625.838 433.073 627.034C428.191 629.026 423.11 630.421 418.826 631.816C418.129 632.812 417.93 633.011 417.93 633.21C417.133 637.594 416.734 641.978 411.255 643.273C409.86 643.572 408.664 646.162 407.967 647.856C404.978 655.228 401.989 662.601 399.499 670.172C398.702 672.563 399.399 675.452 399.399 677.744C398.502 679.438 397.307 681.032 396.709 682.924C395.314 687.308 393.919 691.791 392.923 696.374C391.628 702.053 390.333 707.732 389.934 713.51C389.735 717.097 392.923 721.281 387.344 723.373C387.045 723.473 387.244 725.067 387.145 725.963C386.248 732.738 385.252 739.612 384.455 746.387C383.857 751.568 383.757 756.948 383.259 763.722ZM363.832 373.582C367.02 371.29 369.112 369.298 371.503 368.102C374.492 366.608 378.278 366.309 380.769 364.316C384.156 361.527 381.466 357.143 381.665 353.457C381.964 347.778 381.167 342.398 378.278 337.417C373.496 329.247 368.913 320.978 363.832 312.909C360.245 307.13 356.26 301.651 352.176 296.271C348.888 291.987 345.5 287.504 341.316 284.216C338.925 282.323 337.032 280.33 335.538 277.74C332.449 272.36 333.147 270.268 339.025 268.375C348.091 265.486 357.157 262.298 366.123 259.309C371.802 257.416 377.381 255.523 383.06 253.63C384.853 253.033 386.647 252.335 388.54 251.737C396.908 249.147 405.177 246.258 413.546 244.166C424.306 241.476 435.065 239.284 445.925 237.092C450.807 236.096 455.788 235.1 460.769 234.602C471.529 233.406 482.289 232.709 493.049 231.613C499.126 231.015 505.103 229.72 511.181 229.222C517.258 228.724 523.335 228.923 529.413 228.823C532.999 228.823 536.685 229.321 540.272 228.724C549.139 227.428 558.006 226.93 566.872 228.624C568.865 229.022 571.057 228.724 573.149 228.524C576.238 228.126 579.326 227.428 582.414 227.129C585.802 226.831 589.189 227.229 592.477 226.631C596.86 225.934 601.144 226.133 605.528 226.631C612.004 227.329 618.679 227.229 625.154 227.727C631.63 228.225 638.106 229.122 644.582 229.819C653.15 230.716 661.917 230.816 670.286 232.808C678.455 234.701 686.425 236.196 694.794 236.096C698.978 235.996 703.262 236.196 707.347 237.192C710.037 237.889 712.428 238.786 715.317 237.989C716.812 237.59 718.605 238.188 720.199 238.487C721.594 238.786 722.988 239.384 724.483 239.583C729.365 240.28 734.346 240.28 739.128 241.476C751.482 244.564 763.637 248.151 775.891 251.638C777.684 252.136 779.377 253.132 781.171 253.83C786.351 256.021 791.433 258.512 796.812 260.305C804.683 262.995 812.852 265.187 817.435 273.257C819.029 276.046 820.225 279.633 820.225 282.821C820.225 286.408 817.136 288.201 813.948 289.596C811.856 290.492 809.863 291.987 808.369 293.681C803.388 299.459 799.303 306.234 793.824 311.115C782.964 320.779 779.178 334.428 773.798 347.28C772.603 350.169 771.905 353.357 771.009 355.948C774.795 357.641 778.082 359.036 780.872 360.331C780.872 364.316 780.872 367.405 780.872 370.294C782.964 371.191 784.957 371.29 785.554 372.386C787.946 376.57 791.831 376.471 795.517 377.168C802.591 378.463 809.664 380.057 816.738 381.353C820.424 382.05 824.21 382.648 827.996 383.046C829.888 383.246 831.881 382.847 833.675 383.345C842.342 385.238 851.01 387.231 859.578 389.422C864.459 390.718 869.74 391.813 874.024 394.304C879.204 397.393 884.684 397.193 890.063 397.193C895.842 397.193 897.834 395.3 899.329 389.024C900.425 384.541 901.122 379.858 901.421 375.176C901.82 367.106 901.62 359.036 901.62 350.966C901.62 347.878 902.019 344.69 901.72 341.601C900.624 331.24 898.631 320.978 898.133 310.717C897.735 302.049 896.34 294.378 889.565 288.799C889.067 288.4 888.768 287.703 888.37 287.304C881.994 281.327 875.817 275.249 869.341 269.571C865.655 266.283 861.371 263.792 857.386 260.804C853.899 258.213 850.611 255.424 847.124 253.033C844.335 251.14 841.445 249.446 838.556 247.752C832.877 244.365 827.298 240.579 821.321 237.889C815.542 235.299 810.063 230.517 802.989 232.609C802.79 232.609 802.591 232.41 802.391 232.31C797.709 230.517 793.126 228.225 788.244 227.03C773.001 223.344 757.559 220.056 742.217 216.669C739.327 216.071 736.339 215.872 733.449 215.274C724.383 213.381 715.317 210.791 706.152 209.695C692.702 208.101 679.053 207.503 665.504 206.407C663.212 206.208 660.921 205.61 658.629 205.411C650.061 204.913 641.394 204.315 632.826 204.116C626.45 203.916 620.073 204.614 613.797 204.315C601.045 203.817 588.392 202.92 575.739 202.223C568.168 201.824 560.596 201.326 553.024 201.027C549.836 200.927 546.648 200.828 543.46 201.326C527.719 203.916 511.779 203.518 496.137 207.005C488.167 208.798 479.699 208.001 471.429 208.698C465.551 209.197 459.474 208.798 454.692 213.68C453.795 214.576 451.902 214.477 450.408 214.576C446.821 214.776 443.135 214.377 439.648 215.174C431.579 216.868 423.608 219.06 415.638 220.953C413.646 221.451 411.554 221.949 409.461 221.949C405.576 221.949 401.989 222.945 398.602 225.037C396.211 226.532 393.621 227.628 390.931 228.325C389.536 228.724 387.145 228.624 386.348 227.628C384.355 225.336 382.462 226.332 380.569 226.831C363.533 231.613 346.397 236.196 329.461 241.376C323.782 243.07 318.502 246.059 313.122 248.749C306.945 251.737 300.967 255.125 294.89 258.114C288.813 261.102 282.536 263.792 276.359 266.881C274.964 267.578 273.37 268.873 272.773 270.268C270.581 275.748 268.788 281.426 266.795 287.006C264.205 294.478 264.404 302.846 260.419 310.019C259.422 311.912 260.618 307.828 260.419 310.019C260.319 311.514 258.028 316.396 258.825 317.691C259.423 318.687 259.522 313.108 258.625 316.396C260.917 323.27 258.626 316.396 255.039 325.063C251.652 325.661 251.154 333.83 250.556 336.62C247.766 348.874 241.39 360.132 240.991 373.084C240.991 373.881 240.294 374.777 239.696 376.072C239.098 374.578 238.7 373.881 238.401 373.183C238.401 373.183 238.102 373.283 237.704 373.482C236.707 378.264 235.711 383.245 234.615 388.426C241.589 390.419 247.766 391.216 254.242 390.319C257.43 389.921 260.618 389.821 263.706 389.522C268.289 389.124 272.972 388.825 277.555 388.028C283.831 386.832 290.008 385.138 296.185 383.843C300.768 382.847 305.55 382.947 309.933 381.253C317.306 378.463 324.878 378.663 332.449 377.965C339.423 377.367 346.497 376.969 353.172 375.176C356.858 373.781 360.445 372.386 363.832 373.582ZM554.02 326.059C554.02 325.761 554.12 325.561 554.12 325.262C547.844 324.764 541.468 324.067 535.191 323.967C525.826 323.868 516.561 323.967 507.196 324.366C496.336 324.864 485.577 325.86 474.717 326.558C467.146 327.056 459.374 326.458 451.902 327.952C444.929 329.347 438.054 329.945 431.08 330.244C426.597 330.443 421.815 331.838 419.225 335.823C415.638 341.402 412.849 347.679 410.059 353.756C408.963 356.147 408.963 358.936 408.166 362.922C405.675 364.516 404.779 368.501 403.882 372.785C402.188 380.854 400.893 389.123 397.805 396.596C389.835 416.322 386.348 436.646 387.643 458.066C388.141 465.139 387.643 472.312 387.543 479.386C387.444 485.164 387.045 490.943 387.045 496.721C387.045 501.802 387.842 506.883 387.842 512.064C387.842 522.325 387.145 532.686 389.337 542.848C389.536 543.944 389.436 545.04 389.436 546.136C389.436 555.7 391.528 564.667 394.816 573.534C397.108 579.81 399.2 586.186 400.594 592.662C402.388 600.732 405.476 608.204 409.063 615.576C409.959 615.477 410.657 615.477 411.155 615.178C419.125 611.492 427.095 607.905 435.066 604.02C440.445 601.429 445.726 598.54 451.106 595.85C457.183 592.762 463.061 588.876 469.437 586.784C482.588 582.5 495.24 576.821 508.989 574.231C514.767 573.135 520.346 570.943 526.424 570.844C530.409 570.744 534.394 569.549 538.379 568.951C542.763 568.154 547.146 567.257 551.629 566.659C561.493 565.464 571.455 564.268 581.418 563.272C588.99 562.475 596.661 561.678 604.233 561.479C610.111 561.379 616.088 562.276 621.966 562.674C627.047 562.973 632.128 562.973 637.209 563.671C642.888 564.468 648.467 565.862 654.046 567.158C655.939 567.556 657.733 568.353 659.426 569.15C673.972 575.526 688.418 581.803 702.963 588.179C704.856 588.976 706.749 589.773 709.24 590.869C710.635 585.788 712.229 581.603 712.827 577.22C713.325 573.932 714.321 571.342 716.015 568.652C719.9 562.276 723.686 555.8 724.284 547.83C724.583 544.343 725.18 540.557 726.475 537.369C730.261 528.502 732.055 519.137 733.748 509.673C734.844 503.795 736.339 497.917 737.534 492.039C738.431 487.456 739.527 482.873 740.025 478.19C741.42 466.235 742.515 454.18 743.611 442.225C743.811 439.635 743.512 436.945 743.412 434.255C743.412 432.262 743.312 430.27 743.312 428.277C743.312 421.403 743.512 414.429 743.213 407.555C742.715 395.101 741.519 382.648 741.42 370.294C741.32 361.228 741.619 352.162 739.228 343.395C738.829 342 739.228 340.306 739.128 338.712C739.028 336.819 738.929 334.827 738.829 333.432C736.239 332.236 734.346 331.24 732.453 330.443C722.49 326.358 712.727 321.178 701.469 322.174C697.683 322.473 693.897 322.074 690.111 322.074C682.042 321.975 674.071 321.875 666.002 321.775C665.205 321.775 664.109 321.775 663.511 322.274C660.721 324.964 657.434 323.668 654.345 323.868C644.383 324.366 634.42 324.266 624.557 325.163C617.184 325.86 609.912 326.458 602.539 325.063C600.845 324.764 598.853 325.561 596.661 325.96C598.853 326.856 600.546 327.653 602.34 328.251C608.517 330.244 614.096 333.631 620.771 334.528C628.741 335.723 636.612 337.417 644.383 339.609C650.261 341.302 656.039 343.793 661.618 346.284C666.002 348.276 669.987 351.265 674.47 353.058C676.761 353.955 678.455 354.951 680.149 356.745C682.44 359.235 686.226 360.63 687.82 363.42C689.912 367.106 693.001 368.202 696.189 369.497C699.875 371.091 702.067 373.98 704.159 377.666C708.941 386.434 709.439 396.396 711.93 405.761C712.926 409.547 713.524 413.632 713.524 417.617C713.623 423.893 713.125 430.17 712.827 436.446C712.627 440.332 711.731 444.217 711.83 448.103C712.328 458.763 710.336 469.025 706.948 478.888C703.063 490.345 695.691 499.809 689.414 509.872C687.621 512.761 685.13 515.351 682.54 517.643C673.872 525.414 663.112 529.1 652.751 533.484C651.356 534.081 649.862 534.281 648.467 534.779C646.475 535.476 644.482 536.273 642.589 537.07C636.313 539.76 630.235 543.147 623.76 544.941C613.598 547.83 603.236 549.822 592.875 552.014C587.794 553.11 582.414 553.907 577.333 554.007C565.478 554.306 553.622 553.01 541.866 552.313C531.903 551.715 522.14 550.719 512.376 548.527C506.897 547.332 501.617 546.535 497.133 542.848C496.436 542.35 495.639 541.852 494.842 541.653C490.259 540.856 486.174 538.863 481.99 536.373C476.511 533.085 470.732 530.196 466.448 525.115C462.065 519.934 457.681 514.853 453.596 509.374C449.013 503.197 444.231 497.219 441.541 489.548C438.752 481.578 436.062 473.707 435.265 465.239C435.165 463.744 434.667 462.15 433.97 460.756C431.28 455.077 431.678 449 431.778 443.022C431.877 439.435 432.376 435.849 432.077 432.262C431.18 421.801 434.667 412.636 439.051 403.669C440.545 400.481 441.94 397.193 443.733 394.204C447.818 387.231 451.803 380.057 456.585 373.482C459.972 368.7 464.157 364.416 468.54 360.63C476.311 354.055 484.481 348.077 492.451 341.801C495.539 339.409 498.628 337.317 502.513 336.62C505.801 336.022 509.188 335.225 512.376 334.03C521.343 330.742 530.409 327.952 539.973 327.355C544.855 327.454 549.438 326.657 554.02 326.059ZM357.256 461.054C354.965 461.353 353.969 461.453 352.973 461.652C348.091 463.047 343.209 464.94 338.228 465.936C329.062 467.829 320.096 469.921 310.631 470.619C300.768 471.316 290.905 472.312 280.942 472.91C270.182 473.607 259.522 475.7 248.762 477.094C244.877 477.593 241.091 477.493 237.305 475.002C232.224 471.615 228.937 466.932 226.446 461.453C223.457 454.878 220.966 448.003 218.376 441.229C216.981 437.742 215.786 434.255 214.69 430.668C211.701 421.502 213.096 412.038 213.195 402.772C213.195 399.285 214.391 395.799 215.387 392.411C216.882 387.131 218.675 381.851 220.369 376.57C222.262 370.692 224.154 364.814 226.147 358.936C226.944 356.545 228.04 354.154 229.036 351.365C226.346 351.564 224.154 351.763 221.763 351.963C221.763 356.745 217.978 357.143 214.59 358.239C212.598 358.837 210.605 359.534 208.812 360.53C200.543 364.914 192.473 370.095 183.905 373.781C170.356 379.659 156.508 384.64 142.759 390.02C137.778 392.013 132.697 393.706 127.914 396.097C122.535 398.787 121.339 401.876 124.129 407.455C126.918 413.134 132.099 416.521 137.379 419.211C143.656 422.399 150.231 424.79 156.707 427.48C162.485 429.871 165.275 434.753 167.566 440.432C170.455 447.804 169.459 455.077 168.263 462.748C167.168 469.523 163.681 474.106 159.297 478.39C158.301 479.386 157.006 480.083 155.711 480.98C157.603 486.061 159.098 490.943 161.09 495.625C164.976 504.791 163.282 513.857 155.91 520.333C153.12 522.823 150.032 525.015 146.744 527.506C150.131 532.288 150.829 537.568 150.331 543.347C149.534 552.114 147.043 559.885 139.272 564.667C138.176 565.364 136.881 566.958 136.981 568.154C137.18 576.024 137.778 583.895 138.276 592.562C141.364 590.072 143.257 588.179 143.855 584.692C144.154 582.998 145.449 581.006 146.943 580.109C154.017 575.626 161.19 571.441 169.061 566.759C162.983 558.888 167.566 553.01 172.448 547.332C176.433 542.749 181.115 538.863 184.901 534.181C189.982 528.004 195.661 522.823 203.432 520.632C204.229 520.432 205.026 519.735 205.425 519.038C208.314 514.255 212.498 513.16 217.28 514.255C219.372 508.776 220.07 507.979 222.959 507.082C225.35 506.285 227.641 505.389 230.032 504.392C240.493 500.009 246.371 500.806 252.249 508.776C252.847 509.673 253.644 510.37 254.541 511.466C256.434 509.174 258.127 507.281 259.622 505.189C261.714 502.4 264.304 501.702 267.492 502.201C270.481 502.699 271.179 504.791 272.374 507.481C273.669 510.569 276.658 512.861 280.344 512.96C283.931 513.06 284.827 510.171 286.123 507.58C286.72 506.385 286.82 504.89 287.617 503.894C288.713 502.699 290.307 501.005 291.502 501.105C295.388 501.404 299.473 501.603 301.764 506.285C304.255 511.565 308.738 514.953 312.723 518.539C315.214 517.045 317.107 515.252 319.299 514.853C322.287 514.255 325.575 514.355 328.564 514.953C331.154 515.551 331.354 518.34 331.752 520.93C331.951 522.325 333.545 523.72 334.94 524.716C336.335 525.613 338.029 526.011 339.523 526.51C341.715 524.417 343.508 521.528 346.098 520.333C351.279 517.942 351.478 513.757 351.777 508.876C352.375 499.71 353.172 490.644 354.268 481.578C354.567 475.102 355.961 468.626 357.256 461.054ZM796.713 280.43C794.322 279.135 793.226 278.238 792.03 277.939C786.85 277.043 781.968 275.249 777.186 272.759C773.699 270.866 769.913 269.67 766.326 267.678C762.142 265.386 757.161 264.39 752.379 263.394C737.136 260.106 721.893 256.221 706.351 255.324C688.816 254.228 671.382 251.837 654.046 248.649C642.888 246.557 631.431 245.959 620.073 244.963C614.395 244.465 608.716 244.365 603.037 244.265C597.06 244.066 591.082 243.169 585.204 244.066C571.256 246.158 557.209 245.461 543.261 245.561C536.785 245.561 530.509 246.059 524.332 248.051C523.037 248.45 521.243 248.948 520.147 248.35C515.863 246.258 511.579 246.557 507.096 247.254C501.417 248.151 495.739 248.649 490.06 249.247C480.595 250.143 471.131 250.642 461.766 252.036C452.6 253.431 442.936 252.734 434.268 257.217C433.571 257.615 432.575 257.516 431.778 257.615C423.309 258.014 415.04 259.708 406.971 262.198C399.698 264.49 392.425 267.08 385.152 269.471C382.562 270.368 379.972 271.264 377.282 271.962C371.603 273.556 366.522 276.246 360.146 278.836C362.736 281.526 364.529 283.319 366.223 285.212C368.415 287.603 371.105 289.596 372.798 292.385C376.285 297.865 379.075 303.843 382.363 309.422C386.447 316.296 390.831 323.071 395.015 329.845C400.694 327.853 402.089 325.362 405.377 312.211C402.388 311.115 399.299 310.019 396.311 308.923C397.008 308.226 397.606 307.429 398.403 306.532C395.115 303.843 391.03 302.149 390.532 297.267C390.433 296.669 389.336 295.872 388.639 295.773C383.957 294.677 384.355 290.492 384.355 287.105C384.256 283.519 387.842 282.821 390.233 281.925C392.624 281.127 395.215 281.227 397.705 281.028C402.388 280.629 407.668 281.626 411.553 279.633C417.83 276.246 423.608 277.043 429.785 278.039C435.165 278.936 440.744 279.135 446.124 280.53C450.209 281.626 454.094 281.725 458.08 280.829C468.939 278.238 479.898 277.242 490.957 277.441C496.237 277.541 501.517 276.844 506.897 276.445C510.284 276.146 513.572 275.349 516.959 275.15C529.213 274.353 541.468 273.655 553.722 273.058C560.496 272.659 567.171 272.46 573.946 272.161C577.532 271.962 581.02 271.763 584.606 271.364C588.99 270.766 593.373 269.77 597.757 269.272C606.225 268.375 614.694 267.678 623.162 266.98C625.653 266.781 628.143 266.582 630.634 266.781C636.113 267.18 641.593 267.578 646.275 263.792C647.67 264.589 648.965 265.885 650.161 265.885C655.441 265.885 660.921 266.283 666.101 265.287C678.455 262.896 690.51 265.685 702.565 267.18C709.937 268.076 717.21 268.873 724.583 269.67C728.368 270.069 732.353 269.969 735.94 271.264C740.324 272.858 744.508 272.958 748.991 272.958C753.375 272.958 756.862 275.947 759.452 279.035C761.843 281.825 762.939 285.91 764.832 289.795C763.836 294.577 760.648 298.064 756.663 301.451C752.478 305.038 749.788 310.119 746.899 315.897C754.072 316.894 757.26 321.975 759.95 327.454C764.932 321.477 769.714 315.897 774.396 310.219C775.791 308.525 776.986 306.732 778.282 305.038C782.267 299.857 785.056 293.78 790.536 289.795C793.325 287.803 794.521 284.017 796.713 280.43ZM465.85 467.729C461.467 468.427 461.168 470.619 462.264 473.309C462.662 474.305 462.961 475.401 463.559 476.397C465.651 479.884 467.245 484.268 470.234 486.659C474.02 489.647 471.828 494.828 475.215 497.518C476.212 498.315 476.909 499.511 477.606 500.606C479.898 504.093 482.388 507.481 484.281 511.167C485.477 513.458 486.772 514.754 488.964 516.148C494.942 520.034 501.417 522.823 508.092 524.716C515.963 526.908 524.232 528.303 532.401 529.1C539.774 529.797 547.146 529.598 554.519 529.299C562.09 529 569.662 529.797 577.234 528.104C582.016 527.008 586.698 525.214 591.48 525.015C603.137 524.318 614.594 522.724 625.952 520.233C629.239 519.536 632.527 518.938 635.815 518.141C645.379 515.75 655.043 514.754 662.814 506.584C670.883 498.116 677.459 488.651 683.138 478.688C686.126 473.508 687.222 467.032 690.709 461.851C691.407 460.855 691.705 459.361 691.805 458.066C692.502 452.985 692.503 447.804 693.698 442.922C696.288 432.262 695.491 421.602 695.093 410.942C694.993 408.551 694.595 405.662 691.207 403.769C691.805 410.145 690.809 415.624 691.506 421.403C692.303 427.879 694.196 434.554 692.303 441.328C690.41 448.203 689.016 455.077 687.422 461.951C687.222 462.549 687.023 463.246 686.724 463.744C681.444 470.32 678.455 478.888 671.282 483.869C670.286 484.566 669.389 485.563 668.492 486.559C664.408 491.341 659.227 494.33 653.249 495.725C641.294 498.614 629.339 501.902 617.284 504.392C609.812 505.986 602.24 506.883 594.569 507.68C589.588 508.178 584.307 506.983 579.525 508.278C573.846 509.772 568.765 507.58 563.585 506.883C553.223 505.588 543.061 501.902 532.401 501.802C528.815 501.802 525.029 501.702 521.642 500.706C508.79 496.721 497.133 490.444 489.761 477.891C486.573 472.412 484.381 466.434 481.591 460.756C478.403 454.28 477.407 447.206 477.009 440.033C476.61 432.86 475.016 425.986 478.204 418.514C482.488 408.152 484.481 396.894 492.152 388.227C495.44 384.441 498.428 380.257 501.318 376.172C503.509 373.183 505.402 369.895 504.207 364.814C498.927 365.711 496.137 370.493 491.853 372.386C486.971 374.578 486.971 380.755 483.983 384.74C482.887 383.744 481.99 383.046 480.496 381.751C475.913 390.817 469.636 398.289 467.046 408.152C467.743 408.949 468.739 410.045 469.835 411.44C468.241 413.034 465.751 414.23 465.651 415.724C465.253 421.403 460.969 425.089 459.873 430.17C458.876 434.454 458.079 439.037 458.279 443.42C458.378 451.689 457.083 460.756 465.85 467.729ZM232.224 406.758C231.427 410.344 230.331 413.333 230.132 416.322C229.933 419.41 230.032 422.798 231.029 425.587C234.914 435.649 237.505 446.31 244.379 454.977C245.973 456.97 247.268 458.066 249.559 457.866C255.039 457.468 260.518 456.97 265.998 456.472C269.485 456.173 273.071 455.774 276.558 455.475C281.241 454.977 285.824 454.379 290.506 453.881C297.679 453.084 304.853 452.686 311.926 451.391C321.69 449.697 331.453 447.505 341.117 445.114C345.899 443.919 350.482 442.125 355.065 440.332C360.046 438.339 362.935 434.255 363.633 428.775C364.031 425.189 366.522 421.801 364.828 417.816C364.529 417.218 365.625 415.923 366.123 415.027C371.404 405.662 375.189 395.699 377.78 383.943C374.492 386.135 372.101 388.526 369.311 389.522C360.445 392.511 351.379 395.002 342.412 397.691C337.53 399.186 332.449 400.083 327.767 402.175C319.398 405.761 310.631 407.355 301.963 408.152C290.008 409.248 277.953 409.149 265.898 409.447C264.902 409.447 263.806 409.049 262.71 409.049C252.548 408.152 242.386 407.455 232.224 406.758ZM740.523 291.788C738.431 291.489 736.936 291.19 735.542 290.991C727.771 289.994 720 289.098 712.229 288.201C705.354 287.404 698.38 286.109 691.506 285.81C681.344 285.312 671.182 285.611 661.02 285.511C653.449 285.411 645.777 284.116 638.305 286.507C636.91 286.906 635.316 286.707 633.822 286.707C625.354 287.105 616.985 287.105 608.517 287.803C597.458 288.699 586.499 290.194 575.44 291.289C570.359 291.788 565.279 291.588 560.198 292.286C551.032 293.681 541.866 293.382 532.7 293.979C521.642 294.776 510.683 295.673 499.624 296.37C495.639 296.669 491.654 296.669 487.669 296.769C483.186 296.869 478.702 296.271 474.418 296.869C457.382 299.459 440.445 302.348 423.509 305.138C421.915 305.437 420.321 305.835 418.129 306.433C419.125 309.322 419.922 311.713 420.719 314.104C427.494 313.706 433.173 309.322 439.549 311.813C439.748 311.912 439.947 311.613 440.147 311.613C453.397 310.418 466.647 309.222 479.898 308.027C484.979 307.628 490.06 307.429 495.141 307.13C505.303 306.632 515.365 305.935 525.527 305.636C528.715 305.536 531.804 306.134 534.992 306.234C543.56 306.433 552.128 306.333 560.795 306.632C563.286 306.732 565.677 307.828 568.168 308.027C574.046 308.525 580.123 309.721 585.901 309.023C593.871 308.126 601.742 307.031 609.712 308.027C612.601 308.326 615.491 307.529 618.38 307.628C628.343 308.027 638.206 307.429 648.069 305.735C650.759 305.237 653.548 305.536 656.338 305.536C657.633 305.536 658.928 306.234 660.124 305.935C668.094 303.843 676.064 303.245 684.333 303.743C693.598 304.341 702.864 302.248 712.129 303.643C717.708 304.44 723.487 303.743 729.165 304.241C734.446 304.739 737.036 301.95 738.73 297.367C739.427 295.972 739.826 294.278 740.523 291.788ZM371.304 543.944C370.906 543.944 370.507 544.044 370.208 544.044C369.81 546.236 369.411 548.428 369.013 550.619C367.817 556.697 366.721 562.874 365.426 568.951C364.031 575.925 362.039 582.899 361.042 589.873C359.249 602.724 357.854 615.576 356.559 628.428C355.364 640.882 354.367 653.335 353.67 665.789C353.172 675.054 355.065 684.419 353.57 693.784C352.773 698.466 352.973 703.448 353.371 708.329C354.168 719.488 355.164 730.546 356.26 741.705C356.659 745.291 357.356 748.778 358.452 752.165C358.95 753.759 360.744 754.756 362.437 756.549C363.334 754.357 364.23 753.261 364.33 751.966C365.426 743.597 366.422 735.229 368.315 726.96C371.304 714.008 373.097 700.658 375.787 687.607C379.175 671.467 385.352 656.224 391.03 640.882C392.525 636.996 394.418 633.21 395.812 630.022C391.528 617.868 385.75 607.108 383.658 594.854C382.562 588.279 380.769 581.703 378.178 575.626C374.791 567.755 373.297 559.486 372.001 551.118C371.902 548.726 371.603 546.335 371.304 543.944ZM893.55 414.528C890.86 413.931 889.466 413.433 887.971 413.333C875.219 412.038 862.965 409.149 851.109 403.968C849.715 403.37 848.22 403.271 846.726 402.972C835.866 400.979 825.107 399.086 814.247 397.094C813.251 396.894 812.155 396.596 811.159 396.297C806.675 395.002 802.292 393.208 797.709 392.411C792.827 391.614 787.746 391.614 781.968 391.315C783.462 400.68 784.757 408.949 786.053 417.218C787.348 425.388 788.643 433.657 789.839 441.627C795.119 442.723 799.702 443.919 804.284 444.616C807.771 445.114 811.657 446.011 814.845 445.014C823.712 442.424 832.479 444.716 841.346 444.815C852.305 444.915 863.363 445.313 874.322 445.513C880.698 445.612 884.883 441.627 887.075 436.148C889.964 429.473 891.359 422.299 893.55 414.528ZM244.578 303.444C244.379 303.046 244.179 302.747 243.98 302.348C242.386 303.643 240.593 304.739 239.198 306.134C236.309 309.023 233.918 312.61 230.73 315.1C225.948 318.787 220.767 321.875 215.686 325.063C210.605 328.251 206.919 334.129 200.244 334.428C200.045 334.428 199.845 334.627 199.746 334.727C195.362 337.417 190.879 340.007 186.595 342.697C177.33 348.376 167.765 353.357 157.205 356.246C148.637 358.538 140.268 361.826 132.099 365.412C122.833 369.397 115.162 376.172 107.591 383.046C99.9192 390.02 99.6202 399.286 104.502 409.946C104.701 407.754 104.801 406.359 105 404.865C106.096 392.81 111.376 384.341 122.435 379.559C129.11 376.67 136.084 374.777 142.958 372.486C153.021 369.198 163.182 365.811 172.946 361.427C181.514 357.641 190.082 353.457 197.654 347.977C207.118 341.203 215.587 332.934 224.453 325.362C225.25 324.665 225.848 323.668 226.645 322.871C232.523 316.495 238.501 309.92 244.578 303.444ZM525.328 479.087C525.627 471.416 530.608 468.825 536.586 467.431C537.383 467.231 538.279 466.932 539.076 466.833C545.552 465.837 551.928 464.242 558.404 463.944C565.478 463.545 568.467 467.431 567.371 474.803C566.872 477.991 565.278 480.88 563.884 484.666C565.278 485.364 567.072 486.26 569.064 487.356C569.762 479.087 573.747 474.006 579.127 469.722C583.311 466.434 588.292 465.139 593.174 463.744C598.554 462.15 604.033 461.154 608.616 465.338C610.708 464.242 612.402 463.445 613.996 462.648C614.594 463.645 614.992 464.342 615.59 465.338C619.775 457.866 626.35 457.866 633.523 458.863C632.527 455.874 631.73 453.483 630.733 450.295C625.951 451.789 621.269 452.586 617.085 454.678C613.398 456.472 610.21 457.966 605.926 457.269C602.539 456.77 598.952 458.165 595.465 458.265C589.488 458.365 583.61 458.165 577.632 457.966C566.175 457.468 554.718 456.571 545.453 448.003C544.755 447.405 543.56 447.306 542.663 447.107C538.18 454.18 533.298 460.357 525.926 463.246C518.952 466.036 511.48 467.231 503.709 464.94C505.602 467.431 507.594 469.622 509.886 471.515C512.078 473.309 515.066 474.205 516.86 476.297C519.251 478.888 522.04 478.589 525.328 479.087ZM114.963 466.634C113.17 471.615 109.683 472.711 105.199 472.412C100.616 472.113 97.329 475.002 94.4398 478.589C92.4472 481.08 92.4472 484.168 94.4398 485.862C97.6278 488.452 101.414 490.644 105.299 492.039C109.782 493.732 114.764 493.931 119.247 495.625C122.236 496.821 124.826 498.215 128.213 496.92C129.608 496.422 131.899 497.518 133.394 498.514C136.383 500.507 139.172 502.798 141.862 504.89C145.05 503.595 144.452 501.105 144.054 499.012C142.36 490.644 138.375 483.471 132.597 477.393C127.815 472.312 121.837 469.722 114.963 466.634ZM125.523 518.141C120.841 516.049 116.856 513.458 112.671 512.661C106.993 511.565 101.115 507.182 95.2366 512.363C94.8381 512.661 94.0413 512.462 93.4435 512.562C89.6577 512.96 87.964 514.654 88.4621 518.241C89.3588 524.417 92.1483 529.598 97.1297 533.085C100.318 535.277 103.904 536.672 107.292 538.564C109.384 539.66 111.177 540.159 112.771 537.568C113.269 536.771 114.365 536.373 115.76 535.376C119.745 542.948 126.121 544.741 133.494 544.642C134.291 540.159 133.195 536.97 130.903 533.683C127.815 529.2 123.73 525.015 125.523 518.141ZM639.302 423.694C642.091 429.672 642.888 434.055 639.8 438.439C638.206 440.631 639.8 442.723 640.696 444.616C644.482 452.486 651.556 456.97 657.733 462.25C660.024 464.143 661.618 462.648 662.814 460.457C666.799 452.686 669.788 444.716 670.983 435.948C671.581 431.864 671.182 428.476 667.895 425.288C659.028 429.174 649.962 427.082 639.302 423.694ZM110.779 560.482C109.384 559.984 108.587 559.685 107.79 559.387C103.008 557.494 98.7237 553.309 92.9454 556.697C92.248 557.095 90.5543 556.199 89.4584 555.501C85.6726 553.01 81.7869 553.309 77.8018 554.704C75.8093 555.402 73.518 555.601 73.2191 558.59C72.9202 561.678 73.2191 564.468 76.2079 566.062C79.5952 567.855 82.9826 569.748 86.4696 571.342C94.8383 575.028 103.207 578.615 111.675 582.201C114.265 583.297 117.055 584.094 120.442 585.29C120.343 575.028 112.373 569.25 110.779 560.482ZM110.081 440.73C110.779 441.727 111.277 443.42 112.173 443.62C116.358 444.716 119.048 448.402 122.634 450.394C129.508 454.18 136.183 458.265 142.859 462.25C143.556 462.648 144.552 463.346 145.15 463.147C147.441 462.35 150.629 461.851 151.626 460.058C156.109 452.387 152.224 443.122 143.954 440.631C136.781 438.439 129.907 435.749 123.73 431.266C120.542 428.974 119.147 429.174 116.656 432.063C114.564 434.952 112.472 437.742 110.081 440.73ZM111.974 619.761C109.882 613.883 108.188 609.001 106.395 603.92C104.203 602.924 101.115 602.326 99.0225 600.333C90.5542 592.662 80.7906 589.474 69.8316 589.673C67.7395 589.673 65.9462 590.171 65.6473 592.762C65.3484 595.053 65.448 597.245 67.8391 598.441C73.6175 601.23 79.1968 604.418 84.9752 606.809C90.3551 609.001 95.5355 611.292 100.019 615.178C102.41 617.27 105.399 618.665 108.288 619.96C109.483 620.558 110.978 619.86 111.974 619.761ZM556.113 431.565C559.998 434.055 562.19 436.347 564.581 436.745C568.666 437.343 572.95 436.845 577.134 436.646C582.315 436.347 587.296 433.856 592.576 434.952C600.646 436.546 608.417 433.557 616.387 432.86C617.184 432.76 617.882 432.163 619.177 431.366C611.207 427.58 604.133 421.801 595.665 423.196C586.399 424.591 576.935 423.794 567.968 427.082C564.481 428.377 560.994 429.672 556.113 431.565ZM628.94 354.752C628.841 355.051 628.641 355.35 628.542 355.649C629.438 356.446 630.335 357.342 631.331 357.94C638.206 362.224 645.578 365.512 651.456 371.589C654.345 374.578 658.43 376.471 662.216 378.463C665.005 379.958 668.393 380.356 671.083 381.95C677.06 385.637 682.739 389.821 689.613 394.503C687.023 390.817 685.628 387.231 683.138 385.437C677.26 381.353 672.378 375.973 666.599 371.689C659.227 366.209 651.954 360.331 642.689 358.438C638.106 357.641 633.523 356.047 628.94 354.752ZM97.3289 659.313C91.4509 658.018 86.868 656.025 81.1893 657.021C75.112 658.018 69.1342 656.523 64.3521 651.442C63.057 650.047 60.7656 649.848 59.1715 649.151C58.3745 650.147 57.8765 650.446 57.7769 650.844C56.2825 656.722 60.4668 662.302 67.4407 663.696C76.6064 665.49 85.5729 664.593 94.4398 662.202C95.3364 661.903 95.9341 660.708 97.3289 659.313ZM105.897 640.085C105.897 639.288 105.997 638.59 105.897 638.491C99.0226 636.697 93.244 632.613 87.2664 628.926C85.6724 628.03 83.0821 628.03 81.2888 628.628C78.2003 629.723 75.5104 629.225 72.6212 628.229C69.8317 627.133 67.0421 626.037 64.1529 625.24C62.7581 624.842 61.1641 625.141 59.1715 625.141C59.8689 626.535 60.0682 627.332 60.4668 627.631C67.0422 631.816 72.9202 637.395 81.1893 637.893C89.3587 638.491 97.5282 639.387 105.897 640.085ZM324.479 561.279C325.774 556.497 327.368 552.313 327.866 548.029C328.763 540.159 328.464 540.159 321.191 540.657C320.594 545.439 320.195 550.121 319.299 554.704C318.601 558.689 320.096 560.383 324.479 561.279ZM148.537 647.656C144.054 639.985 133.294 636.996 127.615 642.476C134.291 644.668 140.667 646.76 147.143 648.752C147.541 648.752 148.139 647.955 148.537 647.656ZM180.717 591.765C180.617 584.991 177.23 582.201 172.049 584.991C175.138 587.083 175.736 592.264 180.717 591.765ZM219.472 541.553C218.775 536.871 216.284 533.882 211.402 532.089C212.398 537.568 215.288 540.159 219.472 541.553ZM139.073 620.558C136.682 613.982 136.682 613.982 132.597 612.687C132.896 619.163 132.896 619.163 139.073 620.558ZM74.3149 696.573C77.4033 694.382 79.2964 693.086 81.1893 691.692C83.0822 690.297 85.7721 689.4 84.6762 685.017C81.3885 689.201 76.5067 690.596 74.3149 696.573ZM315.413 576.323C318.501 579.511 321.092 581.205 325.376 578.415C322.287 575.825 319.498 574.63 315.413 576.323ZM192.871 540.258C192.373 539.86 191.975 539.561 191.477 539.162C190.979 540.059 190.48 540.956 189.982 541.952C189.982 542.051 190.779 542.649 190.879 542.649C191.576 541.852 192.174 541.055 192.871 540.258ZM143.456 679.537C141.962 678.939 141.364 678.541 140.866 678.641C140.368 678.74 139.77 679.338 139.67 679.936C139.571 680.334 140.069 680.932 140.268 681.43C140.866 681.131 141.464 680.733 143.456 679.537Z" fill="white"/>
<path d="M733.049 619.462C733.249 618.266 733.348 617.071 733.548 615.776C733.946 615.676 734.245 615.576 734.643 615.477C735.241 616.672 735.839 617.868 736.736 619.86C734.843 619.561 733.846 619.462 732.95 619.263C732.85 619.263 733.049 619.462 733.049 619.462Z" fill="white"/>
<path d="M480.895 390.518C480.197 389.721 479.5 389.323 479.599 388.924C479.699 388.327 480.197 387.729 480.596 387.131C480.994 387.43 481.891 387.828 481.791 388.127C481.692 388.825 481.293 389.522 480.895 390.518Z" fill="white"/>
</svg>
