<svg width="954" height="954" viewBox="0 0 954 954" fill="none" xmlns="http://www.w3.org/2000/svg">
<path d="M885.077 532.736C885.674 515.197 886.986 497.538 887.106 479.999C887.106 464.01 885.793 447.902 885.077 431.795C884.242 412.585 883.407 393.494 882.93 374.284C882.691 364.023 883.526 353.762 882.81 343.62C881.259 322.74 878.992 301.859 877.203 280.859C876.129 267.615 879.35 271.075 879.35 257.712C879.35 243.036 878.873 233.372 868.015 225.855C863.72 222.872 859.663 219.173 856.322 215.116C850.595 208.196 845.345 200.798 840.095 193.52C835.8 187.673 832.22 181.23 827.448 175.98C824.465 172.639 819.811 169.537 815.755 169.179C807.283 168.463 793.8 152.594 785.209 153.668C775.784 154.742 766.477 157.248 757.051 158.202C747.983 159.157 751.92 159.157 742.614 159.634C740.585 150.089 739.153 140.901 736.648 132.191C735.574 128.492 732.591 125.032 729.727 122.407C728.415 121.214 725.193 122.169 722.807 122.169C722.449 121.691 722.091 121.214 721.852 120.737C717.199 112.743 712.546 104.868 701.807 106.538C699.779 106.896 697.512 104.987 695.364 104.39C691.546 103.317 687.728 101.885 683.791 101.408C678.421 100.811 672.933 100.692 667.444 100.692C660.285 100.811 653.007 100.453 645.967 101.646C629.382 104.39 616.138 113.578 605.161 127.061C596.451 137.799 590.247 149.731 588.815 164.287C588.576 166.674 587.622 168.941 586.786 171.566C580.821 172.401 575.213 173.355 569.486 174.071C561.491 175.145 553.497 175.861 545.622 177.293C538.105 178.605 536.673 177.889 534.884 169.657C532.497 158.799 529.634 148.538 521.878 139.947C516.27 133.742 510.662 128.612 503.026 126.464C496.106 124.555 488.947 123.362 482.027 121.453C476.538 119.902 471.288 120.14 465.8 121.333C461.146 122.288 456.135 122.169 451.362 122.765C448.021 123.242 444.561 123.839 441.578 125.271C435.97 127.776 430.959 131.714 425.232 133.384C419.027 135.174 414.374 139.35 410.198 143.646C398.982 155.1 390.511 168.463 388.96 186.003C388.363 193.758 387.409 194.116 380.25 194.594C369.034 195.31 372.136 195.548 361.04 196.383C357.46 196.622 356.028 194.952 354.358 191.849C350.54 184.571 346.96 177.173 342.307 170.492C337.654 163.81 331.688 158.321 326.915 151.878C317.251 138.873 303.291 135.174 289.569 133.981C277.757 133.026 265.467 136.009 253.774 138.873C236.712 143.049 222.394 152.714 212.252 168.225C205.212 179.083 202.945 191.969 201.036 204.855C200.082 211.537 199.008 214.042 193.639 214.281C179.082 214.997 175.264 218.576 160.469 215.355C156.054 214.4 151.281 214.997 146.867 216.071C141.259 217.383 139.23 221.082 140.066 227.048C142.213 240.53 141.497 254.133 140.901 267.735C140.185 284.081 140.066 300.427 140.304 316.774C140.424 327.631 142.094 338.37 142.452 349.228C142.929 366.29 142.929 383.233 143.168 400.295C143.168 403.636 143.884 407.096 143.884 410.437C143.884 420.937 143.168 431.437 143.526 441.817C144.003 456.016 145.196 470.215 146.151 484.413C146.509 490.618 147.105 496.703 147.583 502.907C148.179 510.186 149.134 517.583 149.253 524.861C149.372 533.094 147.821 541.208 149.372 549.441C150.566 556.122 151.162 562.923 151.401 569.724C152.236 592.275 152.833 614.707 153.429 637.258C153.548 642.149 142.691 647.042 142.691 652.53C128.492 651.576 115.367 650.502 102.362 650.024C95.5607 649.786 100.453 652.291 93.7709 651.218C85.896 649.905 79.6916 652.411 73.2485 655.99C68.7145 658.496 65.9702 662.314 66.3281 667.683C66.5667 672.456 67.2827 677.586 68.9532 682.001C70.385 685.939 73.9644 688.802 76.1121 692.501C77.3053 694.649 79.095 696.319 78.1405 698.467C76.1121 703.12 77.6632 707.058 80.0495 710.637C86.2539 719.944 86.4926 729.131 92.9357 738.199C94.1289 739.75 96.2765 740.586 97.947 741.659C103.316 745.12 103.674 747.625 107.97 752.159C111.31 755.739 114.651 758.602 118.827 760.869C128.134 766.239 137.56 771.369 148.06 773.636C152.713 774.71 155.338 777.335 155.935 781.988C156.889 788.909 169.895 796.068 169.537 802.988C168.821 817.425 169.179 830.908 178.605 843.078C184.094 850.118 177.77 852.027 185.406 850.953C188.15 850.595 191.133 850.357 193.758 851.311C207.957 856.322 221.439 853.817 235.042 848.567C243.394 845.345 252.104 844.152 261.053 844.749C275.013 845.584 289.092 848.448 302.813 842.72C304.364 842.124 306.273 842.124 307.944 842.124C316.535 842.482 325.126 843.078 333.716 843.198C344.216 843.436 340.517 843.436 351.017 843.317C359.369 843.317 367.721 842.84 375.954 842.959C389.795 842.959 403.516 843.317 417.357 843.317C422.13 843.317 427.022 842.124 431.794 842.243C444.084 842.601 456.374 843.675 468.544 843.794C474.748 843.794 481.191 841.289 487.157 842.124C493.72 843.078 499.685 841.885 505.89 840.931C520.924 838.664 535.958 836.397 551.111 834.607C556.838 833.891 562.684 834.846 568.412 834.488C595.019 832.936 621.627 831.266 648.234 829.596C657.064 828.999 666.012 828.88 674.842 827.806C684.506 826.732 693.813 823.033 703.836 825.062C707.415 825.777 711.591 825.777 714.932 824.584C725.432 820.885 736.171 819.931 747.148 819.334C764.807 818.261 769.34 815.874 786.999 814.8C803.107 813.846 819.215 813.965 835.322 813.488C843.913 813.249 852.504 812.891 861.214 812.414C867.777 811.937 863.242 808.954 865.032 801.556C865.748 798.573 866.703 795.71 867.657 792.727C868.492 790.102 868.85 786.761 870.521 785.091C875.293 780.318 875.89 774.233 876.009 768.028C876.248 757.529 876.009 746.909 876.367 736.409C876.725 725.313 877.203 714.217 877.918 703.12C878.276 697.274 880.066 691.547 879.827 685.819C879.47 674.365 879.35 663.03 879.827 651.576C880.782 632.127 883.526 612.559 883.765 593.11C883.765 586.667 884.6 580.105 884.839 573.662C885.197 565.31 885.435 556.958 885.555 548.725C885.555 543.236 884.958 537.986 885.077 532.736ZM615.661 166.316C615.9 164.765 616.138 163.213 616.615 161.782C618.525 156.054 634.274 135.174 639.166 131.953C640.598 130.998 642.149 130.043 643.82 129.686C658.734 126.464 673.649 125.987 687.251 134.816C695.006 139.947 702.523 145.555 709.802 151.52C712.546 153.787 713.978 157.964 716.722 162.498C713.381 163.452 711.711 163.929 710.16 164.287C706.341 165.123 701.927 167.39 698.705 166.196C695.961 165.123 694.529 159.992 692.501 156.77C688.921 151.162 684.268 148.18 677.467 147.702C664.103 146.628 652.53 151.52 641.314 157.964C631.769 163.571 624.729 183.139 627.235 194.474C628.309 199.247 629.382 204.139 629.979 209.031C630.218 210.463 629.263 212.968 628.308 213.446C627.115 214.042 624.968 213.326 623.774 212.372C622.223 211.059 620.792 209.15 620.195 207.241C616.258 193.997 613.155 180.514 615.661 166.316ZM667.325 239.695C668.995 239.695 671.501 240.65 672.217 242.082C673.052 243.513 672.813 246.496 671.859 247.809C669.711 250.792 667.206 254.371 662.075 252.82C659.927 243.394 661.359 239.815 667.325 239.695ZM422.607 170.611C432.272 160.946 442.294 151.878 456.493 150.327C469.26 148.895 481.788 148.538 493.72 154.026C505.174 159.276 511.02 169.418 510.543 182.065C500.759 186.361 499.805 186.242 494.077 178.009C492.288 175.622 491.095 172.639 489.186 170.372C482.027 162.02 473.078 158.202 462.697 160.946C454.942 162.975 447.305 165.838 439.669 168.821C432.391 171.566 428.573 178.128 425.351 185.168C423.919 188.389 429.527 231.462 441.817 239.576C437.76 245.303 429.169 245.303 429.169 245.303C401.607 204.616 418.073 175.264 422.607 170.611ZM473.316 261.292C471.169 264.274 468.663 267.854 463.532 266.303C461.265 256.877 462.697 253.297 468.663 253.178C470.334 253.178 472.839 254.133 473.555 255.564C474.51 256.996 474.271 259.979 473.316 261.292ZM229.672 194.594C230.03 191.491 231.581 188.389 232.894 185.406C235.28 180.276 241.007 179.202 244.229 174.071C247.093 169.418 253.178 166.316 258.428 164.049C263.319 161.901 268.927 161.185 274.416 160.588C279.785 159.873 285.393 159.037 290.643 159.992C296.967 161.185 303.291 163.452 307.825 169.537C312.836 176.219 318.802 182.065 324.171 188.509C326.199 190.895 327.75 193.878 329.898 196.98C324.41 200.679 321.785 198.292 320.114 194.713C314.387 181.588 303.41 180.037 292.313 181.588C282.529 182.901 272.984 186.838 263.32 189.582C262.842 189.702 262.246 190.06 261.888 190.537C254.609 200.44 244.826 209.389 249.598 224.423C250.195 226.213 250.553 228.002 250.553 229.911C250.433 241.485 254.013 251.03 262.962 258.07C264.274 259.144 265.109 260.934 266.064 262.365C259.979 268.331 257.95 268.451 255.325 261.411C252.104 252.701 243.99 249.36 239.337 242.32C238.024 240.411 236.115 238.621 235.519 236.474C232.178 222.633 228.121 209.031 229.672 194.594ZM165.003 261.292C164.645 256.758 165.48 253.655 169.895 251.746C183.497 245.78 196.86 247.689 209.985 253.297C212.013 254.133 213.684 256.161 215.474 257.712C222.036 263.439 228.718 269.405 235.28 275.132C241.365 280.382 244.11 288.376 243.632 295.655C242.559 311.643 251.507 319.518 262.246 325.961C281.694 337.535 300.666 333.239 318.563 321.546C324.887 317.49 330.256 311.524 335.625 305.916C340.517 300.785 343.142 293.865 342.426 286.467C341.472 276.683 340.04 266.899 335.625 257.951C331.807 250.553 326.319 246.377 318.324 246.377C314.268 246.377 310.211 246.496 306.274 246.496C302.217 246.377 298.279 245.9 295.296 239.934C301.62 239.576 307.228 238.86 312.716 239.218C322.023 239.815 330.853 238.621 339.921 236.354C350.421 233.729 347.199 233.491 358.176 232.775C366.409 232.178 374.761 232.775 383.113 232.178C389.437 231.701 393.971 234.207 395.999 240.411C398.624 248.405 403.636 254.133 409.482 259.263C410.556 260.218 412.227 261.172 412.465 262.485C414.613 271.672 416.88 275.729 422.488 280.144C431.675 287.303 422.488 280.144 424.993 281.217C422.726 286.945 431.675 287.422 429.885 292.075C430.363 292.433 430.959 292.91 431.436 293.268C434.061 291.717 440.266 298.518 442.056 297.444C448.499 300.427 442.652 298.876 462.22 301.143C478.328 303.052 486.441 298.399 498.731 287.899C510.901 277.399 510.066 251.508 502.788 241.604C499.685 237.428 495.629 235.519 490.856 235.161C487.634 234.923 484.532 234.445 483.936 229.553C491.214 225.735 498.612 223.23 506.844 222.872C528.083 222.156 549.321 221.44 570.559 220.247C577.957 219.769 585.235 217.86 592.872 216.667C594.184 218.815 595.496 220.485 596.332 222.394C600.627 232.775 609.934 238.025 616.854 245.78C618.405 247.57 620.792 249.479 620.911 251.388C620.911 259.382 626.041 264.394 629.502 270.24C632.484 275.371 637.138 278.592 642.746 280.024C647.757 281.337 652.768 282.769 657.66 284.2C662.194 285.513 666.609 285.751 671.024 283.365C674.245 281.575 677.944 280.144 681.524 279.547C686.774 278.712 690.234 275.132 693.932 271.672C695.126 270.479 696.557 268.808 696.796 267.138C697.751 258.667 699.302 250.076 698.944 241.604C698.467 227.286 689.876 217.502 676.87 214.639C674.961 214.162 673.052 213.684 671.143 211.895C673.171 211.656 675.319 211.417 677.348 210.94C681.882 210.105 686.654 209.866 690.83 207.957C697.393 204.855 704.074 203.781 710.995 203.9C726.267 204.258 741.42 204.497 756.574 202.111C757.767 201.991 758.96 201.514 760.034 201.991C772.801 207.122 771.011 199.963 782.823 197.219C790.459 195.429 790.937 195.548 792.13 204.139C792.965 210.224 794.516 216.309 794.994 222.394C795.709 232.178 796.187 242.082 795.948 251.985C795.471 276.445 794.755 300.785 797.38 325.126C798.096 331.45 797.022 338.131 797.022 344.574C797.141 356.387 797.738 368.08 797.618 379.892C797.618 386.693 797.499 393.613 796.306 400.295C793.562 414.494 795.59 428.692 795.829 442.891C796.067 455.897 796.783 468.902 796.306 481.788C795.829 491.214 793.681 500.64 792.249 510.066C792.011 511.617 791.533 513.288 791.891 514.6C795.113 527.129 792.249 539.418 791.295 551.946C790.34 564.475 791.414 577.241 791.414 589.889C791.414 601.94 791.175 613.991 791.414 626.042C791.533 632.962 787.715 636.78 783.062 640.002C779.721 642.269 776.022 643.939 772.562 646.087C765.522 650.502 770.772 650.621 763.017 650.382C749.176 649.905 735.455 648.593 722.449 642.865C719.705 641.672 717.318 639.167 715.29 636.78C710.517 630.934 706.103 624.849 701.688 618.883C698.824 615.065 695.364 612.798 690.592 612.917C679.137 613.036 667.802 613.156 656.348 615.9C647.16 618.167 637.615 618.406 628.07 619.122C605.996 620.792 583.923 622.582 561.73 623.656C546.815 624.371 532.02 626.877 516.986 623.894C504.816 621.508 492.884 625.087 481.072 627.235C457.805 631.411 434.658 636.542 411.391 640.121C399.221 642.03 386.812 641.314 374.522 641.792C359.727 642.508 359.131 641.434 344.335 643.82C337.534 644.894 330.733 644.774 323.813 645.252C309.495 646.326 295.177 647.757 280.859 648.235C273.461 648.473 265.945 647.161 258.547 646.326C246.615 644.894 234.684 642.388 222.633 641.792C213.565 641.314 204.258 643.223 195.19 644.059C192.088 644.297 188.985 644.655 185.406 645.013C183.258 637.377 183.139 631.172 184.451 624.61C185.764 618.048 185.764 611.008 185.406 604.326C184.571 584.878 182.9 565.429 182.304 545.98C181.826 529.634 182.423 513.288 182.184 496.941C182.065 490.14 180.395 483.22 181.23 476.538C183.258 460.789 179.798 445.755 177.889 430.482C176.934 423.085 176.815 415.687 175.861 408.289C174.787 400.057 173.832 391.704 172.043 383.71C167.628 364.262 167.27 344.455 166.196 324.768C165.48 311.524 165.003 298.16 164.764 284.916C164.645 280.979 165.599 277.041 165.838 272.985C165.361 269.166 165.361 265.229 165.003 261.292ZM296.728 275.967C299.95 273.939 302.694 273.462 304.484 277.519C306.154 281.337 306.989 285.274 301.262 287.78C299.711 283.604 298.279 280.024 296.728 275.967ZM162.736 745.477C142.571 744.523 125.748 735.336 112.265 719.109C105.822 711.234 99.1402 703.359 96.9925 692.62C96.5152 690.592 96.5153 688.444 96.2766 686.893C102.6 685.581 108.328 684.268 114.174 683.194C117.038 682.717 120.021 682.24 122.765 682.717C136.248 684.984 149.73 683.91 163.213 682.359C170.611 681.524 178.128 682.24 185.525 682.359C189.582 682.359 193.639 682.956 197.576 682.598C211.894 681.405 226.331 682.478 240.411 678.66C242.797 678.064 245.661 678.302 248.166 678.78C265.467 681.763 282.649 681.166 300.188 679.376C314.745 677.944 329.898 675.916 344.693 680.808C347.438 681.763 351.017 681.285 353.761 680.211C367.602 674.484 367.602 671.74 382.397 672.575C391.227 673.052 400.176 673.291 409.005 672.814C419.028 672.337 428.931 670.905 438.953 670.07C452.913 668.757 466.873 667.922 480.833 666.251C489.901 665.178 498.97 663.268 508.038 661.359C515.555 659.808 522.833 657.541 530.827 658.615C536.912 659.331 543.236 657.422 549.44 656.945C554.332 656.467 559.224 656.468 564.116 656.11C571.275 655.513 578.434 654.916 585.593 654.32C588.457 654.081 591.32 653.485 594.184 653.962C608.621 656.467 622.939 654.439 637.138 651.814C651.456 649.189 665.654 648.115 680.092 648.473C684.506 648.593 687.609 650.024 690.234 654.081C696.438 663.746 705.268 670.308 714.336 676.155C717.677 678.302 721.972 679.138 725.909 679.496C739.034 680.569 752.278 681.524 765.522 681.763C774.352 681.882 769.937 680.45 780.437 679.615C777.454 682.717 775.545 685.461 773.039 687.013C761.466 693.814 763.255 701.211 751.085 706.58C743.807 709.802 735.335 709.563 727.46 711.234C693.813 718.393 659.689 720.182 625.564 719.586C610.053 719.347 594.423 718.273 579.15 721.137C555.406 725.671 531.424 727.938 507.441 730.802C497.18 731.995 486.799 731.637 476.419 731.995C457.209 732.83 437.999 733.665 418.67 734.381C414.971 734.5 411.153 734.381 407.454 733.546C397.073 731.279 386.931 732.591 376.551 733.665C360.324 735.216 358.176 735.097 341.83 736.171C330.733 736.887 319.637 738.438 308.66 739.75C300.904 740.586 293.268 741.421 285.512 742.614C262.723 745.955 239.934 748.102 216.786 746.551C198.769 745.478 180.753 746.432 162.736 745.477ZM861.214 454.942C861.095 467.232 859.902 479.521 859.544 491.93C858.947 510.186 858.828 528.322 857.992 546.577C857.277 561.014 855.726 575.452 854.89 589.889C854.174 600.985 854.294 612.201 853.578 623.298C852.862 635.587 851.669 647.877 850.833 660.286C850.476 664.939 850.476 669.592 850.714 674.126C851.549 691.189 850.953 707.893 847.254 724.716C845.464 733.069 844.152 742.017 845.703 751.324C847.135 759.557 845.942 768.267 845.942 777.216C837.589 778.409 830.073 780.199 822.556 780.676C802.51 781.75 782.346 781.75 762.301 783.301C747.386 784.375 745.716 787.238 730.801 789.028C723.404 789.863 715.887 789.983 708.37 790.341C694.052 791.056 679.614 791.414 665.297 792.488C657.064 793.085 648.831 795.59 640.598 795.948C628.07 796.664 615.542 795.948 602.894 796.426C597.525 796.664 592.156 798.215 586.786 799.051C575.213 800.84 563.52 803.107 551.946 804.3C536.077 805.971 520.088 807.045 504.1 808.238C501.833 808.357 499.566 807.761 497.299 807.88C491.333 808.119 485.248 807.761 479.402 809.073C467.589 811.579 455.896 813.249 443.845 810.505C440.266 809.67 436.448 810.624 432.749 810.744C418.192 811.34 403.516 812.175 388.96 812.295C380.608 812.414 372.136 811.937 364.023 810.266C355.551 808.477 361.756 810.147 353.523 811.459C340.279 813.726 327.154 812.414 313.91 811.698C302.217 810.982 290.404 811.579 278.592 811.698C273.7 811.817 268.808 812.295 263.916 812.653C261.888 812.772 259.74 812.533 257.95 813.369C246.973 818.738 235.4 817.306 223.945 816.709C218.337 816.471 212.729 816.709 205.212 816.709C204.854 815.994 203.542 814.204 203.065 812.295C200.678 803.346 198.292 794.397 196.264 785.448C194.832 779.005 196.741 776.261 202.468 776.619C232.417 778.767 262.126 775.545 291.836 771.25C309.495 768.625 327.273 766.835 345.051 765.165C351.256 764.568 357.699 766.358 363.903 766C375.358 765.165 372.375 763.136 383.829 762.42C391.227 761.943 398.744 762.301 406.141 763.256C415.329 764.33 424.397 764.926 433.584 763.852C445.277 762.42 457.089 762.42 468.902 761.705C488.112 760.511 507.322 759.795 526.532 758.006C545.145 756.216 563.639 753.233 582.133 750.727C592.633 749.296 603.133 747.864 613.752 746.551C615.78 746.313 617.809 746.313 619.718 746.79C638.689 751.205 657.422 747.148 676.274 745.955C681.762 745.597 687.131 746.313 692.62 745.955C700.614 745.478 708.847 745.597 716.483 743.568C723.523 741.779 730.563 741.779 737.722 740.943C749.057 739.512 747.386 738.199 757.29 730.921C760.034 728.893 763.375 727.341 766.715 726.387C776.977 723.285 785.448 717.08 792.965 709.325C813.607 688.206 823.51 661.837 825.539 631.769C826.135 623.178 827.328 614.468 827.328 605.877C827.209 588.219 826.732 570.679 825.896 553.02C824.107 515.555 821.959 478.089 823.391 440.624C824.107 423.323 824.703 405.903 824.703 388.602C824.703 375.955 823.51 363.307 823.152 350.66C823.033 345.768 823.629 340.756 823.987 335.864C824.107 332.762 824.584 329.66 824.226 326.558C821.362 302.217 821.124 277.757 822.317 253.297C822.675 245.184 823.391 237.07 824.107 227.764C826.97 230.389 829.237 232.178 831.146 234.326C836.754 240.411 841.527 247.451 848.805 251.746C851.907 253.536 853.101 257.115 853.101 261.292C852.981 273.939 853.339 286.706 853.578 299.353C853.697 304.961 853.936 310.45 854.532 315.938C856.203 331.927 858.231 347.796 859.663 363.784C860.498 372.614 860.618 381.562 860.737 390.511C861.453 411.63 861.572 433.346 861.214 454.942Z" fill="white"/>
</svg>
