<svg width="1120" height="1121" viewBox="0 0 1120 1121" fill="none" xmlns="http://www.w3.org/2000/svg">
<path d="M1055.15 513.88C1058.59 594.528 1063.29 675.176 1064.92 755.824C1065.82 799.041 1061.12 842.439 1059.67 885.656C1059.13 901.93 1059.67 918.566 1062.02 934.659C1067.81 972.452 1050.99 1006.63 1025.49 1025.43C1002.71 1042.07 971.79 1053.28 939.965 1059.43C879.931 1070.82 821.163 1058.34 761.852 1060.51C735.09 1061.6 708.509 1068.11 681.747 1068.83C657.878 1069.55 634.009 1065.94 610.141 1064.31C597.844 1063.59 585.548 1062.86 573.071 1062.86C527.865 1063.05 482.659 1063.23 437.634 1064.31C408.159 1064.85 378.865 1067.2 349.391 1068.11C291.165 1069.74 232.94 1071.54 174.714 1071.91C139.634 1072.09 115.584 1051.11 107.086 1015.67C101.299 991.619 96.7786 967.208 90.4498 943.158C87.9182 933.213 82.4936 924.172 78.3346 914.588C76.5263 910.429 73.9946 906.451 73.633 902.111C68.5699 834.121 61.5179 766.312 59.348 698.321C56.274 606.462 58.4437 514.423 55.5505 422.564C53.3806 353.85 60.7944 286.222 71.8247 218.955C76.5262 190.204 74.3563 164.527 84.1209 136.86C86.11 131.074 90.4498 123.298 96.4171 119.139C100.576 116.246 107.809 101.419 111.064 97.983C132.582 74.6566 175.98 82.2511 206.72 81.5278C217.751 81.347 228.781 77.9114 239.811 76.6456C315.215 67.0619 292.973 69.4127 368.377 60.1906C388.991 57.6591 560.052 58.5632 580.666 55.4892C641.061 45.9055 647.21 47.3521 705.978 56.3933C722.071 58.9249 738.707 62.1795 754.8 60.7329C805.793 56.3932 805.793 56.3933 907.235 61.9989C908.501 62.1797 909.948 62.5413 911.214 61.9989C962.93 43.9164 990.415 80.4429 1015.01 113.172C1028.93 131.797 1033.09 159.463 1036.71 183.875C1044.3 235.229 1050.99 286.764 1053.52 338.48C1056.42 396.706 1054.25 455.293 1054.25 513.699C1054.43 513.88 1054.79 513.88 1055.15 513.88ZM979.204 435.221C979.928 435.221 980.65 435.04 981.374 435.04C977.034 376.815 969.62 318.408 969.259 260.183C968.897 222.752 952.622 195.99 932.551 167.781C917.362 146.625 899.821 137.222 874.506 139.754C859.859 141.2 845.213 141.019 830.566 142.285C816.642 143.37 802.719 146.625 788.795 146.444C777.403 146.263 766.011 140.838 754.619 140.658C722.794 140.296 690.788 141.562 658.963 141.923C608.332 142.466 557.882 143.37 507.251 143.008C476.511 142.827 445.771 139.753 415.031 139.211C378.504 138.488 341.796 141.2 305.631 137.945C274.349 135.052 245.779 137.222 218.655 154.22C205.997 162.176 191.531 167.781 179.054 176.099C169.832 182.247 164.407 198.16 161.876 207.382C153.015 240.654 155.909 274.468 152.654 308.644C147.771 360.902 144.336 414.788 142.889 467.227C141.442 521.656 138.368 576.265 141.623 630.512C145.059 687.291 140.357 734.486 147.048 791.265C152.654 838.822 156.632 886.379 162.237 933.936C167.843 982.94 198.583 1002.65 246.14 1000.66C278.869 999.214 371.813 996.502 404 991.438C492.243 1000.84 517.92 996.863 601.099 994.512C709.956 991.258 818.813 985.652 927.669 980.589C933.817 980.227 964.196 970.101 968.355 965.942C993.489 940.627 994.574 921.278 994.935 883.486C995.478 827.249 993.851 770.832 991.681 714.596C988.245 621.471 983.544 528.346 979.204 435.221Z" fill="white"/>
<path d="M561.499 1045.14C556.435 1045.14 544.862 1044.6 535.64 1035.56C525.695 1025.8 525.695 1012.59 525.695 1008.25C525.875 916.034 525.876 823.814 525.876 731.412V679.516H519.005C499.837 679.516 480.488 679.335 461.321 679.696C457.162 679.696 444.686 679.877 434.921 670.294C428.592 663.965 425.337 655.285 425.518 644.797C425.88 611.164 425.88 577.53 425.518 544.078C425.337 533.409 428.592 524.73 434.921 518.401C444.505 508.817 456.801 508.817 461.141 508.998C482.478 509.359 503.634 509.178 525.514 509.178H525.876V463.249C526.418 395.078 567.827 334.683 631.296 309.729C652.995 301.23 675.056 297.071 698.563 297.071C698.744 297.071 698.925 297.071 699.105 297.071L787.168 297.252C794.943 297.252 802.9 297.794 811.037 298.337L845.755 300.145V469.94L804.165 470.12C790.965 470.301 777.584 470.663 764.383 469.578C751.183 468.131 738.526 478.077 735.994 490.734C734.91 496.34 734.548 502.669 734.728 509.178C752.63 509.178 770.532 509.178 788.434 509.178H845.574V679.877H734.728V1043.88L699.648 1045.51H660.952C628.223 1045.51 595.493 1045.51 562.764 1045.69C562.221 1045.14 561.86 1045.14 561.499 1045.14ZM497.486 628.704C504.719 628.704 511.952 628.704 519.185 628.704H576.869V731.593C576.869 819.112 576.868 906.812 576.688 994.332C604.896 994.151 632.924 994.151 660.952 994.151H683.916L684.097 628.523H794.943V559.629H788.614C765.468 559.629 742.323 559.629 719.177 559.448C705.435 559.267 685.001 549.683 684.64 529.793L684.459 522.56C684.098 509.721 683.555 495.074 686.448 480.608C693.862 442.454 729.846 415.511 768.904 418.224C777.584 418.947 786.444 419.128 795.124 418.766V347.702C792.411 347.521 789.88 347.521 787.168 347.521L699.286 347.34C684.278 347.702 666.196 350.234 650.464 356.562C606.343 373.922 577.591 415.692 577.23 463.068V510.806V559.448H526.057C509.421 559.448 493.146 559.629 476.872 559.448C477.053 582.413 477.053 605.558 476.872 628.523C483.562 628.704 490.434 628.704 497.486 628.704Z" fill="white"/>
<path d="M561.499 1045.14C556.435 1045.14 544.862 1044.6 535.64 1035.56C525.695 1025.8 525.695 1012.59 525.695 1008.25C525.875 916.034 525.876 823.814 525.876 731.412V679.516H519.005C499.837 679.516 480.488 679.335 461.321 679.696C457.162 679.696 444.686 679.877 434.921 670.294C428.592 663.965 425.337 655.285 425.518 644.797C425.88 611.164 425.88 577.53 425.518 544.078C425.337 533.409 428.592 524.73 434.921 518.401C444.505 508.817 456.801 508.817 461.141 508.998C482.478 509.359 503.634 509.178 525.514 509.178H525.876V463.249C526.418 395.078 567.827 334.683 631.296 309.729C652.995 301.23 675.056 297.071 698.563 297.071C698.744 297.071 698.925 297.071 699.105 297.071L787.168 297.252C794.943 297.252 802.9 297.794 811.037 298.337L845.755 300.145V469.94L804.165 470.12C790.965 470.301 777.584 470.663 764.383 469.578C751.183 468.131 738.526 478.077 735.994 490.734C734.91 496.34 734.548 502.669 734.728 509.178C752.63 509.178 770.532 509.178 788.434 509.178H845.574V679.877H734.728V1043.88L699.648 1045.51H660.952C628.223 1045.51 595.493 1045.51 562.764 1045.69C562.221 1045.14 561.86 1045.14 561.499 1045.14ZM497.486 628.704C504.719 628.704 511.952 628.704 519.185 628.704H576.869V731.593C576.869 819.112 576.868 906.812 576.688 994.332C604.896 994.151 632.924 994.151 660.952 994.151H683.916L684.097 628.523H794.943V559.629H788.614C765.468 559.629 742.323 559.629 719.177 559.448C705.435 559.267 685.001 549.683 684.64 529.793L684.459 522.56C684.098 509.721 683.555 495.074 686.448 480.608C693.862 442.454 729.846 415.511 768.904 418.224C777.584 418.947 786.444 419.128 795.124 418.766V347.702C792.411 347.521 789.88 347.521 787.168 347.521L699.286 347.34C684.278 347.702 666.196 350.234 650.464 356.562C606.343 373.922 577.591 415.692 577.23 463.068V510.806V559.448H526.057C509.421 559.448 493.146 559.629 476.872 559.448C477.053 582.413 477.053 605.558 476.872 628.523C483.562 628.704 490.434 628.704 497.486 628.704Z" fill="white"/>
</svg>
