<svg width="1418" height="1418" viewBox="0 0 1418 1418" fill="none" xmlns="http://www.w3.org/2000/svg">
<path d="M530.406 198.387C529.653 199.705 529.653 201.965 528.711 202.907C524.757 207.238 526.075 211.38 528.523 215.523C533.042 223.432 537.749 231.152 542.08 239.061C543.586 241.885 544.905 244.898 546.223 247.723C546.788 249.041 546.976 250.736 547.729 251.489C556.203 259.586 557.522 272.39 563.547 282.182C567.69 288.961 571.832 296.117 575.222 303.46C580.117 314.005 584.449 324.927 588.968 335.66C590.475 339.05 591.98 342.627 593.863 345.829C601.96 359.575 610.246 373.321 614.765 388.95C619.473 404.956 625.687 420.585 626.063 438.097C626.252 445.441 628.511 452.785 630.018 460.128C630.206 460.882 630.583 461.823 631.148 462.2C637.927 465.778 639.998 474.439 645.647 479.335C647.718 481.218 649.225 484.796 650.167 487.809C654.686 501.932 658.828 516.243 663.535 530.365C668.243 544.488 673.893 558.046 678.412 572.169C683.12 587.045 686.32 602.485 690.839 617.55C694.417 629.224 694.982 642.029 701.385 654.457C702.703 649.75 704.21 646.172 704.775 642.594C707.034 629.036 712.871 616.985 717.39 604.18C719.462 597.966 721.156 591.564 722.851 585.162C725.11 576.876 728.877 569.532 733.208 562.377C738.668 553.338 743.376 543.923 748.46 534.696C751.85 528.859 755.616 523.21 758.628 517.373C765.972 503.438 777.647 494.4 787.251 483.478C787.627 474.628 788.004 465.777 788.569 456.927C788.758 453.914 789.51 450.902 790.075 448.077C791.958 438.85 793.842 429.623 796.101 420.585C800.432 404.202 806.081 388.573 813.613 373.697C821.334 358.821 829.431 344.134 836.963 329.07C845.813 311.369 857.488 296.493 870.104 282.37C872.929 279.169 875.188 275.592 877.825 272.39C886.675 261.845 895.525 251.489 904.376 240.944C908.895 235.483 912.849 229.269 917.368 223.62C924.524 214.393 932.056 205.543 939.212 196.316C952.016 179.557 966.704 164.493 975.931 144.156C980.827 133.046 988.359 123.443 994.761 113.274C996.456 110.45 998.338 107.814 999.845 104.989C1004.93 95.5739 1011.33 93.3143 1020.37 96.1388C1028.28 98.7751 1036.56 100.281 1044.85 102.165C1046.54 102.541 1048.24 102.729 1049.93 103.106C1067.07 108.755 1084.39 114.404 1101.53 120.43C1106.61 122.313 1111.32 125.326 1116.22 127.774C1124.5 131.916 1132.79 136.059 1141.07 140.202C1144.27 141.708 1147.29 143.403 1150.49 145.098C1162.16 150.935 1173.65 157.149 1185.7 162.421C1194.17 166.188 1202.46 169.954 1210.18 175.603C1217.71 181.252 1225.62 186.713 1234.66 189.16C1236.73 189.725 1239.18 190.479 1240.68 192.173C1247.27 199.141 1255.75 201.965 1263.66 205.166C1277.03 210.439 1288.89 218.912 1301.32 225.88C1308.85 230.022 1315.63 235.295 1322.22 241.32C1328.62 247.346 1336.34 251.112 1343.5 256.196C1351.41 261.657 1359.32 267.306 1367.22 272.955C1370.61 275.215 1373.81 277.663 1377.39 279.546C1384.17 283.312 1387.94 290.279 1392.27 296.87C1394.72 300.636 1396.22 305.155 1398.11 309.298C1403 320.219 1398.67 330.764 1396.79 341.121C1394.72 353.361 1392.27 365.789 1388.5 377.463C1385.68 385.56 1386.62 394.599 1381.72 402.131C1379.65 405.144 1380.4 410.416 1379.09 414.183C1376.64 421.526 1373.63 428.494 1370.8 435.461C1370.05 437.155 1368.92 438.662 1367.6 439.98C1359.88 448.454 1353.48 457.869 1349.52 469.167C1349.15 470.485 1348.39 471.615 1347.64 472.745C1340.49 483.29 1333.33 494.023 1326.17 504.568C1325.23 505.886 1323.54 507.016 1323.35 508.334C1321.28 518.502 1313.37 523.775 1308.85 531.872C1304.33 539.969 1299.06 547.124 1293.97 554.657C1287.2 564.825 1280.42 575.182 1273.26 585.162C1270.44 589.116 1266.86 592.129 1263.66 595.518C1261.21 598.154 1260.27 600.791 1262.72 604.368C1265.35 608.323 1267.8 612.654 1270.25 616.796C1271.19 618.491 1271.94 620.186 1272.7 621.881C1280.04 640.711 1282.86 660.859 1286.25 680.819C1287.95 690.8 1287.76 701.345 1287.57 711.701C1287.38 721.87 1286.44 732.226 1285.88 742.395C1285.69 746.537 1285.5 750.68 1285.69 755.011C1286.07 763.673 1286.63 772.335 1283.62 780.62C1283.05 782.126 1283.05 784.009 1283.05 785.516C1283.05 799.262 1278.53 811.69 1275.52 824.683C1272.7 837.488 1264.98 845.773 1258.39 855.376C1258.01 855.941 1257.44 856.694 1256.88 857.071C1246.14 864.415 1235.79 872.512 1224.68 878.914C1213.57 885.505 1201.14 888.518 1188.52 889.271C1185.89 889.459 1183.25 890.589 1180.8 891.53C1176.1 893.037 1171.58 895.297 1166.87 896.426C1161.41 897.744 1158.58 902.075 1155.76 907.16C1159.9 913.185 1160.84 919.776 1158.4 927.308C1157.08 931.639 1157.08 936.723 1156.51 941.431C1155.76 950.658 1152.93 959.131 1149.55 967.417C1146.91 973.442 1145.78 980.221 1143.33 986.247C1138.62 998.11 1132.22 1008.65 1122.99 1016.38C1114.9 1023.15 1108.12 1030.87 1101.53 1039.35C1094.56 1048.01 1087.41 1056.11 1078.37 1062.32C1070.08 1067.97 1062.36 1075.13 1054.26 1081.53C1047.67 1086.61 1040.52 1091.13 1034.12 1096.4C1029.79 1099.98 1025.45 1104.12 1022.44 1109.02C1016.98 1118.06 1008.7 1121.82 1001.16 1127.1C996.267 1130.49 991.183 1133.88 986.099 1137.08C974.612 1144.04 963.69 1152.14 950.697 1155.15C947.496 1155.91 944.295 1158.17 941.471 1160.24C937.328 1163.25 932.998 1166.08 927.914 1165.89C927.16 1165.89 926.218 1165.7 925.654 1166.08C916.803 1172.48 905.693 1173.8 898.161 1183.21C894.395 1187.92 890.064 1192.06 885.357 1195.64C882.909 1197.71 879.519 1197.9 876.506 1199.22C870.104 1202.04 863.514 1204.68 858.994 1210.89C858.241 1211.83 856.923 1212.4 855.793 1212.78C844.683 1216.16 833.385 1219.37 822.275 1222.76C820.581 1223.32 818.321 1224.26 817.568 1225.96C815.873 1228.78 813.613 1230.48 811.73 1232.74C807.211 1238.2 801.751 1241.4 796.101 1244.98C795.16 1245.54 794.218 1246.86 793.841 1247.99C792.335 1254.58 787.816 1257.21 782.92 1260.04C775.576 1264.37 768.609 1269.83 761.83 1274.92C754.863 1280 748.272 1286.03 741.117 1290.73C736.597 1293.56 730.948 1294.31 725.864 1296.57C722.098 1298.26 718.332 1300.52 714.754 1303.16C693.099 1318.6 669.75 1325.57 644.329 1321.8C640.563 1321.24 636.608 1320.48 632.842 1319.35C631.901 1319.17 631.148 1317.47 630.206 1316.72C627.382 1314.65 624.557 1312.01 621.544 1310.5C615.707 1307.68 613.071 1302.22 612.129 1295.63C611.376 1289.79 611.564 1283.95 611.188 1277.74C610.246 1277.36 609.681 1276.8 609.493 1276.8C601.396 1280 593.11 1276.61 584.825 1277.55C583.13 1277.74 580.871 1277.55 579.929 1276.61C576.163 1272.84 572.02 1272.66 567.501 1273.97C566.559 1274.16 565.43 1274.16 564.676 1273.6C560.157 1270.21 555.826 1266.63 551.495 1262.86C547.353 1259.1 543.587 1254.58 539.068 1251.19C535.867 1248.74 533.607 1245.92 531.912 1241.96C526.639 1229.53 524.945 1223.51 514.4 1238.76C513.459 1240.27 512.14 1241.77 510.634 1242.53C495.946 1250.44 480.694 1251 465.441 1244.98C455.65 1241.02 446.234 1235.56 436.63 1230.85C434.559 1229.91 432.488 1228.97 430.417 1228.97C427.216 1228.78 424.579 1228.4 423.638 1224.26C423.449 1223.7 423.261 1223.13 422.696 1222.94C416.482 1218.61 410.457 1214.09 404.054 1210.14C402.736 1209.2 400.477 1210.33 398.594 1210.33C390.873 1200.91 383.529 1191.12 372.796 1185.09C363.569 1179.82 354.908 1173.04 346.057 1167.02C342.291 1164.57 338.337 1162.31 334.571 1159.86C333.629 1159.3 332.499 1158.36 331.746 1157.23C326.474 1150.07 321.201 1142.91 315.929 1135.76C314.987 1134.44 314.046 1133.12 312.727 1132.18C302.559 1124.65 296.157 1113.54 289.943 1102.05C286.553 1095.84 282.788 1090.19 279.21 1084.16C278.457 1082.85 277.703 1081.15 277.327 1079.65C276.197 1074 275.255 1068.16 271.301 1063.83C271.112 1063.64 271.112 1063.26 270.924 1063.07C265.651 1048.2 260.191 1033.32 255.295 1018.07C252.47 1009.6 249.269 1001.69 243.62 995.097C241.36 992.461 240.042 988.695 238.159 985.494C234.017 978.526 230.25 971.559 225.731 964.969C221.965 959.508 217.446 954.612 213.304 949.528C210.291 945.762 207.278 942.184 204.265 938.606C195.226 927.873 187.129 916.387 184.304 901.511C182.421 890.966 180.915 880.232 179.597 869.499C179.22 867.051 179.786 864.603 180.351 862.155C182.046 853.493 183.928 844.831 185.623 835.981C182.045 834.475 180.162 837.299 178.279 838.994C167.169 848.974 156.248 859.519 145.138 869.499C141.183 873.077 136.476 875.901 132.145 879.291C125.743 883.998 119.717 889.459 113.126 893.602C101.64 900.569 89.2118 904.335 76.4072 906.971C75.654 907.16 74.9004 906.971 74.1472 907.348C65.8619 912.62 56.8233 909.984 48.7263 907.913C34.4153 904.335 19.5394 888.706 18.5978 869.311C18.2212 862.72 17.2803 855.941 17.2803 849.351C17.2803 844.643 18.2218 839.935 19.1633 835.416C21.7995 824.495 23.4945 813.196 29.7085 803.781C30.65 802.463 31.2149 800.768 31.5915 799.262C34.0394 789.094 41.0064 782.503 46.4672 774.783C51.5514 767.627 57.7652 761.225 59.4599 751.245C60.4015 746.161 63.6024 741.076 66.8036 737.122C76.2187 725.636 82.245 712.078 87.1409 697.955C88.459 694.377 88.8356 690.235 89.0239 686.469C89.4005 674.417 89.4003 662.554 89.7769 650.503C89.9652 643.536 90.5296 636.568 91.0945 629.601C92.4126 613.219 93.1665 596.648 95.6145 580.454C97.4975 567.649 96.7439 554.092 101.828 541.852C102.205 540.91 102.205 539.592 102.205 538.462C101.075 527.729 106.536 519.256 109.737 510.029C114.821 494.588 125.366 484.796 136.664 476.322C137.229 465.213 138.547 454.668 137.794 444.123C136.476 425.481 137.606 406.65 133.275 388.197C132.71 385.749 132.333 383.113 132.521 380.665C133.651 369.555 131.015 359.01 128.191 348.465C126.684 342.439 125.742 335.848 125.177 329.634C123.859 315.323 118.022 303.084 113.315 290.091C109.925 280.676 107.1 270.696 105.217 260.716C103.711 252.619 100.51 245.463 97.8736 238.119C94.4841 229.081 91.2831 220.23 87.7054 211.192C86.7639 209.121 85.2571 207.238 83.5624 205.543C79.4197 201.4 79.0433 198.952 81.8678 193.303C84.1275 188.784 87.5175 186.336 91.8484 184.076C106.348 176.732 121.6 172.778 137.041 169.389C142.314 168.259 147.774 168.635 153.047 168.259C154.742 168.071 156.436 168.071 158.131 167.694C164.345 166.564 170.747 165.623 176.772 163.928C181.668 162.421 186.188 159.032 191.084 158.09C201.817 155.643 212.738 153.383 223.848 152.253C240.23 150.558 256.613 149.805 272.995 148.675C273.56 148.675 274.126 148.675 274.502 148.487C285.612 142.838 297.663 145.286 309.15 143.215C324.214 140.578 339.278 139.072 354.343 137.754C366.394 136.812 378.445 137.189 390.496 137.001C400.1 136.812 409.515 136.059 419.119 136.247C424.203 136.436 429.475 137.001 434.183 138.884C447.364 144.156 460.922 145.286 474.668 147.546C486.343 149.429 497.829 151.876 507.621 160.162C539.821 195.563 530.406 198.387 530.406 198.387ZM598.383 1133.5C597.065 1125.59 594.052 1118.44 588.968 1114.48C584.072 1110.53 581.248 1104.69 576.729 1100.55C569.95 1094.33 565.053 1085.48 556.391 1081.9C555.45 1081.53 553.944 1080.21 553.944 1079.08C553.755 1072.3 549.424 1067.59 547.165 1061.94C545.658 1057.99 543.775 1056.86 540.197 1056.11C532.1 1054.41 523.627 1054.79 515.906 1050.65C511.387 1048.2 506.68 1048.58 502.349 1050.65C498.018 1052.53 493.874 1052.72 489.355 1050.27C489.167 1048.95 488.979 1047.63 488.979 1046.13C489.167 1038.41 490.297 1036.9 497.076 1035.96C499.335 1035.58 501.407 1035.39 503.666 1034.83C512.893 1032 522.12 1033.51 531.159 1035.96C532.665 1036.34 534.36 1036.15 535.866 1036.15C535.678 1034.08 536.243 1031.63 535.302 1030.12C531.348 1022.78 532.665 1014.3 531.159 1006.58C530.782 1004.89 531.912 1002.82 532.477 1000.93C533.984 996.98 536.808 995.85 540.197 995.662C543.398 995.474 546.035 996.415 547.353 1000.18C549.424 1006.02 552.437 1011.67 553.378 1017.69C554.885 1026.36 557.71 1034.08 560.534 1042.17C562.794 1048.58 567.125 1053.09 569.949 1058.93C572.397 1064.02 575.221 1067.41 579.741 1069.85C583.883 1071.92 587.085 1075.31 589.533 1079.65C591.039 1082.28 591.98 1085.48 594.052 1086.99C601.961 1093.2 607.61 1101.49 612.129 1110.72C619.285 1124.84 631.336 1135.38 636.044 1151.39C636.232 1152.14 636.985 1152.52 637.362 1153.27C640.939 1159.3 646.588 1163.63 647.53 1171.91C647.718 1174.36 650.732 1177.19 652.991 1178.13C656.569 1179.82 657.698 1182.46 658.263 1186.41C658.452 1188.48 659.204 1190.56 659.769 1193.19C662.217 1191.87 665.042 1191.5 665.795 1189.8C667.49 1186.41 667.867 1182.27 668.808 1178.88C671.068 1176.81 674.081 1175.3 675.399 1172.86C678.789 1166.45 683.496 1161.56 688.392 1157.04C692.911 1152.89 695.17 1147.81 695.547 1141.03C695.924 1130.86 691.969 1122.2 689.145 1113.16C687.638 1108.64 684.814 1106.01 680.295 1105.44C677.847 1105.07 675.587 1102.99 673.139 1101.68C671.821 1100.92 670.691 1099.23 669.373 1099.42C665.042 1099.42 660.711 1099.61 656.569 1100.55C653.179 1101.3 650.355 1100.92 649.225 1097.35C647.907 1093.77 649.978 1090.94 652.803 1089.06C654.874 1087.55 656.945 1085.86 659.016 1084.35C651.673 1071.92 640.751 1065.33 632.654 1055.35C629.076 1051.21 625.31 1047.45 622.674 1042.17C620.603 1037.84 618.343 1033.32 616.084 1029.18C615.142 1027.49 613.635 1025.6 611.941 1024.85C602.337 1019.95 588.968 1024.47 582.378 1033.89C580.306 1037.09 576.917 1039.72 573.715 1041.04C571.832 1041.8 568.631 1039.91 566.559 1038.22C564.3 1036.34 564.677 1032.95 566.372 1030.69C570.891 1024.47 574.845 1017.51 580.495 1013.17C586.144 1008.84 593.487 1006.77 600.266 1004.51C607.61 1001.88 608.175 1001.69 606.292 992.649C605.538 989.071 603.655 985.682 602.525 982.104C601.019 976.832 600.078 971.183 598.383 965.91C596.877 961.579 594.993 957.437 591.039 954.8C586.896 951.976 582.566 948.775 579.176 945.009C572.774 937.853 566.936 930.133 560.91 922.412C554.696 914.315 548.859 905.653 542.457 897.556C540.009 894.355 539.821 890.777 540.574 887.388C542.645 877.596 551.496 872.889 559.404 877.596C564.865 880.797 569.95 881.739 574.845 876.843C579.176 880.044 583.507 882.304 589.91 882.68C587.462 878.726 585.767 875.901 583.884 872.889C586.52 861.59 582.566 854.435 571.644 851.799C573.904 850.292 575.41 849.351 577.105 848.221C576.728 844.831 576.728 841.442 575.975 838.241C573.15 826.754 570.514 815.079 571.832 803.028C572.586 796.061 574.845 789.47 575.41 782.503C576.352 771.77 580.494 762.92 586.708 755.011C588.968 752.186 590.662 748.797 592.922 745.784C596.123 741.641 598.948 736.369 603.091 734.109C609.117 730.72 616.084 729.59 622.674 727.707C626.44 726.577 630.583 726.2 633.972 724.506C641.316 720.74 649.413 721.493 656.38 722.999C663.536 724.317 669.938 729.967 676.529 734.298C680.86 737.122 684.814 741.076 690.652 741.83C690.84 739.758 691.216 738.252 691.028 736.557C689.333 722.434 688.392 708.312 688.769 693.812C688.957 686.28 687.639 678.936 685.003 671.781C681.613 662.177 679.165 652.197 676.529 642.406C675.023 637.133 674.269 631.484 672.763 626.212C668.244 611.147 663.535 596.271 658.828 581.207C655.815 571.792 653.179 562.189 649.978 552.773C644.894 538.274 638.868 524.151 634.537 509.276C631.336 498.354 625.687 490.069 618.343 482.913C614.953 479.712 611.188 477.076 607.422 474.439C596.5 466.907 585.955 458.81 576.352 449.019C573.904 446.571 571.456 444.123 568.819 442.428C559.593 436.214 550.177 430 540.574 424.163C530.406 417.949 520.802 410.605 511.576 403.073C495.381 389.703 478.246 378.593 459.792 369.931C451.695 366.165 443.41 362.776 435.313 359.386C430.417 357.315 425.709 354.867 420.625 353.926C404.995 351.289 389.366 350.724 373.549 352.043C363.945 352.796 354.531 354.302 344.927 355.432C341.35 355.809 337.583 355.997 334.194 357.315C328.168 359.575 322.519 362.964 316.493 365.035C305.007 368.613 292.956 369.931 282.976 378.593C282.223 379.158 281.093 379.158 280.151 379.723C269.041 388.008 256.99 394.222 247.763 405.709C241.926 413.053 234.393 418.89 227.614 425.104C221.024 430.941 213.68 435.837 207.655 442.24C200.311 450.148 192.966 457.869 184.304 463.706C184.116 463.894 183.928 464.083 183.74 464.271C174.701 472.745 165.475 481.407 156.436 489.88C153.047 493.081 150.034 497.224 146.268 499.295C134.593 505.321 128.378 515.866 124.989 529.236C123.294 536.203 121.035 542.793 119.34 549.761C118.587 553.15 118.399 556.916 118.022 560.494C117.646 564.072 117.457 567.649 116.892 571.227C115.009 586.103 112.938 601.167 111.243 616.043C110.678 620.374 110.678 624.893 110.302 629.413C109.36 644.477 107.477 659.541 107.666 674.605C107.854 688.916 106.536 702.286 100.887 715.279C97.6854 722.811 95.2375 730.908 92.413 739.193C93.7311 739.005 95.0492 738.817 96.179 738.628C105.594 737.122 106.536 738.817 111.055 748.797C114.821 757.27 114.444 765.556 113.691 774.029C113.314 778.737 112.185 783.445 111.243 787.964C109.549 795.119 108.042 802.463 105.783 809.43C103.146 817.339 97.6851 822.235 91.0945 826.378C85.2571 829.955 80.7385 826.001 75.8427 823.93C74.5246 823.365 73.0176 822.8 71.5112 822.988C63.2258 823.553 54.9409 824.495 46.4672 825.06C42.7012 825.248 40.0646 827.696 39.4997 831.274C37.8049 842.948 34.4158 854.623 37.0521 866.863C40.0649 880.986 48.3504 887.764 60.7784 885.316C67.1807 883.998 73.3942 881.739 79.9848 880.421C94.6724 877.408 107.1 869.499 118.587 859.331C121.411 856.883 124.801 855.188 127.626 852.74C135.911 845.773 143.631 837.864 152.293 831.462C158.13 827.131 163.215 822.047 167.546 815.833C174.136 806.229 180.35 796.249 186.376 786.269C190.707 779.114 194.285 771.581 198.051 764.238C199.934 760.472 202.57 756.894 200.876 751.81C200.311 749.927 201.252 747.479 201.064 745.219C200.876 740.511 200.876 735.804 199.934 731.096C197.486 716.597 187.882 706.994 180.727 695.884C177.902 691.364 175.078 691.553 170.37 694.566C168.675 695.695 166.981 696.825 165.098 697.767C162.085 699.085 156.059 697.014 154.553 694.189C152.482 690.046 154.553 687.41 157.189 684.774C157.754 684.209 158.131 683.456 158.696 682.891C166.981 674.041 179.22 673.852 188.07 682.138C195.038 688.728 201.629 695.884 206.525 704.734C210.291 711.701 214.81 718.292 219.329 725.259C219.706 724.129 220.271 722.999 220.459 721.87C221.965 714.526 223.095 707.182 224.79 699.838C226.861 690.611 229.31 681.761 228.368 671.969C227.427 663.119 227.05 654.269 226.485 645.23C226.485 644.1 226.296 642.971 225.731 642.029C222.907 636.192 224.601 629.978 224.978 624.14C225.166 620.751 226.673 617.173 228.368 613.972C230.251 610.018 236.276 607.57 240.042 608.511C243.808 609.453 246.069 612.842 246.257 618.68C246.445 621.881 245.692 625.27 245.127 628.471C244.75 630.731 243.621 633.367 246.257 635.627C247.575 634.497 249.269 633.744 250.21 632.426C253.223 628.095 256.425 623.575 258.873 618.868C263.58 609.641 270.736 602.862 276.95 595.142C282.411 588.363 288.248 581.96 293.897 575.37C296.533 572.169 299.17 568.779 301.806 565.578C303.689 563.318 305.949 561.247 308.961 563.318C311.786 565.201 314.234 567.649 313.857 571.98C313.669 574.24 313.669 576.5 312.916 578.571C310.091 587.986 304.254 595.142 298.793 602.485C294.462 608.135 289.378 613.03 284.67 618.303C283.541 619.621 282.788 621.127 282.034 622.634C282.976 623.387 283.164 623.952 283.54 623.952C296.345 624.517 308.961 624.517 321.766 625.647C328.921 626.212 334.759 623.01 340.22 618.68C349.07 611.712 357.92 604.933 366.771 597.966C367.336 597.401 368.089 596.836 368.654 596.836C370.913 596.648 374.302 595.33 375.432 596.648C376.938 598.343 377.503 602.109 377.503 604.933C377.503 606.816 375.809 608.888 374.303 610.206C363.758 620.563 353.401 631.296 342.291 640.899C337.96 644.665 332.311 647.49 326.85 648.243C320.448 649.185 313.669 647.302 307.078 646.737C301.429 646.172 295.969 645.607 290.32 645.419C284.67 645.23 279.21 645.607 273.561 646.172C267.347 646.737 261.697 649.561 258.308 655.21C252.282 665.379 246.633 675.924 249.646 689.293C249.834 690.235 249.27 691.364 249.081 692.306C248.14 697.202 248.516 698.332 252.847 699.273C264.146 701.533 274.314 699.085 283.54 691.364C285.8 689.293 288.248 687.222 290.884 685.715C294.65 683.644 297.098 685.339 297.286 690.235C297.286 692.306 297.099 695.131 296.157 696.637C291.826 703.228 287.119 709.63 280.151 711.889C270.171 715.091 260.003 716.785 249.646 714.714C242.114 713.208 239.666 715.844 239.289 724.694C239.101 729.967 238.725 735.239 237.595 740.135C236.277 745.972 234.017 751.433 232.51 757.082C232.134 758.4 232.699 760.095 232.887 762.543C238.16 761.413 242.867 759.907 247.763 759.342C255.86 758.4 263.957 757.27 271.865 757.647C278.456 758.024 284.859 760.66 291.261 762.543C293.332 763.108 295.592 763.673 297.663 764.614C306.513 768.569 315.364 773.276 324.403 776.289C335.512 779.867 346.622 781.185 356.79 771.958C359.991 768.945 363.946 767.062 369.407 768.945C369.218 772.146 369.783 775.536 368.841 778.36C365.828 787.587 349.259 798.321 340.408 797.379C334.006 796.626 327.604 796.249 321.39 795.308C316.305 794.554 310.656 794.554 306.514 791.918C293.144 782.88 278.456 780.432 263.392 779.114C253.035 778.172 242.679 778.737 233.452 785.328C231.004 787.022 228.18 788.34 225.355 788.905C222.154 789.659 220.648 791.353 219.894 794.743C217.258 805.853 212.362 816.021 208.219 826.378C206.525 830.709 205.207 835.228 203.889 839.747C202.947 842.948 201.817 845.961 201.252 849.162C199.18 859.142 195.979 868.934 199.557 879.479C201.252 884.563 201.252 890.401 202.57 895.673C204.265 903.205 205.959 911.679 211.608 916.198C216.128 919.964 218.388 925.425 222.342 929.568C229.686 937.476 234.582 948.21 242.302 955.93C242.867 956.495 243.243 957.248 243.62 958.001C247.951 964.78 252.094 971.748 256.425 978.526C259.814 983.987 263.392 989.26 266.405 994.909C268.288 998.487 268.476 1003.19 270.548 1006.21C274.314 1011.48 276.385 1017.13 276.573 1023.72C276.573 1025.41 277.138 1027.11 277.891 1028.43C281.093 1035.58 284.294 1042.74 287.495 1049.89C288.248 1051.59 289.001 1053.47 289.378 1055.35C292.767 1069.85 298.793 1083.03 306.701 1094.71C314.422 1106.2 324.025 1115.99 333.064 1126.34C337.583 1131.62 341.161 1138.02 347.375 1141.6C356.037 1146.68 364.511 1152.52 372.42 1159.11C375.998 1162.12 378.822 1163.25 384.471 1159.49C381.082 1165.32 382.776 1167.58 385.789 1169.65C392.191 1173.98 399.158 1177.56 403.866 1184.72C404.054 1185.09 404.619 1185.28 405.184 1185.66C416.294 1193 427.404 1200.54 438.89 1207.31C443.786 1210.33 449.247 1212.02 454.519 1214.28C456.967 1215.41 459.416 1216.73 461.864 1218.05C471.091 1223.89 480.693 1228.22 491.427 1224.45C493.686 1223.7 496.135 1222.38 497.453 1220.5C505.362 1210.33 509.504 1198.46 506.302 1184.91C504.608 1177.94 504.985 1168.34 494.44 1168.15C496.699 1166.08 498.206 1164.57 500.466 1162.31C498.206 1158.17 496.134 1154.21 494.251 1150.26C493.686 1149.32 493.498 1148 493.31 1146.87C493.121 1145.17 493.31 1143.1 492.745 1141.6C489.732 1133.69 487.473 1125.21 483.33 1118.06C479.187 1111.09 474.103 1103.56 467.7 1099.61C457.532 1093.2 445.858 1092.07 434.183 1094.14C430.982 1094.71 427.216 1096.4 425.145 1099.23C420.625 1105.25 414.6 1105.07 409.139 1105.63C403.678 1106.2 400.853 1101.49 403.113 1095.65C404.243 1092.45 406.879 1089.81 408.95 1087.37C410.269 1085.86 412.34 1085.29 413.846 1083.79C420.249 1077.57 427.404 1074 435.501 1072.11C438.138 1071.55 440.585 1069.67 444.539 1067.78C440.397 1062.7 437.76 1057.24 433.994 1055.54C428.534 1053.09 426.463 1048.01 424.956 1043.49C419.307 1028.43 411.21 1014.49 407.632 998.298C405.561 988.318 398.594 979.656 401.418 968.358C401.795 967.04 400.665 965.157 400.1 963.651C398.593 959.508 396.334 955.742 395.392 951.411C394.262 945.573 390.874 943.314 386.543 941.619C377.127 938.041 367.9 934.275 358.485 930.321C355.66 929.191 353.213 927.12 350.388 926.178C343.232 923.73 335.888 921.659 328.545 919.211C327.227 918.834 325.721 918.081 324.403 917.328C321.201 915.257 318 912.432 318.941 908.289C319.506 905.088 321.955 901.887 324.403 900.004C326.097 898.686 329.11 898.686 331.369 899.251C336.077 900.569 340.972 900.946 345.303 904.147C347.375 905.653 350.953 905.277 353.777 904.9C356.225 904.523 357.731 904.9 359.426 907.16C364.51 913.374 366.771 912.809 369.595 904.9C372.232 897.744 377.316 893.225 382.776 893.602C385.601 893.79 388.613 894.732 391.438 895.296C393.509 898.686 394.828 903.017 399.535 902.829C404.243 902.64 409.139 902.264 413.846 902.64C418.366 903.017 422.884 902.829 427.404 905.465C430.04 906.971 433.618 906.971 436.63 906.783C442.468 906.783 447.929 908.289 453.013 911.867C445.104 913.562 437.572 917.516 429.287 913.374C429.475 915.257 430.229 917.14 430.605 917.14C435.313 916.386 438.89 920.341 443.221 921.282C449.435 922.412 455.273 926.178 461.864 923.354C464.123 922.412 466.759 923.542 468.077 927.685C466.571 928.25 465.253 929.379 463.747 929.379C458.474 929.379 453.013 928.25 447.929 929.191C443.409 929.944 439.267 929.191 434.936 928.25C430.417 927.308 425.521 926.178 420.06 929.191C422.32 931.451 424.014 932.957 426.462 935.217C424.203 936.347 422.697 937.1 421.19 937.665C419.307 938.23 417.424 938.606 414.411 939.171C416.482 944.067 417.989 948.21 420.06 953.294C424.014 950.469 427.215 948.21 430.228 946.138C432.865 944.255 435.501 941.619 438.513 941.054C446.422 939.736 453.954 936.535 462.051 935.593C477.116 934.087 490.674 939.359 504.232 944.632C506.492 945.573 508.374 947.645 510.446 948.775C516.66 952.164 522.685 957.625 528.899 958.001C537.184 958.378 545.282 958.378 553.191 961.768C556.015 962.897 559.404 962.332 562.417 963.274C564.489 963.839 566.56 965.722 568.631 967.04C567.313 968.358 566.372 969.3 565.43 970.241C566.937 970.806 568.067 971.371 570.138 972.124C568.255 974.007 566.936 975.514 565.806 976.832C559.404 971.936 553.19 975.325 546.976 976.078C546.411 976.078 546.035 977.208 545.47 977.773C542.645 982.104 540.951 983.046 537.749 981.163C529.841 976.643 521.179 974.76 512.517 973.254C508.374 972.501 504.608 971.183 500.653 969.111C495.193 966.287 488.79 965.722 483.895 961.391C483.706 961.203 483.518 961.203 483.142 961.203C475.609 960.826 468.077 959.884 460.545 960.261C448.87 960.826 438.326 964.78 429.664 974.195C427.781 976.267 427.027 978.15 426.839 981.351C426.463 993.779 429.664 1003.76 439.832 1009.6C439.455 1013.17 437.761 1017.13 438.89 1019.39C442.845 1027.3 444.916 1036.52 452.26 1041.98C456.591 1045.19 459.981 1049.7 461.864 1055.54C462.429 1057.24 463.558 1058.93 464.688 1060.25C472.409 1068.91 480.317 1077.2 487.849 1086.05C490.862 1089.63 493.121 1094.14 495.946 1097.91C503.855 1108.46 509.504 1120.51 513.647 1133.31C515.907 1140.09 519.296 1145.93 520.991 1153.27C522.12 1157.98 524.569 1162.12 524.945 1167.39C525.887 1182.08 532.1 1194.89 535.678 1208.63C535.866 1209.76 536.62 1210.7 537.185 1211.46C541.892 1218.24 546.788 1225.01 551.684 1231.61C552.625 1232.74 553.943 1234.05 555.261 1234.43C559.969 1235.75 562.794 1239.51 565.43 1243.66C568.443 1248.74 572.585 1250.44 578.046 1250.25C583.319 1250.06 589.156 1249.49 593.863 1253.64C596.123 1255.52 598.759 1255.9 601.584 1254.58C605.727 1252.7 609.869 1251.19 614.012 1249.31C620.603 1246.29 627.57 1243.66 630.582 1235.94C632.465 1231.04 635.29 1227.65 638.492 1224.26C643.576 1218.99 644.329 1211.08 640.563 1204.68C635.291 1195.26 629.83 1185.85 624.557 1176.43C621.733 1171.35 618.154 1167.02 612.694 1166.08C609.304 1165.51 607.233 1163.25 606.292 1160.05C604.973 1155.72 602.337 1154.78 598.948 1154.97C593.864 1155.53 588.779 1155.72 583.695 1156.28C573.527 1157.6 564.865 1162.31 558.463 1171.73C557.521 1173.23 556.015 1175.3 554.697 1175.3C550.177 1175.49 547.73 1178.69 545.659 1182.27C537.938 1183.02 532.854 1180.2 530.594 1171.91C536.243 1167.58 542.081 1163.44 547.353 1158.73C558.84 1148.56 570.514 1139.53 585.39 1137.27C590.286 1136.89 594.241 1135.01 598.383 1133.5ZM1177.23 867.616C1179.11 868.181 1180.05 868.746 1180.99 868.558C1184.19 868.181 1187.21 867.239 1190.41 867.051C1211.87 865.733 1228.44 852.552 1244.83 838.429C1245.2 838.052 1245.58 837.676 1245.96 837.299C1250.29 829.767 1254.43 822.423 1257.07 813.95C1264.03 790.977 1264.79 766.874 1267.05 743.148C1268.18 730.908 1267.99 718.48 1267.61 706.24C1267.24 695.131 1265.54 684.021 1264.41 672.911C1263.85 667.45 1262.72 661.989 1261.59 656.528C1260.64 652.197 1259.33 648.055 1258.01 643.912C1257.44 642.406 1256.31 641.088 1255.94 639.581C1253.49 627.906 1246.71 619.621 1240.31 610.771C1238.99 608.888 1238.05 606.628 1237.48 604.557C1234.47 595.33 1237.11 583.843 1228.82 576.5C1228.07 575.746 1228.07 573.863 1227.5 572.734C1226 569.909 1224.49 567.084 1222.98 564.26C1222.04 562.565 1220.54 561.247 1219.97 559.552C1216.02 549.572 1210.37 540.722 1203.02 533.567C1202.08 532.625 1201.33 531.495 1200.58 530.365C1193.04 521.327 1185.51 512.1 1177.98 503.061C1174.97 499.484 1171.39 496.283 1168.94 492.328C1160.84 479.524 1150.49 469.544 1139.75 459.564C1137.12 457.116 1134.67 454.479 1131.85 452.22C1126.57 447.7 1121.49 442.805 1115.84 438.85C1108.12 433.389 1099.83 429.058 1092.3 423.598C1083.45 417.007 1074.6 410.605 1064.81 405.897C1059.91 403.449 1055.58 399.495 1050.69 397.047C1041.08 392.151 1031.29 387.632 1021.5 383.301C1007.75 377.087 995.138 368.613 980.638 364.282C971.411 361.458 962.749 356.75 953.71 352.984C950.321 351.478 946.932 349.595 943.354 348.841C938.458 347.712 937.14 349.03 934.692 354.302C931.114 361.646 927.536 368.801 923.582 375.957C921.134 380.476 918.122 384.431 915.485 388.95C910.589 397.235 906.07 405.897 899.291 412.676C897.785 414.182 896.655 416.066 895.337 417.76C889.687 425.857 884.227 433.954 878.389 441.863C875.188 446.194 871.234 449.583 868.033 453.726C861.63 462.011 853.533 467.849 845.625 473.875C841.859 476.699 837.905 479.712 832.632 478.582C831.126 478.205 829.242 479.335 827.736 480.277C823.593 483.101 819.639 486.491 815.308 489.127C808.905 493.081 803.822 498.542 798.737 504.191C792.524 510.97 785.556 516.808 779.154 523.21C776.706 525.658 774.634 528.482 772.94 531.495C763.336 549.007 753.733 566.52 744.694 584.408C741.305 590.811 739.046 597.966 736.786 604.933C732.832 616.608 730.006 628.848 725.675 640.146C721.533 650.503 719.085 661.048 718.332 672.346C717.955 678.936 717.203 685.904 715.131 691.929C711.742 701.345 711.553 710.948 711.741 720.74C711.741 722.058 711.741 723.564 711.553 724.882C710.988 732.979 710.235 740.888 709.858 748.985C709.67 750.68 710.423 752.563 710.988 755.387C713.248 754.446 715.131 753.881 716.826 753.128C718.897 752.186 720.78 751.056 722.851 750.115C726.429 748.42 730.195 746.726 733.584 744.654C746.954 736.557 756.558 722.058 771.434 716.409C771.622 716.409 771.81 716.032 771.998 716.032C781.225 706.994 792.711 707.37 803.821 705.675C806.457 705.299 809.471 705.111 811.919 706.052C822.087 710.006 832.255 713.396 841.106 720.928C849.391 727.895 858.617 733.168 866.903 739.947C871.798 743.901 877.448 746.914 879.331 754.634C880.084 757.647 882.532 760.095 884.227 762.92C891.006 774.594 895.713 786.834 893.265 801.522C890.44 816.962 887.051 832.215 880.272 846.149C876.883 852.928 873.493 859.707 869.916 866.486C867.656 870.817 867.091 875.901 863.137 879.102C861.065 880.797 861.63 883.81 864.267 884.94C866.714 886.07 869.539 887.388 871.987 887.388C882.156 887.011 892.513 889.083 902.493 885.316C907.2 883.622 911.907 882.115 916.803 880.986C927.913 878.349 938.835 875.525 949.944 873.83C960.113 872.324 970.47 873.265 980.638 870.441C986.476 868.746 990.995 872.888 995.703 875.525C996.644 876.09 997.397 878.161 997.586 879.667C998.151 885.505 995.326 889.271 989.865 889.271C981.203 889.083 972.729 890.212 964.444 893.225C960.301 894.732 955.782 894.167 951.451 894.732C948.25 895.108 945.049 894.92 942.036 895.673C932.998 898.121 923.958 900.569 914.92 903.394C903.245 906.971 891.571 909.043 879.519 909.796C870.292 910.361 861.631 906.218 852.592 905.465C847.132 904.9 843.553 906.03 840.729 911.302C836.963 918.458 832.256 924.86 827.171 930.698C824.912 933.334 823.405 936.347 821.334 939.171C819.074 942.372 817.191 946.138 814.555 948.775C809.847 953.294 807.023 958.755 803.634 964.404C799.868 970.618 796.666 977.397 791.958 982.857C784.05 992.084 784.426 992.084 789.698 1004.51C791.205 1008.09 790.452 1013.17 790.452 1017.51C790.452 1018.82 790.075 1020.14 789.887 1021.46C792.523 1018.07 793.653 1014.12 795.724 1010.73C801.185 1001.88 806.835 993.026 812.86 984.552C814.555 982.104 816.061 980.598 816.626 977.02C817.568 970.806 819.451 964.592 821.334 958.755C822.087 956.683 823.781 954.424 825.664 953.294C829.619 950.658 833.762 951.223 837.34 954.235C841.859 957.813 846.189 958.001 851.085 954.8C854.098 952.729 858.053 951.787 861.63 951.411C865.397 951.034 869.351 951.976 873.306 952.164C877.448 952.352 881.779 951.787 885.921 952.541C897.031 954.235 907.765 955.554 918.31 949.528C923.394 946.703 928.854 945.009 933.75 942.184C938.646 939.359 942.601 940.489 946.744 943.879C952.205 948.021 957.854 951.976 963.691 955.742C967.269 958.001 970.093 957.248 972.729 953.67C974.612 951.034 976.118 948.021 978.001 945.573C981.391 941.242 985.723 938.983 990.995 938.983C1001.54 938.983 1012.08 939.548 1022.63 938.795C1028.84 938.418 1033.74 939.171 1039.01 943.125C1046.17 948.586 1053.89 952.729 1063.3 949.528C1069.89 947.268 1075.54 950.846 1081.38 954.612C1086.28 957.813 1087.22 963.274 1088.54 968.546C1089.1 970.994 1090.42 973.066 1091.36 975.325C1093.24 980.033 1090.8 988.695 1087.03 990.766C1080.63 994.344 1072.53 989.825 1070.84 981.728C1068.58 971.559 1067.07 970.994 1058.22 971.183C1048.62 971.371 1039.2 970.806 1031.29 962.709C1029.6 960.826 1026.4 960.261 1023.95 960.073C1019.24 959.884 1014.72 961.014 1010.01 960.826C1000.41 960.449 992.313 964.027 985.346 971.559C982.333 974.76 978.378 976.832 975.177 979.656C969.339 984.929 961.243 987 957.665 995.662C957.477 996.227 956.535 996.604 955.97 997.168C949.38 1002.06 942.224 1005.64 934.88 1008.84C929.043 1011.29 924.712 1014.87 922.264 1021.84C919.816 1028.8 919.44 1029.37 923.959 1034.08C927.913 1038.41 928.667 1041.8 926.972 1046.69C925.277 1051.4 921.135 1054.98 916.615 1054.04C912.849 1053.28 909.083 1051.78 905.882 1049.33C899.856 1044.81 897.973 1044.43 891.947 1048.39C886.863 1051.78 881.779 1055.35 876.506 1058.18C869.351 1061.94 864.267 1067.97 859.559 1074.75C854.851 1081.53 850.144 1088.31 844.306 1093.96C835.079 1102.99 824.911 1110.9 815.496 1119.75C812.672 1122.58 810.224 1125.21 806.081 1125.4C798.926 1125.59 794.406 1131.43 791.017 1137.27C786.121 1145.74 781.413 1154.21 779.342 1164.76C777.082 1176.81 782.355 1189.99 792.523 1193.94C800.997 1197.15 809.848 1197.15 818.698 1197.15C822.84 1197.15 827.171 1194.32 831.502 1193.57C841.294 1192.06 849.391 1186.22 857.676 1180.76C859.936 1179.26 862.196 1177 864.832 1176.43C875.377 1174.17 883.097 1165.89 890.817 1158.73C897.031 1152.89 903.622 1148.56 910.966 1145.55C919.44 1142.16 928.101 1138.58 936.575 1134.82C941.094 1132.75 944.86 1127.47 950.697 1129.92C951.262 1130.11 952.016 1129.36 952.769 1128.98C957.288 1126.34 961.996 1123.71 966.516 1120.88C979.697 1112.22 992.689 1103.56 1005.68 1094.71C1007.94 1093.2 1010.2 1090.94 1011.52 1088.31C1015.66 1079.83 1023.01 1075.5 1029.41 1070.23C1033.74 1066.65 1038.82 1064.39 1043.34 1061C1053.51 1053.28 1063.11 1044.24 1073.66 1037.28C1081 1032.57 1086.46 1025.98 1091.17 1018.63C1095.5 1011.86 1100.78 1006.77 1106.8 1002.44C1117.72 994.72 1125.07 983.611 1129.21 970.241C1132.98 958.378 1139 946.892 1136.74 933.334C1136.74 932.957 1136.36 932.392 1135.99 932.016C1132.41 935.405 1129.21 939.736 1125.07 941.619C1111.13 947.833 1097.2 945.762 1085.33 936.347C1078.18 930.886 1073.09 922.036 1066.88 914.88C1060.1 906.971 1062.74 895.485 1058.22 886.823C1057.47 870.629 1056.34 854.811 1065.19 840.312C1069.33 833.721 1071.78 826.001 1075.54 819.034C1082.32 806.606 1089.67 794.554 1096.82 782.126C1098.52 779.114 1099.83 775.912 1101.72 771.581C1097.57 770.263 1094.56 769.134 1091.17 768.38C1082.51 766.686 1075.92 772.146 1070.27 778.549C1067.07 782.126 1063.68 784.198 1059.73 785.516C1056.52 786.646 1053.32 788.152 1050.12 789.659C1046.17 791.542 1042.4 794.743 1038.07 795.684C1024.14 799.074 1010.2 801.522 996.267 804.911C988.358 806.794 980.638 807.736 972.352 807.171C962.937 806.418 957.477 800.768 953.334 792.295C951.263 788.152 951.639 782.88 954.087 781.562C957.477 779.679 960.302 781.373 962.75 784.198C963.314 784.763 963.691 785.516 964.067 786.269C966.138 790.788 969.716 791.73 973.482 791.165C983.651 789.47 994.384 788.905 1003.8 784.574C1018.3 777.984 1034.3 776.101 1047.49 765.744C1048.8 764.803 1050.87 764.991 1052.38 764.238C1054.64 763.296 1057.28 762.731 1058.97 760.848C1065.56 754.258 1073.28 749.927 1081.38 747.102C1088.54 744.654 1095.88 741.076 1103.79 744.466C1104.16 744.654 1104.54 743.901 1106.05 743.148C1105.11 733.356 1104.35 722.811 1103.04 712.454C1102.28 706.994 1100.02 702.474 1094.56 700.968C1093.24 700.591 1091.74 699.461 1090.8 698.332C1084.58 690.988 1078.18 683.644 1072.15 675.924C1068.01 670.463 1070.46 663.684 1076.86 663.119C1079.31 662.931 1082.13 664.061 1084.39 665.567C1089.29 668.956 1094 672.722 1099.08 676.677C1100.02 674.982 1100.78 674.041 1100.96 673.099C1101.72 668.956 1102.28 664.814 1103.22 660.859C1104.54 655.587 1107.55 652.951 1110.94 653.327C1113.77 653.516 1117.72 657.847 1118.1 661.989C1119.04 671.404 1119.79 680.443 1122.62 689.67C1125.25 698.332 1125.63 708.312 1125.44 717.727C1125.07 734.486 1127.14 751.245 1124.31 767.815C1124.12 769.134 1124.12 770.64 1123.56 771.77C1117.53 784.198 1111.32 796.438 1105.29 808.866C1098.89 821.858 1089.29 832.968 1086.28 848.032C1086.09 848.974 1085.15 849.727 1084.58 850.669C1077.05 861.214 1077.61 873.453 1079.5 885.505C1080.82 893.225 1082.7 901.51 1090.04 905.653C1090.61 906.03 1091.17 906.783 1091.36 907.536C1093.05 912.997 1097.39 915.445 1101.34 918.269C1107.18 922.412 1111.13 922.224 1117.53 916.575C1121.86 912.809 1123 907.536 1121.87 901.511C1120.92 896.803 1119.79 892.284 1118.29 887.764C1117.53 885.128 1116.4 882.492 1114.9 880.421C1108.68 872.135 1104.73 862.72 1102.47 852.363C1101.9 849.727 1102.47 845.961 1103.79 843.702C1106.99 838.429 1110.94 834.286 1117.16 832.592C1123.94 830.897 1130.53 827.884 1136.18 822.235C1142.58 815.833 1150.49 813.761 1158.96 816.963C1161.22 817.904 1163.29 819.599 1165.55 820.352C1169.13 821.482 1170.82 824.306 1171.95 827.884C1174.59 836.546 1175.91 845.585 1176.47 855C1175.72 859.142 1176.66 863.473 1177.23 867.616ZM1254.24 577.629C1256.5 574.428 1258.2 572.545 1259.51 570.474C1263.47 564.448 1266.67 557.669 1271.38 552.585C1275.71 547.878 1278.16 542.605 1280.98 536.956C1282.86 533.378 1285.5 530.365 1287.76 527.164C1289.27 525.093 1291.15 523.022 1292.47 520.762C1301.51 506.263 1310.55 491.763 1319.58 477.264C1322.41 472.745 1325.23 468.225 1327.87 463.518C1333.14 454.479 1337.47 444.499 1343.5 436.214C1352.35 424.163 1359.32 411.358 1362.89 396.105C1365.72 384.242 1366.47 372.003 1370.8 360.516C1374.76 350.16 1375.32 338.861 1378.15 328.316C1380.59 319.09 1377.02 311.934 1372.68 306.097C1368.17 300.071 1361.76 295.74 1355.74 291.597C1347.83 286.136 1339.35 281.429 1331.26 276.345C1329.75 275.403 1328.43 274.085 1327.12 272.955C1323.16 269.754 1319.02 266.553 1315.06 263.54C1307.91 258.268 1300.38 253.56 1293.6 247.911C1289.83 244.71 1286.25 241.509 1281.36 240.944C1279.29 240.567 1277.22 239.249 1275.14 238.308C1267.24 233.788 1259.33 229.081 1251.42 224.75C1239.37 218.347 1227.31 212.51 1215.26 206.108C1201.52 198.764 1187.96 191.044 1174.21 183.888C1159.9 176.356 1145.59 169.2 1131.28 161.857C1129.96 161.103 1128.64 160.538 1127.14 159.974C1118.29 157.337 1110 153.006 1102.47 146.981C1101.15 145.851 1099.46 144.909 1097.95 144.344C1090.61 141.896 1083.45 139.26 1076.11 137.001C1059.35 131.916 1042.4 126.832 1025.64 121.936C1015.66 119.112 1013.4 119.865 1007.75 129.657C1000.22 142.461 992.877 155.266 985.533 168.259C983.462 172.025 981.392 175.979 978.755 179.369C968.399 192.55 957.853 205.355 947.497 218.347C936.387 232.094 925.277 245.84 913.978 259.586C909.082 265.8 903.998 271.825 898.914 277.851C898.161 278.793 897.408 279.922 896.467 281.052C888.558 291.032 881.214 301.577 872.74 310.992C863.513 321.161 855.605 332.647 849.202 345.264C846.943 349.595 845.249 354.302 843.177 358.633C837.905 369.366 832.067 379.723 827.547 390.833C822.087 404.579 815.308 417.76 812.86 432.824C811.919 438.285 810.789 443.746 809.659 449.207C808.717 453.538 808.718 457.68 810.036 462.2C813.425 461.07 816.437 460.693 818.885 459.375C823.781 456.362 828.866 453.349 833.197 449.395C837.528 445.441 841.106 440.168 845.06 435.837C849.579 430.753 852.969 425.104 853.534 417.76C854.099 409.475 854.475 401.19 854.851 392.904C855.04 387.255 854.475 381.606 855.417 376.145C858.618 358.257 863.89 341.121 871.987 325.304C874.435 320.596 877.448 314.947 883.285 316.453C902.304 320.784 922.076 319.09 940.529 327.187C941.471 327.563 942.601 327.187 943.354 327.563C951.263 329.823 959.171 331.518 966.703 334.53C974.612 337.543 982.145 341.686 989.865 345.264C997.397 348.653 1004.93 352.043 1012.27 355.62C1014.34 356.562 1016.23 357.88 1018.49 358.445C1030.35 361.834 1040.52 368.99 1051.44 374.827C1060.29 379.535 1068.76 384.807 1077.61 389.891C1084.96 394.034 1092.49 397.424 1099.46 401.943C1107.18 407.027 1114.52 413.429 1122.05 418.89C1124.31 420.585 1126.95 421.715 1129.4 423.033C1130.9 423.786 1132.6 424.351 1133.92 425.481C1138.06 429.058 1142.01 432.636 1145.78 436.591C1160.66 452.596 1175.53 468.79 1190.41 484.984C1190.97 485.549 1191.16 486.303 1191.73 487.056C1200.58 498.166 1209.43 509.275 1218.46 520.197C1224.87 527.917 1231.27 535.45 1235.79 544.865C1238.99 551.644 1242.76 558.234 1246.33 564.825C1248.97 568.026 1251.23 571.98 1254.24 577.629ZM589.156 384.619C589.532 384.242 589.909 383.866 590.286 383.489C587.838 377.84 585.955 371.814 582.754 366.73C575.786 355.997 570.514 344.134 565.242 332.271C560.158 321.349 554.696 310.804 549.612 300.071C543.963 288.02 538.502 275.78 532.665 263.917C524.191 246.969 513.458 231.717 505.738 214.205C503.478 209.121 501.595 204.79 505.549 199.705C507.997 196.504 507.621 192.927 505.361 189.725C500.277 182.193 492.933 177.674 485.589 175.038C476.362 171.648 466.571 170.33 456.968 168.635C447.553 166.941 438.138 165.246 428.911 162.233C421.943 159.974 414.411 160.35 407.067 160.162C396.334 159.785 385.412 159.785 374.679 159.785C371.289 159.785 367.712 161.292 364.511 160.915C353.024 159.785 342.103 162.045 330.993 164.304C323.273 165.811 315.552 167.506 307.643 167.317C296.345 167.129 285.047 166.376 274.314 171.46C273.561 171.837 272.807 171.837 272.054 171.837C260.567 172.402 249.081 172.966 237.595 173.531C221.401 174.285 205.395 178.239 189.766 182.57C178.468 185.583 167.545 189.537 156.059 190.479C142.501 191.42 129.321 194.433 116.139 197.634C112.562 198.576 109.172 200.835 104.841 202.907C108.042 212.698 110.113 221.925 114.068 230.022C119.529 241.132 123.295 252.807 125.554 265.047C126.119 267.494 126.496 269.942 127.437 272.39C132.522 286.89 137.606 301.389 142.502 315.888C143.443 318.525 143.631 321.349 144.196 323.985C145.891 333.024 147.398 342.062 149.092 351.101C151.164 361.458 153.423 371.814 153.423 382.548C153.423 385.372 152.293 388.197 152.858 390.833C154.93 400.625 156.248 410.228 155.683 420.585C154.93 431.318 155.494 442.24 155.494 452.973C155.494 455.986 154.93 459.187 158.507 460.882C160.955 457.869 163.215 454.479 166.04 452.031C177.714 441.863 190.142 432.825 199.934 420.02C201.252 418.325 202.947 417.195 204.642 415.877C214.245 408.157 224.602 401.755 232.887 391.774C237.783 385.937 242.678 380.1 248.327 375.58C263.015 363.906 278.456 353.737 295.592 347.523C302.182 345.264 308.773 343.004 315.175 340.556C324.967 336.978 334.759 333.589 345.116 332.271C353.778 331.329 362.439 328.505 371.101 327.94C381.27 327.187 391.626 327.94 401.983 327.94C406.879 327.94 411.775 326.998 416.483 327.94C422.508 329.07 428.345 331.706 434.183 333.401C437.007 334.154 440.397 335.848 442.656 334.719C449.059 331.894 455.084 335.284 461.11 335.472C468.454 335.66 475.798 339.426 483.142 341.498C485.966 342.251 489.167 343.945 491.804 343.192C499.336 340.933 505.927 341.309 513.647 344.887C522.121 348.841 531.724 349.406 540.762 351.666C542.457 352.043 544.152 352.231 545.659 353.172C559.593 361.081 574.469 367.86 585.202 381.606C585.767 382.736 587.649 383.489 589.156 384.619ZM660.335 929.379C665.231 933.145 669.185 936.535 673.328 939.548C677.282 942.372 681.236 944.82 685.379 947.456C692.158 944.255 692.535 953.859 697.054 955.177C697.619 955.365 697.995 955.177 698.56 955.365C703.832 957.437 709.294 958.943 714.19 961.768C723.04 967.228 731.136 973.819 739.798 979.28C745.447 982.857 751.85 985.305 757.875 988.318C761.265 989.825 763.713 989.071 765.784 984.929C768.421 979.468 771.622 974.007 774.823 969.111C778.4 963.839 782.543 959.131 786.121 953.859C789.887 948.398 792.712 942.184 796.854 937.1C807.776 923.354 817.38 908.478 826.23 893.037C827.736 890.401 829.807 887.576 832.067 886.07C835.456 883.998 838.093 881.55 839.411 877.219C840.164 874.583 841.859 872.512 843.177 870.064C848.261 861.214 853.345 852.363 858.429 843.513C860.877 838.994 863.702 834.663 865.397 829.767C868.033 821.105 870.293 812.255 872.176 803.216C873.87 795.119 875 786.834 868.974 779.679C867.091 777.419 866.338 773.653 864.644 771.017C861.819 766.686 858.994 761.79 855.228 758.589C847.696 752.375 839.411 747.29 831.502 741.641C818.886 732.791 805.516 726.765 791.017 732.979C781.602 737.122 772.751 743.524 764.466 750.303C754.486 758.4 745.071 767.251 733.773 772.9C726.994 776.477 719.838 779.679 712.871 782.88C712.118 783.256 710.988 783.068 710.047 783.256C703.456 784.198 698.371 780.055 693.664 775.912C681.613 765.368 669.562 755.387 654.686 750.303C648.283 748.044 642.069 746.726 635.667 750.492C633.407 751.81 630.583 752.186 627.946 752.751C622.486 753.693 618.155 758.589 612.506 758.024C612.318 758.024 612.129 758.212 611.941 758.589C607.233 766.309 601.396 773.653 597.818 782.126C591.98 796.437 592.546 811.69 595.182 826.943C595.37 828.072 595.37 829.39 595.746 830.144C601.395 840.689 602.902 852.928 607.422 864.038C614.577 881.927 624.557 897.18 636.608 910.926C639.81 914.503 643.387 916.951 648.471 914.88C650.166 914.127 652.803 915.068 654.497 916.01C659.205 919.023 663.536 922.412 668.431 925.99C667.867 931.262 663.913 927.685 660.335 929.379ZM813.613 1060.63C806.646 1069.85 805.893 1070.04 796.854 1065.52C792.524 1063.45 791.77 1064.02 789.134 1068.35C787.816 1070.61 785.744 1072.3 783.296 1074.94C783.861 1081.53 778.778 1086.99 776.33 1093.39C774.447 1098.1 772.187 1104.31 768.421 1106.2C763.525 1108.64 762.018 1113.54 758.817 1117.12C757.31 1118.81 755.993 1120.7 754.298 1122.01C747.707 1127.85 741.117 1133.5 734.526 1139.34C730.948 1142.73 727.747 1146.68 724.169 1149.88C718.897 1154.4 718.897 1155.91 723.981 1160.43C724.734 1161.18 725.488 1161.75 726.241 1162.5C732.455 1167.58 737.35 1173.98 740.928 1181.89C742.623 1185.85 742.247 1189.8 740.552 1193.19C739.422 1195.45 736.597 1197.52 734.149 1197.9C731.324 1198.46 729.253 1196.02 728.5 1192.63C728.123 1190.93 727.371 1189.43 727.182 1187.73C726.429 1183.02 724.358 1179.63 720.78 1177C719.086 1175.87 717.955 1173.98 716.449 1172.48C713.248 1169.09 709.859 1169.28 706.658 1172.67C703.833 1175.68 700.82 1178.5 697.995 1181.52C694.606 1185.47 691.405 1189.61 688.392 1193.94C683.496 1201.29 682.555 1211.65 675.399 1217.29C674.834 1217.67 674.834 1218.8 674.458 1219.55C672.198 1224.07 670.503 1229.53 667.301 1232.92C663.347 1237.07 661.841 1241.96 659.769 1247.05C657.51 1252.7 653.933 1257.4 649.037 1260.42C645.836 1262.3 642.634 1264.75 639.245 1266.06C632.089 1268.7 630.583 1275.29 630.206 1282.45C629.641 1292.62 632.843 1296.76 641.693 1298.26C643.388 1298.45 645.458 1298.26 646.588 1299.39C649.601 1302.22 652.803 1302.03 656.38 1301.47C659.581 1300.9 662.783 1300.9 665.984 1300.34C675.587 1298.83 685.567 1299.21 693.099 1290.54C694.229 1289.23 695.924 1288.47 697.43 1287.53C703.267 1283.95 708.917 1280.19 714.943 1276.8C719.65 1274.16 724.358 1270.96 729.254 1269.83C734.715 1268.7 739.61 1266.25 743.941 1262.49C754.486 1253.26 764.843 1244.03 775.2 1234.62C779.154 1231.04 782.92 1227.27 787.815 1222.57C780.848 1218.8 775.012 1215.6 768.798 1212.4C768.986 1210.52 769.174 1208.63 769.362 1206.94C767.479 1205.05 765.596 1203.74 764.278 1201.85C756.745 1190.93 757.122 1177.19 755.051 1164.57C755.051 1164.19 755.428 1163.44 755.616 1163.06C760.7 1156.1 757.687 1145.74 763.524 1139.15C764.089 1138.58 763.525 1136.89 763.713 1135.95C764.278 1134.25 764.843 1132.37 765.784 1130.86C769.551 1125.4 773.128 1119.75 777.271 1114.67C782.355 1108.27 787.44 1101.68 796.101 1101.86C799.679 1101.86 803.821 1101.11 806.646 1098.85C814.178 1092.64 821.522 1086.05 828.113 1078.7C834.892 1071.36 841.859 1064.02 846.943 1055.35C853.346 1044.62 862.007 1038.41 871.423 1032.38C879.331 1027.49 887.052 1022.4 896.655 1021.84C902.304 1021.65 904.752 1016 904.376 1007.71C905.694 1006.4 907.576 1005.45 908.329 1003.95C913.037 995.85 920.004 991.708 927.348 987.565C934.692 983.422 942.036 978.526 947.12 970.429C944.86 968.735 942.601 967.228 940.529 965.345C937.705 962.897 934.88 962.144 931.867 965.157C930.361 966.663 928.667 967.793 926.784 968.546C922.641 970.806 918.498 974.007 913.978 974.572C902.304 975.702 890.441 976.643 878.766 975.702C868.786 974.949 859.371 974.76 850.144 979.656C842.8 983.611 834.891 986.247 829.619 994.909C824.723 1003.19 817.944 1009.78 812.483 1017.69C806.646 1025.98 801.562 1034.64 796.101 1043.11C795.913 1043.49 796.289 1044.06 796.477 1045.19C804.01 1047.82 810.035 1052.72 813.613 1060.63ZM716.637 1123.9C722.475 1119.19 727.747 1114.86 732.831 1110.34C734.714 1108.64 736.974 1107.14 738.481 1105.07C739.799 1103.37 741.682 1100.17 741.117 1098.85C739.234 1094.33 741.117 1090.19 741.117 1085.86C741.117 1082.66 740.175 1079.46 739.611 1076.26C738.857 1071.74 737.162 1067.78 737.915 1062.51C739.61 1050.46 732.831 1044.43 722.475 1047.45C722.287 1047.45 722.098 1047.63 721.722 1047.82C715.319 1048.95 708.728 1050.46 702.326 1051.4C698.56 1051.96 693.853 1047.63 693.476 1044.24C693.1 1041.61 696.489 1037.65 700.443 1036.9C710.235 1035.21 720.215 1033.89 730.195 1032.38C738.104 1031.25 746.389 1032.38 753.545 1026.36C755.993 1024.28 759.382 1023.91 762.583 1023.34C765.596 1022.78 767.479 1021.46 768.232 1017.51C762.395 1013.74 755.804 1013.74 749.59 1012.42C747.707 1012.04 745.824 1011.48 744.13 1010.54C734.15 1004.51 724.357 998.298 714.377 992.084C713.059 991.331 711.741 991.143 710.047 990.578C704.962 997.733 698.937 996.603 692.535 993.591C689.334 992.084 685.944 991.519 682.554 990.954C677.658 990.201 672.763 989.825 667.867 989.448C659.205 988.695 651.484 990.39 644.705 997.545C641.127 1001.5 636.609 1004.32 632.278 1007.71C635.102 1014.49 638.115 1021.27 641.693 1027.86C645.459 1034.64 649.601 1040.85 655.25 1044.62C661.464 1048.76 663.535 1057.8 671.068 1059.68C671.256 1059.68 671.445 1060.81 671.633 1061.19C673.704 1063.83 675.587 1066.84 678.035 1068.91C682.366 1072.68 687.45 1075.13 691.405 1079.27C700.443 1088.87 707.222 1100.36 712.307 1113.16C714.378 1116.36 715.319 1119.75 716.637 1123.9ZM875 412.864C876.507 411.735 877.636 411.17 878.389 410.04C883.285 403.073 888.37 396.294 893.077 389.138C898.915 380.288 904.563 371.249 910.212 362.023C912.472 358.445 914.355 354.49 916.05 350.348C917.745 346.205 916.615 343.381 913.037 342.816C906.07 341.686 898.914 340.933 891.759 339.991C888.181 339.615 885.921 341.309 883.85 344.699C877.071 356.562 875.376 370.12 873.493 383.677C872.552 391.21 873.117 399.118 873.117 406.839C873.305 408.91 874.247 410.605 875 412.864ZM502.913 366.542C502.913 367.295 502.725 368.237 502.725 368.99C509.692 374.074 516.659 378.97 523.438 384.054C529.087 388.197 534.737 392.716 540.574 396.859C548.671 402.508 557.145 407.78 565.053 413.618C572.774 419.267 581.436 423.221 588.403 430.377C590.474 432.448 593.299 434.896 598.006 434.143C594.994 427.929 593.487 421.903 589.156 417.384C583.318 410.981 577.105 404.956 572.021 397.988C563.736 387.067 552.626 381.229 541.704 374.639C540.009 373.509 537.938 373.132 536.055 372.756C531.347 371.626 526.64 370.496 521.932 369.366C517.413 368.237 512.893 366.918 508.186 365.977C506.679 365.224 504.796 366.165 502.913 366.542ZM623.804 946.515C622.11 947.268 620.791 947.645 619.661 948.021C617.025 949.151 616.272 951.787 617.778 954.047C620.979 958.943 621.921 964.592 623.239 970.241C624.745 976.643 627.193 982.669 629.076 988.318C635.479 983.046 641.316 976.455 648.284 973.254C655.439 969.864 663.536 969.864 672.763 968.17C662.406 961.767 652.991 955.93 642.446 952.352C638.115 943.126 627.382 936.158 622.863 940.489C623.239 941.996 623.428 943.879 623.804 946.515ZM54.9409 805.288C62.473 802.087 70.3817 803.97 78.4787 805.099C86.3875 806.229 89.4005 803.593 89.9654 794.366C90.5303 787.022 92.0364 780.055 95.2375 773.653C96.9322 770.452 96.5553 767.439 95.8021 765.179C80.7378 759.718 73.394 768.757 67.5566 781.938C64.9204 788.152 61.5316 793.99 56.0709 797.756C53.8112 799.262 53.0578 801.522 54.9409 805.288ZM1139.19 889.271C1144.08 884.563 1147.47 880.044 1151.81 877.973C1157.08 875.148 1159.34 872.324 1157.45 865.733C1157.08 864.791 1157.27 863.473 1157.45 862.344C1158.4 855.941 1156.89 850.292 1154.44 844.643C1151.81 838.241 1148.42 836.923 1144.46 842.195C1139.57 848.786 1133.54 851.045 1126.57 852.175C1126.2 852.175 1125.82 852.928 1125.25 853.682C1124.5 862.344 1130.15 867.804 1134.29 873.453C1137.31 877.973 1139.94 881.739 1139.19 889.271ZM776.706 1044.06C769.927 1046.13 763.525 1048.01 757.122 1050.08C755.804 1058.56 759.57 1064.96 760.135 1074.18C767.856 1066.46 774.069 1060.25 780.283 1054.04C779.718 1053.47 779.154 1052.72 778.589 1052.15C778.024 1050.08 777.647 1048.01 776.706 1044.06ZM607.798 919.588C604.974 916.386 603.091 913.938 601.019 911.679C598.571 908.854 593.487 909.608 591.227 912.997C588.591 916.951 588.968 919.964 592.546 922.977C593.864 924.107 595.37 925.048 596.876 926.178C599.889 928.626 602.526 927.685 604.785 925.048C605.915 923.542 606.669 921.471 607.798 919.588Z" fill="white" stroke="white" stroke-width="2" stroke-miterlimit="10"/>
<path d="M590.098 593.07C587.462 605.875 585.391 618.868 581.813 631.107C578.235 643.535 574.093 655.775 571.456 668.58C569.385 679.125 564.678 688.728 561.665 699.085C558.087 710.948 551.12 721.116 548.484 733.544C547.354 739.005 543.776 743.901 540.575 748.42C534.737 756.517 529.277 765.367 520.992 770.64C513.648 775.159 506.304 779.49 498.96 783.821C490.863 788.529 482.201 787.022 473.539 787.399C472.032 787.399 470.149 786.269 468.831 785.328C465.065 782.503 464.312 779.49 467.137 775.536C469.02 773.088 471.468 770.452 474.104 770.075C487.474 767.25 498.772 759.342 510.635 752.939C511.576 752.563 512.329 751.81 513.082 751.056C521.179 741.076 530.219 731.85 532.478 717.35C532.667 716.032 533.043 714.526 533.42 713.396C538.504 701.909 543.588 690.423 548.484 678.936C549.99 675.547 551.12 671.593 551.12 667.826C551.308 658.035 555.451 649.561 558.275 640.711C560.723 633.179 564.49 626.212 567.314 618.679C570.139 611.147 572.963 603.427 572.775 594.765C572.587 588.739 577.105 585.538 579.93 581.772C581.813 579.324 586.898 582.149 588.028 586.291C588.592 588.363 588.781 590.622 588.969 592.882C589.534 592.882 589.722 592.882 590.098 593.07Z" fill="white" stroke="white" stroke-width="2" stroke-miterlimit="10"/>
<path d="M428.345 679.69C434.747 679.69 437.195 682.514 435.877 688.54C434.747 694.189 432.487 699.65 430.228 704.922C427.968 710.383 424.956 715.655 422.32 720.928C417.047 731.473 414.411 743.148 412.904 755.199C412.34 759.718 411.963 764.049 411.021 768.38C410.268 772.335 411.397 774.594 414.034 776.854C423.449 784.574 427.404 796.437 430.793 808.3C431.17 809.619 429.851 812.631 428.533 813.573C425.144 816.021 419.118 813.008 417.047 808.865C413.469 802.275 410.08 795.684 404.431 790.788C399.535 786.646 398.593 786.457 393.886 791.165C391.626 793.425 389.366 795.684 386.73 797.002C383.34 798.885 379.763 797.191 378.633 793.801C377.503 790.223 379.009 787.964 382.022 786.457C389.931 782.691 390.496 773.841 392.567 766.309C394.262 760.283 394.639 753.693 395.392 747.29C396.71 733.544 402.359 721.869 408.761 710.571C412.151 704.546 416.293 698.896 419.871 693.059C421.566 690.046 422.508 686.468 424.203 683.456C425.521 681.949 427.592 680.443 428.345 679.69Z" fill="white" stroke="white" stroke-width="2" stroke-miterlimit="10"/>
<path d="M439.081 875.525C433.997 876.09 428.913 876.654 424.017 876.843C422.322 876.843 420.439 875.901 418.556 875.336C416.673 874.771 414.79 873.077 413.283 873.265C407.069 874.771 401.232 873.265 395.206 871.759C389.933 870.44 386.733 867.616 386.545 863.285C386.356 860.272 390.875 854.623 394.641 853.493C394.83 853.493 395.206 853.305 395.394 853.305C408.764 851.61 422.322 849.915 435.315 852.928C447.555 855.941 458.099 852.175 468.644 846.714C469.774 846.149 471.093 846.338 472.223 845.773C476.742 843.701 481.261 841.63 485.78 839.559C487.663 838.806 489.357 838.052 491.24 837.676C493.877 837.111 496.137 837.676 497.455 840.689C498.773 843.701 499.149 846.903 497.078 849.351C493.689 853.117 490.487 856.883 486.533 859.707C480.507 864.038 474.105 867.239 467.891 871.194C462.054 874.96 454.333 875.148 447.366 876.466C444.73 877.031 441.906 876.278 439.27 876.09C439.27 875.901 439.081 875.713 439.081 875.525Z" fill="white" stroke="white" stroke-width="2" stroke-miterlimit="10"/>
<path d="M918.873 699.273C918.873 707.182 918.873 713.772 918.873 720.175C918.873 723.188 918.685 726.389 918.308 729.402C916.802 740.511 915.86 740.888 905.88 736.369C905.692 734.486 905.503 732.414 905.503 730.343C905.88 722.623 906.445 714.714 906.445 706.994C906.445 703.981 906.257 700.78 905.316 697.955C902.868 690.611 903.997 683.267 907.386 677.053C910.587 671.216 911.529 665.19 912.282 658.788C912.471 657.093 911.718 655.022 910.965 653.327C908.14 647.866 905.127 642.406 902.303 636.945C900.608 633.744 900.796 627.53 902.679 624.893C905.127 621.692 908.328 621.692 911.529 622.634C912.659 623.01 913.977 623.764 914.542 624.705C917.932 631.107 920.945 637.698 924.146 644.289C928.665 652.951 929.607 662.742 930.737 672.346C931.113 675.924 932.807 679.125 933.749 682.514C933.749 682.702 934.126 682.891 934.126 683.267C938.08 699.838 951.261 706.994 961.43 716.785C966.514 721.869 967.643 726.765 967.643 733.733C961.806 737.687 956.157 736.369 951.073 732.414C943.917 726.954 937.139 721.116 930.548 714.902C927.347 711.889 925.275 707.747 922.639 704.169C921.509 703.039 920.379 701.533 918.873 699.273Z" fill="white" stroke="white" stroke-width="2" stroke-miterlimit="10"/>
</svg>
