<svg width="1121" height="1120" viewBox="0 0 1121 1120" fill="none" xmlns="http://www.w3.org/2000/svg">
<path d="M33.371 740.264C33.371 701.206 36.4447 661.786 32.6474 623.09C25.2336 548.047 46.3901 475.717 48.9216 401.941C49.6449 380.784 45.6668 359.989 50.7299 338.29C68.2699 263.971 81.47 188.567 100.818 114.791C111.487 74.286 125.411 68.8614 167.362 69.0422C181.466 69.0422 195.39 67.0531 209.494 65.7873C249.999 62.3516 290.323 56.0227 330.828 56.0227C399.18 55.661 467.531 59.8202 535.883 60.9051C558.124 61.2668 580.366 57.4693 602.788 56.746C630.635 55.8419 658.482 56.7462 686.329 56.2037C717.612 55.6612 748.895 54.7569 780.178 53.3103C827.915 51.1404 875.653 46.6199 923.391 46.8007C947.44 46.9815 968.054 59.8202 987.584 76.2752C1022.12 105.207 1043.1 141.553 1058.11 182.239C1061.9 192.365 1057.92 205.023 1059.19 216.234C1062.63 248.601 1067.51 280.788 1070.94 313.156C1077.45 373.37 1083.6 433.766 1089.21 494.161C1090.29 506.819 1088.66 519.658 1087.94 532.315C1082.7 617.303 1077.63 702.11 1071.67 787.098C1070.58 801.744 1065.88 816.03 1063.89 830.495C1059.37 863.225 1057.56 896.316 1051.05 928.502C1044.54 960.328 1030.44 989.621 1000.78 1006.8C989.754 1013.13 976.192 1015.12 963.715 1018.73C957.748 1020.36 949.068 1018.92 945.632 1022.71C924.295 1045.5 895.001 1040.25 869.143 1047.3C816.162 1061.59 762.456 1054.54 708.932 1056.53C691.935 1057.25 674.576 1052.37 657.397 1052.37C634.613 1052.37 611.468 1053.45 588.865 1056.35C530.097 1063.94 471.871 1075.69 412.199 1073.16C381.097 1071.9 349.995 1071.54 319.074 1069.91C300.63 1069 282.186 1067.2 263.742 1064.48C228.662 1059.42 193.401 1054.72 158.863 1047.12C117.997 1038.26 93.5854 1007.88 72.4289 974.432C62.8451 959.062 51.9957 944.234 43.4969 928.322C38.7954 919.642 35.5408 909.154 35.5408 899.39C34.8175 846.408 35.1792 793.246 35.1792 740.264C34.6367 740.264 34.0943 740.264 33.371 740.264ZM347.102 492.896C336.614 494.161 328.296 495.246 319.978 495.97C291.408 498.682 262.837 502.66 234.267 503.383C202.984 504.288 171.702 502.299 140.419 501.214C127.038 500.671 119.805 506.457 119.263 520.019C117.274 565.587 103.892 611.155 118.901 656.904C120.709 662.509 118.72 669.561 118.359 675.89C116.731 710.247 114.199 744.784 113.476 779.141C112.934 805.361 113.115 831.761 116.008 857.8C119.082 884.924 123.783 912.228 131.921 938.086C136.079 951.286 147.29 965.391 159.225 972.081C172.967 979.676 191.05 981.123 207.505 982.027C264.103 985.643 320.34 989.983 377.48 985.101C431.366 980.399 485.975 983.835 540.223 983.473C622.679 983.112 705.135 983.292 787.772 981.665C834.244 980.761 880.897 977.506 927.369 973.709C965.342 970.454 978.18 956.892 984.148 919.28C984.871 914.217 985.594 909.154 986.86 904.091C1004.58 831.219 1014.35 757.081 1015.61 682.038C1016.52 629.599 1015.97 576.979 1016.7 524.54C1016.88 502.841 1014.71 500.129 992.827 501.937C947.621 505.734 902.596 510.255 857.39 512.786C832.617 514.233 807.663 511.882 782.89 511.34C769.328 510.978 766.254 514.956 769.328 529.965C776.199 563.598 780.177 597.955 783.613 632.131C786.687 663.233 776.742 691.622 765.892 720.916C752.692 756.719 746.182 795.054 721.228 825.613C706.763 843.334 692.658 862.682 674.033 874.798C649.983 890.71 622.317 902.102 594.832 911.686C577.292 917.834 557.582 919.642 538.776 919.823C509.121 920.185 479.285 918.376 449.63 915.664C415.635 912.59 397.914 882.573 372.418 865.576C358.313 855.992 346.921 841.345 336.795 827.241C309.128 789.267 304.789 743.338 295.386 699.036C285.983 654.553 286.887 611.336 306.959 569.927C318.893 545.335 332.455 520.924 347.102 492.896ZM876.557 464.144C876.557 465.41 876.738 466.495 876.738 467.761C898.437 466.857 920.316 467.761 941.654 464.506C996.444 456.188 1023.03 421.47 1014.16 372.647C1003.86 315.507 993.912 258.366 983.063 201.406C981.978 196.162 977.096 190.918 972.756 186.94C966.246 181.154 958.29 176.995 951.599 171.389C932.793 155.476 918.328 133.054 891.385 129.076C862.453 124.736 833.34 120.577 804.046 118.226C756.489 114.248 708.752 110.813 661.195 109.185C630.635 108.281 600.076 113.525 569.697 111.898C513.099 108.643 457.405 115.153 401.711 122.566C383.629 124.917 376.938 130.703 376.215 149.69C373.502 219.308 368.439 288.744 365.546 358.362C364.461 382.592 365.908 407.004 368.439 431.053C370.609 452.21 387.064 457.273 403.881 444.435C412.922 437.563 423.048 431.958 433.174 426.895C445.832 420.747 459.575 416.768 471.69 409.897C504.419 391.453 540.042 389.645 575.483 394.346C605.5 398.324 635.698 404.834 663.907 415.503C686.149 424.001 706.22 439.191 725.749 453.657C738.226 462.879 745.821 475.717 766.073 472.643C802.6 467.399 839.669 466.857 876.557 464.144ZM452.704 460.347C451.257 457.996 449.811 455.646 448.364 453.295C435.706 461.432 422.687 469.208 410.391 477.706C378.023 500.129 356.324 529.965 339.869 566.31C325.222 598.859 315.457 630.684 320.159 666.126C321.786 677.879 326.126 689.271 329.02 701.025C336.976 733.573 342.762 766.845 353.792 798.309C360.483 817.476 372.236 835.92 394.659 844.057C403.7 847.312 410.391 856.715 418.347 863.044C423.772 867.384 428.835 872.989 434.983 875.521C503.515 902.464 569.516 897.22 634.433 862.501C678.192 839.175 710.56 807.892 719.782 757.261C720.143 754.911 721.771 752.56 722.856 750.39C744.555 706.992 759.202 661.786 755.766 612.782C754.5 593.434 750.522 573.543 743.832 555.099C734.609 529.784 721.771 505.553 710.198 481.142C708.932 478.43 705.858 476.441 703.146 474.813C684.159 463.421 665.534 451.125 645.644 441.18C636.06 436.297 624.126 435.936 613.276 434.128C612.734 434.128 610.021 441.361 610.564 441.722C619.786 447.87 629.189 453.657 638.953 459.081C650.345 465.41 666.258 468.303 672.587 477.887C688.499 501.937 704.412 527.614 712.73 555.099C729.908 610.793 739.492 667.391 718.335 725.798C695.37 789.267 655.408 835.559 594.109 863.587C587.78 866.48 580.908 869.192 574.218 869.373C542.935 869.554 511.472 870.458 480.37 867.565C441.131 863.948 408.04 849.12 382.543 815.487C365.003 792.341 361.387 765.218 351.08 740.083C345.294 725.979 342.22 709.524 342.943 694.515C344.209 666.126 346.921 637.375 353.069 609.528C365.184 555.099 386.883 505.372 436.429 473.366C442.939 469.569 447.641 464.687 452.704 460.347ZM332.636 403.568C333.359 397.058 334.987 389.283 335.167 381.327C335.71 348.778 334.806 316.23 336.253 283.681C338.603 234.678 342.581 185.674 345.474 136.671C345.655 132.15 342.762 127.449 341.315 122.928C336.795 125.459 329.381 127.087 327.934 130.703C317.989 157.285 304.427 183.685 300.992 211.351C295.205 259.451 297.194 308.454 293.216 356.734C289.78 398.324 288.153 398.143 327.934 405.015C328.658 405.376 329.381 404.834 332.636 403.568ZM210.76 154.03C188.88 165.06 172.968 175.548 168.809 196.162C160.671 236.667 153.8 277.533 146.748 318.219C141.685 346.608 136.622 374.817 133.005 403.387C132.463 407.908 140.057 418.215 143.312 418.034C174.776 416.407 186.53 404.472 190.146 372.828C190.869 367.042 190.869 361.255 190.869 355.65C191.231 300.679 196.113 246.25 208.771 192.545C211.122 181.515 210.037 169.942 210.76 154.03ZM400.083 655.638C384.894 661.244 387.245 673.178 388.149 683.123C394.116 742.434 419.974 788.002 474.764 817.114C506.589 833.931 535.702 824.89 564.453 814.945C585.248 807.892 603.331 793.607 623.221 783.3C655.227 766.664 668.066 738.094 672.767 704.461C674.214 694.696 672.948 684.389 672.948 674.444C671.321 674.444 669.513 674.444 667.885 674.444C666.981 676.613 665.534 678.784 664.992 681.134C649.441 747.497 580.366 795.958 512.195 791.618C483.263 789.81 453.427 782.396 432.994 758.889C410.21 732.488 393.393 703.195 401.892 665.764C402.434 662.871 400.988 659.797 400.083 655.638ZM590.854 656.723C592.481 656 593.928 655.276 595.555 654.372C587.78 638.279 583.982 615.495 571.144 608.081C554.689 598.316 531.001 599.401 510.387 599.221C503.696 599.221 494.112 608.262 491.038 615.314C485.614 627.791 481.635 642.076 481.455 655.638C481.093 682.762 506.047 707.535 530.097 707.173C565.719 706.631 591.396 685.474 590.854 656.723ZM290.684 123.47C263.38 119.492 244.032 136.49 243.308 163.433C243.128 171.027 243.67 178.803 242.947 186.217C236.98 236.848 229.746 287.298 224.683 337.929C222.513 359.808 224.322 381.869 224.322 403.568C258.136 404.472 260.487 402.121 260.848 374.998C261.21 352.756 260.848 330.515 262.838 308.454C266.996 261.259 256.689 212.798 276.218 167.049C282.005 153.126 285.621 138.66 290.684 123.47ZM472.052 593.072C470.243 591.807 468.616 590.36 466.808 589.094C461.564 593.434 455.597 597.051 451.438 602.295C434.44 623.27 432.813 649.128 429.196 674.444C422.144 724.894 477.115 766.122 514.727 764.133C560.114 761.601 602.246 744.061 625.572 699.759C641.666 669.2 641.304 636.832 633.167 603.018C626.476 607.538 621.052 612.963 620.509 618.75C619.243 634.662 617.977 650.937 620.69 666.487C625.21 693.069 609.298 708.258 590.311 715.672C568.612 724.351 543.839 726.34 520.151 729.053C504.6 730.861 489.049 730.861 476.211 716.576C453.789 691.622 446.556 646.958 461.926 616.037C465.723 608.623 468.616 600.848 472.052 593.072ZM428.292 576.256C429.739 577.522 431.005 578.968 432.451 580.234C434.802 578.426 437.876 577.16 439.503 574.809C461.021 543.707 491.762 529.965 528.288 525.625C536.426 524.721 546.914 523.093 551.434 517.669C564.634 501.575 578.739 502.118 597.363 505.915C624.126 511.34 644.197 525.806 651.972 552.568C653.238 557.088 655.408 561.428 658.301 568.48C669.513 546.058 661.556 529.241 648.537 517.307C627.742 498.32 604.235 481.142 574.218 482.046C541.488 482.95 510.387 484.759 482.178 509.17C458.852 529.061 443.662 552.025 428.292 576.256ZM180.381 438.286C180.02 441.18 179.658 444.073 179.297 446.966C197.017 450.221 214.738 455.103 232.64 456.55C261.029 458.72 289.6 458.9 317.989 459.262C323.775 459.262 329.562 456.188 335.348 454.561C332.455 448.593 330.466 441.722 326.307 437.202C323.233 433.947 317.085 432.319 312.203 432.319C275.495 432.319 238.788 432.862 201.9 433.766C194.847 433.766 187.614 436.659 180.381 438.286ZM482.178 581.681C497.91 576.256 513.461 570.831 530.82 564.864C514.726 550.759 492.304 557.631 482.178 581.681ZM583.802 542.261C567.889 543.526 563.368 553.653 560.294 564.683C559.752 566.491 563.188 569.565 564.815 571.916C570.421 565.587 576.207 559.62 581.451 552.929C583.078 550.759 582.717 547.324 583.802 542.261Z" fill="white"/>
<path d="M930.443 212.075C934.24 244.985 936.953 278.076 942.377 310.805C945.09 327.079 940.75 336.663 926.103 342.63C921.402 344.439 915.073 345.885 912.722 349.502C897.533 373.371 874.93 363.063 854.496 363.425C834.967 363.787 814.534 361.255 796.271 366.318C746.363 380.061 730.27 345.885 731.535 306.104C731.897 295.435 730.451 284.585 730.451 273.917C730.632 248.601 728.823 222.743 732.801 197.97C734.248 188.748 748.352 176.814 758.659 174.463C808.205 162.89 858.475 172.113 908.563 172.113C924.657 172.113 930.443 184.77 930.443 212.075ZM833.702 205.565V205.746C824.118 205.746 814.534 206.469 804.951 205.565C787.23 203.757 777.284 212.979 775.838 228.711C773.306 255.834 772.583 283.32 773.668 310.444C773.849 315.687 785.241 324.91 791.389 324.91C818.693 324.91 845.998 322.016 873.302 320.931C886.864 320.389 893.916 313.698 894.459 301.222C895.182 282.777 896.448 263.971 893.374 245.889C887.226 207.554 884.333 206.288 845.094 205.565C841.296 205.565 837.499 205.565 833.702 205.565Z" fill="white"/>
</svg>
