<svg width="1121" height="1121" viewBox="0 0 1121 1121" fill="none" xmlns="http://www.w3.org/2000/svg">
<path d="M603.02 1060.95C521.62 1064.29 440.221 1069.2 358.599 1070.76C314.888 1071.66 271.178 1066.97 227.468 1065.41C210.965 1064.96 194.239 1065.41 177.959 1067.86C139.824 1073.66 105.257 1056.71 86.301 1031.05C69.3521 1008.07 58.2016 976.841 51.9572 944.715C40.3606 884.034 53.0723 824.692 50.8422 764.68C49.7271 737.685 43.2597 710.691 42.3677 683.697C41.6987 659.603 45.2669 635.509 46.8279 611.192C47.497 598.699 48.389 586.206 48.389 573.712C48.166 527.978 47.943 482.468 47.0509 436.734C46.3819 407.062 44.1518 377.391 43.2598 347.72C41.6987 288.823 39.9146 229.927 39.4685 171.253C39.2455 135.782 60.4317 111.465 96.3366 102.987C120.645 97.1867 145.176 92.5018 169.484 86.2552C179.52 83.5781 188.663 78.2239 198.253 73.9851C202.49 72.2004 206.504 69.5232 210.742 69.3001C279.429 64.169 347.894 57.0301 416.582 54.7991C509.355 51.6758 602.351 53.9068 694.901 51.0066C764.257 48.7756 832.499 56.3608 900.518 67.2923C929.509 71.9773 957.832 83.355 985.708 93.1711C991.506 95.1789 995.298 103.879 999.535 109.903C1002.43 114.142 1003.55 119.719 1006.89 123.065C1030.31 144.929 1038.56 172.369 1039.23 203.379C1039.45 214.533 1042.8 225.688 1044.14 236.843C1053.95 313.14 1063.76 389.215 1072.91 465.513C1075.36 486.26 1074.69 507.454 1078.04 528.202C1087.62 589.329 1073.8 648.225 1064.65 707.791C1062.2 724.077 1058.86 740.809 1060.19 757.095C1064.43 808.629 1068.89 859.717 1058.86 911.028C1058.63 912.367 1058.41 913.706 1058.86 915.044C1077.14 967.248 1040.35 995.134 1007.34 1019.9C988.607 1033.95 960.508 1038.19 935.977 1041.76C884.238 1049.35 832.053 1056.26 779.868 1058.72C720.993 1061.62 661.895 1059.38 602.797 1059.38C603.243 1060.05 603.02 1060.5 603.02 1060.95ZM682.412 983.98C682.412 984.649 682.412 985.541 682.635 986.211C741.51 981.749 800.385 974.387 859.26 973.94C897.172 973.717 924.157 957.209 952.479 936.907C973.888 921.737 983.255 903.889 980.802 878.234C979.464 863.51 979.464 848.562 978.349 833.838C977.234 819.784 973.888 805.729 974.111 791.674C974.334 780.073 979.91 768.695 979.91 757.095C980.356 724.969 979.018 692.621 978.572 660.495C978.126 609.407 977.011 558.319 977.457 507.231C977.68 476.221 980.802 445.211 981.471 414.201C982.363 377.391 979.464 340.134 982.809 303.77C985.708 272.091 983.478 243.312 966.306 215.872C958.278 202.933 952.702 188.432 944.228 175.938C937.984 166.568 930.178 154.522 920.812 152.067C887.137 143.144 852.793 134.889 818.226 131.543C765.595 126.635 712.296 125.296 659.442 123.958C604.581 122.396 549.274 119.273 494.636 122.619C437.322 126.189 380.231 136.897 323.14 143.813C275.192 149.39 227.022 153.629 179.074 158.983C129.565 164.784 94.7755 203.825 96.7826 251.79C98.1207 284.808 99.0127 318.048 104.142 350.62C117.3 434.28 115.516 518.385 117.969 602.491C121.314 712.476 126.889 822.461 132.018 932.445C132.242 938.692 134.249 946.5 138.486 950.739C164.132 976.171 192.009 1000.04 230.144 1000.49C287.012 1001.16 343.88 999.373 400.748 997.142C494.636 993.35 588.524 988.441 682.412 983.98Z" fill="white"/>
<path d="M542.361 631.27C538.569 625.693 536.785 619.223 536.785 612.754C536.785 598.922 537.9 573.043 545.483 552.295C556.41 522.401 583.395 509.462 573.136 465.736C562.878 422.009 524.966 424.24 524.966 424.24C524.966 424.24 473.896 418.44 463.414 454.581C452.933 490.722 446.912 494.961 458.062 555.196C458.062 555.196 471.443 570.812 457.616 600.93C457.616 600.93 449.811 633.724 453.602 674.773C454.048 679.235 454.717 670.535 453.602 674.773C451.818 682.135 447.135 708.683 440.89 731.216C430.409 768.695 425.725 794.351 425.725 794.351C425.725 794.351 420.596 836.515 430.632 875.11C440.667 913.928 461.63 864.402 461.63 864.402L505.564 747.725L522.513 677.004C522.513 677.004 551.504 737.462 644.277 719.169C737.05 700.875 770.279 579.736 770.279 579.736C770.279 579.736 798.601 524.632 772.732 408.624C751.992 315.817 652.752 287.485 617.739 276.776C617.739 276.776 617.739 276.776 617.516 276.776C613.278 276.107 438.66 250.005 349.455 390.776C259.135 533.109 344.326 640.863 374.656 641.532C402.532 642.202 411.676 632.386 407.438 602.268C406.769 597.137 404.539 592.452 401.194 588.436C388.259 574.159 355.923 527.309 381.792 443.203C413.683 339.911 533.44 328.757 596.106 340.134C658.996 351.512 704.713 395.685 700.03 486.037C695.347 576.389 695.793 648.671 609.264 662.726C609.041 662.503 573.805 678.343 542.361 631.27Z" fill="white"/>
</svg>
