<svg width="954" height="954" viewBox="0 0 954 954" fill="none" xmlns="http://www.w3.org/2000/svg">
<path d="M787.025 580.746C781.365 581.16 775.705 581.437 770.046 581.851C759.141 582.541 748.237 583.231 737.332 583.921C727.669 584.611 717.869 585.716 708.206 585.992C699.51 586.268 690.676 586.406 681.841 585.716C666.243 584.611 650.645 585.716 635.047 585.992C624.971 586.13 614.756 584.749 604.679 585.854C593.775 586.958 582.87 587.372 571.965 587.924C568.238 588.062 564.511 587.51 560.922 587.648C556.919 587.786 552.778 588.062 548.775 588.614C547.671 588.752 546.152 590.271 545.738 591.513C539.94 609.458 538.836 627.402 544.772 645.623C546.981 652.525 549.327 659.289 551.949 665.914C554.296 672.126 558.299 675.991 563.683 679.028C574.725 685.515 584.526 693.384 592.118 703.736C594.465 707.049 596.398 710.776 598.054 714.503C600.677 720.853 603.299 727.202 604.956 733.69C606.198 738.521 605.784 743.767 606.06 748.736C606.336 753.291 603.851 756.328 599.986 757.846C595.845 759.503 591.566 761.021 587.149 761.711C580.385 762.678 573.483 762.954 566.72 763.368C550.707 764.472 534.833 766.128 519.097 768.613C507.364 770.408 495.493 771.926 483.622 772.616C475.064 773.168 466.506 772.202 457.948 771.65C446.215 770.96 434.619 771.788 422.886 772.754C418.607 773.168 414.328 772.616 410.049 772.202C404.389 771.65 398.868 770.408 393.208 769.993C388.791 769.717 384.236 769.855 379.819 770.131C374.16 770.546 368.5 771.236 362.979 771.65C357.457 772.064 352.764 769.579 348.485 766.405C344.896 763.782 344.482 759.779 346.138 756.328C353.592 741.696 357.871 725.684 367.948 712.432C374.022 704.426 379.819 696.006 385.203 687.448C387.273 684.273 387.964 680.132 388.93 676.405C392.933 661.221 395.417 645.899 394.865 630.025C394.727 623.537 395.003 617.188 394.727 610.7C394.589 606.835 393.485 602.97 392.794 599.243C392.242 596.344 390.31 594.964 387.411 594.964C378.853 594.688 370.295 593.998 361.598 594.136C355.663 594.136 349.589 595.378 343.654 595.516C330.954 595.93 318.255 595.93 305.556 596.206C304.038 596.206 302.519 596.62 300.863 596.62C292.718 597.035 284.437 597.725 276.292 597.587C269.667 597.449 263.041 598.001 256.553 599.105C249.099 600.347 241.507 601.176 233.915 601.728C219.697 602.832 205.48 602.556 191.4 604.212C173.456 606.421 155.235 606.697 137.014 607.663C134.253 607.801 131.631 607.387 128.87 607.111C125.281 606.697 121.968 605.593 120.036 602.142C119.898 602.004 119.76 601.728 119.622 601.728C110.65 595.654 108.303 586.406 106.646 576.605C105.542 570.256 103.748 564.044 102.643 557.694C100.849 547.618 100.987 537.403 99.4685 527.189C98.6403 521.391 98.2261 515.593 97.6739 509.658C95.0513 483.845 92.4287 458.033 89.806 432.22C88.7017 420.763 88.0116 409.306 86.7693 397.849C85.665 386.392 84.1466 374.935 83.0424 363.478C82.6282 359.337 82.4901 355.334 82.214 351.193C82.214 350.089 82.3519 348.846 82.0758 347.742C78.3489 332.696 79.3154 317.098 76.8307 301.914C75.3124 292.666 75.7262 283.279 75.174 273.893C74.4839 262.85 73.2417 251.807 72.9657 240.626C72.5516 225.028 72.9655 209.43 72.8275 193.832C72.8275 189.967 72.4135 186.102 71.8613 182.237C70.3429 171.608 69.2388 160.98 69.929 150.213C70.7572 139.722 71.4474 129.231 74.07 119.017C76.8307 108.526 80.2816 98.4494 86.7693 89.7531C88.9778 86.8544 91.7385 84.2317 94.6372 82.0231C102.091 76.5017 107.751 71.3944 117.551 69.5999C127.214 67.9435 136.6 65.7349 146.401 65.4588C147.781 65.4588 149.023 64.6306 150.266 64.3546C153.993 63.6644 157.72 62.422 161.585 64.7687C162.965 65.5969 165.035 65.5969 166.692 65.5969C178.701 65.3208 190.848 64.9067 202.857 64.6306C204.928 64.6306 207.136 65.1828 209.207 65.3208C214.59 65.5969 219.974 65.3208 225.495 64.4926C230.879 63.8024 236.4 65.0447 241.783 65.0447C248.961 64.9067 256.139 64.0785 263.455 64.0785C274.36 64.2165 285.265 64.9067 296.169 65.0447C309.835 65.1828 323.5 65.1828 337.166 64.9067C351.936 64.6306 366.844 64.0785 381.613 63.3883C390.586 62.9742 399.42 61.7319 408.392 61.3178C418.469 60.7656 428.684 60.6276 438.76 60.4895C448.285 60.3515 457.809 60.4895 467.334 60.3515C479.481 60.2135 491.49 59.7994 503.637 59.5233C504.741 59.5233 505.984 59.3853 507.088 59.5233C534.833 61.4558 562.44 58.6951 590.186 58.1429C602.333 57.8669 614.342 57.0386 626.351 55.9344C636.29 54.9681 646.09 53.1737 655.891 52.0694C667.348 50.827 678.805 49.9988 690.262 48.8945C691.228 48.7565 692.194 48.7565 693.16 48.6185C706.964 45.3056 721.182 46.824 735.123 45.8578C740.783 45.4437 746.442 45.1676 751.964 45.4436C762.869 45.8578 773.773 46.4099 784.678 47.5142C792.408 48.3424 798.068 53.4497 802.899 59.1092C809.525 66.8392 812.423 75.9495 812.837 85.8881C812.837 87.4065 813.389 88.9249 813.665 90.4433C813.803 92.3758 814.494 94.5844 813.942 96.2408C811.181 103.833 813.252 111.287 813.942 118.741C814.632 126.471 816.012 134.201 816.702 141.931C818.083 156.424 819.325 171.056 821.948 185.412C822.914 191.209 823.19 197.007 823.742 202.942C825.261 217.574 826.779 232.068 828.159 246.7C828.987 255.672 829.126 264.644 829.678 273.479C831.058 292.39 832.438 311.301 833.819 330.073C834.371 337.113 835.199 344.015 835.889 351.055C835.889 351.607 836.027 352.297 835.889 352.849C833.681 368.171 837.269 383.217 836.993 398.401C836.717 410.824 838.788 422.971 840.03 435.119C841.135 446.576 843.205 457.895 844.723 469.213C846.518 483.155 847.899 497.097 847.76 511.176C847.622 520.977 848.036 530.639 848.036 540.44C848.036 549.826 845.552 558.661 841.549 566.943C838.512 573.292 831.748 575.087 825.537 576.467C820.981 577.433 816.288 577.848 811.595 578.262C803.313 579.09 795.031 579.918 786.748 580.746C787.025 581.437 787.025 581.16 787.025 580.746ZM802.484 111.977C802.76 111.977 803.175 111.839 803.451 111.839C802.485 103.971 801.518 95.9647 800.414 88.0967C799.862 84.2317 799.586 80.2287 798.206 76.6397C794.617 67.2533 788.267 61.1797 777.638 59.9374C762.178 58.1429 746.856 60.2135 731.534 59.6613C723.39 59.3853 715.108 59.9374 706.964 60.2135C704.893 60.2135 702.685 60.6276 700.614 60.9037C690.124 62.0079 679.771 63.8024 669.28 64.2165C659.341 64.6306 649.403 65.3208 639.602 67.2533C632.976 68.4956 626.075 69.3238 619.311 69.7379C612.548 70.152 605.645 69.7379 598.882 70.1521C591.152 70.5662 583.284 71.5324 575.554 71.9465C561.336 72.6367 547.118 72.9128 532.901 73.4649C529.036 73.6029 525.171 74.0171 521.168 74.0171C504.189 73.879 487.211 73.6029 470.233 73.6029C456.705 73.6029 443.315 73.741 429.926 74.0171C419.987 74.2931 410.049 74.9833 400.11 75.5354C389.481 76.0876 378.715 76.7778 368.086 77.3299C360.908 77.606 353.73 77.4679 346.414 77.606C343.101 77.606 339.789 78.1581 336.476 78.2962C323.639 78.4342 310.663 78.4342 297.826 78.2962C291.476 78.2962 284.989 77.882 278.639 77.606C275.188 77.4679 271.599 77.1919 268.148 77.1919C261.384 77.3299 254.482 78.0201 247.719 78.0201C237.228 78.0201 226.738 77.0538 216.247 79.2624C213.072 79.9526 209.621 79.5385 206.308 79.5385C202.443 79.6765 198.578 79.6765 194.575 79.9526C187.811 80.5047 181.048 81.609 174.146 82.0231C168.072 82.2992 161.999 81.609 156.063 81.747C152.474 81.8851 149.161 82.5753 146.125 79.9526C145.158 79.1244 143.088 79.4005 141.569 79.5385C138.809 79.8146 136.048 79.9526 133.425 80.6428C125.833 82.4372 117.689 83.2654 110.926 86.7163C96.2937 93.8942 89.806 106.87 86.0791 123.158C82.4901 139.17 82.0758 155.182 82.766 171.332C82.766 172.713 83.3182 173.955 83.4562 175.335C84.0083 178.924 84.9749 182.513 85.1129 186.24C85.527 205.013 84.8366 223.786 86.2169 242.421C88.0114 266.577 88.4256 290.733 91.8765 314.751C93.947 329.107 94.4991 343.877 95.8794 358.371C96.8457 368.723 98.3641 378.938 99.3303 389.153C100.987 404.889 100.573 420.487 102.229 436.223C102.781 441.33 103.886 446.3 104.3 451.269C105.542 465.625 106.37 479.98 107.751 494.336C108.855 505.931 110.511 517.526 111.754 529.259C112.582 537.541 114.1 545.685 115.343 553.829C116.723 563.216 118.932 572.602 121.278 581.851C123.625 590.823 129.56 595.102 138.947 595.102C155.097 595.102 171.385 594.55 187.397 592.341C204.1 589.995 220.664 588.614 237.504 589.029C243.578 589.167 249.513 587.924 255.449 586.544C260.004 585.44 264.697 584.749 269.252 584.749C279.329 584.749 289.406 585.164 299.62 583.783C306.522 582.817 313.562 583.369 320.602 583.231C328.884 583.093 337.166 582.955 345.448 582.817C353.04 582.541 360.632 582.127 368.224 581.989C372.089 581.851 375.954 582.265 379.957 582.265C388.378 582.403 396.659 582.265 405.08 582.403C408.53 582.403 412.119 583.093 415.57 582.955C423.991 582.817 432.273 582.541 440.693 582.127C446.629 581.851 452.564 580.884 458.638 580.47C467.472 579.918 476.582 580.056 485.278 578.814C499.22 576.881 513.162 575.501 527.241 575.225C535.385 575.087 543.53 574.811 551.674 574.673C555.401 574.535 558.99 574.673 562.717 574.535C575.002 574.121 587.287 573.568 599.572 573.016C607.302 572.74 615.17 572.05 622.9 571.912C633.391 571.774 643.882 571.912 654.372 572.05C658.789 572.05 663.345 571.912 667.762 572.05C678.253 572.326 688.743 573.016 699.234 572.878C705.584 572.878 711.933 571.636 718.421 570.946C719.801 570.808 721.181 571.084 722.562 571.084C729.326 570.67 736.228 570.118 742.992 569.565C747.409 569.151 751.826 568.461 756.105 568.461C764.663 568.599 773.083 567.633 781.503 565.977C784.816 565.286 788.405 564.872 791.58 565.562C800.966 567.771 810.215 565.839 819.325 564.734C825.537 564.044 830.23 560.041 832.025 552.725C833.543 546.099 835.889 539.75 834.923 532.71C834.785 532.02 835.061 531.191 835.061 530.363C835.199 518.63 835.475 506.897 835.337 495.302C835.337 489.919 835.061 484.259 833.957 479.014C831.886 468.385 831.61 457.342 828.159 446.99C828.021 446.438 828.297 445.885 828.297 445.333C828.435 441.054 829.125 436.775 828.711 432.496C827.607 420.901 825.951 409.306 824.846 397.711C824.018 388.048 823.328 378.248 823.328 368.585C823.328 358.509 823.466 348.432 822.638 338.218C821.119 319.997 819.601 301.638 818.358 283.279C817.53 271.546 816.979 259.951 816.15 248.218C815.046 234.829 813.942 221.301 812.561 207.912C810.905 192.728 808.835 177.682 807.178 162.636C806.35 154.906 805.798 147.038 805.108 139.308C804.279 130.336 803.451 121.225 802.484 111.977ZM361.875 756.742C368.086 757.57 373.883 756.742 379.543 756.328C382.994 756.052 386.583 755.638 390.034 755.914C394.451 756.19 398.868 757.294 403.285 757.708C410.877 758.536 418.193 759.779 425.923 758.536C439.589 756.466 453.53 756.328 467.334 757.984C478.515 759.365 489.42 758.26 500.462 756.466C504.88 755.776 509.159 754.119 513.714 755.362C514.542 755.638 515.646 755.086 516.475 754.948C535.248 751.221 554.296 750.116 573.345 748.46C577.624 748.046 581.904 747.77 586.183 747.079C591.428 746.251 592.809 743.905 591.152 738.935C590.186 735.899 589.081 733 588.253 730.101C583.974 715.469 575.278 704.288 562.165 696.144C557.195 693.107 552.088 692.141 546.566 692.831C533.453 694.35 520.201 695.868 507.088 697.525C500.738 698.353 494.389 700.009 488.039 700.009C473.407 700.147 458.775 699.319 444.282 699.043C433.377 698.767 422.472 698.353 411.567 700.147C407.15 700.838 402.733 701.942 398.316 702.356C393.209 702.77 389.344 705.393 386.721 709.258C381.476 716.85 376.368 724.718 371.537 732.724C367.258 739.902 363.393 747.218 361.875 756.742ZM406.874 597.035C407.15 600.209 407.427 602.97 407.565 605.593C407.979 616.912 409.083 628.231 408.53 639.412C407.978 650.316 405.632 661.083 403.976 671.85C403.561 674.887 402.733 677.924 402.181 680.96C401.352 684.963 402.457 686.344 406.598 686.206C408.116 686.206 409.635 685.792 411.291 685.516C414.328 685.101 417.503 684.411 420.54 684.411C435.724 684.549 450.908 684.963 466.092 685.101C476.168 685.239 486.383 686.482 496.321 683.859C502.671 682.203 509.02 682.341 515.37 681.651C523.514 680.822 531.383 678.89 539.389 677.233C539.803 677.095 540.217 676.543 540.493 676.129C537.456 666.605 534.419 657.218 531.244 647.832C528.069 638.445 527.241 628.645 527.379 618.982C527.517 609.182 529.726 599.519 531.107 589.581C525.861 587.786 520.615 587.924 515.37 588.476C505.431 589.443 495.631 590.823 485.83 591.927C480.999 592.479 476.03 592.617 471.199 592.894C463.469 593.446 455.601 594.412 447.871 594.688C436 595.24 424.129 595.516 412.12 595.93C410.739 596.482 409.083 596.759 406.874 597.035Z" fill="white" stroke="white" stroke-width="11" stroke-miterlimit="10"/>
<path d="M767.56 124.814C766.042 137.79 769.079 150.489 769.907 163.464C770.597 174.231 772.944 184.722 773.22 195.489C773.496 208.878 775.705 222.268 776.671 235.657C777.775 250.703 778.327 265.749 779.293 280.795C779.708 287.006 780.398 293.356 780.812 299.568C781.226 305.641 781.64 311.715 782.054 317.788C782.882 329.383 783.987 340.978 784.677 352.711C785.091 360.165 784.953 367.757 785.643 375.211C786.333 383.769 787.713 392.19 788.68 400.748C789.094 404.613 789.508 408.616 789.37 412.481C789.094 419.659 789.922 426.699 791.026 433.876C792.131 441.33 792.683 448.784 792.959 456.238C793.373 464.382 793.235 472.664 793.373 480.809C793.511 487.848 793.097 494.888 792.407 501.928C791.993 507.173 792.821 512.557 792.821 517.94C792.821 526.084 790.198 528.983 784.125 529.673C779.846 530.087 775.704 531.192 771.425 532.02C768.802 532.572 766.318 532.848 763.557 532.296C760.935 531.744 758.036 532.986 755.275 533.262C749.892 533.676 744.646 533.814 739.263 534.228C734.57 534.643 729.876 535.471 725.183 536.161C723.389 536.437 721.456 536.851 719.8 536.437C713.726 534.919 707.791 536.575 701.855 537.265C695.92 537.817 689.708 537.127 683.635 537.265C671.626 537.403 659.617 537.817 647.607 537.955C642.776 537.955 637.945 537.403 633.114 537.265C620.967 536.989 608.681 536.713 596.534 536.437C591.703 536.299 586.872 535.471 582.04 535.333C573.068 535.195 564.096 535.195 555.124 535.195C550.706 535.195 546.151 534.781 541.734 535.195C533.728 535.885 525.722 536.713 517.716 537.817C505.983 539.474 494.388 541.682 482.655 543.477C479.48 544.029 476.167 544.167 472.992 544.029C467.333 543.753 461.949 544.581 456.428 545.409C449.664 546.376 442.9 546.514 436.136 547.066C435.998 547.066 435.722 547.066 435.584 547.066C424.542 548.998 413.36 547.618 402.318 548.17C384.925 548.998 367.671 550.793 350.278 551.897C341.858 552.449 333.438 552.035 325.018 552.587C300.309 554.244 275.463 551.897 250.755 552.035C232.258 552.035 213.899 552.173 195.402 553.277C186.292 553.83 177.043 553.277 167.933 552.725C161.583 552.311 160.203 550.793 159.513 544.443C158.823 538.37 158.409 532.296 158.132 526.222C157.166 508.278 156.614 490.471 155.51 472.526C154.958 462.312 153.715 452.235 152.887 442.021C151.921 430.011 151.093 418.002 150.264 406.131C149.436 393.156 149.574 380.042 147.504 367.067C146.123 358.785 146.4 350.227 145.847 341.807C144.605 325.242 143.087 308.54 142.258 291.976C141.706 281.623 139.774 271.408 140.602 260.918C141.154 253.602 139.774 246.286 139.498 238.97C139.084 229.998 138.531 221.025 138.807 212.053C139.222 200.458 138.255 189.139 136.737 177.682C135.633 168.848 135.219 159.875 134.666 150.903C134.252 144.968 133.838 139.17 133.7 133.234C133.562 129.646 133.7 126.057 134.114 122.606C134.252 121.225 135.495 119.431 136.737 119.017C142.12 117.222 147.504 114.324 152.887 119.155C153.991 120.121 156.338 120.121 157.994 119.707C173.04 116.67 188.224 116.808 203.408 114.876C215.003 113.357 226.598 112.667 238.193 111.839C244.267 111.425 250.34 111.563 256.552 111.425C263.868 111.287 271.184 111.011 278.638 110.873C280.57 110.873 282.641 110.459 284.573 110.873C297.825 113.633 310.938 109.768 324.19 110.182C328.469 110.321 332.61 108.802 336.889 108.388C340.616 108.112 344.343 108.25 348.208 108.25C355.524 108.112 362.84 107.974 370.156 107.698C370.984 107.698 371.95 107.698 372.778 107.698C378.161 107.56 383.545 107.974 388.79 107.146C395.968 106.041 403.008 106.179 410.186 106.456C417.64 106.594 425.232 107.008 432.685 106.456C443.176 105.765 453.391 106.732 463.744 107.698C474.648 108.802 485.553 109.768 496.458 109.216C504.326 108.802 512.195 108.526 520.063 108.388C522.961 108.388 525.722 109.354 528.62 109.216C539.525 108.802 550.43 108.25 561.335 107.56C574.863 106.732 588.528 106.179 602.056 105.075C615.583 103.971 629.249 104.937 642.776 102.314C647.469 101.348 652.439 101.9 657.27 101.348C671.902 99.8298 686.671 99.8298 701.303 99.1396C706.273 99.0016 711.38 99.4157 716.349 99.5537C725.873 99.6918 735.398 99.6918 744.784 99.5537C747.959 99.5537 751.272 99.1396 754.447 98.7255C760.797 97.7593 766.594 102.314 767.147 108.802C767.423 111.701 767.422 114.6 767.422 117.36C767.56 119.431 767.56 122.192 767.56 124.814ZM754.033 111.149C738.849 110.873 724.493 110.459 710.137 110.459C697.024 110.459 683.911 110.597 670.935 111.287C651.748 112.391 632.699 114.048 613.512 115.428C610.614 115.566 607.715 116.118 604.955 115.98C591.289 114.876 577.762 117.636 564.234 118.327C554.019 118.879 543.943 119.983 533.728 120.811C532.486 120.949 531.243 120.673 530.001 120.535C523.099 119.155 516.059 119.155 509.157 120.121C507.777 120.259 506.396 120.259 505.016 120.259C499.081 120.397 493.145 120.397 487.348 120.535C485.415 120.535 483.345 120.949 481.413 120.673C475.339 119.983 469.403 118.741 463.33 118.327C453.667 117.774 444.005 117.636 434.342 117.36C426.336 117.222 418.192 117.36 410.186 117.222C404.803 117.222 399.419 116.946 394.174 117.222C382.303 117.774 370.569 118.741 358.836 119.431C355.8 119.569 352.763 119.431 349.726 118.879C344.343 117.913 338.959 118.741 333.714 119.569C330.539 120.121 327.364 120.535 324.19 120.811C316.46 121.363 308.73 121.639 301.138 122.054C297.963 122.192 294.788 122.606 291.475 122.468C288.438 122.468 285.401 121.639 282.365 121.777C276.291 121.916 270.218 122.606 264.144 122.744C253.929 122.882 243.715 122.882 233.5 122.882C231.706 122.882 229.911 123.296 228.117 123.434C221.629 123.848 215.279 124.262 208.792 124.676C206.445 124.814 204.098 125.09 201.89 125.366C191.813 126.333 181.598 127.299 171.522 128.403C165.448 129.093 159.513 130.198 153.439 131.026C151.369 131.302 150.265 132.406 149.988 134.477C149.298 139.722 147.918 145.106 147.78 150.351C147.366 159.185 148.332 167.881 149.712 176.578C150.678 182.927 150.954 189.415 151.092 195.903C151.231 202.666 150.403 209.568 150.679 216.332C151.507 233.034 153.439 249.599 153.163 266.301C153.025 273.479 154.129 280.657 154.682 287.697C155.234 293.218 156.062 298.739 156.476 304.261C157.304 315.166 157.718 326.07 158.547 336.975C159.237 347.466 160.203 357.957 161.031 368.586C161.722 379.628 162.412 390.809 162.964 401.852C163.24 407.788 163.24 413.723 163.792 419.521C164.62 428.493 166.276 437.327 166.967 446.162C167.795 458.309 167.933 470.594 168.485 482.741C169.175 496.131 170.003 509.52 170.832 523.048C171.108 527.327 171.384 531.606 171.66 535.885C171.936 539.474 174.007 541.682 176.767 541.682C184.083 541.682 191.399 541.682 198.715 541.682C213.071 541.82 227.288 539.06 241.644 540.302C250.478 540.992 259.589 540.578 268.423 540.716C282.779 540.992 297.135 541.406 311.49 541.544C315.769 541.544 320.048 540.716 324.327 540.578C332.886 540.302 341.582 540.164 350.14 539.75C364.082 539.06 378.023 538.37 391.965 537.541C394.726 537.403 397.625 535.747 400.385 536.023C414.879 537.265 429.373 535.747 443.867 534.919C448.284 534.643 452.701 534.228 457.256 533.676C461.673 533.262 466.09 532.158 470.507 532.158C478.513 532.296 486.105 530.778 493.973 529.673C513.436 526.636 532.623 521.805 552.638 522.633C562.301 523.048 572.102 521.943 581.626 522.91C591.427 524.014 601.366 524.29 611.166 524.152C627.454 523.876 643.742 524.98 660.031 524.566C679.77 523.876 699.509 524.842 719.11 522.357C724.217 521.667 729.463 522.081 734.57 521.529C742.576 520.839 750.582 519.873 758.588 519.045C763.005 518.492 767.423 517.94 771.84 517.112C773.22 516.836 775.29 515.87 775.704 514.765C777.361 510.486 779.018 506.069 779.432 501.514C779.708 498.063 779.018 494.612 779.57 491.023C780.26 485.64 779.984 479.98 779.984 474.459C779.846 467.557 779.846 460.517 779.432 453.616C778.741 443.677 777.637 433.6 776.809 423.662C776.119 414.966 775.843 406.131 775.152 397.435C774.6 390.533 773.358 383.631 772.805 376.592C772.115 367.619 772.115 358.647 771.563 349.675C770.321 330.35 768.941 311.025 767.699 291.7C767.008 279.69 766.594 267.681 766.042 255.81C765.628 247.252 765.076 238.556 764.386 229.998C764.11 225.718 762.867 221.439 763.005 217.16C763.144 200.734 760.244 184.722 758.45 168.434C756.932 153.526 754.447 138.618 755.966 123.434C755.966 119.569 754.585 115.428 754.033 111.149Z" fill="white" stroke="white" stroke-width="11" stroke-miterlimit="10"/>
<path d="M817.668 898.919C811.456 903.612 802.346 898.229 798.481 908.03C793.098 903.612 787.991 904.993 782.745 906.373C780.951 906.787 778.466 906.097 776.81 905.131C772.117 902.508 767.147 902.508 762.316 903.474C751.135 905.407 739.954 904.579 728.911 903.06C718.283 901.542 707.93 902.784 697.577 904.441C694.954 904.855 692.332 905.131 689.571 905.407C685.016 905.959 680.461 906.649 675.906 906.649C669.832 906.649 663.62 906.787 657.685 905.683C650.369 904.303 643.053 902.784 636.566 898.367C629.664 893.674 625.798 887.324 625.246 878.628C624.832 870.622 624.556 862.616 624.418 854.61C624.418 851.987 625.108 849.364 625.246 846.604C625.936 836.665 626.212 826.865 627.179 816.926C628.007 807.954 629.249 798.981 630.906 790.147C633.943 773.583 637.117 757.018 640.982 740.592C642.639 733.69 646.228 727.341 648.574 720.577C653.544 706.497 664.449 699.734 675.768 693.108C688.605 685.654 702.685 684.136 716.488 681.237C720.215 680.409 724.08 680.27 727.807 679.718C727.945 679.718 728.221 679.856 728.359 679.718C732.5 675.439 736.917 678.338 741.335 678.89C743.957 679.166 746.718 678.338 749.34 678.476C756.518 678.89 763.697 679.442 770.598 679.994C771.565 678.338 772.254 677.096 772.806 676.267C773.359 676.129 773.635 675.991 773.773 675.991C780.123 679.58 786.887 673.369 793.374 676.958C794.479 677.51 795.997 676.958 797.377 677.096C804.417 677.786 811.457 678.338 818.496 679.166C821.947 679.58 825.261 680.547 828.573 678.476C829.126 678.062 830.23 677.924 830.644 678.338C833.681 681.375 835.889 678.338 837.269 677.648C841.272 678.476 844.585 678.89 847.484 679.856C849.416 680.409 851.625 681.513 852.592 683.169C855.49 688 858.251 692.97 860.183 698.353C862.944 706.221 866.119 713.951 866.671 722.648C866.947 727.893 867.637 733 871.088 737.141C871.778 737.969 872.193 739.488 872.055 740.592C871.226 749.564 871.778 758.261 875.367 766.543C876.058 768.199 875.92 770.546 875.506 772.478C874.677 776.896 875.644 780.484 878.266 784.073C877.714 785.178 877.024 786.282 876.748 786.972C877.714 790.561 878.68 793.598 879.647 797.325C884.616 800.224 884.891 801.604 882.545 807.954C881.717 810.024 881.855 812.647 881.993 815.131C882.269 819.825 882.821 824.518 883.098 829.073C883.098 830.039 883.097 831.42 882.545 831.972C880.474 834.595 878.818 837.217 880.751 840.668C880.889 840.944 880.889 841.634 880.612 841.91C877.714 846.466 879.784 852.125 877.852 856.68C874.263 865.238 874.677 875.315 869.156 882.907C865.291 888.29 861.563 894.088 854.248 894.916C853.143 895.054 852.039 895.744 851.211 896.573C849.417 898.229 847.622 897.953 845.413 897.953C839.892 897.815 834.094 898.091 829.401 901.266C824.156 904.303 821.119 902.646 817.668 898.919ZM863.634 820.653C862.392 819.135 861.425 817.892 860.459 816.65C859.217 814.993 858.803 813.199 860.183 811.542C862.116 809.058 861.425 806.849 860.459 804.089C859.493 801.328 859.079 797.877 859.769 795.116C861.149 788.905 859.77 782.831 859.631 776.619C859.631 775.653 859.079 774.549 858.389 773.997C855.076 770.822 855.214 767.233 856.733 763.23C857.975 759.917 857.285 756.88 856.042 753.567C854.524 749.564 850.659 745.838 854.662 741.006C854.938 740.592 854.662 739.35 854.524 738.66C853.282 734.381 852.039 729.963 850.797 725.684C849.968 722.786 849.14 719.887 848.312 716.85C846.932 711.743 846.518 706.359 844.033 701.666C842.515 698.629 840.858 697.249 837.408 697.249C831.058 697.111 824.57 696.283 818.221 695.04C811.043 693.66 804.003 691.866 796.825 693.246C792.546 694.074 788.266 695.454 783.849 695.592C775.291 695.869 766.733 695.04 758.175 695.454C742.715 696.283 727.255 696.559 711.795 698.767C696.611 700.838 682.669 705.807 670.384 715.47C663.206 720.991 659.756 729.135 657.271 737.969C659.065 741.558 656.442 743.767 654.924 746.252C654.372 747.218 653.682 748.46 653.544 749.564C652.715 754.948 652.026 760.469 651.197 765.991C650.645 769.166 649.817 772.34 648.989 775.515C648.161 779.104 647.056 782.555 646.366 786.144C645.814 789.319 645.537 792.494 645.123 795.806C644.709 799.395 641.673 802.984 644.571 806.849C644.709 807.125 644.571 807.677 644.571 808.092C643.881 811.266 643.053 814.441 642.639 817.616C641.949 822.723 641.12 827.831 641.12 832.938C640.982 838.045 641.258 843.015 640.292 848.122C639.602 851.711 640.155 855.438 640.155 859.165C640.155 860.407 641.121 861.926 640.707 862.754C638.774 867.171 640.844 871.312 642.363 874.487C644.433 878.766 648.436 882.079 651.611 885.806C651.749 885.944 652.025 885.944 652.163 885.944C655.338 884.563 657.547 887.186 660.032 888.29C663.344 889.947 666.519 890.223 669.97 888.705C671.626 888.014 673.697 888.428 675.491 888.428C676.457 888.428 677.7 889.257 678.252 888.705C680.599 886.496 682.945 887.6 685.292 888.152C686.258 888.29 687.638 888.014 688.605 887.324C695.23 883.183 702.685 884.149 709.724 884.011C716.212 883.873 722.699 887.738 729.325 884.425C729.739 884.149 730.43 884.425 730.982 884.563C735.261 885.116 739.678 885.944 743.957 886.22C746.718 886.358 749.617 885.53 752.377 885.53C758.037 885.53 763.42 885.392 768.942 883.459C772.669 882.079 777.224 882.907 781.503 883.183C788.543 883.459 794.616 881.389 798.758 875.453C802.761 875.729 806.35 876.281 809.939 876.005C814.908 875.591 819.739 874.625 824.708 873.659C827.331 873.106 829.539 872.968 831.058 876.143C831.472 876.972 832.99 877.524 833.957 877.524C837.546 877.662 841.272 877.524 844.861 877.524C845.414 877.524 845.828 877.11 846.38 876.833C846.518 875.039 846.518 873.245 846.656 871.174C851.901 870.898 854.662 868.413 853.834 862.616C853.696 861.649 854.938 860.131 855.766 859.303C861.426 854.334 861.564 853.643 859.355 846.051C857.423 839.564 857.009 833.214 860.874 827.141C861.84 825.484 862.53 823.276 863.634 820.653Z" fill="white" stroke="white" stroke-width="4" stroke-miterlimit="10"/>
<path d="M801.795 766.957C799.172 770.96 800.139 775.653 799.862 780.484C799.586 786.144 800 792.355 795.583 797.048C794.341 798.291 794.479 800.913 793.651 802.846C790.614 809.334 787.992 816.097 783.436 821.619C782.194 823.137 782.056 825.898 781.089 827.83C778.881 831.972 775.292 834.87 772.532 838.459C767.976 844.395 762.455 848.95 756.658 852.953C747.271 859.579 736.642 861.097 725.599 858.474C717.731 856.542 711.934 851.711 707.655 844.533C707.103 843.566 706.136 842.6 705.308 841.91C699.372 836.941 697.302 830.315 696.474 822.585C695.646 814.303 696.474 806.159 696.75 797.877C696.75 796.634 696.888 795.116 697.44 794.288C701.443 789.18 701.029 782.969 701.995 777.033C702.823 771.788 703.79 765.99 708.759 762.678C709.311 762.263 710.139 761.573 710.277 760.883C712.21 752.187 720.078 749.426 724.633 743.353C726.013 741.42 728.912 738.659 732.087 741.558C732.225 741.696 732.501 741.834 732.639 741.834C736.642 737.693 742.164 740.868 746.719 738.107C748.927 736.727 752.24 737.003 755.001 736.727C757.209 736.451 759.556 736.313 761.903 736.313C764.525 736.313 767.424 733.828 769.771 737.279C769.909 737.555 770.875 737.417 771.427 737.279C781.504 733.828 787.578 739.487 792.547 748.046C794.755 751.911 796.964 755.638 798.068 760.193C798.482 762.263 800.414 764.334 801.795 766.957ZM713.038 804.502C713.728 810.024 714.142 815.545 714.97 820.929C715.385 823.413 717.317 824.656 719.664 824.656C722.7 824.656 725.737 824.794 728.774 824.794C729.74 824.794 730.707 824.656 731.535 824.103C733.743 822.585 735.952 821.067 737.885 819.272C740.093 817.34 742.164 815.683 742.578 811.956C742.854 809.334 744.924 806.849 746.029 804.364C747.685 800.913 749.341 797.601 750.86 794.012C751.412 792.769 751.136 790.975 751.964 790.009C755.691 785.453 755.415 779.518 756.796 774.134C757.624 770.96 758.037 767.233 755.553 764.058C755.139 763.506 755.139 762.539 755.001 761.711C754.449 756.742 752.931 755.5 748.514 756.328C746.719 756.742 744.786 756.88 742.854 756.742C738.989 756.466 735.676 757.018 732.915 760.331C732.225 761.297 731.121 761.987 730.154 762.539C726.013 764.748 723.115 767.923 721.458 772.754C720.354 776.205 718.698 779.518 718.008 783.107C717.041 790.147 712.9 796.634 713.038 804.502ZM779.847 769.855C777.915 772.754 776.12 775.377 774.326 778.138C776.672 788.352 776.673 788.352 770.599 791.941C769.633 795.254 772.808 798.705 770.461 802.018C769.495 803.536 769.219 805.331 770.875 806.159C772.669 806.987 774.188 805.883 774.878 803.95C775.568 802.294 775.844 800.223 776.948 798.843C779.571 795.668 780.538 791.941 780.676 788.076C780.676 783.383 780.814 778.828 782.608 774.272C783.298 772.478 783.022 770.131 779.847 769.855Z" fill="white" stroke="white" stroke-miterlimit="10"/>
</svg>
