<svg width="1120" height="1121" viewBox="0 0 1120 1121" fill="none" xmlns="http://www.w3.org/2000/svg">
<path d="M62.5305 602.491C59.1723 521.336 54.3217 440.367 52.8292 359.212C51.8964 315.743 56.7472 272.273 58.0531 228.617C58.6128 212.2 58.053 195.595 55.6277 179.364C49.8442 141.305 66.8214 106.977 92.3807 88.1344C115.142 71.3437 146.298 60.1497 178.2 53.9931C238.647 42.6127 297.788 55.1125 357.302 52.8738C384.167 51.941 411.032 45.2247 437.898 44.4784C461.778 43.7321 485.844 47.4635 509.911 48.956C522.224 49.7022 534.724 50.4486 547.038 50.4486C592.373 50.262 637.894 50.0753 683.229 49.1425C712.706 48.5828 742.37 46.1575 771.847 45.4112C830.428 43.7321 889.009 42.0531 947.591 41.6799C982.851 41.4934 1007.1 62.5752 1015.69 98.2089C1021.47 122.462 1026.13 146.902 1032.29 170.969C1034.9 180.857 1040.31 190.185 1044.42 199.7C1046.1 203.804 1048.71 207.909 1049.08 212.199C1054.3 280.482 1061.21 348.764 1063.45 417.233C1066.43 509.583 1064.38 602.118 1067.36 694.468C1069.42 763.496 1062.14 831.592 1051.13 899.128C1046.47 928.046 1035.09 956.217 1025.2 984.015C1023.15 989.798 1014.38 993.53 1008.41 997.634C1004.31 1000.43 998.522 1001.55 995.351 1005.1C973.709 1028.42 946.284 1036.63 915.315 1037.19C904.121 1037.37 893.114 1040.73 882.106 1042.22C806.175 1051.92 730.43 1061.63 654.498 1070.95C633.79 1073.38 612.708 1072.82 592.186 1075.99C531.366 1085.51 472.785 1071.7 413.458 1062.56C397.227 1060.13 380.622 1056.77 364.391 1058.08C313.273 1062.37 262.154 1066.66 211.222 1056.77C209.916 1056.59 208.424 1056.22 207.304 1056.77C155.253 1075.06 127.642 1038.3 103.015 1005.47C89.0229 986.813 84.9181 958.829 81.1869 934.389C73.5377 882.897 66.8214 831.032 64.3961 778.981C61.5976 720.4 63.65 661.446 63.65 602.678C63.4635 602.678 62.9036 602.491 62.5305 602.491ZM139.022 681.595C138.275 681.595 137.529 681.594 136.783 681.781C141.261 740.362 148.537 798.943 148.91 857.711C149.283 895.397 165.514 922.262 185.849 950.62C200.961 971.888 218.685 981.216 244.057 978.791C258.796 977.299 273.534 977.485 288.273 976.366C302.265 975.246 316.258 971.888 330.25 972.075C341.817 972.261 353.197 977.672 364.764 977.858C396.853 978.231 428.942 976.925 461.031 976.552C511.777 975.993 562.709 975.06 613.454 975.433C644.424 975.619 675.207 978.604 706.176 979.351C742.929 980.097 779.683 977.299 816.249 980.657C847.778 983.455 876.509 981.403 903.561 964.239C916.434 956.217 930.8 950.62 943.299 942.225C952.441 936.068 964.568 928.232 967.18 918.904C976.135 885.509 984.343 851.181 987.515 816.853C992.366 764.429 993.672 711.445 995.164 658.647C996.657 603.984 999.828 548.948 996.47 494.471C992.925 437.382 982.291 380.667 975.575 323.578C969.978 275.818 965.874 227.871 960.463 180.111C954.866 130.858 915.874 96.1567 868.114 98.2089C835.279 99.7014 802.07 100.448 769.795 105.671C686.587 118.731 602.82 116.865 519.239 119.477C409.726 122.835 300.4 128.432 190.887 133.47C184.73 133.843 176.894 135.708 172.79 139.813C147.417 165.372 123.724 193.17 123.351 231.042C122.791 287.571 124.47 344.287 126.522 400.816C129.88 494.471 134.544 588.126 139.022 681.595Z" fill="white"/>
<path d="M315.326 418.539C314.02 405.293 313.46 398.577 312.714 391.861C308.796 353.988 304.878 316.302 301.147 278.43C300.961 275.818 300.774 272.833 301.707 270.594C305.811 260.333 310.289 250.072 314.58 239.811C322.975 246.9 332.303 253.243 339.766 261.452C353.385 276.564 366.071 292.608 378.384 308.653C389.205 322.645 397.414 339.249 409.914 351.376C430.623 371.152 453.383 388.875 476.517 405.666C486.778 413.129 494.427 407.532 493.121 394.286C487.898 344.66 519.614 313.317 552.076 286.452C597.224 249.512 642.746 251.937 692.372 286.079C703.006 293.355 712.334 293.914 719.983 283.467C734.349 263.877 749.087 244.475 761.027 223.58C768.303 211.08 775.766 205.856 789.385 209.401C808.228 214.252 828.191 241.863 827.258 261.639C827.071 266.863 826.511 272.273 827.258 277.31C827.817 281.974 830.056 286.265 831.549 290.743C835.84 288.317 840.131 285.706 844.421 283.653C852.817 279.549 861.772 272.273 869.608 273.392C874.645 274.139 879.496 286.825 881.921 295.034C898.525 350.257 877.07 395.965 843.302 437.195C830.616 452.68 826.325 466.3 830.802 487.195C842.183 539.433 835.84 592.044 828.564 644.468C822.407 688.124 800.765 725.624 780.057 762.19C761.774 794.466 732.483 819.279 694.797 835.137C641.626 857.338 586.217 865.36 530.434 870.957C494.614 874.688 458.047 870.397 421.854 869.838C404.317 869.651 385.847 873.196 369.243 869.278C325.4 858.83 282.118 845.211 238.648 832.711C225.962 828.98 223.723 820.398 234.17 813.122C242.379 807.339 253.573 804.913 263.648 802.488C271.11 800.809 280.065 803.421 286.968 800.622C322.975 786.257 362.153 779.54 393.31 754.541C400.026 749.131 404.69 741.481 410.1 734.765C403.384 730.474 397.041 724.318 389.765 722.079C349.654 709.579 314.766 688.497 288.274 656.408C275.961 641.67 268.312 622.454 261.036 604.357C255.999 591.857 268.685 581.41 285.102 581.41C291.632 581.41 297.976 578.611 304.505 577.119C300.774 571.335 298.349 564.059 293.312 560.141C246.484 522.455 224.842 472.643 222.977 413.875C222.79 405.666 228.014 392.793 234.357 390.181C240.141 387.57 250.402 395.965 258.983 399.136C276.147 404.733 293.311 410.703 315.326 418.539ZM327.452 476.187C330.811 513.873 368.31 551.373 407.116 557.716C411.593 558.462 417.563 557.343 420.548 559.768C426.705 564.619 435.66 571.148 435.846 577.119C436.033 583.275 428.384 592.23 422.041 595.588C413.086 600.439 402.078 601.559 391.817 603.797C356.37 611.26 354.504 616.297 375.773 645.961C379.131 650.625 383.422 655.102 388.086 658.647C417.936 681.968 479.876 682.9 512.524 662.005C519.427 657.528 529.875 658.834 538.643 657.341C537.524 666.856 539.389 678.236 534.538 685.512C534.538 685.512 505.621 760.511 396.855 804.54C393.496 806.219 390.138 811.816 390.511 815.361C390.698 817.973 396.855 821.331 400.586 821.891C472.786 830.473 633.417 800.436 686.588 757.713C723.155 728.235 762.147 700.81 768.303 611.819C772.035 559.395 760.281 527.306 748.901 489.807C739.573 459.397 752.632 433.837 780.244 417.606C793.117 409.957 805.616 400.629 816.25 389.995C823.526 382.719 827.071 372.085 832.295 362.943C830.989 361.451 829.683 360.145 828.377 358.652C822.22 359.771 816.064 360.518 810.094 362.383C798.713 365.742 787.893 370.965 776.326 373.204C770.169 374.324 760.654 373.018 757.296 368.913C754.311 365.368 755.617 355.294 758.415 350.07C764.199 339.063 772.408 329.362 779.497 319.101C786.773 308.28 786.213 298.579 773.9 288.318C767.37 295.594 762.147 303.056 755.431 309.026C706.551 351.749 704.499 358.092 658.417 324.884C657.298 324.138 656.178 323.392 655.059 322.832C628.753 309.959 589.761 321.153 576.515 346.898C561.59 375.629 561.963 406.599 569.053 437.382C570.545 443.539 580.06 448.016 586.03 453.053C591.254 457.344 601.142 460.889 601.328 465.367C601.702 471.523 596.664 479.919 591.44 484.396C575.583 498.202 517.375 498.762 496.48 486.448C493.121 484.396 489.763 482.157 486.405 480.105C467.562 467.979 449.092 455.292 429.69 443.725C416.257 435.703 401.891 429.733 387.153 422.27C386.033 427.494 385.288 428.987 385.661 429.919C388.646 439.434 391.631 448.763 394.989 458.091C402.451 478.613 391.63 493.165 370.362 489.433C355.997 486.635 342.751 480.852 327.452 476.187Z" fill="white"/>
</svg>
