<svg width="953" height="954" viewBox="0 0 953 954" fill="none" xmlns="http://www.w3.org/2000/svg">
<path d="M855.093 656.234C854.693 662.232 849.493 665.431 846.294 669.43C845.094 670.629 842.694 670.629 841.894 671.829C840.695 673.028 841.095 675.427 839.895 676.227C836.295 679.426 833.896 683.824 829.496 686.223C826.297 688.223 823.497 691.022 820.697 693.421C819.898 693.821 819.098 694.62 819.098 695.42C818.298 699.818 815.098 699.818 811.099 699.419C813.898 697.819 815.498 696.62 813.898 693.421C813.099 693.421 811.899 693.421 811.099 693.821C807.899 695.42 804.3 697.019 801.5 698.619C799.9 699.419 798.701 701.418 797.101 703.017C795.101 701.418 793.101 701.818 791.502 703.817C791.102 704.217 789.902 704.617 789.102 704.617C783.503 704.617 778.703 706.616 774.304 709.815C772.704 710.615 771.104 711.014 769.505 711.814C763.905 714.213 758.706 716.213 752.707 717.412C744.708 719.012 737.109 721.811 729.51 723.81C723.111 725.809 716.712 727.808 709.913 728.608C707.114 729.008 704.714 730.207 701.914 731.007C696.715 732.207 691.516 733.006 686.316 733.806C683.117 734.206 679.917 733.406 676.718 733.406C675.118 733.406 673.118 733.406 671.519 733.806C665.12 735.805 658.72 737.405 651.921 736.605C650.322 736.605 649.122 737.005 647.522 738.205C646.322 739.804 643.523 740.604 641.523 740.604C634.324 741.004 627.125 741.004 619.926 741.403C617.526 741.403 614.727 741.403 612.327 742.203C604.328 744.202 595.929 743.403 587.93 744.202C583.131 744.602 578.332 746.202 573.532 745.402C573.133 745.402 572.733 745.402 572.333 745.802C565.534 749.4 557.935 751 549.936 750.6C548.736 750.6 547.936 751 546.736 751C543.137 751.4 539.937 752.199 535.938 751.8C531.938 751.4 527.939 752.199 523.54 752.599C521.14 752.599 518.34 752.199 515.941 752.199C515.541 752.199 515.141 752.199 514.741 752.199C505.542 753.399 496.343 751.4 487.145 751C483.545 751 480.346 751.8 476.746 751.8C463.148 751.8 449.55 751 436.352 751C429.553 751 422.354 751.8 415.555 751.8C407.956 751.8 400.757 751.4 393.158 751C387.959 750.6 382.76 750.6 377.56 750.2C375.561 750.2 373.161 751 371.161 751C364.762 751 358.763 750.6 352.364 750.2C345.965 749.8 339.166 749.001 332.767 748.601C332.367 748.601 331.967 748.601 331.967 748.601C321.568 750.6 311.97 747.801 301.571 746.601C297.972 746.202 294.372 746.202 290.773 745.802C285.973 745.402 280.774 744.602 275.975 743.803C267.976 742.603 260.377 740.604 252.378 739.404C247.179 738.604 241.98 738.604 237.18 737.805C236.78 737.805 236.38 737.805 235.98 737.805C231.181 735.406 225.582 736.205 220.383 735.805C212.384 735.006 204.785 733.406 197.186 731.407C192.387 730.207 187.187 728.608 182.388 727.009C180.788 726.609 179.188 726.209 177.589 725.809C173.189 725.009 168.79 722.61 163.991 723.01C160.391 723.41 155.992 720.211 152.792 716.612C151.992 715.813 151.192 715.013 149.993 714.213C151.592 713.813 152.792 713.414 154.792 713.014C151.992 711.014 149.593 709.415 147.593 707.416C145.193 705.816 143.194 703.817 140.794 701.818C138.394 699.818 135.995 697.819 133.595 695.82C131.195 693.821 128.796 692.221 125.996 689.822C125.996 688.223 124.396 686.223 122.397 685.024C120.397 683.824 119.197 681.425 117.997 679.426C115.198 675.427 112.398 672.228 109.998 667.83C107.999 663.832 104.799 661.033 102.399 657.434C99.1998 652.236 96.0003 647.038 94.4005 641.44C93.2007 637.441 92.0008 633.443 89.6012 630.244C89.2012 630.244 89.2012 630.644 88.8013 630.644C89.2012 632.243 90.0011 633.842 90.4011 635.442C92.4008 641.04 94.0006 646.238 96.0003 651.836C97.6001 656.634 99.5998 661.033 101.599 665.431C101.999 665.831 101.599 666.631 101.599 667.83C100.8 667.43 99.5998 667.43 99.1998 667.03C98.7999 666.231 98.3999 665.431 98.3999 664.631C98 660.233 95.2004 657.034 94.0006 653.035C93.6006 651.836 92.0008 651.036 91.6009 649.837C90.801 647.437 89.2012 645.438 88.8013 642.639C88.4014 639.84 86.4016 637.441 85.2018 634.642C84.8019 633.842 84.8019 633.043 84.8019 632.243C84.8019 631.443 84.8019 630.244 84.8019 630.244C82.8022 629.444 83.602 627.845 83.602 626.245C83.2021 623.846 83.2021 621.047 82.4022 618.648C81.6023 616.249 80.8024 613.85 79.6026 611.85C77.6029 608.652 76.803 605.053 77.6029 601.054C78.0028 599.855 77.6029 598.655 77.2029 597.456C76.4031 593.857 75.2032 590.658 76.4031 586.66C76.4031 586.26 76.803 585.46 76.4031 585.06C74.0034 581.462 74.4033 577.463 73.6035 573.464C70.004 567.467 68.8041 561.469 68.0043 555.871C67.6043 553.472 68.8041 551.073 68.0043 548.673C66.8044 545.475 66.8044 541.876 67.2044 538.677C67.6043 532.279 67.2044 525.882 66.0045 519.884C65.2047 517.085 65.6046 514.286 65.6046 511.087C65.6046 505.089 64.8047 499.091 65.2046 493.493C65.6046 487.096 64.4048 481.098 66.0045 474.7C64.8047 472.701 66.4045 471.102 66.4045 469.102C66.4045 468.303 66.0045 467.503 65.6046 467.103C64.0048 465.504 64.0048 463.904 64.8047 462.305C65.2046 461.505 65.6046 460.306 66.4045 459.506C67.6043 457.906 68.0043 456.307 67.6043 453.908C67.2044 452.708 67.2044 450.709 68.0043 449.509C68.8041 447.51 69.2041 445.511 67.6043 443.112C70.4039 439.913 70.8039 436.714 69.2041 433.115C69.2041 432.716 68.8041 431.916 68.8041 431.916C71.6037 429.117 69.604 425.118 70.8039 421.92C72.4036 418.321 72.0037 414.322 72.4036 410.324C72.4036 408.724 72.8036 407.125 73.2035 405.925C75.2032 400.727 75.6032 395.129 76.0031 389.931C76.4031 386.332 76.4031 382.334 78.0028 379.535C79.6026 376.736 79.6026 374.737 79.6026 371.938C79.6026 371.138 79.6026 370.338 80.0025 369.539C82.4022 365.94 83.2021 361.541 83.602 357.143C84.002 354.744 86.4016 352.345 86.4016 349.546C86.4016 346.747 88.0014 344.348 88.4014 341.949C90.0011 335.551 92.8007 329.953 94.8004 323.555C96.0003 319.957 97.2001 315.958 100.4 313.559C101.2 313.159 101.999 311.96 102.399 311.16C103.999 307.561 105.999 303.962 107.599 300.364C107.599 299.964 107.599 299.964 107.199 299.164C103.599 300.364 101.999 303.962 98.7999 305.562C101.599 300.364 105.599 296.365 109.598 291.567C112.398 287.968 115.997 285.169 117.597 280.771C117.997 279.571 119.197 278.372 120.397 277.972C122.796 276.772 124.396 275.573 125.596 272.774C126.396 270.375 128.796 268.775 130.395 266.776C131.995 264.777 133.595 263.177 135.195 261.178C135.195 260.778 134.795 260.778 134.795 260.378C136.794 260.778 138.794 260.778 141.194 261.178C141.594 259.978 143.194 258.779 140.394 257.979C139.994 257.979 139.594 256.38 139.194 255.58C139.594 255.18 139.594 255.18 139.994 254.78C141.194 255.58 142.794 256.38 144.793 257.579C145.993 256.78 147.593 255.58 149.193 254.78C149.193 254.38 149.193 253.981 148.793 253.981C146.393 253.981 143.993 253.981 141.594 253.981C143.194 248.782 148.393 248.782 151.992 246.783C152.392 246.383 153.192 246.383 153.192 246.783C155.592 248.383 157.991 247.183 159.991 246.383C163.991 245.584 167.99 245.584 171.59 242.785C172.389 241.985 173.989 242.385 175.589 241.985C178.389 241.585 181.188 239.986 183.988 239.186C189.987 237.187 196.386 235.587 202.785 233.988C207.584 232.788 212.384 231.589 216.783 229.989C219.183 229.19 221.582 228.79 224.382 228.39C225.982 227.99 227.982 227.59 229.581 227.19C229.981 227.19 230.781 226.79 231.181 226.79C237.18 227.99 242.779 225.991 248.779 224.791C255.578 223.592 262.777 222.392 269.976 221.193C271.975 220.793 273.975 219.993 276.375 219.193C277.974 220.393 280.374 219.993 282.774 219.193C286.773 217.994 290.773 216.794 294.372 215.595C294.772 215.595 295.172 215.195 295.172 215.195C302.371 216.394 308.77 212.796 315.569 212.396C323.568 211.596 331.567 210.796 339.566 209.997C345.565 209.197 351.964 208.397 357.963 207.597C361.563 207.198 364.762 206.798 368.362 206.398C371.561 205.998 374.361 205.598 377.16 204.399C379.16 203.599 381.56 202.799 383.559 205.198C383.959 205.598 385.559 205.598 386.359 205.198C388.759 204.798 391.558 204.399 393.958 203.999C399.557 203.199 405.156 202.399 411.156 202C413.155 202 415.155 202.399 417.555 202.399C418.355 202.399 419.154 202.399 419.954 202C420.754 201.6 422.354 200.8 423.954 201.2C429.153 202.799 434.352 201.6 439.552 202C444.351 202.399 449.15 202.399 453.949 202.799C455.949 202.799 458.349 203.199 460.349 203.199C466.748 203.199 473.147 203.199 479.546 203.199C486.345 203.199 493.544 202.799 500.343 202.799C507.942 202.799 515.541 203.199 523.14 203.199C527.939 203.199 532.338 203.199 537.138 203.199C540.737 203.199 543.937 203.199 547.536 203.599C548.336 203.599 548.736 204.399 549.536 204.399C550.736 204.798 552.335 205.598 553.535 205.198C558.735 203.199 563.934 204.798 569.533 204.798C572.733 204.798 576.332 205.598 579.532 205.998C590.33 207.198 601.129 207.198 611.927 206.798C617.526 206.798 622.726 205.998 628.325 205.998C632.724 205.998 637.124 206.398 641.123 207.198C645.922 208.397 651.521 207.997 656.721 208.397C658.72 208.397 661.12 208.397 663.12 208.797C667.119 209.197 671.119 209.197 675.118 209.597C681.917 209.997 689.116 210.396 695.915 211.596C701.114 212.396 706.714 213.995 711.913 215.195C717.912 216.394 723.911 217.594 730.31 218.793C736.709 219.993 742.709 221.592 749.108 222.392C753.907 222.792 758.306 224.391 763.506 222.792C765.505 222.392 768.305 223.992 770.705 224.791C771.504 225.191 772.304 226.391 773.504 226.391C779.103 226.79 783.903 229.989 789.102 231.989C793.501 233.588 798.301 234.388 802.3 236.787C807.899 239.986 814.698 240.386 819.898 244.784C822.297 246.783 825.897 246.783 829.096 247.983C828.696 249.182 828.296 250.382 827.496 251.581C827.496 251.581 827.496 251.981 827.896 252.381C833.896 256.38 839.495 260.778 845.094 265.576C852.693 271.974 858.292 279.571 865.091 286.369C867.491 288.768 868.691 291.967 871.09 294.366C872.29 295.965 874.29 297.565 875.89 299.164C877.889 301.163 879.489 302.763 880.289 305.562C880.689 306.761 881.489 307.961 882.289 308.361C885.088 310.36 885.488 312.759 886.288 315.958C886.688 318.757 887.488 321.156 888.288 323.955C889.888 330.353 891.887 336.351 893.487 342.748C894.287 346.347 893.887 350.346 893.887 353.944C894.287 357.943 894.687 362.341 895.087 366.34C895.087 367.939 895.487 369.938 895.487 371.538C895.487 374.337 895.487 377.136 895.487 379.535C895.487 380.735 895.887 382.334 895.487 383.533C893.087 389.131 894.287 394.729 894.687 400.327C895.087 409.124 895.487 417.521 897.087 425.918C897.887 431.116 897.487 436.314 899.086 441.113C899.486 441.912 899.086 443.112 899.086 444.311C899.086 446.311 898.686 448.31 898.686 450.309C898.686 451.109 898.686 452.308 898.686 453.108C897.087 457.906 897.487 463.105 897.087 468.303C896.687 473.901 896.287 479.499 896.687 485.097C896.687 487.096 895.887 489.495 895.887 491.894C895.487 497.892 895.087 504.29 894.687 510.287C894.287 513.886 894.687 517.485 894.287 521.083C893.487 528.281 892.287 535.078 891.487 542.276C890.687 549.473 887.088 556.271 885.888 563.468C885.088 569.866 883.089 576.263 881.489 582.661C881.089 585.06 880.689 587.059 879.889 589.459C878.289 594.657 878.289 594.657 879.889 600.655C875.49 605.853 874.69 613.05 872.69 619.448C872.29 621.047 872.29 623.046 875.09 623.446C870.69 625.046 870.69 628.244 870.69 631.443C870.69 635.042 869.091 637.441 867.091 640.24C864.691 643.839 862.691 647.438 861.492 651.436C859.092 655.035 858.292 655.435 855.093 656.234ZM624.725 225.591C625.125 224.791 625.525 223.992 626.325 222.392C617.926 221.592 610.327 220.793 602.728 220.393C595.529 219.993 588.33 219.993 580.732 219.593C573.533 219.193 566.334 218.793 559.534 218.793C555.135 218.793 550.336 218.793 545.936 218.793C542.337 218.793 538.337 219.193 534.738 218.394C531.938 217.594 530.339 217.994 527.939 218.394C526.339 218.793 524.339 219.993 522.74 219.993C519.14 220.793 515.141 220.793 511.141 221.193C509.942 217.194 506.742 215.595 502.343 215.994C499.943 216.394 497.143 216.794 494.744 216.394C490.744 215.595 487.945 216.394 486.345 221.193C485.145 219.593 484.345 218.394 483.545 217.194C482.345 219.993 481.146 221.992 477.946 220.393C477.546 219.993 476.746 220.793 475.946 221.193C474.347 221.592 473.147 222.792 471.547 222.392C470.347 221.992 469.547 220.393 468.747 219.593C467.148 219.593 465.948 219.193 464.348 219.193C463.548 219.193 462.748 219.193 462.348 219.593C460.749 221.193 459.149 221.193 457.549 219.993C456.749 219.593 455.549 219.193 454.749 219.593C449.55 221.193 444.351 220.393 439.152 219.193C438.752 219.193 437.952 219.193 437.552 219.193C435.552 221.193 433.152 220.393 430.753 220.393C427.953 220.793 424.754 219.993 421.954 220.793C418.754 221.592 416.755 221.193 415.155 217.594C413.955 218.793 412.755 219.593 411.555 220.393C412.355 220.793 413.155 221.592 413.555 221.992C409.556 222.792 404.756 222.392 402.357 221.193C407.156 219.993 407.156 219.993 407.156 217.594C403.957 217.594 401.157 218.793 397.957 218.793C393.158 218.394 388.759 219.193 383.959 219.993C379.96 220.393 375.961 221.592 371.961 222.392C360.363 223.992 348.364 225.591 336.766 227.59C333.167 227.99 329.567 228.79 325.968 229.19C320.768 229.589 315.569 228.39 311.17 232.388C311.17 232.388 310.77 232.388 310.37 232.388C300.771 233.188 291.573 234.388 281.974 233.588C280.374 233.588 278.774 233.188 277.175 233.188C267.576 234.388 257.577 235.987 247.979 237.587C246.379 237.986 244.379 238.786 243.179 239.986C241.58 241.585 239.98 241.985 237.98 241.185C233.581 240.386 229.181 239.586 225.582 243.185C225.182 243.584 224.782 243.984 224.382 243.984C219.183 245.184 213.584 246.383 208.384 247.583C197.586 250.382 186.387 253.181 176.789 259.978C176.389 259.978 176.389 260.378 175.989 260.378C169.19 261.978 163.191 265.976 156.792 269.175C153.992 270.774 151.192 272.374 148.393 273.174C144.393 274.373 141.594 276.772 139.594 279.571C138.394 280.771 137.194 281.97 135.995 283.17C132.795 287.169 129.596 291.167 126.396 294.766C123.596 297.565 122.397 301.963 119.597 304.762C113.998 310.76 111.198 318.357 108.399 325.555C105.199 334.351 101.2 342.748 98.7999 351.945C97.2001 358.743 94.0006 365.54 92.0008 371.938C91.6009 373.137 91.201 374.737 91.6009 375.536C92.8007 378.335 91.6009 380.735 90.4011 383.134C89.6012 384.333 89.2012 385.133 89.2012 386.332C87.6015 395.129 85.6018 404.326 84.4019 413.123C83.2021 421.12 83.2021 429.517 81.6023 437.514C80.8024 441.113 82.4022 445.911 78.8027 448.71C78.8027 448.71 79.2027 449.11 79.2027 449.509C80.0026 451.909 80.4025 454.708 80.4025 457.107C80.0025 459.906 80.4025 459.906 77.6029 461.505C79.6026 463.904 80.4025 466.703 80.0025 470.302C79.6026 474.3 79.2027 478.299 80.0025 482.298C80.8024 484.697 80.0025 487.096 80.0025 489.495C80.0025 493.094 79.6026 496.692 79.6026 500.291C80.0025 507.089 80.8024 513.486 81.2024 520.284C82.0023 532.279 82.4022 544.675 84.002 556.671C84.8019 564.268 86.8016 571.465 88.4014 579.062C92.0008 593.457 95.6003 607.452 99.1998 621.847C100.4 626.645 101.599 631.043 103.599 635.442C105.199 639.44 107.999 642.639 110.398 646.238C112.798 650.236 115.597 654.235 118.797 657.434C121.997 661.033 125.596 664.231 128.796 667.43C139.194 677.427 149.993 687.423 159.991 697.819C166.79 704.617 175.589 707.816 183.188 712.614C187.987 715.413 193.586 716.612 199.186 718.212C201.985 719.011 205.185 719.411 207.984 719.811C212.784 721.011 217.583 722.21 222.382 723.01C224.782 723.41 227.582 722.61 229.981 723.01C237.98 724.21 245.579 725.809 253.578 726.609C259.977 727.408 266.376 729.808 273.175 727.009C273.975 726.609 274.775 727.408 275.575 727.808C276.775 728.208 277.575 728.208 278.774 728.608C275.575 725.409 269.176 726.209 267.576 720.211C269.976 719.411 271.975 719.811 273.575 721.411C275.975 724.21 278.774 724.609 281.974 725.009C285.973 725.409 289.973 727.408 293.972 726.209C294.372 726.209 295.172 726.609 295.572 727.009C297.172 728.208 298.771 728.608 300.771 728.208C301.971 727.808 303.571 727.808 304.771 728.208C312.77 731.007 321.168 729.008 329.167 730.207C336.366 731.407 343.565 730.207 350.764 731.007C357.963 731.807 365.162 730.607 372.361 732.207C374.761 733.006 377.56 733.006 379.96 732.207C385.559 730.607 390.758 733.006 396.358 733.006C400.357 733.006 404.357 734.206 408.356 734.606C414.755 735.006 421.154 734.206 427.553 735.406C431.153 736.205 435.152 736.205 438.752 736.205C442.751 736.205 446.75 735.805 450.35 737.405C451.55 737.805 453.55 737.805 454.749 737.405C457.949 735.406 461.548 735.406 464.748 735.406C468.747 735.406 473.147 736.605 477.146 736.205C483.545 735.406 489.944 735.006 496.343 736.205C496.743 736.205 497.543 736.205 498.343 736.205C502.343 735.805 506.342 735.406 510.341 735.406C520.34 735.006 530.739 735.006 540.737 734.606C556.735 733.806 572.733 732.607 588.73 731.807C591.93 731.807 594.73 731.807 597.929 731.007C605.128 729.408 611.927 729.408 619.126 730.607C620.726 731.007 622.726 731.007 624.725 730.607C630.724 729.808 636.724 729.008 642.723 727.408C648.322 726.209 654.721 726.609 659.92 723.01C660.32 722.61 660.72 723.01 661.12 723.01C665.519 722.21 669.919 721.81 674.318 721.011C674.718 721.011 675.118 721.011 675.518 720.611C678.318 719.411 680.717 716.612 684.317 718.212C687.116 716.213 690.316 717.012 693.116 716.612C696.715 715.813 700.714 714.213 704.314 713.813C708.313 713.414 711.913 712.214 716.312 712.614C720.712 713.414 725.911 711.814 730.71 711.414C733.11 711.014 735.51 710.215 737.909 709.815C740.309 709.415 742.709 709.015 745.108 708.215C751.507 706.216 757.906 704.217 763.906 702.218C769.105 700.618 774.304 699.419 779.103 697.019C786.702 693.421 793.901 689.422 802.3 687.423C803.5 687.023 804.7 686.623 805.5 685.424C809.899 679.826 816.298 677.027 821.497 672.628C826.697 668.63 831.496 664.631 835.495 659.833C839.095 655.834 842.694 651.436 845.494 646.638C847.494 643.439 850.693 641.04 851.893 637.041C853.493 631.043 855.892 625.445 857.892 619.848C860.692 611.85 863.091 603.853 865.491 595.856C867.491 588.259 868.691 580.262 870.69 572.265C873.89 560.269 875.09 548.274 876.689 535.878C877.489 530.28 877.489 524.282 877.889 518.684C878.289 510.687 879.489 502.69 879.489 495.093C878.689 477.499 880.289 460.306 881.089 442.712C881.489 431.116 882.289 419.121 882.289 407.525C882.289 400.727 882.689 394.33 881.089 387.532C879.089 380.735 878.689 373.937 877.489 366.74C875.49 355.944 873.49 344.748 871.09 333.952C869.89 328.753 869.091 323.155 866.291 318.357C865.491 317.158 864.691 315.558 864.291 313.959C863.491 310.76 861.892 308.361 859.892 306.362C857.092 303.563 855.892 300.364 855.492 296.765C855.492 295.965 855.493 295.166 855.093 294.766C851.493 291.967 849.493 287.568 845.494 285.169C838.295 280.771 831.096 276.372 825.497 269.575C824.297 267.976 822.297 267.176 820.697 266.376C813.898 263.977 807.899 259.978 801.5 257.179C796.301 254.78 792.301 250.782 786.302 249.582C784.303 249.182 782.303 248.782 780.303 247.983C775.904 246.383 771.104 244.384 766.705 243.185C759.906 241.585 753.107 240.386 745.908 239.186C738.309 237.986 730.71 237.187 723.111 235.987C717.512 235.187 711.513 233.988 705.914 233.588C701.114 233.188 696.315 232.788 691.516 231.589C687.516 230.389 683.117 230.389 679.118 230.389C677.118 234.788 675.118 235.987 672.318 234.388C669.519 232.788 667.519 232.788 664.32 233.988C664.32 232.788 663.92 231.989 663.92 230.789C665.12 231.189 666.319 231.589 667.519 231.989C667.119 227.99 667.119 227.99 663.12 227.99C663.12 228.39 662.72 229.19 662.72 229.589C661.12 232.788 659.92 233.188 657.521 230.389C657.121 229.989 656.321 229.19 656.321 228.79C656.321 227.59 655.521 227.59 654.721 227.19C651.122 225.191 646.722 227.59 643.123 224.791C639.523 226.79 635.124 222.392 631.524 225.991H631.124C631.124 225.591 630.724 225.191 630.724 224.791C627.525 225.191 625.925 225.191 624.725 225.591ZM560.734 747.801C560.734 747.401 560.734 747.401 560.334 747.001C557.535 747.401 554.735 747.801 551.936 748.201C551.936 748.601 551.936 749.001 551.936 749.4C555.135 749.001 557.935 748.201 560.734 747.801ZM76.0031 474.7C76.4031 474.7 76.803 474.7 77.2029 474.7C77.2029 473.901 77.2029 472.701 77.2029 471.901C76.803 471.901 76.803 471.901 76.4031 471.901C76.4031 473.101 76.4031 473.901 76.0031 474.7ZM669.519 231.589C669.919 230.789 670.319 230.389 670.319 229.989C670.319 229.589 669.919 229.19 669.519 228.79C669.119 229.19 668.719 229.589 668.319 230.389C668.719 230.389 669.119 230.789 669.519 231.589Z" fill="white"/>
<path d="M130.396 254.78C132.796 253.981 134.796 253.181 137.595 252.381C135.596 254.381 135.596 254.381 130.396 254.78Z" fill="white"/>
<path d="M106.401 674.628C107.201 676.227 108.401 677.826 109.201 679.426C106.401 678.626 104.801 677.427 105.201 674.628C106.001 674.628 106.401 674.628 106.401 674.628Z" fill="white"/>
<path d="M560.735 747.801C557.935 748.201 555.136 749.001 552.336 749.4C552.336 749.001 552.336 748.601 552.336 748.201C555.136 747.801 557.935 747.401 560.735 747.001C560.735 747.401 560.735 747.401 560.735 747.801Z" fill="white"/>
<path d="M76.0039 474.7C76.4038 473.901 76.4038 473.101 76.8038 471.901C77.2037 471.901 77.2037 471.901 77.6037 471.901C77.6037 472.701 77.6037 473.901 77.6037 474.7C76.8038 474.7 76.4038 474.7 76.0039 474.7Z" fill="white"/>
<path d="M669.518 231.589C669.118 231.189 668.318 230.389 668.318 230.389C668.718 229.989 669.118 229.19 669.518 228.79C669.918 229.19 670.318 229.59 670.318 229.989C670.318 230.389 669.918 230.789 669.518 231.589Z" fill="white"/>
<path d="M499.943 401.927C500.343 404.326 502.743 405.126 504.742 405.925C507.542 403.526 508.742 406.725 510.342 407.925C511.541 408.724 512.341 410.324 513.541 412.323C515.541 412.723 518.34 413.523 519.94 416.322C520.34 417.121 521.14 417.521 521.54 417.921C527.939 420.72 532.338 425.918 537.538 429.917C539.138 431.116 541.137 431.916 543.137 433.115C543.137 433.915 542.337 435.115 542.737 435.914C542.737 436.714 544.337 436.714 545.137 437.114C545.937 437.514 546.336 437.914 547.136 437.914C548.736 438.713 550.336 439.913 552.736 441.113C553.935 442.712 555.935 445.111 557.935 447.51C560.335 447.11 561.934 446.711 564.734 446.311C564.334 448.31 563.934 449.51 563.534 451.509C565.134 455.107 569.133 454.708 571.533 456.707C571.933 457.107 573.533 456.307 574.333 455.907C575.132 455.507 575.932 454.708 577.132 454.308C578.732 453.508 579.532 454.308 579.532 457.107C577.932 457.906 575.132 455.107 573.933 458.706C576.332 460.705 579.132 462.305 581.931 464.304C583.131 465.104 584.331 465.904 585.531 467.103C588.73 469.902 589.93 469.902 593.93 468.303C596.729 467.103 597.529 467.503 598.329 470.302C598.729 471.502 599.129 472.701 599.529 474.3C597.929 475.5 596.329 476.7 595.53 479.499C594.73 481.498 593.53 484.297 589.93 483.497C589.53 483.497 588.73 484.697 588.331 485.496C587.131 487.896 585.131 489.095 583.131 490.295C579.132 492.694 575.132 495.493 571.533 497.892C571.133 498.292 570.733 498.692 570.733 499.091C569.133 501.091 567.933 504.29 565.934 505.489C563.534 506.689 561.134 507.488 558.735 509.488C556.735 511.487 554.335 512.687 551.936 514.286C550.336 515.486 548.736 516.685 547.536 518.284C541.937 525.082 534.338 528.281 527.939 533.479C523.54 536.678 519.14 539.877 514.741 543.075C507.142 549.073 499.143 554.671 491.544 560.669C490.344 561.469 489.145 563.068 487.945 564.268C485.945 566.267 484.745 568.666 481.146 567.866C480.346 567.467 479.146 568.666 477.946 569.466C472.747 573.464 467.548 578.263 462.348 581.861C457.149 585.46 452.75 589.858 446.751 592.258C443.151 593.857 440.352 596.656 437.552 599.055C430.753 604.253 424.354 609.851 417.555 615.049C414.355 617.448 410.756 619.848 407.956 622.247C406.756 623.046 405.956 624.646 404.757 626.645C403.957 626.645 401.557 625.845 401.157 628.644C401.157 629.044 399.157 629.444 398.757 629.044C396.758 627.845 394.358 627.045 393.558 625.446C392.358 623.046 390.759 621.447 387.959 620.247C389.559 619.048 390.759 618.248 391.958 617.049C391.558 611.451 391.159 605.853 390.759 600.255C390.759 597.456 390.759 594.657 390.759 591.458C391.159 582.661 391.159 574.264 391.558 565.467C391.558 559.47 391.958 553.472 391.958 547.074C391.958 545.475 392.758 544.275 393.158 542.676C393.558 541.476 393.558 540.676 393.558 539.477C393.558 535.478 393.158 531.88 393.158 527.881C393.158 527.481 393.158 527.081 393.158 526.681C395.558 517.885 394.358 509.088 394.758 500.291C394.758 495.893 395.158 491.494 395.558 487.096C395.558 484.697 396.358 482.697 395.158 480.298C394.758 479.499 395.158 478.699 395.558 477.499C396.358 472.701 397.158 467.503 396.358 462.705C396.358 461.905 395.958 461.105 396.358 460.306C397.558 452.708 397.558 445.111 398.358 437.514C399.557 429.117 398.757 420.32 400.757 411.923C401.557 409.124 401.157 405.526 401.157 402.327C401.157 401.127 401.557 399.528 401.557 398.328C401.957 394.729 404.757 391.531 402.357 387.932C403.957 383.134 400.757 377.936 403.557 373.537C402.757 369.139 403.557 365.14 404.357 361.142C404.757 359.542 403.557 357.943 403.557 356.343C403.557 353.145 403.957 349.946 404.357 346.347C398.757 337.15 398.757 337.15 394.358 335.951C396.358 334.351 397.958 333.152 399.957 331.952C401.957 330.753 403.957 329.953 406.756 328.354C408.356 328.354 407.956 331.952 411.156 332.352C413.955 332.752 414.755 329.153 417.955 330.753C417.555 332.752 417.155 334.751 417.155 336.351C418.355 337.95 419.554 339.15 420.754 340.349C421.154 340.749 421.554 341.549 421.954 341.549C427.553 344.348 427.553 344.348 430.353 348.346C431.553 350.346 433.552 350.745 437.552 349.546C437.152 351.145 436.752 351.945 436.752 352.745C438.352 354.744 439.952 356.343 441.951 358.343C443.551 357.943 443.951 357.143 442.751 355.544C440.352 352.345 439.152 349.146 441.551 345.147C443.951 347.547 442.351 350.346 443.151 352.745C445.151 353.944 447.551 355.144 449.95 356.343C453.15 358.743 451.95 362.741 453.15 366.74C454.749 366.74 456.349 366.34 457.949 366.34C460.349 368.339 462.748 370.338 465.948 372.737C465.948 373.537 465.548 374.737 465.548 375.936C466.748 377.136 467.948 378.335 469.547 379.535C470.347 379.535 471.547 379.135 472.747 378.735C473.147 379.535 473.147 380.335 473.547 381.534C473.947 382.334 473.947 383.134 474.347 383.933C475.147 383.534 475.946 383.134 476.746 382.334C477.146 381.934 477.146 381.534 477.546 380.735C480.746 383.534 475.946 384.733 477.546 387.132C479.946 387.932 482.346 390.731 485.545 388.332C487.545 389.531 489.545 390.731 491.944 392.33C490.744 393.53 489.944 394.729 489.145 395.929C491.144 398.328 493.544 397.928 495.544 396.329C496.344 397.928 496.744 399.928 497.543 400.727C495.944 401.527 497.543 401.127 499.943 401.927ZM571.933 472.301C565.934 469.502 561.534 466.303 555.935 463.904C547.936 460.306 540.737 455.107 533.938 449.51C531.539 447.51 528.739 445.911 526.339 443.912C521.94 440.713 517.141 437.514 512.741 433.915C508.342 430.316 503.543 426.718 499.143 423.119C494.744 419.52 490.744 415.922 486.345 411.923C481.146 407.525 475.946 402.727 470.347 398.328C467.948 396.329 465.148 395.129 462.748 393.53C458.349 390.331 454.35 386.732 449.95 383.534C447.151 381.534 444.351 380.335 441.551 377.936C434.352 371.938 427.153 365.94 419.954 359.942C419.555 359.542 418.355 359.142 417.155 358.743C415.955 368.739 414.755 378.335 414.355 388.332C413.555 399.928 414.355 411.923 413.555 423.519C412.355 438.314 413.155 453.508 410.356 468.703C410.356 469.502 410.356 470.302 410.356 471.102C410.356 476.3 410.756 481.098 410.756 486.296C410.756 493.494 410.756 500.291 410.756 507.488C410.356 516.685 410.356 525.882 409.556 534.679C408.756 546.274 407.556 557.87 407.156 569.866C406.756 580.262 406.756 591.058 404.357 601.054C403.957 602.254 404.357 603.454 404.357 605.453C407.556 603.454 410.756 602.254 413.155 600.255C417.955 596.256 422.354 591.858 427.153 587.859C430.753 585.06 433.552 581.462 437.552 580.262C438.752 579.862 440.352 580.262 441.151 579.862C443.151 577.063 446.351 575.864 449.15 573.864C453.95 570.665 457.949 566.667 462.348 563.068C467.548 559.07 472.747 555.871 477.946 551.872C484.345 546.674 492.344 542.676 497.543 535.878C497.943 535.478 498.743 534.679 499.543 534.679C502.343 534.679 503.943 532.679 505.542 531.08C507.142 529.88 508.742 528.681 510.342 527.481C516.341 522.683 522.34 518.285 528.339 513.486C531.539 511.087 533.938 507.888 537.138 505.489C542.737 500.291 548.736 495.493 554.335 490.695C559.535 485.896 564.334 481.098 569.533 476.3C569.933 474.7 570.733 473.901 571.933 472.301ZM447.551 359.542C447.151 359.542 446.751 359.542 446.351 359.542C446.351 360.342 446.751 361.142 446.751 361.941C447.151 361.941 447.95 361.941 447.95 361.941C447.95 361.142 447.95 360.342 447.551 359.542Z" fill="white"/>
<path d="M609.926 224.391C613.126 225.991 615.926 228.39 619.925 227.19C617.925 228.39 611.126 229.19 609.926 227.99C608.327 227.19 608.327 225.991 609.926 224.391Z" fill="white"/>
<path d="M549.135 219.993C551.134 220.393 552.734 222.792 555.134 220.793C555.134 221.592 555.134 222.792 555.534 223.992C552.734 223.592 549.935 223.192 549.135 219.993Z" fill="white"/>
<path d="M637.525 227.99C639.525 227.99 641.125 227.19 643.125 228.39C640.325 230.389 639.925 230.389 637.525 227.99Z" fill="white"/>
<path d="M505.144 220.393C503.945 219.593 502.745 218.794 501.545 217.994C503.545 217.594 505.944 216.794 505.944 219.593C505.544 219.593 505.544 219.993 505.144 220.393Z" fill="white"/>
<path d="M568.332 450.309C570.332 451.109 572.731 451.109 572.731 454.308C568.732 452.708 568.732 452.708 568.332 450.309Z" fill="white"/>
<path d="M624.726 225.591C625.926 226.391 626.726 227.19 627.926 227.99C627.926 228.39 627.526 228.39 627.526 228.79C626.326 228.79 625.526 228.39 624.326 228.39C624.326 227.19 624.726 226.391 624.726 225.591Z" fill="white"/>
<path d="M386.758 223.991C387.958 223.991 389.157 223.991 390.357 223.991C390.357 224.391 390.357 224.391 390.357 224.791C389.157 224.791 387.958 225.191 386.758 225.191C386.758 224.791 386.758 224.391 386.758 223.991Z" fill="white"/>
<path d="M382.356 226.791C381.556 225.991 381.556 225.991 381.156 225.591C381.556 225.191 381.956 224.791 382.356 224.791C382.356 224.791 383.156 225.191 383.156 225.591C383.156 225.991 382.756 226.391 382.356 226.791Z" fill="white"/>
<path d="M499.547 218.394C499.147 218.793 498.747 219.193 498.347 219.193C497.947 218.793 497.547 218.793 497.547 218.394C497.547 217.994 497.947 217.594 498.347 217.594C498.747 217.594 499.147 217.994 499.547 218.394Z" fill="white"/>
<path d="M597.131 223.992C596.331 224.391 595.931 224.391 595.531 224.791C595.531 224.391 595.931 223.992 595.931 223.592C595.931 223.592 596.731 223.592 597.131 223.992Z" fill="white"/>
<path d="M632.319 230.789C631.519 229.989 631.519 229.59 631.119 229.59C631.519 229.19 631.519 229.19 631.919 228.79C631.919 228.79 632.319 229.19 632.319 229.59C632.719 229.59 632.719 229.989 632.319 230.789Z" fill="white"/>
<path d="M447.549 359.542C447.549 360.342 447.949 361.142 447.949 361.941C447.949 361.941 447.15 361.941 446.75 361.941C446.75 361.142 446.35 360.342 446.35 359.542C446.75 359.942 447.149 359.942 447.549 359.542Z" fill="white"/>
</svg>
