<svg width="5000" height="1672" viewBox="0 0 5000 1672" fill="none" xmlns="http://www.w3.org/2000/svg">
<path d="M4601.84 0H398.407C383.073 0 367.947 0 352.654 0.0835673C339.868 0.167135 327.166 0.417837 314.255 0.626755C286.218 0.961024 258.223 3.42626 230.52 7.98068C202.901 12.7022 176.118 21.5186 151.09 34.179C126.145 46.9648 103.289 63.5947 83.4838 83.442C63.5112 103.247 46.8813 126.103 34.2208 151.173C21.5186 176.202 12.744 203.027 8.10603 230.688C3.46804 258.348 0.961024 286.343 0.626755 314.339C0.250702 327.166 0.208918 340.035 0 352.821V1318.65C0.208918 1331.6 0.250702 1344.18 0.626755 1357.18C0.961024 1385.17 3.46804 1413.17 8.10603 1440.78C12.7022 1468.49 21.5186 1495.35 34.2208 1520.38C46.8813 1545.37 63.5112 1568.14 83.4838 1587.82C103.247 1607.75 126.061 1624.38 151.09 1637.08C176.118 1649.79 202.86 1658.69 230.52 1663.41C258.223 1667.96 286.218 1670.43 314.255 1670.8C327.166 1671.1 339.868 1671.26 352.654 1671.26C367.947 1671.35 383.073 1671.35 398.407 1671.35H4601.84C4616.84 1671.35 4632.09 1671.35 4647.14 1671.26C4659.84 1671.26 4672.92 1671.1 4685.66 1670.8C4713.66 1670.47 4741.57 1668 4769.23 1663.41C4796.93 1658.64 4823.84 1649.74 4848.95 1637.08C4873.94 1624.38 4896.79 1607.75 4916.52 1587.82C4936.41 1568.06 4953.08 1545.29 4965.9 1520.38C4978.52 1495.31 4987.21 1468.49 4991.77 1440.78C4996.41 1413.17 4999 1385.17 4999.5 1357.18C4999.67 1344.18 4999.67 1331.6 4999.67 1318.65C5000 1303.44 5000 1288.36 5000 1272.94V398.449C5000 383.156 5000 367.989 4999.67 352.821C4999.67 340.035 4999.67 327.166 4999.5 314.339C4999 286.302 4996.41 258.348 4991.77 230.688C4987.21 203.027 4978.48 176.202 4965.9 151.173C4940.08 100.908 4899.18 60.0013 4848.95 34.179C4823.84 21.5604 4796.93 12.7022 4769.23 7.98068C4741.61 3.38448 4713.66 0.919241 4685.66 0.626755C4672.92 0.417837 4659.84 0.167135 4647.14 0.0835673C4632.09 0 4616.84 0 4601.84 0Z" fill="#A6A6A6"/>
<path d="M355.557 1634.78C342.813 1634.78 330.403 1634.61 317.784 1634.32C291.586 1633.98 265.513 1631.73 239.649 1627.51C215.581 1623.37 192.266 1615.64 170.455 1604.61C148.853 1593.7 129.131 1579.33 112.083 1562.16C94.7849 1545.15 80.3696 1525.43 69.4223 1503.79C58.3914 1482.02 50.7032 1458.66 46.7337 1434.55C42.43 1408.64 40.1319 1382.45 39.7977 1356.21C39.5052 1347.39 39.1709 1318.06 39.1709 1318.06V352.813C39.1709 352.813 39.547 323.94 39.7977 315.458C40.0901 289.218 42.43 263.103 46.692 237.239C50.7032 213.046 58.3496 189.648 69.4223 167.795C80.286 146.151 94.6178 126.429 111.833 109.381C129.006 92.1663 148.769 77.7509 170.413 66.6365C192.183 55.6474 215.456 48.001 239.482 43.9062C265.429 39.686 291.628 37.3879 317.868 37.0537L355.557 36.5522H4649.62L4687.77 37.0954C4713.8 37.3879 4739.75 39.6442 4765.4 43.8644C4789.68 48.001 4813.25 55.7309 4835.22 66.7618C4878.6 89.1161 4913.9 124.465 4936.13 167.878C4947.04 189.606 4954.56 212.837 4958.49 236.78C4962.83 262.853 4965.25 289.218 4965.76 315.625C4965.88 327.45 4965.88 340.194 4965.88 352.813C4966.22 368.482 4966.22 383.398 4966.22 398.44V1272.93C4966.22 1288.1 4966.22 1302.93 4965.88 1317.85C4965.88 1331.43 4965.88 1343.88 4965.71 1356.71C4965.25 1382.65 4962.83 1408.52 4958.57 1434.13C4954.68 1458.41 4947.08 1481.97 4936.01 1503.91C4925.02 1525.35 4910.69 1544.86 4893.6 1561.82C4876.51 1579.12 4856.78 1593.54 4835.1 1604.53C4813.16 1615.64 4789.68 1623.41 4765.4 1627.51C4739.58 1631.73 4713.47 1634.02 4687.31 1634.32C4675.07 1634.61 4662.28 1634.78 4649.83 1634.78L4604.54 1634.86L355.557 1634.78Z" fill="black"/>
<path d="M1039.39 848.255C1040.3 777.432 1077.53 711.831 1137.83 674.769C1099.6 620.158 1037.71 586.689 971.069 584.6C900.914 577.246 832.89 626.593 797.124 626.593C760.688 626.593 705.659 585.31 646.368 586.564C568.442 589.071 497.368 632.401 459.47 700.55C378.66 840.441 438.954 1046.06 516.337 1159.17C555.071 1214.53 600.323 1276.37 659.572 1274.2C717.526 1271.77 739.17 1237.22 809.115 1237.22C878.435 1237.22 898.741 1274.2 959.161 1272.82C1021.38 1271.77 1060.53 1217.16 1097.92 1161.26C1125.75 1121.81 1147.15 1078.19 1161.35 1032.06C1087.65 1000.89 1039.47 928.271 1039.39 848.255Z" fill="white"/>
<path d="M928.889 510.218C962.776 469.52 979.531 417.165 975.478 364.351C923.666 369.783 875.782 394.56 841.436 433.712C807.508 472.32 790.335 522.878 793.635 574.146C846.116 574.69 896.005 551.082 928.889 510.218Z" fill="white"/>
<path d="M1768.62 1134.01H1570.86L1523.35 1274.23H1439.58L1626.94 755.365H1713.97L1901.29 1274.23H1816.09L1768.62 1134.01ZM1591.34 1069.29H1748.11L1670.81 841.69H1668.68L1591.34 1069.29Z" fill="white"/>
<path d="M2305.19 1085.13C2305.19 1202.66 2242.26 1278.21 2147.29 1278.21C2098.32 1280.76 2051.94 1254.98 2028.29 1212.02H2026.49V1399.38H1948.82V895.929H2023.98V958.855H2025.4C2050.14 916.153 2096.52 890.414 2145.87 892.002C2241.89 892.002 2305.19 967.881 2305.19 1085.13ZM2225.38 1085.13C2225.38 1008.54 2185.77 958.187 2125.39 958.187C2066.06 958.187 2026.16 1009.58 2026.16 1085.13C2026.16 1161.34 2066.06 1212.4 2125.39 1212.4C2185.77 1212.4 2225.38 1162.38 2225.38 1085.13Z" fill="white"/>
<path d="M2726.29 1085.13C2726.29 1202.66 2663.36 1278.21 2568.39 1278.21C2519.42 1280.76 2473.04 1254.98 2449.39 1212.02H2447.59V1399.38H2369.92V895.929H2445.08V958.855H2446.51C2471.24 916.153 2517.62 890.414 2566.97 892.002C2662.99 892.002 2726.29 967.881 2726.29 1085.13ZM2646.44 1085.13C2646.44 1008.54 2606.87 958.187 2546.49 958.187C2487.16 958.187 2447.26 1009.58 2447.26 1085.13C2447.26 1161.34 2487.16 1212.4 2546.49 1212.4C2606.87 1212.4 2646.44 1162.38 2646.44 1085.13Z" fill="white"/>
<path d="M2997.8 1129.67C3003.57 1181.14 3053.54 1214.91 3121.86 1214.91C3187.33 1214.91 3234.42 1181.14 3234.42 1134.72C3234.42 1094.44 3206.01 1070.33 3138.78 1053.83L3071.51 1037.62C2976.24 1014.59 2931.99 970.053 2931.99 897.726C2931.99 808.225 3010 746.72 3120.81 746.72C3230.45 746.72 3305.62 808.225 3308.13 897.726H3229.74C3225.06 845.956 3182.28 814.702 3119.68 814.702C3057.13 814.702 3014.35 846.332 3014.35 892.336C3014.35 929.022 3041.67 950.624 3108.57 967.128L3165.73 981.168C3272.19 1006.36 3316.4 1049.11 3316.4 1125.03C3316.4 1222.09 3239.1 1282.89 3116.13 1282.89C3001.06 1282.89 2923.34 1223.51 2918.33 1129.67H2997.8Z" fill="white"/>
<path d="M3482.22 806.434V895.935H3554.17V957.44H3482.22V1165.98C3482.22 1198.41 3496.63 1213.49 3528.26 1213.49C3536.79 1213.32 3545.31 1212.74 3553.79 1211.69V1272.82C3539.59 1275.46 3525.13 1276.67 3510.67 1276.42C3434.08 1276.42 3404.21 1247.63 3404.21 1174.26V957.44H3349.22V895.935H3404.21V806.434H3482.22Z" fill="white"/>
<path d="M3594.05 1085.12C3594.05 966.076 3664.16 891.283 3773.47 891.283C3883.15 891.283 3952.93 966.076 3952.93 1085.12C3952.93 1204.45 3883.52 1278.91 3773.47 1278.91C3663.45 1278.91 3594.05 1204.45 3594.05 1085.12ZM3873.79 1085.12C3873.79 1003.47 3836.39 955.254 3773.47 955.254C3710.54 955.254 3673.19 1003.81 3673.19 1085.12C3673.19 1167.1 3710.54 1214.9 3773.47 1214.9C3836.39 1214.9 3873.79 1167.1 3873.79 1085.12Z" fill="white"/>
<path d="M4024.89 895.926H4098.97V960.314H4100.77C4111.04 919.032 4149.19 890.368 4191.73 891.998C4200.67 891.956 4209.61 892.917 4218.34 894.881V967.501C4207.06 964.075 4195.28 962.487 4183.46 962.821C4182.41 962.779 4181.32 962.738 4180.28 962.738C4137.37 962.738 4102.02 998.087 4102.02 1041C4102.02 1043.97 4102.19 1046.93 4102.52 1049.86V1274.23H4024.89V895.926Z" fill="white"/>
<path d="M4571.84 1163.13C4561.4 1231.78 4494.54 1278.91 4408.97 1278.91C4298.91 1278.91 4230.6 1205.2 4230.6 1086.91C4230.6 968.249 4299.29 891.283 4405.71 891.283C4510.38 891.283 4576.19 963.193 4576.19 1077.89V1104.51H4308.98V1109.18C4308.73 1112.07 4308.61 1114.95 4308.61 1117.88C4308.61 1171.9 4353.11 1216.4 4407.13 1216.4C4408.34 1216.4 4409.56 1216.36 4410.77 1216.32C4448.33 1219.87 4484.01 1198.14 4498.14 1163.13H4571.84ZM4309.36 1050.23H4498.47C4498.6 1048.51 4498.64 1046.84 4498.64 1045.17C4498.64 995.241 4457.56 954.167 4407.68 954.167C4407.01 954.167 4406.34 954.209 4405.71 954.209C4405.5 954.209 4405.34 954.209 4405.13 954.209C4352.6 954.209 4309.36 997.455 4309.36 1049.98C4309.36 1050.06 4309.36 1050.14 4309.36 1050.23Z" fill="white"/>
<path d="M1578.59 364.815C1581.22 364.607 1583.85 364.523 1586.48 364.523C1646.99 364.523 1696.79 414.329 1696.79 474.832C1696.79 479.47 1696.5 484.108 1695.92 488.704C1695.92 568.344 1652.88 614.139 1578.59 614.139H1488.54V364.815H1578.59ZM1527.28 578.873H1574.28C1575.83 578.957 1577.37 578.999 1578.96 578.999C1621.96 578.999 1657.31 543.65 1657.31 500.612C1657.31 496.81 1657.06 493.008 1656.47 489.206C1656.97 485.654 1657.22 482.102 1657.22 478.509C1657.22 435.388 1621.75 399.914 1578.63 399.914C1577.17 399.914 1575.7 399.956 1574.28 400.039H1527.28V578.873Z" fill="white"/>
<path d="M1743.58 519.951C1743.29 517.151 1743.16 514.31 1743.16 511.469C1743.16 462.582 1783.4 422.344 1832.29 422.344C1881.17 422.344 1921.41 462.582 1921.41 511.469C1921.41 514.31 1921.28 517.151 1921.03 519.951C1921.28 522.834 1921.45 525.717 1921.45 528.6C1921.45 577.529 1881.21 617.766 1832.29 617.766C1783.4 617.766 1743.16 577.529 1743.16 528.6C1743.16 525.717 1743.29 522.834 1743.58 519.951ZM1882.84 519.951C1882.84 479.17 1864.5 455.312 1832.37 455.312C1800.07 455.312 1781.94 479.17 1781.94 519.951C1781.94 561.066 1800.07 584.757 1832.37 584.757C1864.5 584.757 1882.84 560.899 1882.84 519.951Z" fill="white"/>
<path d="M2148.11 614.13H2109.59L2070.73 475.534H2067.76L2029.07 614.13H1990.92L1939.02 425.978H1976.71L2010.39 569.547H2013.19L2051.88 425.978H2087.48L2126.17 569.547H2129.1L2162.65 425.978H2199.8L2148.11 614.13Z" fill="white"/>
<path d="M2252.4 425.994H2288.12V455.869H2290.88C2300.53 433.933 2323.14 420.395 2347.04 422.359C2348.58 422.233 2350.09 422.192 2351.63 422.192C2385.19 422.192 2412.85 449.811 2412.85 483.363C2412.85 486.371 2412.6 489.38 2412.18 492.347V614.146H2375.03V501.664C2375.03 471.413 2361.91 456.371 2334.42 456.371C2333.75 456.371 2333.08 456.329 2332.41 456.329C2308.76 456.329 2289.25 475.842 2289.25 499.492C2289.25 501.038 2289.34 502.542 2289.5 504.046V614.146H2252.4V425.994Z" fill="white"/>
<path d="M2504.99 352.531H2467.85V614.138H2504.99V352.531Z" fill="white"/>
<path d="M2556.4 519.951C2556.11 517.151 2555.98 514.31 2555.98 511.469C2555.98 462.582 2596.22 422.344 2645.15 422.344C2694.04 422.344 2734.28 462.582 2734.28 511.469C2734.28 514.31 2734.15 517.151 2733.86 519.951C2734.15 522.834 2734.28 525.717 2734.28 528.6C2734.28 577.487 2694.04 617.766 2645.15 617.766C2596.22 617.766 2555.98 577.487 2555.98 528.6C2555.98 525.717 2556.11 522.834 2556.4 519.951ZM2695.67 519.951C2695.67 479.17 2677.32 455.312 2645.19 455.312C2612.89 455.312 2594.76 479.17 2594.76 519.951C2594.76 561.066 2612.89 584.757 2645.19 584.757C2677.32 584.757 2695.67 560.899 2695.67 519.951Z" fill="white"/>
<path d="M2771.43 560.899C2771.43 527.054 2796.63 507.499 2841.42 504.742L2892.35 501.817V485.563C2892.35 465.716 2879.23 454.476 2853.87 454.476C2833.1 454.476 2818.77 462.08 2814.64 475.368H2778.7C2782.5 443.069 2812.88 422.344 2855.58 422.344C2902.72 422.344 2929.33 445.827 2929.33 485.563V614.131H2893.61V587.682H2890.64C2878.52 606.944 2856.88 618.268 2834.15 617.223C2832.19 617.432 2830.22 617.516 2828.26 617.516C2797.17 617.516 2771.56 592.028 2771.43 560.899ZM2892.35 544.854V529.101L2846.43 532.026C2820.53 533.781 2808.74 542.598 2808.74 559.186C2808.74 576.108 2823.45 585.969 2843.63 585.969C2845.14 586.136 2846.64 586.178 2848.1 586.178C2871.34 586.178 2890.81 568.002 2892.35 544.854Z" fill="white"/>
<path d="M2977.09 519.958C2977.09 460.499 3007.67 422.852 3055.18 422.852C3079.16 421.766 3101.68 434.635 3112.88 455.861H3115.68V352.531H3152.79V614.138H3117.23V584.388H3114.26C3102.23 605.447 3079.41 618.107 3055.18 617.23C3007.34 617.23 2977.09 579.583 2977.09 519.958ZM3015.44 519.958C3015.44 559.861 3034.25 583.887 3065.71 583.887C3097 583.887 3116.35 559.527 3116.35 520.125C3116.35 480.932 3096.8 456.196 3065.71 456.196C3034.45 456.196 3015.44 480.389 3015.44 519.958Z" fill="white"/>
<path d="M3310.47 519.951C3310.22 517.151 3310.05 514.31 3310.05 511.469C3310.05 462.582 3350.29 422.344 3399.22 422.344C3448.1 422.344 3488.34 462.582 3488.34 511.469C3488.34 514.31 3488.21 517.151 3487.92 519.951C3488.21 522.834 3488.34 525.717 3488.34 528.6C3488.34 577.529 3448.1 617.766 3399.22 617.766C3350.29 617.766 3310.05 577.529 3310.05 528.6C3310.05 525.717 3310.17 522.834 3310.47 519.951ZM3449.73 519.951C3449.73 479.17 3431.43 455.312 3399.26 455.312C3367 455.312 3348.82 479.17 3348.82 519.951C3348.82 561.066 3367 584.757 3399.26 584.757C3431.43 584.757 3449.73 560.899 3449.73 519.951Z" fill="white"/>
<path d="M3535.29 425.994H3571.06V455.869H3573.81C3583.47 433.933 3606.07 420.395 3629.97 422.359C3631.52 422.233 3633.02 422.192 3634.57 422.192C3668.12 422.192 3695.74 449.811 3695.74 483.363C3695.74 486.371 3695.53 489.38 3695.11 492.347V614.146H3657.97V501.664C3657.97 471.413 3644.85 456.371 3617.35 456.371C3616.68 456.371 3616.02 456.329 3615.35 456.329C3591.7 456.329 3572.18 475.842 3572.18 499.492C3572.18 501.038 3572.27 502.542 3572.43 504.046V614.146H3535.29V425.994Z" fill="white"/>
<path d="M3905.89 379.156V426.831H3946.67V458.127H3905.89V554.856C3905.89 574.578 3914 583.227 3932.51 583.227C3937.23 583.185 3941.95 582.893 3946.67 582.35V613.27C3939.99 614.481 3933.22 615.108 3926.45 615.192C3885.17 615.192 3868.75 600.651 3868.75 564.383V458.127H3838.87V426.831H3868.75V379.156H3905.89Z" fill="white"/>
<path d="M3995.56 352.531H4032.33V456.196H4035.3C4045.37 434.05 4068.39 420.554 4092.67 422.518C4093.8 422.435 4094.88 422.435 4096.01 422.435C4130.02 422.435 4158.02 450.388 4158.02 484.4C4158.02 487.157 4157.81 489.915 4157.47 492.673V614.138H4120.29V501.824C4120.29 471.781 4106.29 456.53 4080.05 456.53C4078.88 456.446 4077.67 456.405 4076.46 456.405C4052.35 456.405 4032.5 476.252 4032.5 500.361C4032.5 501.656 4032.58 502.952 4032.67 504.247V614.138H3995.56V352.531Z" fill="white"/>
<path d="M4380.23 563.323C4369.87 598.672 4335.36 621.736 4298.71 617.767C4297.96 617.767 4297.21 617.767 4296.46 617.767C4249.57 617.767 4211.01 579.2 4211.01 532.319C4211.01 528.433 4211.26 524.505 4211.8 520.62C4211.3 516.817 4211.05 512.973 4211.05 509.129C4211.05 461.496 4250.2 422.344 4297.79 422.344C4298.04 422.344 4298.29 422.344 4298.54 422.344C4350.9 422.344 4382.49 458.111 4382.49 517.193V530.146H4249.62V532.235C4249.49 533.614 4249.45 534.993 4249.45 536.414C4249.45 563.699 4271.89 586.136 4299.17 586.136C4299.38 586.136 4299.55 586.136 4299.71 586.136C4317.85 588.309 4335.61 579.284 4344.51 563.323H4380.23ZM4249.62 502.694H4344.67C4344.76 501.566 4344.8 500.438 4344.8 499.31C4344.8 474.407 4324.28 453.933 4299.38 453.933C4299.05 453.933 4298.71 453.933 4298.34 453.933C4298.13 453.933 4297.96 453.933 4297.75 453.933C4271.34 453.933 4249.62 475.66 4249.62 502.068C4249.62 502.277 4249.62 502.485 4249.62 502.694Z" fill="white"/>
</svg>
