<svg width="5000" height="1482" viewBox="0 0 5000 1482" fill="none" xmlns="http://www.w3.org/2000/svg">
<path d="M4814.81 1481.48H185.185C83.3333 1481.48 0 1398.15 0 1296.3V185.185C0 83.3333 83.3333 0 185.185 0H4814.81C4916.67 0 5000 83.3333 5000 185.185V1296.3C5000 1398.15 4916.67 1481.48 4814.81 1481.48Z" fill="black"/>
<path d="M4814.81 0H185.185C83.3333 0 0 83.3333 0 185.148V1296.3C0 1398.11 83.3333 1481.48 185.185 1481.48H4814.81C4916.67 1481.48 5000 1398.11 5000 1296.3V185.148C5000 83.3333 4916.67 0 4814.81 0ZM4814.81 29.5926C4900.59 29.5926 4970.37 99.4074 4970.37 185.148V1296.3C4970.37 1382.04 4900.59 1451.85 4814.81 1451.85H185.185C99.4074 1451.85 29.6296 1382.04 29.6296 1296.3V185.148C29.6296 99.4074 99.4074 29.5926 185.185 29.5926H4814.81Z" fill="#A6A6A6"/>
<path d="M1749.55 380.193C1749.55 411.23 1740.37 435.933 1721.96 454.378C1701.03 476.267 1673.81 487.23 1640.33 487.23C1608.26 487.23 1580.96 476.118 1558.55 453.896C1536.07 431.637 1524.89 404.081 1524.89 371.156C1524.89 338.267 1536.07 310.711 1558.55 288.452C1580.96 266.193 1608.26 255.082 1640.33 255.082C1656.22 255.082 1671.48 258.193 1685.92 264.415C1700.4 270.637 1712 278.896 1720.7 289.23L1701.14 308.785C1686.44 291.193 1666.18 282.415 1640.33 282.415C1616.92 282.415 1596.7 290.637 1579.63 307.082C1562.55 323.526 1554.03 344.896 1554.03 371.156C1554.03 397.452 1562.55 418.822 1579.63 435.267C1596.7 451.711 1616.92 459.933 1640.33 459.933C1665.14 459.933 1685.81 451.674 1702.4 435.118C1713.14 424.341 1719.37 409.341 1721 390.118H1640.33V363.415H1748C1749.03 369.23 1749.55 374.785 1749.55 380.193Z" fill="white"/>
<path d="M1753.26 381.093H1749.55C1749.51 411.427 1740.66 434.945 1723.03 452.649L1723 452.686V452.723C1702.74 473.871 1676.74 484.39 1644.03 484.427C1612.81 484.39 1586.66 473.76 1564.85 452.167C1543.07 430.538 1532.33 404.13 1532.29 372.056C1532.33 339.982 1543.07 313.612 1564.85 291.982C1586.66 270.389 1612.81 259.723 1644.03 259.686C1659.44 259.686 1674.14 262.686 1688.18 268.723C1702.22 274.76 1713.29 282.686 1721.55 292.501L1724.4 290.13L1721.77 287.501L1702.26 307.056L1704.85 309.686L1707.7 307.315C1692.29 288.834 1670.7 279.538 1644.03 279.612C1619.74 279.575 1598.4 288.241 1580.77 305.315C1562.92 322.464 1554 345.019 1554.03 372.056C1554 399.13 1562.92 421.686 1580.77 438.834C1598.4 455.908 1619.74 464.575 1644.03 464.538C1669.66 464.575 1691.51 455.871 1708.7 438.649C1720.18 427.13 1726.7 411.167 1728.4 391.316L1728.77 387.316H1647.74V368.019H1751.7V364.315L1748.07 364.982C1749.07 370.575 1749.55 375.908 1749.55 381.093H1756.96C1756.96 375.464 1756.44 369.649 1755.33 363.649L1754.81 360.612H1640.33V394.723H1724.7V391.019L1721.03 390.686C1719.4 409.316 1713.48 423.353 1703.48 433.39C1687.55 449.241 1668.03 457.093 1644.03 457.13C1621.48 457.093 1602.4 449.353 1585.92 433.501C1569.59 417.723 1561.48 397.575 1561.44 372.056C1561.48 346.575 1569.59 326.427 1585.92 310.649C1602.4 294.797 1621.48 287.056 1644.03 287.019C1669.07 287.056 1687.96 295.352 1702.03 312.056L1704.63 315.167L1727 292.76L1729.4 290.353L1727.22 287.76C1718.11 276.908 1706 268.315 1691.11 261.908C1676.18 255.501 1660.4 252.278 1644.03 252.278C1611.07 252.241 1582.66 263.834 1559.63 286.723C1536.51 309.575 1524.85 338.315 1524.88 372.056C1524.85 405.797 1536.51 434.538 1559.63 457.427C1582.66 480.316 1611.11 491.871 1644.03 491.834C1678.29 491.871 1706.77 480.501 1728.33 457.834L1725.66 455.279L1728.29 457.871C1747.48 438.723 1757 412.797 1756.96 381.093H1753.26Z" fill="white"/>
<path d="M1923.72 288.021H1822.54V358.465H1913.8V385.169H1822.54V455.613H1923.72V482.91H1793.98V260.688H1923.72V288.021Z" fill="white"/>
<path d="M1905 286.119V282.415H1800.12V360.267H1891.37V379.563H1800.12V457.415H1901.3V477.304H1778.97V262.489H1901.3V286.119H1905V282.415V286.119H1908.71V258.785V255.082H1771.56V484.711H1908.71V453.711V450.007H1807.52V386.97H1898.78V356.563V352.859H1807.52V289.822H1908.71V286.119H1905Z" fill="white"/>
<path d="M2041.59 482.91H2013.03V288.021H1950.96V260.688H2103.66V288.021H2041.59V482.91Z" fill="white"/>
<path d="M2045.29 481.007V477.304H2020.44V282.415H1958.36V262.489H2103.66V282.415H2041.58V481.007H2045.29V477.304V481.007H2048.99V289.822H2111.07V258.785V255.082H1950.96V289.822H2013.03V484.711H2048.99V481.007H2045.29Z" fill="white"/>
<path d="M2248.57 260.688H2220.05V482.91H2248.57V260.688Z" fill="white"/>
<path d="M2201.33 481.007H2205.04V262.489H2226.15V477.304H2201.33V481.007H2205.04H2201.33V484.711H2233.56V255.082H2201.33H2197.63V484.711H2201.33V481.007Z" fill="white"/>
<path d="M2355.53 482.91H2326.94V288.021H2264.9V260.688H2417.61V288.021H2355.53V482.91Z" fill="white"/>
<path d="M2359.24 481.007V477.304H2334.35V282.415H2272.31V262.489H2417.61V282.415H2355.53V481.007H2359.24V477.304V481.007H2362.94V289.822H2425.01V258.785V255.082H2264.9V289.822H2326.94V484.711H2362.94V481.007H2359.24Z" fill="white"/>
<path d="M2565.39 434.97C2581.84 451.6 2601.95 459.933 2625.76 459.933C2649.54 459.933 2669.69 451.6 2686.13 434.97C2702.58 418.304 2710.84 397.044 2710.84 371.156C2710.84 345.304 2702.58 324.044 2686.13 307.378C2669.69 290.748 2649.54 282.415 2625.76 282.415C2601.95 282.415 2581.84 290.748 2565.39 307.378C2548.95 324.044 2540.73 345.304 2540.73 371.156C2540.73 397.044 2548.95 418.304 2565.39 434.97ZM2707.24 453.563C2685.39 476.044 2658.24 487.23 2625.76 487.23C2593.28 487.23 2566.1 476.044 2544.32 453.563C2522.47 431.119 2511.58 403.637 2511.58 371.156C2511.58 338.674 2522.47 311.23 2544.32 288.785C2566.1 266.304 2593.28 255.082 2625.76 255.082C2658.06 255.082 2685.13 266.378 2707.1 288.933C2729.02 311.489 2739.98 338.896 2739.98 371.156C2739.98 403.637 2729.06 431.119 2707.24 453.563Z" fill="white"/>
<path d="M2569.09 435.871L2566.47 438.464C2583.5 455.797 2604.8 464.575 2629.47 464.538C2654.13 464.575 2675.43 455.797 2692.47 438.464C2709.61 421.13 2718.28 398.723 2718.24 372.056C2718.28 345.427 2709.61 323.019 2692.47 305.686C2675.43 288.352 2654.13 279.575 2629.47 279.612C2604.8 279.575 2583.5 288.352 2566.47 305.686C2549.32 323.019 2540.69 345.427 2540.72 372.056C2540.69 398.723 2549.32 421.13 2566.47 438.464L2569.09 435.871L2571.72 433.241C2556.02 417.279 2548.17 397.167 2548.13 372.056C2548.17 346.982 2556.02 326.871 2571.72 310.871V310.908C2587.58 294.908 2606.5 287.056 2629.47 287.019C2652.39 287.056 2671.35 294.908 2687.17 310.871V310.908C2702.95 326.871 2710.8 346.982 2710.84 372.056C2710.8 397.167 2702.95 417.279 2687.17 433.241C2671.35 449.241 2652.39 457.093 2629.47 457.13C2606.5 457.093 2587.58 449.241 2571.72 433.241L2569.09 435.871ZM2710.95 454.464L2708.28 451.871C2687.06 473.649 2661.1 484.39 2629.47 484.427C2597.84 484.39 2571.84 473.649 2550.65 451.871L2550.54 451.797L2550.65 451.871C2529.47 430.056 2519.02 403.723 2518.98 372.056C2519.02 340.427 2529.47 314.093 2550.65 292.278C2571.84 270.501 2597.84 259.723 2629.47 259.686C2660.91 259.723 2686.8 270.538 2708.13 292.427C2729.43 314.353 2739.95 340.612 2739.98 372.056C2739.95 403.723 2729.43 430.056 2708.28 451.871L2713.61 457.056C2736.06 433.982 2747.43 405.39 2747.39 372.056C2747.43 338.945 2736.02 310.427 2713.47 287.241C2690.87 264.019 2662.61 252.241 2629.47 252.278C2596.13 252.241 2567.76 263.945 2545.35 287.093C2522.84 310.167 2511.54 338.76 2511.58 372.056C2511.54 405.39 2522.84 433.982 2545.35 457.056L2545.47 457.167L2545.35 457.056C2567.76 480.204 2596.13 491.871 2629.47 491.834C2662.8 491.871 2691.13 480.204 2713.61 457.056L2710.95 454.464Z" fill="white"/>
<path d="M2780.67 482.91V260.688H2815.41L2923.41 433.576H2924.64L2923.41 390.762V260.688H2952.01V482.91H2922.19L2809.19 301.688H2807.97L2809.19 344.502V482.91H2780.67Z" fill="white"/>
<path d="M2784.38 481.007H2788.08V262.489H2817.08L2925.08 435.378H2932.15L2930.82 388.785V262.489H2952.01V477.304H2927.97L2814.97 296.082H2811.67H2807.86L2809.19 342.674V477.304H2784.38V481.007H2788.08H2784.38V484.711H2816.6V342.563L2815.38 299.674L2811.67 299.785V303.489H2812.89V299.785L2809.75 301.748L2923.86 484.711H2959.41V255.082H2927.12H2923.41V388.896L2924.63 431.785L2928.34 431.674V427.97H2927.12V431.674L2930.26 429.711L2821.19 255.082H2784.38H2780.67V484.711H2784.38V481.007Z" fill="white"/>
<path d="M3943.02 1110.44H4012.13V647.4H3943.02V1110.44ZM4565.5 814.178L4486.28 1014.92H4483.91L4401.69 814.178H4327.24L4450.54 1094.77L4380.24 1250.81H4452.35L4642.35 814.178H4565.5ZM4173.57 1057.81C4150.91 1057.81 4119.35 1046.51 4119.35 1018.51C4119.35 982.771 4158.68 969.067 4192.61 969.067C4223.02 969.067 4237.28 975.623 4255.76 984.549C4250.39 1027.44 4213.46 1057.81 4173.57 1057.81ZM4181.91 804.067C4131.87 804.067 4080.06 826.104 4058.61 874.956L4119.94 900.586C4133.06 874.956 4157.46 866.623 4183.09 866.623C4218.83 866.623 4255.17 888.067 4255.76 926.178V930.956C4243.24 923.808 4216.46 913.067 4183.68 913.067C4117.57 913.067 4050.24 949.401 4050.24 1017.33C4050.24 1079.25 4104.46 1119.18 4165.2 1119.18C4211.68 1119.18 4237.28 1098.33 4253.39 1073.92H4255.76V1109.66H4322.46V932.141C4322.46 849.919 4261.13 804.067 4181.91 804.067ZM3754.8 870.549H3656.5V711.845H3754.8C3806.46 711.845 3835.8 754.623 3835.8 791.215C3835.8 827.104 3806.46 870.549 3754.8 870.549ZM3753.02 647.4H3587.43V1110.44H3656.5V934.993H3753.02C3829.61 934.993 3904.91 879.549 3904.91 791.215C3904.91 702.845 3829.61 647.4 3753.02 647.4ZM2849.98 1057.92C2802.28 1057.92 2762.28 1017.92 2762.28 963.03C2762.28 907.549 2802.28 866.993 2849.98 866.993C2897.13 866.993 2934.13 907.549 2934.13 963.03C2934.13 1017.92 2897.13 1057.92 2849.98 1057.92ZM2929.35 840.141H2926.98C2911.46 821.623 2881.61 804.919 2844.02 804.919C2765.28 804.919 2693.06 874.141 2693.06 963.03C2693.06 1051.36 2765.28 1119.96 2844.02 1119.96C2881.61 1119.96 2911.46 1103.25 2926.98 1084.18H2929.35V1106.85C2929.35 1167.1 2897.13 1199.33 2845.2 1199.33C2802.87 1199.33 2776.61 1168.88 2765.87 1143.25L2705.61 1168.29C2722.91 1210.07 2768.83 1261.4 2845.2 1261.4C2926.39 1261.4 2994.98 1213.66 2994.98 1097.29V814.475H2929.35V840.141ZM3042.72 1110.44H3111.94V647.4H3042.72V1110.44ZM3213.98 957.66C3212.17 896.808 3261.13 865.771 3296.31 865.771C3323.8 865.771 3347.06 879.512 3354.8 899.215L3213.98 957.66ZM3428.8 905.178C3415.68 869.956 3375.69 804.919 3293.94 804.919C3212.8 804.919 3145.35 868.771 3145.35 962.438C3145.35 1050.77 3212.17 1119.96 3301.69 1119.96C3373.91 1119.96 3415.68 1075.81 3432.98 1050.14L3379.28 1014.36C3361.39 1040.62 3336.91 1057.92 3301.69 1057.92C3266.46 1057.92 3241.43 1041.81 3225.31 1010.18L3435.94 923.067L3428.8 905.178ZM1750.69 853.252V920.067H1910.61C1905.83 957.66 1893.31 985.104 1874.2 1004.22C1850.94 1027.47 1814.54 1053.14 1750.69 1053.14C1652.24 1053.14 1575.28 973.771 1575.28 875.327C1575.28 776.882 1652.24 697.512 1750.69 697.512C1803.8 697.512 1842.57 718.401 1871.24 745.252L1918.35 698.104C1878.39 659.919 1825.28 630.697 1750.69 630.697C1615.83 630.697 1502.46 740.475 1502.46 875.327C1502.46 1010.18 1615.83 1119.96 1750.69 1119.96C1823.5 1119.96 1878.39 1096.1 1921.35 1051.36C1965.5 1007.18 1979.24 945.141 1979.24 895.03C1979.24 879.512 1978.02 865.178 1975.65 853.252H1750.69ZM2161.02 1057.92C2113.28 1057.92 2072.13 1018.55 2072.13 962.438C2072.13 905.771 2113.28 866.993 2161.02 866.993C2208.76 866.993 2249.91 905.771 2249.91 962.438C2249.91 1018.55 2208.76 1057.92 2161.02 1057.92ZM2161.02 804.919C2073.91 804.919 2002.91 871.141 2002.91 962.438C2002.91 1053.14 2073.91 1119.96 2161.02 1119.96C2248.13 1119.96 2319.13 1053.14 2319.13 962.438C2319.13 871.141 2248.13 804.919 2161.02 804.919ZM2505.94 1057.92C2458.24 1057.92 2417.06 1018.55 2417.06 962.438C2417.06 905.771 2458.24 866.993 2505.94 866.993C2553.69 866.993 2594.87 905.771 2594.87 962.438C2594.87 1018.55 2553.69 1057.92 2505.94 1057.92ZM2505.94 804.919C2418.83 804.919 2347.83 871.141 2347.83 962.438C2347.83 1053.14 2418.83 1119.96 2505.94 1119.96C2593.09 1119.96 2664.09 1053.14 2664.09 962.438C2664.09 871.141 2593.09 804.919 2505.94 804.919Z" fill="white"/>
<path fill-rule="evenodd" clip-rule="evenodd" d="M378.687 1200.82L375.946 1198.19C365.168 1186.78 358.798 1169.08 358.798 1146.15V1151.52V332.409C358.798 332.372 358.798 332.298 358.798 332.224V337.854C358.798 313.039 366.242 294.298 378.65 283.113L837.539 741.965L378.687 1200.82ZM358.798 332.187C358.798 330.15 358.872 328.15 358.946 326.224C358.872 328.15 358.798 330.15 358.798 332.187ZM358.983 326.113C358.983 326.113 358.983 326.076 358.983 326.039C358.983 326.076 358.983 326.113 358.983 326.113ZM358.983 325.854V325.816V325.854Z" fill="url(#paint0_linear)"/>
<path fill-rule="evenodd" clip-rule="evenodd" d="M982.646 900.058L986.127 898.058L1167.35 795.095C1184.65 785.28 1196.16 773.391 1201.9 760.762C1196.16 773.391 1184.65 785.28 1167.35 795.132L986.127 898.095L982.646 900.058ZM982.683 894.614L829.72 741.614L982.683 588.65L1167.35 693.576C1190.83 706.873 1203.98 724.058 1206.16 741.614C1206.16 741.614 1206.16 741.651 1206.16 741.688C1203.98 759.169 1190.83 776.354 1167.35 789.688L982.683 894.614Z" fill="url(#paint1_linear)"/>
<path fill-rule="evenodd" clip-rule="evenodd" d="M416.445 1216.35C403.63 1216.35 392.482 1212.17 383.741 1204.31V1204.28C392.482 1212.17 403.667 1216.35 416.482 1216.35C417.593 1216.35 418.741 1216.31 419.889 1216.24C418.741 1216.31 417.593 1216.35 416.445 1216.35ZM416.482 1210.91C403.667 1210.94 392.482 1206.76 383.741 1198.87L842.593 740.018L995.556 893.018L457.963 1198.5C443.112 1206.94 429 1210.91 416.482 1210.91ZM383.63 1204.2C382.815 1203.46 382 1202.68 381.223 1201.87L383.63 1204.2Z" fill="url(#paint2_linear)"/>
<path fill-rule="evenodd" clip-rule="evenodd" d="M840.111 739.787L381.223 280.936C389.963 273.084 401.112 268.899 413.926 268.899C426.482 268.899 440.593 272.899 455.482 281.38L993.074 586.824L840.111 739.787ZM996.519 583.38L455.482 275.973C440.593 267.491 426.482 263.491 413.926 263.491C413.889 263.491 413.815 263.491 413.778 263.491C413.815 263.491 413.889 263.491 413.963 263.491C426.519 263.491 440.593 267.491 455.482 275.936L996.519 583.343V583.38Z" fill="url(#paint3_linear)"/>
<path d="M420.112 1217.57C431.741 1216.9 444.63 1212.9 458.186 1205.24L995.741 899.794L458.186 1205.24C444.63 1212.94 431.741 1216.94 420.112 1217.57ZM383.963 1205.65L383.852 1205.53C383.889 1205.57 383.926 1205.61 383.963 1205.65ZM381.445 1203.2L381.223 1202.98C381.297 1203.05 381.371 1203.13 381.445 1203.2Z" fill="black"/>
<path fill-rule="evenodd" clip-rule="evenodd" d="M986.691 898.991L990.173 896.991L986.691 898.991Z" fill="url(#paint4_linear)"/>
<path fill-rule="evenodd" clip-rule="evenodd" d="M416.704 1217.52C403.889 1217.52 392.704 1213.34 383.963 1205.45V1205.48C383.926 1205.45 383.889 1205.41 383.852 1205.37L381.445 1203.04C381.371 1202.97 381.297 1202.89 381.223 1202.82L383.963 1200.04C392.704 1207.93 403.889 1212.11 416.704 1212.08C429.223 1212.08 443.334 1208.11 458.186 1199.67L995.778 894.188L999.223 897.632L995.741 899.632L458.186 1205.08C444.63 1212.74 431.741 1216.74 420.112 1217.41C418.963 1217.48 417.815 1217.52 416.704 1217.52Z" fill="url(#paint5_linear)"/>
<path d="M375.946 1204.15C365.168 1192.74 358.798 1175.04 358.798 1152.11V1152.07C358.798 1175.04 365.168 1192.74 375.946 1204.11V1204.15Z" fill="black"/>
<path fill-rule="evenodd" clip-rule="evenodd" d="M375.946 1203.87C365.168 1192.5 358.798 1174.8 358.798 1151.84V1146.47C358.798 1169.39 365.168 1187.1 375.946 1198.5L378.687 1201.13L375.946 1203.87Z" fill="url(#paint6_linear)"/>
<path fill-rule="evenodd" clip-rule="evenodd" d="M381.223 1202.5V1202.47L383.963 1199.73L381.223 1202.5Z" fill="url(#paint7_linear)"/>
<path d="M1210.94 759.129C1213.79 752.907 1215.2 746.462 1215.2 740.055C1215.2 740.018 1215.24 740.018 1215.24 740.018C1215.24 746.462 1213.79 752.869 1210.94 759.129Z" fill="black"/>
<path fill-rule="evenodd" clip-rule="evenodd" d="M990.136 896.388L986.691 892.943L1171.36 788.017C1194.84 774.684 1207.99 757.499 1210.17 740.018C1210.17 746.425 1208.77 752.869 1205.91 759.092C1200.17 771.721 1188.65 783.61 1171.36 793.425L990.136 896.388Z" fill="url(#paint8_linear)"/>
<path d="M1206.77 742.291H1206.73C1206.73 722.921 1193.8 703.55 1167.92 688.847L986.693 585.884V585.847L1167.92 688.847C1193.8 703.55 1206.77 722.921 1206.77 742.291Z" fill="#404040"/>
<path fill-rule="evenodd" clip-rule="evenodd" d="M1210.17 742.254C1207.99 724.699 1194.84 707.513 1171.36 694.217L986.691 589.291L990.136 585.847L1171.36 688.81C1197.25 703.513 1210.17 722.884 1210.17 742.254Z" fill="url(#paint9_linear)"/>
<path d="M358.798 330.047V330.01V330.047ZM358.946 324.047C358.983 324.01 358.983 323.973 358.983 323.936C358.983 323.973 358.983 324.01 358.946 324.047ZM358.983 323.862C358.983 323.825 358.983 323.75 358.983 323.676C358.983 323.75 358.983 323.825 358.983 323.862ZM358.983 323.639C361.131 285.602 381.798 263.639 411.057 263.491C398.39 263.565 387.353 267.713 378.687 275.528L378.576 275.639C377.687 276.454 376.798 277.306 375.946 278.195C366.242 288.491 360.094 303.899 358.983 323.639Z" fill="#404040"/>
<path fill-rule="evenodd" clip-rule="evenodd" d="M358.798 337.655V332.247C358.798 332.173 358.798 332.099 358.798 332.025V331.988C358.798 329.951 358.872 327.951 358.946 326.025C358.983 325.988 358.983 325.951 358.983 325.914C358.983 325.914 358.983 325.877 358.983 325.84C358.983 325.803 358.983 325.729 358.983 325.655V325.617C360.094 305.877 366.242 290.469 375.946 280.173L378.65 282.914C366.242 294.099 358.798 312.84 358.798 337.655ZM378.576 277.617L378.687 277.506C378.65 277.543 378.613 277.58 378.576 277.617Z" fill="url(#paint10_linear)"/>
<path fill-rule="evenodd" clip-rule="evenodd" d="M995.778 586.824L458.186 281.38C443.297 272.899 429.186 268.899 416.63 268.899C403.815 268.899 392.667 273.084 383.926 280.936L381.223 278.195C382.075 277.306 382.963 276.454 383.852 275.639C383.889 275.602 383.926 275.565 383.963 275.528C392.63 267.713 403.667 263.565 416.334 263.491H416.63C429.186 263.491 443.297 267.491 458.186 275.973L999.223 583.38L995.778 586.824Z" fill="url(#paint11_linear)"/>
<defs>
<linearGradient id="paint0_linear" x1="796.865" y1="323.768" x2="175.291" y2="-297.806" gradientUnits="userSpaceOnUse">
<stop stop-color="#00A0FF"/>
<stop offset="1" stop-color="#00E2FF"/>
</linearGradient>
<linearGradient id="paint1_linear" x1="1234.77" y1="741.628" x2="338.586" y2="741.628" gradientUnits="userSpaceOnUse">
<stop stop-color="#FFDF00"/>
<stop offset="1" stop-color="#FF9C00"/>
</linearGradient>
<linearGradient id="paint2_linear" x1="914.037" y1="825.021" x2="71.1375" y2="-17.8785" gradientUnits="userSpaceOnUse">
<stop stop-color="#FF3A44"/>
<stop offset="1" stop-color="#C31162"/>
</linearGradient>
<linearGradient id="paint3_linear" x1="262.308" y1="5.53572" x2="638.697" y2="-370.853" gradientUnits="userSpaceOnUse">
<stop stop-color="#31A070"/>
<stop offset="1" stop-color="#00EF75"/>
</linearGradient>
<linearGradient id="paint4_linear" x1="1238.81" y1="740.561" x2="342.659" y2="740.561" gradientUnits="userSpaceOnUse">
<stop stop-color="#CCB300"/>
<stop offset="1" stop-color="#CC7C00"/>
</linearGradient>
<linearGradient id="paint5_linear" x1="914.26" y1="826.191" x2="71.3595" y2="-16.7088" gradientUnits="userSpaceOnUse">
<stop stop-color="#CC2D36"/>
<stop offset="1" stop-color="#9C0E4D"/>
</linearGradient>
<linearGradient id="paint6_linear" x1="796.864" y1="324.085" x2="175.291" y2="-297.489" gradientUnits="userSpaceOnUse">
<stop stop-color="#008CDF"/>
<stop offset="1" stop-color="#00C6DF"/>
</linearGradient>
<linearGradient id="paint7_linear" x1="914.274" y1="825.854" x2="71.3213" y2="-17.0688" gradientUnits="userSpaceOnUse">
<stop stop-color="#DF333B"/>
<stop offset="1" stop-color="#AA0E56"/>
</linearGradient>
<linearGradient id="paint8_linear" x1="1238.78" y1="739.958" x2="342.595" y2="739.958" gradientUnits="userSpaceOnUse">
<stop stop-color="#DFC400"/>
<stop offset="1" stop-color="#DF8900"/>
</linearGradient>
<linearGradient id="paint9_linear" x1="1238.78" y1="742.269" x2="342.595" y2="742.269" gradientUnits="userSpaceOnUse">
<stop stop-color="#FFE83F"/>
<stop offset="1" stop-color="#FFB53F"/>
</linearGradient>
<linearGradient id="paint10_linear" x1="796.864" y1="323.569" x2="175.29" y2="-298.005" gradientUnits="userSpaceOnUse">
<stop stop-color="#3FB8FF"/>
<stop offset="1" stop-color="#3FE9FF"/>
</linearGradient>
<linearGradient id="paint11_linear" x1="265.012" y1="5.53575" x2="641.4" y2="-370.853" gradientUnits="userSpaceOnUse">
<stop stop-color="#64B895"/>
<stop offset="1" stop-color="#3FF497"/>
</linearGradient>
</defs>
</svg>
